<svg xmlns="http://www.w3.org/2000/svg" xmlns:xlink="http://www.w3.org/1999/xlink" width="118" height="3642" viewBox="0 0 118 3642"><svg width="54" height="36" viewBox="-10 -10 54 36" id="brick-and-stone" y="0"><path fill="#1D509F" d="M33.37 14.77h-.63v-4.308a.622.622 0 0 0-.629-.616h-4.407V5.538a.622.622 0 0 0-.63-.615h-4.407V.615a.622.622 0 0 0-.63-.615H11.963a.623.623 0 0 0-.63.615v4.308H6.926a.623.623 0 0 0-.63.615v4.308H1.89a.622.622 0 0 0-.63.616v4.307H.63a.622.622 0 0 0-.629.616c0 .34.282.615.63.615h32.74c.349 0 .63-.275.63-.615a.622.622 0 0 0-.63-.616zm-6.926-4.924H17.63V6.154h8.814v3.692zM12.593 1.231h8.814v3.692h-8.814V1.231zM7.556 6.154h8.814v3.692H7.556V6.154zm-5.037 4.923h8.814v3.692H2.52v-3.692zm10.074 0h8.814v3.692h-8.814v-3.692zm10.074 3.692v-3.692h8.814v3.692h-8.814z"></path></svg><svg width="64" height="41" viewBox="-10 -10 64 41" id="brick-and-stone-big" y="36"><path fill="#1D509F" d="M43.185 19.385h-.815V13.73a.81.81 0 0 0-.814-.808h-5.704V7.27a.811.811 0 0 0-.815-.807h-5.704V.808A.811.811 0 0 0 28.52 0H15.48a.812.812 0 0 0-.814.808v5.654H8.963a.812.812 0 0 0-.815.807v5.654H2.444a.811.811 0 0 0-.814.808v5.654H.815a.811.811 0 0 0-.815.807c0 .447.365.808.815.808h42.37a.81.81 0 0 0 .815-.808.81.81 0 0 0-.815-.807zm-8.963-6.462H22.815V8.077h11.407v4.846zM16.296 1.615h11.408v4.847H16.296V1.615zM9.778 8.077h11.407v4.846H9.778V8.077zm-6.519 6.461h11.408v4.847H3.259v-4.847zm13.037 0h11.408v4.847H16.296v-4.847zm13.037 4.847v-4.847h11.408v4.847H29.333z"></path></svg><svg width="54" height="36" viewBox="-10 -10 54 36" id="brick-and-stone-o" y="77"><title>brick-and-stone-icon</title><path d="M33.37 14.77h-.63v-4.308a.622.622 0 0 0-.629-.616h-4.407V5.538a.622.622 0 0 0-.63-.615h-4.407V.615a.622.622 0 0 0-.63-.615H11.963a.623.623 0 0 0-.63.615v4.308H6.926a.623.623 0 0 0-.63.615v4.308H1.89a.622.622 0 0 0-.63.616v4.307H.63a.622.622 0 0 0-.629.616c0 .34.282.615.63.615h32.74c.349 0 .63-.275.63-.615a.622.622 0 0 0-.63-.616zm-6.926-4.924H17.63V6.154h8.814v3.692zM12.593 1.231h8.814v3.692h-8.814V1.231zM7.556 6.154h8.814v3.692H7.556V6.154zm-5.037 4.923h8.814v3.692H2.52v-3.692zm10.074 0h8.814v3.692h-8.814v-3.692zm10.074 3.692v-3.692h8.814v3.692h-8.814z" fill="#FFF" fill-rule="nonzero"></path></svg><svg width="59" height="63" viewBox="-10 -10 59 63" id="call-center" y="113"><g fill="#2057AC"><path d="M28.554 30.1h-4.179a.687.687 0 0 0-.492.21L19.5 34.82l-4.383-4.51a.687.687 0 0 0-.492-.21h-4.179C4.394 30.1 0 34.654 0 40.928v1.355c0 .396.312.717.696.717.385 0 .697-.32.697-.717v-1.355c0-5.443 3.807-9.395 9.053-9.395h3.89l4.672 4.807c.272.28.712.28.984 0l4.671-4.807h3.89c5.247 0 9.054 3.952 9.054 9.395v1.355c0 .396.312.717.697.717.384 0 .696-.32.696-.717v-1.355C39 34.654 34.606 30.1 28.554 30.1zm3.342-20.232a10.01 10.01 0 0 0-2.847-5.356C26.602 1.724 23.149.093 19.5 0c-3.65.092-7.101 1.723-9.549 4.51-4.695 4.208-3.166 13.875-2.976 14.967.156.89.233 2.495-.993 3.245-.644.386-1.321.71-2.024.965a.721.721 0 0 0-.44.907.72.72 0 0 0 .168.28A7.272 7.272 0 0 0 8.92 27.31c.336.005.672-.029 1-.101a.719.719 0 0 0 .5-.873.695.695 0 0 0-.838-.517 5.107 5.107 0 0 1-4.092-1.225c.413-.192.816-.407 1.206-.645 1.422-.87 2.024-2.594 1.651-4.73-.64-3.667-.825-10.68 2.554-13.658a.704.704 0 0 0 .08-.084c.033-.041 3.357-4.044 8.52-4.044 5.163 0 8.487 4.003 8.52 4.044.024.03.051.058.08.084a8.582 8.582 0 0 1 2.441 4.636.7.7 0 0 0 .839.532.718.718 0 0 0 .516-.86zm3.417 13.995a.693.693 0 0 0-.27-.173 11.824 11.824 0 0 1-1.991-.944.686.686 0 0 0-.954.255.728.728 0 0 0 .248.982c.378.226.767.432 1.166.617a5.096 5.096 0 0 1-4.098 1.223.696.696 0 0 0-.843.524.718.718 0 0 0 .51.868v-.003c.328.072.664.106 1 .1a7.272 7.272 0 0 0 5.233-2.436.731.731 0 0 0 0-1.013z"></path><path d="M32.036 12.9h-2.744c-.014 0-.027-.01-.042-.01h-2.777v-2.857a.716.716 0 0 0-.705-.726.716.716 0 0 0-.706.726v2.858h-2.767v-2.858a.716.716 0 0 0-.706-.726.716.716 0 0 0-.705.726v2.858h-2.768v-2.858a.716.716 0 0 0-.705-.726.716.716 0 0 0-.706.726v2.858h-2.767v-2.858a.716.716 0 0 0-.706-.726.716.716 0 0 0-.705.726v2.858H9.75a.717.717 0 0 0-.704.77l.348 5.928c.325 6.292 4.357 10.52 10.029 10.52h.147a9.834 9.834 0 0 0 4.412-1.007.735.735 0 0 0 .329-.968.696.696 0 0 0-.94-.339 8.472 8.472 0 0 1-3.801.86h-.14c-4.875 0-8.34-3.675-8.623-9.15l-.305-5.164h17.999l-.305 5.164c-.024.4.272.744.66.768a.712.712 0 0 0 .747-.68l.311-5.26h2.122c.384 0 .696.321.696.717v4.3a.707.707 0 0 1-.696.717.707.707 0 0 0-.697.716c0 .396.312.717.697.717 1.154 0 2.089-.963 2.089-2.15v-4.3c0-1.187-.935-2.15-2.09-2.15z"></path><path d="M31.34 15.757a.716.716 0 0 0-.706.726c-.005 4.347-3.428 7.87-7.652 7.874h-.092c-.39-1.537-1.917-2.457-3.41-2.056-1.494.4-2.389 1.971-1.999 3.508.39 1.537 1.916 2.458 3.41 2.057a2.836 2.836 0 0 0 1.999-2.057h.092c5.003-.006 9.057-4.177 9.063-9.326a.716.716 0 0 0-.706-.726zm-11.144 10.75c-.764 0-1.383-.637-1.383-1.424 0-.786.62-1.424 1.383-1.424.765 0 1.384.638 1.384 1.424 0 .786-.62 1.424-1.384 1.424z"></path></g></svg><svg width="118" height="34" viewBox="-10 -10 118 34" id="cards" y="176"><defs><linearGradient id="a" x1=".008%" y1="50%" y2="50%"><stop offset="30%" stop-color="#00B4E6"></stop><stop offset="100%" stop-color="#088CCB"></stop></linearGradient></defs><g fill="none" fill-rule="evenodd" opacity=".5"><path fill="#004F8B" d="M10.524 11.19l1.509-9.023h2.413l-1.51 9.023h-2.412M21.69 2.389a6.13 6.13 0 0 0-2.163-.379c-2.385 0-4.065 1.224-4.08 2.978-.013 1.296 1.2 2.02 2.116 2.45.939.443 1.255.725 1.25 1.12-.005.605-.75.881-1.444.881-.966 0-1.479-.137-2.271-.473l-.311-.144-.34 2.02c.565.252 1.607.47 2.69.481 2.537 0 4.184-1.21 4.202-3.082.01-1.027-.634-1.808-2.026-2.452-.844-.417-1.36-.696-1.355-1.118 0-.375.437-.776 1.382-.776a4.38 4.38 0 0 1 1.807.345l.216.104.327-1.955m6.19-.214h-1.866c-.577 0-1.01.161-1.264.749l-3.584 8.268H23.7s.415-1.111.509-1.355l3.09.003c.073.316.294 1.352.294 1.352h2.24l-1.954-9.017m-2.976 5.816c.2-.52.962-2.522.962-2.522-.015.024.198-.523.32-.861l.163.778.559 2.605h-2.004M8.5 2.173L6.135 8.326l-.251-1.25c-.44-1.442-1.81-3.003-3.343-3.785l2.16 7.89 2.554-.002 3.8-9.006H8.499"></path><path fill="#ED9F2D" d="M3.944 2.168H.052l-.03.188c3.027.746 5.03 2.551 5.863 4.72L5.038 2.93c-.146-.572-.57-.742-1.094-.762"></path><path fill="#E30E17" d="M46.23 6.807c0-2.164.951-4.09 2.431-5.337A6.136 6.136 0 0 0 44.691 0c-3.534 0-6.4 3.048-6.4 6.807 0 3.76 2.866 6.807 6.4 6.807 1.5 0 2.879-.55 3.97-1.47-1.48-1.247-2.43-3.173-2.43-5.337"></path><path fill="#EA600A" d="M46.23 6.807c0 2.164.951 4.09 2.431 5.337 1.48-1.247 2.43-3.173 2.43-5.337 0-2.164-.95-4.09-2.43-5.337-1.48 1.247-2.43 3.173-2.43 5.337"></path><path fill="#F59F00" d="M52.63 0c-1.5 0-2.878.55-3.969 1.47 1.48 1.247 2.43 3.173 2.43 5.337 0 2.164-.95 4.09-2.43 5.337a6.136 6.136 0 0 0 3.97 1.47c3.534 0 6.4-3.048 6.4-6.807 0-3.76-2.866-6.807-6.4-6.807"></path><g><path fill="#4DB45E" d="M75.541 2.667v.003c-.003 0-1.166-.003-1.476 1.136-.284 1.044-1.085 3.928-1.107 4.008h-.221s-.82-2.948-1.107-4.012c-.31-1.14-1.476-1.135-1.476-1.135h-2.657v8.666h2.657V6.186h.221l1.55 5.147h1.845l1.55-5.143h.221v5.143h2.657V2.667h-2.657zm9.706 0s-.779.072-1.144.908L82.22 7.814h-.222V2.667h-2.657v8.666h2.51s.815-.075 1.18-.908l1.846-4.239h.221v5.147h2.657V2.667h-2.51zm3.69 3.936v4.73h2.657V8.571h2.879c1.254 0 2.317-.822 2.712-1.968h-8.248z"></path><path fill="url(#a)" d="M5.941 0H.033c.295 1.65 1.502 2.975 3.063 3.406a4.12 4.12 0 0 0 1.11.151h4.555a2.98 2.98 0 0 0 .059-.605C8.82 1.321 7.532 0 5.94 0z" transform="translate(88.531 2.667)"></path></g></g></svg><svg viewBox="-10 -10 90.000191 65" height="65" width="90" id="counter" y="210"><path d="M3.161-.016h43.201c1.751 0 4.083 1.776 5.268 3l17.201 17.751c1.638 1.644 1.485 2.113-.025 3.656L51.63 41.984c-1.19 1.219-3.517 3-5.268 3H3.16c-1.751 0-3.161-1.338-3.161-3v-39c0-1.662 1.41-3 3.161-3z" fill="#3c76cf"></path></svg><svg width="63" height="44" viewBox="-10 -10 63 44" id="delivery" y="275"><g fill="#2057AC" fill-rule="evenodd"><path fill-rule="nonzero" d="M42.283 17.18v-4.09a.729.729 0 0 0-.027-.164c-.005-.021-.004-.045-.011-.066a.726.726 0 0 0-.119-.223l-.009-.012-5.724-7.261a.712.712 0 0 0-.56-.273h-5.016V.727A.722.722 0 0 0 30.1 0H6.45a.722.722 0 0 0-.717.727c0 .402.321.728.717.728h.717v4.363H5.733a.722.722 0 0 0-.716.727c0 .402.32.728.716.728h1.434v4.363h-2.15a.722.722 0 0 0-.717.728c0 .401.32.727.717.727h2.15v4.09a2.703 2.703 0 0 0 .21 3.697.712.712 0 0 0 .506.213h2.223c.34 1.693 1.808 2.909 3.51 2.909 1.703 0 3.171-1.216 3.512-2.91h15.194c.341 1.694 1.809 2.91 3.511 2.91 1.703 0 3.17-1.216 3.511-2.91h2.223a.71.71 0 0 0 .506-.212 2.703 2.703 0 0 0 .21-3.698zm-2.327-4.968L34.4 11.7V9.455h3.382l2.174 2.757zm-26.34 10.333c-1.187 0-2.15-.976-2.15-2.181s.963-2.182 2.15-2.182c1.188 0 2.15.977 2.15 2.182 0 1.204-.962 2.18-2.15 2.181zm3.512-2.909c-.341-1.693-1.809-2.909-3.511-2.909-1.703 0-3.17 1.216-3.511 2.91H8.208a1.267 1.267 0 0 1 .182-1.668.733.733 0 0 0 .21-.514v-.728h.717a.722.722 0 0 0 .716-.727.722.722 0 0 0-.716-.727H8.6V13.09h6.45a.722.722 0 0 0 .717-.727.722.722 0 0 0-.717-.728H8.6V7.273h13.617a.722.722 0 0 0 .716-.728.722.722 0 0 0-.716-.727H8.6V1.455h20.783v18.181H17.128zm18.705 2.91c-1.187 0-2.15-.977-2.15-2.182s.963-2.182 2.15-2.182c1.188 0 2.15.977 2.15 2.182-.001 1.204-.963 2.18-2.15 2.181zm5.409-2.91h-1.898c-.34-1.693-1.808-2.909-3.51-2.909-1.703 0-3.171 1.216-3.512 2.91h-1.505V6.544h4.672L36.636 8h-2.953a.722.722 0 0 0-.716.727v3.637c0 .376.282.69.652.724l7.231.667v1.518h-.717a.722.722 0 0 0-.716.727c0 .402.32.727.716.727h.717v.728a.75.75 0 0 0 .206.51 1.27 1.27 0 0 1 .186 1.671z"></path><rect width="36.596" height="1.385" x="6.404" y="22.615" rx=".692"></rect><path fill-rule="nonzero" d="M3.583 0H2.15a.722.722 0 0 0-.717.727c0 .402.321.728.717.728h1.433A.722.722 0 0 0 4.3.727.722.722 0 0 0 3.583 0zm-.716 5.818H1.433a.722.722 0 0 0-.716.727c0 .402.32.728.716.728h1.434a.722.722 0 0 0 .716-.728.722.722 0 0 0-.716-.727zm-.739 5.722l-1.434.045a.723.723 0 0 0-.694.738.722.722 0 0 0 .716.716H.74l1.433-.046a.723.723 0 0 0 .694-.75.714.714 0 0 0-.22-.512.693.693 0 0 0-.518-.191z"></path></g></svg><svg width="63" height="71" viewBox="-10 -10 63 71" id="delivery-care" y="319"><g fill="none" fill-rule="evenodd"><path fill="#2057AC" fill-rule="nonzero" d="M30.363 32.737V8.152c0-.242-.073-.484-.25-.71L24.486.428A1.15 1.15 0 0 0 23.599 0H6.763c-.347 0-.67.153-.887.428L.25 7.442a1.134 1.134 0 0 0-.25.71v23.447c0 .63.508 1.138 1.138 1.138H14.32M7.312 2.277H23.05l3.802 4.737H3.51l3.801-4.738zM17.538 9.29v4.867l-1.695-1.203a1.127 1.127 0 0 0-1.315 0l-1.695 1.203V9.29h4.705zM2.276 30.46V9.29h8.273v7.07a1.143 1.143 0 0 0 1.8.929l2.832-2.018 2.833 2.018c.75.54 1.8 0 1.8-.929V9.282h8.273v21.179H2.276z"></path><path fill="#FFF" fill-rule="nonzero" stroke="#2057AC" stroke-width="2.5" d="M27.486 48.79a20 20 0 0 1-12.414-12.47C14.357 33.946 14 31.773 14 29.801v-6.574c5.967-2.159 11.031-7.35 13.5-10.228 2.469 2.878 7.533 8.07 13.5 10.228v6.574c-.014 8.633-5.417 16.18-13.514 18.988z"></path><path fill="#2057AC" d="M15 26h11.75a1.25 1.25 0 0 1 0 2.5H15V26zm0 4h6.75a1.25 1.25 0 0 1 0 2.5H15V30z"></path></g></svg><svg width="42" height="34" viewBox="-10 -10 42 34" id="delivery-tooltip" y="390"><path fill="#2A2A2A" d="M21.6 10.022V7.636a.443.443 0 0 0-.015-.096c-.003-.012-.003-.026-.007-.038a.43.43 0 0 0-.066-.13l-.005-.007-3.195-4.236a.392.392 0 0 0-.312-.16h-2.8V.425C15.2.19 15.02 0 14.8 0H1.6c-.22 0-.4.19-.4.424 0 .235.18.424.4.424H2v2.546h-.8c-.22 0-.4.19-.4.424 0 .234.18.424.4.424H2v2.546H.8c-.22 0-.4.19-.4.424 0 .234.18.424.4.424H2v2.386a1.629 1.629 0 0 0 .117 2.157c.075.08.177.124.283.124h1.24C3.83 13.291 4.65 14 5.6 14s1.77-.71 1.96-1.697h8.48C16.23 13.291 17.05 14 18 14s1.77-.71 1.96-1.697h1.24a.389.389 0 0 0 .283-.124c.578-.57.63-1.521.117-2.157zm-1.299-2.898l-3.101-.3V5.516h1.888L20.3 7.124zM5.6 13.152c-.663 0-1.2-.57-1.2-1.273s.537-1.273 1.2-1.273c.663 0 1.2.57 1.2 1.273 0 .702-.538 1.272-1.2 1.273zm1.96-1.697c-.19-.988-1.01-1.697-1.96-1.697s-1.77.709-1.96 1.697H2.581a.764.764 0 0 1 .102-.973.438.438 0 0 0 .117-.3v-.424h.4c.22 0 .4-.19.4-.425 0-.234-.18-.424-.4-.424h-.4V7.636h3.6c.22 0 .4-.19.4-.424 0-.234-.18-.424-.4-.424H2.8V4.242h7.6c.22 0 .4-.19.4-.424 0-.234-.18-.424-.4-.424H2.8V.848h11.6v10.607H7.56zM18 13.152c-.663 0-1.2-.57-1.2-1.273s.537-1.273 1.2-1.273c.663 0 1.2.57 1.2 1.273 0 .702-.538 1.272-1.2 1.273zm3.019-1.697h-1.06c-.19-.988-1.009-1.697-1.959-1.697-.95 0-1.77.709-1.96 1.697h-.84V3.818h2.608l.64.849H16.8c-.22 0-.4.19-.4.424v2.121c0 .22.158.403.364.423l4.036.389v.885h-.4c-.22 0-.4.19-.4.424 0 .235.18.425.4.425h.4v.424c0 .11.042.217.115.297.265.25.31.67.104.976z" opacity=".8"></path></svg><svg width="49" height="43" viewBox="-10 -10 49 43" id="facade" y="424"><title>Group 5</title><g fill="none" fill-rule="evenodd"><path d="M.5.5v22h28v-1.554c-7.34-1.019-13.206-3.374-17.588-7.073C6.552 10.193 4.31 5.725 4.208.5H.5z" stroke="#1D509F"></path><path d="M.5.5v22h26.045c-6.826-1.124-12.419-3.478-16.771-7.068C5.018 11.51 2.454 6.522 2.095.5H.5zm28 22h.14l.17.19-.118.118a55.43 55.43 0 0 1-.192-.024V22.5z" stroke="#1D509F"></path><path d="M1.435.5L28.5 21.965V9.58c-3.054.043-5.8-.757-8.226-2.4C17.81 5.515 16.354 3.279 15.92.5H1.435z" stroke="#1D509F"></path><path d="M1.435.5L28.5 21.965V.5H1.435z" stroke="#1D509F"></path><path stroke="#1D509F" stroke-width=".704" d="M22.352.352h6.296v3.296h-6.296z"></path><path d="M25.352 3.352v4.296h3.296V3.352h-3.296z" stroke="#1D509F" stroke-width=".704"></path><path d="M17.748 3.352l3.554 4.296h4.346V3.352h-7.9z" stroke="#1D509F" stroke-width=".704"></path><path d="M15.55.352l1.518 3.296h4.58V.352H15.55z" stroke="#1D509F" stroke-width=".704"></path><g transform="translate(4 3)" fill="#1D509F"><path d="M.264.789h13.43v1H.264zM2.322 4.367h14.806v1H2.322zM4.437 7.944h20.415v1H4.437zM7.635 11.522h17.216v1H7.635zM14.134 15.1h10.718v1H14.134z"></path></g><path fill="#1D509F" d="M10 0h.807v13.238H10zM7 0h.807v10H7zM13 0h.807v16H13zM16 4h.807v13.747H16zM19 6.599h1V19h-1zM22 8h.863v12H22zM25 9h.863v11.8H25z"></path></g></svg><svg width="55" height="48" viewBox="-10 -10 55 48" id="facade-big" y="467"><g fill="none" fill-rule="evenodd"><path stroke="#1D509F" stroke-width="1.2" d="M.6.6v26.8h33.8v-1.908c-8.861-1.24-15.942-4.108-21.23-8.611C7.907 12.399 5.202 6.96 5.082.6H.6z"></path><path stroke="#1D509F" stroke-width="1.2" d="M.6.6v26.8h31.542c-8.286-1.36-15.071-4.233-20.346-8.621C6.056 14.003 2.962 7.932 2.532.6H.6zm33.8 26.8h.18l.197.223-.136.136-.241-.03V27.4z"></path><path stroke="#1D509F" stroke-width="1.2" d="M.6.6v26.8h33.8V11.653c-3.687.054-7.004-.92-9.932-2.92-2.972-2.03-4.73-4.751-5.25-8.133H.6z"></path><path stroke="#1D509F" stroke-width="1.2" d="M.6.6v26.8h33.8V.6H.6z"></path><path stroke="#1D509F" stroke-width=".845" d="M26.974.422h7.603v4.025h-7.603z"></path><path stroke="#1D509F" stroke-width=".845" d="M30.595 4.075v5.242h3.983V4.075h-3.983z"></path><path stroke="#1D509F" stroke-width=".845" d="M21.41 4.075l4.3 5.242h5.247V4.075H21.41z"></path><path stroke="#1D509F" stroke-width=".845" d="M18.76.422l1.84 4.025h5.53V.422h-7.368z"></path><path d="M5.147 4.612h16.209v1H5.146zM7.63 8.968h17.869v1H7.629zm2.553 4.355h24.639v1h-24.64zm3.86 4.357H34.82v1H14.043zm7.844 4.355h12.935v1H21.887z" fill="#1D509F"></path><path fill="#1D509F" d="M12.069 0h.974v16.116h-.974zM8.448 0h.974v12.174h-.974zm7.242 0h.974v19.478h-.974zm3.62 4.87h.975v16.735h-.975zm3.621 3.164h1.207V23.13h-1.207zm3.621 1.706h1.04v14.608h-1.04zm3.62 1.217h1.042v14.365h-1.042z"></path></g></svg><svg width="49" height="43" viewBox="-10 -10 49 43" id="facade-o" y="515"><title>facade-wh</title><g fill="none" fill-rule="evenodd"><path d="M.5.5v22h28v-1.554c-7.34-1.019-13.206-3.374-17.588-7.073C6.552 10.193 4.31 5.725 4.208.5H.5z" stroke="#FFF"></path><path d="M.5.5v22h26.045c-6.826-1.124-12.419-3.478-16.771-7.068C5.018 11.51 2.454 6.522 2.095.5H.5zm28 22h.14l.17.19-.118.118a55.43 55.43 0 0 1-.192-.024V22.5z" stroke="#FFF"></path><path d="M1.435.5L28.5 21.965V9.58c-3.054.043-5.8-.757-8.226-2.4C17.81 5.515 16.354 3.279 15.92.5H1.435z" stroke="#FFF"></path><path d="M1.435.5L28.5 21.965V.5H1.435z" stroke="#FFF"></path><path stroke="#FFF" stroke-width=".704" d="M22.352.352h6.296v3.296h-6.296z"></path><path d="M25.352 3.352v4.296h3.296V3.352h-3.296z" stroke="#FFF" stroke-width=".704"></path><path d="M17.748 3.352l3.554 4.296h4.346V3.352h-7.9z" stroke="#FFF" stroke-width=".704"></path><path d="M15.55.352l1.518 3.296h4.58V.352H15.55z" stroke="#FFF" stroke-width=".704"></path><g transform="translate(4 3)" fill="#FFF"><path d="M.264.789h13.43v1H.264zM2.322 4.367h14.806v1H2.322zM4.437 7.944h20.415v1H4.437zM7.635 11.522h17.216v1H7.635zM14.134 15.1h10.718v1H14.134z"></path></g><path fill="#FFF" d="M10 0h.807v13.238H10zM7 0h.807v10H7zM13 0h.807v16H13zM16 4h.807v13.747H16zM19 6.599h1V19h-1zM22 8h.863v12H22zM25 9h.863v11.8H25z"></path></g></svg><svg width="62" height="62" viewBox="-10 -10 62 62" id="facebook" y="558"><g fill="none" fill-rule="evenodd"><path fill="#3B5998" d="M0 21C0 9.402 9.402 0 21 0s21 9.402 21 21-9.402 21-21 21S0 32.598 0 21z"></path><path fill="#FFF" d="M22.489 32.648V21.222h3.154l.418-3.937h-3.572l.005-1.97c0-1.027.098-1.577 1.573-1.577h1.971V9.8h-3.154c-3.789 0-5.122 1.91-5.122 5.122v2.364H15.4v3.937h2.362v11.425h4.727z"></path></g></svg><svg width="47" height="47" viewBox="-10 -10 47 47" id="fence" y="620"><path d="M6 26H1V5.113L3.5 1 6 5.113zm10 0h-5V5.113L13.5 1 16 5.113zm10 0h-5V5.113L23.5 1 26 5.113zM6 8h5m-5 5h5m-5 5h5m-5 5h5m5-15h5m-5 5h5m-5 5h5m-5 5h4.992" fill="none" fill-rule="evenodd" stroke="#1D509F" stroke-linecap="round" stroke-linejoin="round" stroke-width="1.1"></path></svg><svg width="55" height="55" viewBox="-10 -10 55 55" id="fence-big" y="667"><path d="M7.6 34H1V6.43L4.3 1l3.3 5.43zm13.2 0h-6.6V6.43L17.5 1l3.3 5.43zM34 34h-6.6V6.43L30.7 1 34 6.43zM7.6 10.24h6.6m-6.6 6.6h6.6m-6.6 6.6h6.6m-6.6 6.6h6.6m6.6-19.8h6.6m-6.6 6.6h6.6m-6.6 6.6h6.6m-6.6 6.6h6.59" fill="none" fill-rule="evenodd" stroke="#1D509F" stroke-linecap="round" stroke-linejoin="round" stroke-width="1.43"></path></svg><svg width="47" height="47" viewBox="-10 -10 47 47" id="fence-o" y="722"><title>fence</title><g transform="translate(1 1)" stroke="#FFF" stroke-width="1.1" fill="none" fill-rule="evenodd" stroke-linecap="round" stroke-linejoin="round"><path d="M5 25H0V4.113L2.5 0 5 4.113zM15 25h-5V4.113L12.5 0 15 4.113zM25 25h-5V4.113L22.5 0 25 4.113zM5 7h5M5 12h5M5 17h5M5 22h5M15 7h5M15 12h5M15 17h5M15 22h4.992"></path></g></svg><svg width="42" height="47" viewBox="-10 -10 42 47" id="fire-protect" y="769"><g fill="none"><path stroke="#1D509F" stroke-width="1.3" d="M8.404 8.16l6.671 6.562c3.408-4.716 2.166-12.33-6.787-13.665.78 1.506 2.166 3.75.116 7.102zm-3.032 3.465c-.347.313-.722.625-1.127.966-3.32 3.011-2.368 6.506-.722 9.148 1.473 2.187 3.61 3.863 7.682 4.062-1.617-3.778-.808-5.34.982-7.5l-6.815-6.676zm8.115 8.068c-1.675 2.13-1.098 3.864-.318 5.88.722 0 2.541-.738 4.159-2.187l-3.784-3.75-.057.057zm6.555-.085c.78-2.13.693-4.801-1.184-7.955-.404 1.42-1.386 2.955-2.454 4.375l3.638 3.58z"></path><path fill="#1D509F" d="M.18 4.223l.92-.92 20.93 20.932-.918.92z"></path></g></svg><svg width="49" height="55" viewBox="-10 -10 49 55" id="fire-protect-big" y="816"><g fill="none"><path stroke="#1D509F" stroke-width="1.69" d="M10.962 10.45l8.701 8.663c4.445-6.226 2.825-16.276-8.852-18.038 1.017 1.988 2.825 4.95.15 9.375zm-3.956 4.575c-.452.412-.941.825-1.469 1.275-4.332 3.975-3.089 8.587-.941 12.075 1.92 2.887 4.708 5.1 10.02 5.362-2.11-4.987-1.055-7.05 1.28-9.9l-8.89-8.812zm10.585 10.65c-2.184 2.813-1.431 5.1-.414 7.762.942 0 3.315-.974 5.424-2.887l-4.934-4.95-.076.075zm8.551-.112c1.017-2.813.904-6.338-1.544-10.5-.528 1.874-1.808 3.9-3.202 5.774l4.746 4.726z"></path><path fill="#1D509F" d="M.07 5.246l1.2-1.2 27.63 27.63-1.2 1.2z"></path></g></svg><svg width="42" height="47" viewBox="-10 -10 42 47" id="fire-protect-o" y="871"><title>fire-protect</title><g transform="translate(0 1)" fill-rule="nonzero" fill="none"><path d="M8.404 7.16l6.671 6.562C18.483 9.006 17.241 1.392 8.288.057c.78 1.506 2.166 3.75.116 7.102zM5.372 10.625c-.347.313-.722.625-1.127.966-3.32 3.011-2.368 6.506-.722 9.148 1.473 2.187 3.61 3.863 7.682 4.062-1.617-3.778-.808-5.34.982-7.5l-6.815-6.676zM13.487 18.693c-1.675 2.13-1.098 3.864-.318 5.88.722 0 2.541-.738 4.159-2.187l-3.784-3.75-.057.057zM20.042 18.608c.78-2.13.693-4.801-1.184-7.955-.404 1.42-1.386 2.955-2.454 4.375l3.638 3.58z" stroke="#FFF" stroke-width="1.3"></path><path fill="#FFF" d="M.18 3.223l.92-.92 20.93 20.932-.918.92z"></path></g></svg><svg width="54" height="41" viewBox="-10 -10 54 41" id="flat-roof" y="918"><title>flat-roof</title><g transform="translate(0 1)" stroke="#1D509F" stroke-width="1.3" fill="none" fill-rule="evenodd" stroke-linecap="round" stroke-linejoin="round"><ellipse cx="30.171" cy="4.75" rx="2.514" ry="4.694"></ellipse><path d="M30.171 9.444H12.886c-1.415 0-2.515-2.18-2.515-4.694 0-2.515 1.1-4.694 2.515-4.694H30.17M30.171 9.444l-11.628 9.22H.629l11.785-9.22"></path></g></svg><svg width="61" height="45" viewBox="-10 -10 61 45" id="flat-roof-big" y="959"><g fill="none" fill-rule="evenodd" stroke="#1D509F" stroke-linecap="round" stroke-linejoin="round" stroke-width="1.56" transform="translate(0 1)"><ellipse cx="36.571" cy="5.75" rx="3.048" ry="5.682"></ellipse><path d="M36.571 11.432H15.62c-1.714 0-3.048-2.638-3.048-5.682 0-3.044 1.334-5.682 3.048-5.682h20.952m-.001 11.364L22.476 22.594H.762l14.286-11.162"></path></g></svg><svg width="54" height="41" viewBox="-10 -10 54 41" id="flat-roof-o" y="1004"><title>flat-roof-wh</title><g transform="translate(0 1)" stroke="#FFF" stroke-width="1.3" fill="none" fill-rule="evenodd" stroke-linecap="round" stroke-linejoin="round"><ellipse cx="30.171" cy="4.75" rx="2.514" ry="4.694"></ellipse><path d="M30.171 9.444H12.886c-1.415 0-2.515-2.18-2.515-4.694 0-2.515 1.1-4.694 2.515-4.694H30.17M30.171 9.444l-11.628 9.22H.629l11.785-9.22"></path></g></svg><svg width="51" height="62" viewBox="-10 -10 51 62" id="geo-office" y="1045"><g fill="none" fill-rule="evenodd"><path fill="#2057AC" d="M15.175 42C25.292 29.805 30.35 20.897 30.35 15.273 30.35 6.838 23.556 0 15.175 0 6.795 0 0 6.838 0 15.273 0 20.897 5.058 29.805 15.175 42z"></path><path fill="#FFF" d="M23.846 19.183H19.78L15.304 7.2h4.067l4.475 11.983zm-4.85 0h-4.068L11.4 9.597h4.067l3.528 9.586zm-4.933.017h-6.91l3.398-9.52 3.512 9.52zm-3.512-7.49c.272.706.831 2.339 1.341 3.828l.006.018c.438 1.277.838 2.445.989 2.828h-4.54c.123-.33.414-1.247.753-2.313l.002-.005c.513-1.612 1.135-3.565 1.45-4.356z"></path></g></svg><svg width="51" height="62" viewBox="-10 -10 51 62" id="geo-warehouse" y="1107"><g fill="none" fill-rule="evenodd"><path fill="#2057AC" d="M15.175 42C25.292 29.805 30.35 20.897 30.35 15.273 30.35 6.838 23.556 0 15.175 0 6.795 0 0 6.838 0 15.273 0 20.897 5.058 29.805 15.175 42z"></path><path fill="#FFF" fill-rule="nonzero" d="M14.54 19.223v3.264a.3.3 0 0 1-.287.296H11.07a.3.3 0 0 1-.288-.296v-3.264a.3.3 0 0 1 .288-.295h1.235v1.18h.745v-1.18h1.202c.152 0 .287.121.287.295zm4.215-.295h-1.202v1.18h-.745v-1.18h-1.235a.3.3 0 0 0-.288.295v3.264a.3.3 0 0 0 .288.296h3.182a.3.3 0 0 0 .287-.296v-3.264a.289.289 0 0 0-.287-.295zm-5.433-4.62a.3.3 0 0 0-.288.296v3.265a.3.3 0 0 0 .288.295h3.182a.3.3 0 0 0 .287-.295v-3.265a.3.3 0 0 0-.287-.295h-1.202v1.18h-.745v-1.18h-1.235zm9.14-1.753l-6.94-6.32a.931.931 0 0 0-1.236 0l-6.939 6.32c-.39.347-.152 1.007.372 1.007h.728v8.925a.29.29 0 0 0 .288.296h.999a.29.29 0 0 0 .287-.296V13.58h9.75v8.925c0 .173.135.295.287.295h.999a.29.29 0 0 0 .287-.295V13.58h.728c.542 0 .779-.66.39-1.025z"></path></g></svg><svg width="34" height="50" viewBox="-10 -10 34 50" id="gidro-vetro" y="1169"><g fill="none" fill-rule="evenodd" stroke="#1D509F" stroke-linecap="round" stroke-linejoin="round" stroke-width="1.14"><path d="M9.821 10.324v16.24c0 1.276-.975 2.32-2.166 2.32H3.213c-1.192 0-2.167-1.044-2.167-2.32V3.016c0-1.276.975-2.32 2.167-2.32h4.442c.758 0 1.3.348 1.733.928"></path><path d="M9.821 3.016c0 1.276-.975 2.32-2.166 2.32H3.213c-1.192 0-2.167-1.044-2.167-2.32 0-1.276.975-2.32 2.167-2.32h4.442c1.191 0 2.166 1.044 2.166 2.32"></path><path d="M10.363 3.596l2.708 3.828S1.155 17.4 1.046 22.272c.65-7.424 2.275-12.644 9.317-18.676zm-.975-1.972l3.467 5.568"></path></g></svg><svg width="37" height="56" viewBox="-10 -10 37 56" id="gidro-vetro-big" y="1219"><g fill="none" fill-rule="evenodd" stroke="#1D509F" stroke-linecap="round" stroke-linejoin="round" stroke-width="1.368"><path d="M11.857 12.46v19.6c0 1.54-1.2 2.8-2.667 2.8H3.724c-1.467 0-2.667-1.26-2.667-2.8V3.64c0-1.54 1.2-2.8 2.667-2.8H9.19c.934 0 1.6.42 2.134 1.12"></path><path d="M11.857 3.64c0 1.54-1.2 2.8-2.667 2.8H3.724c-1.467 0-2.667-1.26-2.667-2.8 0-1.54 1.2-2.8 2.667-2.8H9.19c1.467 0 2.667 1.26 2.667 2.8"></path><path d="M12.524 4.34l3.333 4.62S1.19 21 1.057 26.88c.8-8.96 2.8-15.26 11.467-22.54zm-1.2-2.38l4.266 6.72"></path></g></svg><svg width="34" height="50" viewBox="-10 -10 34 50" id="gidro-vetro-o" y="1275"><title>gidro-vetro</title><g transform="translate(1)" stroke="#FFF" stroke-width="1.14" fill="none" fill-rule="evenodd" stroke-linecap="round" stroke-linejoin="round"><path d="M8.821 10.324v16.24c0 1.276-.975 2.32-2.166 2.32H2.213c-1.192 0-2.167-1.044-2.167-2.32V3.016c0-1.276.975-2.32 2.167-2.32h4.442c.758 0 1.3.348 1.733.928"></path><path d="M8.821 3.016c0 1.276-.975 2.32-2.166 2.32H2.213c-1.192 0-2.167-1.044-2.167-2.32 0-1.276.975-2.32 2.167-2.32h4.442c1.191 0 2.166 1.044 2.166 2.32"></path><path d="M9.363 3.596l2.708 3.828S.155 17.4.046 22.272c.65-7.424 2.275-12.644 9.317-18.676zM8.388 1.624l3.467 5.568"></path></g></svg><svg width="54" height="44" viewBox="-10 -10 54 44" id="groundwork" y="1325"><title>groundwork</title><g transform="translate(0 1)" fill="none" fill-rule="evenodd"><path d="M9.473 13.252h15.054V-.5h5.744v19.819H3.729V-.5h5.744v13.752z" stroke="#1D509F"></path><path d="M3.96 15.189v-4.357l8.215 8.257H7.84l-.191-.08-3.612-3.63-.079-.19zm6.536-1.707h4.343l.191.08 5.499 5.527h-4.343l-.191-.08-5.5-5.527zm-1.253-1.259L4.038 6.991l-.079-.19V2.434l5.205 5.232.079.19v4.367zm9.607 1.26h4.324l.191.079 5.5 5.527H24.54l-.191-.08-5.499-5.527zM9.243 3.825L5.168-.27h4.075v4.096zm15.514 7.104V6.593l5.205 5.231.079.19v4.338l-5.205-5.231-.079-.19zm0-8.368V-.27h1.358l.191.08 3.656 3.674.079.19v4.31l-5.205-5.232-.079-.19z" stroke="#1D509F" stroke-width=".54"></path><path d="M25.576 19.089h-4.333l8.798-8.843v4.357l-.079.19-4.195 4.216-.191.08zm-8.345 0h-4.343l5.499-5.527.191-.08h4.343l-5.498 5.527-.192.08zM29.962 6.406l-5.205 5.231V7.27l.079-.19 5.205-5.232v4.367l-.079.19zM8.877 19.089H4.553l5.499-5.527.191-.08h4.324L9.068 19.01l-.191.08zM28.249-.27l-3.492 3.51V-.27h3.492zM3.96 15.766V11.43l.079-.19 5.205-5.232v4.337l-.079.19-5.205 5.232zm0-8.368V3.089l.079-.19L7.11-.191l.192-.079h1.94v2.246l-.079.19L3.96 7.398z" stroke="#1D509F" stroke-width=".54"></path><path d="M3.25.918l.511.512L.923 4.268l-.512-.512L3.25.918zm0 4.524l.511.511L.923 8.791.411 8.28 3.25 5.442zm0 4.885l.511.512-2.838 2.838-.512-.512 2.839-2.838zm0 4.705l.511.512-2.838 2.838-.512-.512 2.839-2.838zM30.51.918l-.512.512 2.838 2.838.512-.512L30.509.918zm0 4.524l-.512.511 2.838 2.838.512-.511-2.839-2.838zm0 4.885l-.512.512 2.838 2.838.512-.512-2.839-2.838zm0 4.705l-.512.512 2.838 2.838.512-.512-2.839-2.838zM7.639 18.988l.512.512-2.838 2.838-.512-.511 2.838-2.839zm15.325 0l.512.512-2.838 2.838-.512-.511 2.838-2.839zm5.202 0l.512.512-2.838 2.838-.512-.511 2.838-2.839zm-10.31 0l.511.512-2.838 2.838-.512-.511 2.839-2.839zm-5.109 0l.512.512-2.838 2.838-.512-.511 2.838-2.839z" fill="#1D509F"></path></g></svg><svg width="65" height="53" viewBox="-10 -10 65 53" id="groundwork-big" y="1369"><g fill="none" fill-rule="evenodd"><path stroke="#1D509F" stroke-width="1.32" d="M12.536 19.876h19.928V1.34h7.598v26.685H4.938V1.34h7.598v18.536z"></path><path stroke="#1D509F" stroke-width=".713" d="M5.241 22.617v-6.01l10.86 11.114h-5.873L5.24 22.617zm8.664-2.438h5.885l7.368 7.542h-5.885l-7.368-7.542zm-1.673-1.712l-6.99-7.155V5.288l6.99 7.156v6.023zm12.73 1.712h5.86l7.368 7.542h-5.86l-7.368-7.542zM12.232 7.15L6.853 1.644h5.38v5.505zm20.536 9.728v-5.985l6.99 7.156v5.985l-6.99-7.156zm0-11.279V1.644h1.945l5.046 5.164v5.946l-6.991-7.156z"></path><path stroke="#1D509F" stroke-width=".713" d="M34 27.721h-5.872l11.63-11.904v6.01l-5.757 5.894zm-11.044 0h-5.885l7.368-7.542h5.885l-7.368 7.542zm16.803-17.199l-6.991 7.156v-6.024l6.99-7.156v6.024zm-27.86 17.2h-5.86l7.368-7.543h5.86l-7.368 7.542zM37.375 1.643L32.768 6.36V1.644h4.607zm-32.134 21.6v-5.985l6.991-7.156v5.985l-6.99 7.155zm0-11.28V6.018l4.274-4.374h2.717v3.164l-6.99 7.156z"></path><path fill="#1D509F" d="M4.295 3.271l.69.69-3.757 3.757-.69-.69L4.295 3.27zm0 6.098l.69.69-3.757 3.756-.69-.69 3.757-3.756zm0 6.585l.69.69L1.227 20.4l-.69-.69 3.757-3.756zm0 6.341l.69.69-3.757 3.756-.69-.69 3.757-3.756zM40.386 3.271l-.69.69 3.757 3.757.69-.69-3.757-3.757zm0 6.098l-.69.69 3.757 3.756.69-.69-3.757-3.756zm0 6.585l-.69.69 3.757 3.756.69-.69-3.757-3.756zm0 6.341l-.69.69 3.757 3.756.69-.69-3.757-3.756zm-30.282 5.333l.69.69-3.756 3.756-.69-.69 3.756-3.756zm20.283 0l.69.69-3.756 3.756-.69-.69 3.756-3.756zm6.885 0l.69.69-3.756 3.756-.69-.69 3.756-3.756zm-13.646 0l.69.69-3.756 3.756-.69-.69 3.756-3.756zm-6.76 0l.689.69-3.756 3.756-.69-.69 3.756-3.756z"></path></g></svg><svg width="54" height="44" viewBox="-10 -10 54 44" id="groundwork-o" y="1422"><title>groundwork-wh</title><g transform="translate(0 1)" fill="none" fill-rule="evenodd"><path d="M9.473 13.252h15.054V-.5h5.744v19.819H3.729V-.5h5.744v13.752z" stroke="#FFF"></path><path d="M3.96 15.189v-4.357l8.215 8.257H7.84l-.191-.08-3.612-3.63-.079-.19zm6.536-1.707h4.343l.191.08 5.499 5.527h-4.343l-.191-.08-5.5-5.527zm-1.253-1.259L4.038 6.991l-.079-.19V2.434l5.205 5.232.079.19v4.367zm9.607 1.26h4.324l.191.079 5.5 5.527H24.54l-.191-.08-5.499-5.527zM9.243 3.825L5.168-.27h4.075v4.096zm15.514 7.104V6.593l5.205 5.231.079.19v4.338l-5.205-5.231-.079-.19zm0-8.368V-.27h1.358l.191.08 3.656 3.674.079.19v4.31l-5.205-5.232-.079-.19z" stroke="#FFF" stroke-width=".54"></path><path d="M25.576 19.089h-4.333l8.798-8.843v4.357l-.079.19-4.195 4.216-.191.08zm-8.345 0h-4.343l5.499-5.527.191-.08h4.343l-5.498 5.527-.192.08zM29.962 6.406l-5.205 5.231V7.27l.079-.19 5.205-5.232v4.367l-.079.19zM8.877 19.089H4.553l5.499-5.527.191-.08h4.324L9.068 19.01l-.191.08zM28.249-.27l-3.492 3.51V-.27h3.492zM3.96 15.766V11.43l.079-.19 5.205-5.232v4.337l-.079.19-5.205 5.232zm0-8.368V3.089l.079-.19L7.11-.191l.192-.079h1.94v2.246l-.079.19L3.96 7.398z" stroke="#FFF" stroke-width=".54"></path><path d="M3.25.918l.511.512L.923 4.268l-.512-.512L3.25.918zm0 4.524l.511.511L.923 8.791.411 8.28 3.25 5.442zm0 4.885l.511.512-2.838 2.838-.512-.512 2.839-2.838zm0 4.705l.511.512-2.838 2.838-.512-.512 2.839-2.838zM30.51.918l-.512.512 2.838 2.838.512-.512L30.509.918zm0 4.524l-.512.511 2.838 2.838.512-.511-2.839-2.838zm0 4.885l-.512.512 2.838 2.838.512-.512-2.839-2.838zm0 4.705l-.512.512 2.838 2.838.512-.512-2.839-2.838zM7.639 18.988l.512.512-2.838 2.838-.512-.511 2.838-2.839zm15.325 0l.512.512-2.838 2.838-.512-.511 2.838-2.839zm5.202 0l.512.512-2.838 2.838-.512-.511 2.838-2.839zm-10.31 0l.511.512-2.838 2.838-.512-.511 2.839-2.839zm-5.109 0l.512.512-2.838 2.838-.512-.511 2.838-2.839z" fill="#FFF"></path></g></svg><svg width="49" height="54" viewBox="-10 -10 49 54" id="hand-tools" y="1466"><title>hand-tools</title><g transform="rotate(34 5.823 23.406)" fill="#1D509F" fill-rule="evenodd"><path d="M6.227 17.217c.44-.283.99-.283 1.429 0 .11.07.183.07.293.07a.54.54 0 0 0 .476-.247c.183-.247.11-.565-.147-.742-.805-.495-1.831-.495-2.6 0a.507.507 0 0 0-.147.742c.11.248.44.319.696.177z"></path><path d="M13.92.212L0 .177v3.182C0 9.51 2.967 13.823 4.03 15.237c-.074.036-.147.106-.22.142l-.367.177.147.424a19.21 19.21 0 0 1 .33 8.166l-.477 2.758c-.183.99.11 2.015.806 2.793.66.778 1.648 1.202 2.71 1.202 1.063 0 2.052-.424 2.711-1.202a3.5 3.5 0 0 0 .806-2.793L10 24.111a19.374 19.374 0 0 1 .33-8.202l.073-.318-.256-.212c-.074-.07-.147-.106-.22-.142 1.099-1.378 4.029-5.727 4.029-11.878V.212h-.037zM8.79 29.025a2.493 2.493 0 0 1-1.868.849 2.493 2.493 0 0 1-1.868-.849 2.297 2.297 0 0 1-.55-1.909l.477-2.757c.476-2.758.403-5.55-.257-8.308a3.848 3.848 0 0 1 4.396 0 20.312 20.312 0 0 0-.257 8.272l.477 2.793c.146.672-.074 1.379-.55 1.91zm4.03-25.631c0 5.904-2.968 10.146-3.883 11.313-1.246-.53-2.71-.566-3.956 0C4.066 13.54 1.099 9.298 1.099 3.36V1.237l11.722.036v2.12z" stroke="#1D509F" stroke-width=".2" fill-rule="nonzero"></path><path d="M2.674 5.303a.533.533 0 0 0-.476.601c.55 4.525 3.077 7.389 3.187 7.53.11.106.256.177.403.177.11 0 .256-.035.366-.141a.5.5 0 0 0 .036-.743c-.036-.035-2.417-2.757-2.93-6.929 0-.318-.293-.53-.586-.495z"></path><path d="M6.96 25.596c-.99 0-1.832.778-1.832 1.768s.806 1.767 1.832 1.767c1.025 0 1.831-.777 1.831-1.767 0-.99-.842-1.768-1.831-1.768zm0 2.475a.722.722 0 0 1-.733-.707c0-.39.33-.707.733-.707.403 0 .732.318.732.707 0 .389-.33.707-.732.707z" fill-rule="nonzero"></path><g transform="rotate(19 -7.315 58.523)"><path d="M4 21.6c0 .794-.673 1.44-1.5 1.44S1 22.394 1 21.6v-7.094c.23-.302.5-.771.5-1.306 0-.476-.214-.9-.423-1.2h2.846c-.209.3-.423.724-.423 1.2 0 .535.27 1.004.5 1.306V21.6zM2.144 4.37l-.576-1.105L2.254.96h.492l.686 2.305-.576 1.106-.106.202V11.04h-.5V4.573l-.106-.202zM5 11.522a.49.49 0 0 0-.497-.481H3.75V4.8l.75-1.44L3.5 0h-2l-1 3.36.75 1.44v6.24H.498a.49.49 0 0 0-.498.481v.719s.5.48.5.96-.5.96-.5.96v7.44C0 22.924 1.119 24 2.5 24 3.88 24 5 22.924 5 21.6v-7.44s-.5-.48-.5-.96.5-.96.5-.96v-.719z" stroke="#1D509F" stroke-width=".2" fill-rule="nonzero"></path><path d="M2.5 15.36c-.278 0-.5.214-.5.478v5.764a.49.49 0 0 0 .5.478c.278 0 .5-.214.5-.478v-5.764a.49.49 0 0 0-.5-.478"></path></g></g></svg><svg width="49.843" height="55" viewBox="-10 -10 49.843447 55" id="hand-tools-big" y="1520"><title>hand-tools</title><g transform="scale(1.07359) rotate(34 6.62 21.61)" fill="#1d509f" fill-rule="evenodd"><path d="M6.227 17.217c.44-.283.99-.283 1.429 0 .11.07.183.07.293.07a.54.54 0 0 0 .476-.247c.183-.247.11-.565-.147-.742-.805-.495-1.831-.495-2.6 0a.507.507 0 0 0-.147.742c.11.248.44.319.696.177z"></path><path d="M13.92.212L0 .177v3.182C0 9.51 2.967 13.823 4.03 15.237c-.074.036-.147.106-.22.142l-.367.177.147.424a19.21 19.21 0 0 1 .33 8.166l-.477 2.758c-.183.99.11 2.015.806 2.793.66.778 1.648 1.202 2.71 1.202 1.063 0 2.052-.424 2.711-1.202a3.5 3.5 0 0 0 .806-2.793L10 24.111a19.374 19.374 0 0 1 .33-8.202l.073-.318-.256-.212a.77.77 0 0 0-.22-.142c1.099-1.378 4.029-5.727 4.029-11.878V.212zM8.79 29.025a2.493 2.493 0 0 1-1.868.849 2.493 2.493 0 0 1-1.868-.849 2.297 2.297 0 0 1-.55-1.909l.477-2.757c.476-2.758.403-5.55-.257-8.308a3.848 3.848 0 0 1 4.396 0 20.312 20.312 0 0 0-.257 8.272l.477 2.793c.146.672-.074 1.379-.55 1.91zm4.03-25.631c0 5.904-2.968 10.146-3.883 11.313-1.246-.53-2.71-.566-3.956 0C4.066 13.54 1.099 9.298 1.099 3.36V1.237l11.722.036z" fill-rule="nonzero" stroke="#1d509f" stroke-width=".2"></path><path d="M2.674 5.303a.533.533 0 0 0-.476.601c.55 4.525 3.077 7.389 3.187 7.53.11.106.256.177.403.177.11 0 .256-.035.366-.141a.5.5 0 0 0 .036-.743c-.036-.035-2.417-2.757-2.93-6.929 0-.318-.293-.53-.586-.495z"></path><path d="M6.96 25.596c-.99 0-1.832.778-1.832 1.768s.806 1.767 1.832 1.767c1.025 0 1.831-.777 1.831-1.767 0-.99-.842-1.768-1.831-1.768zm0 2.475a.722.722 0 0 1-.733-.707c0-.39.33-.707.733-.707.403 0 .732.318.732.707 0 .389-.33.707-.732.707z" fill-rule="nonzero"></path><g transform="rotate(19 -7.315 58.523)"><path d="M4 21.6c0 .794-.673 1.44-1.5 1.44S1 22.394 1 21.6v-7.094c.23-.302.5-.771.5-1.306 0-.476-.214-.9-.423-1.2h2.846c-.209.3-.423.724-.423 1.2 0 .535.27 1.004.5 1.306zM2.145 4.37l-.577-1.105L2.254.96h.492l.686 2.305-.577 1.106-.105.202V11.04h-.5V4.573zM5 11.522a.49.49 0 0 0-.497-.481H3.75V4.8l.75-1.44L3.5 0h-2l-1 3.36.75 1.44v6.24H.498a.49.49 0 0 0-.498.481v.719s.5.48.5.96-.5.96-.5.96v7.44C0 22.924 1.119 24 2.5 24 3.88 24 5 22.924 5 21.6v-7.44s-.5-.48-.5-.96.5-.96.5-.96z" fill-rule="nonzero" stroke="#1d509f" stroke-width=".2"></path><path d="M2.5 15.36c-.278 0-.5.214-.5.478v5.764a.49.49 0 0 0 .5.478c.278 0 .5-.214.5-.478v-5.764a.49.49 0 0 0-.5-.478"></path></g></g></svg><svg width="49" height="54" viewBox="-10 -10 49 54" id="hand-tools-o" y="1575"><title>hand-tools</title><g transform="rotate(34 5.823 23.406)" fill="#fff" fill-rule="evenodd"><path d="M6.227 17.217c.44-.283.99-.283 1.429 0 .11.07.183.07.293.07a.54.54 0 0 0 .476-.247c.183-.247.11-.565-.147-.742-.805-.495-1.831-.495-2.6 0a.507.507 0 0 0-.147.742c.11.248.44.319.696.177z"></path><path d="M13.92.212L0 .177v3.182C0 9.51 2.967 13.823 4.03 15.237c-.074.036-.147.106-.22.142l-.367.177.147.424a19.21 19.21 0 0 1 .33 8.166l-.477 2.758c-.183.99.11 2.015.806 2.793.66.778 1.648 1.202 2.71 1.202 1.063 0 2.052-.424 2.711-1.202a3.5 3.5 0 0 0 .806-2.793L10 24.111a19.374 19.374 0 0 1 .33-8.202l.073-.318-.256-.212a.77.77 0 0 0-.22-.142c1.099-1.378 4.029-5.727 4.029-11.878V.212zM8.79 29.025a2.493 2.493 0 0 1-1.868.849 2.493 2.493 0 0 1-1.868-.849 2.297 2.297 0 0 1-.55-1.909l.477-2.757c.476-2.758.403-5.55-.257-8.308a3.848 3.848 0 0 1 4.396 0 20.312 20.312 0 0 0-.257 8.272l.477 2.793c.146.672-.074 1.379-.55 1.91zm4.03-25.631c0 5.904-2.968 10.146-3.883 11.313-1.246-.53-2.71-.566-3.956 0C4.066 13.54 1.099 9.298 1.099 3.36V1.237l11.722.036z" fill-rule="nonzero" stroke="#fffffd" stroke-width=".2"></path><path d="M2.674 5.303a.533.533 0 0 0-.476.601c.55 4.525 3.077 7.389 3.187 7.53.11.106.256.177.403.177.11 0 .256-.035.366-.141a.5.5 0 0 0 .036-.743c-.036-.035-2.417-2.757-2.93-6.929 0-.318-.293-.53-.586-.495z"></path><path d="M6.96 25.596c-.99 0-1.832.778-1.832 1.768s.806 1.767 1.832 1.767c1.025 0 1.831-.777 1.831-1.767 0-.99-.842-1.768-1.831-1.768zm0 2.475a.722.722 0 0 1-.733-.707c0-.39.33-.707.733-.707.403 0 .732.318.732.707 0 .389-.33.707-.732.707z" fill-rule="nonzero"></path><g transform="rotate(19 -7.315 58.523)"><path d="M4 21.6c0 .794-.673 1.44-1.5 1.44S1 22.394 1 21.6v-7.094c.23-.302.5-.771.5-1.306 0-.476-.214-.9-.423-1.2h2.846c-.209.3-.423.724-.423 1.2 0 .535.27 1.004.5 1.306zM2.145 4.37l-.577-1.105L2.254.96h.492l.686 2.305-.577 1.106-.105.202V11.04h-.5V4.573zM5 11.522a.49.49 0 0 0-.497-.481H3.75V4.8l.75-1.44L3.5 0h-2l-1 3.36.75 1.44v6.24H.498a.49.49 0 0 0-.498.481v.719s.5.48.5.96-.5.96-.5.96v7.44C0 22.924 1.119 24 2.5 24 3.88 24 5 22.924 5 21.6v-7.44s-.5-.48-.5-.96.5-.96.5-.96z" fill-rule="nonzero" stroke="#fffffb" stroke-width=".2"></path><path d="M2.5 15.36c-.278 0-.5.214-.5.478v5.764a.49.49 0 0 0 .5.478c.278 0 .5-.214.5-.478v-5.764a.49.49 0 0 0-.5-.478"></path></g></g></svg><svg width="47" height="47" viewBox="-10 -10 47 47" id="info" y="1629"><g fill="none" fill-rule="evenodd" transform="translate(1 1)"><circle cx="12.5" cy="12.5" r="12.5" stroke="#979797"></circle><path fill="#979797" d="M12 10h1v9h-1zm0-4h1v2h-1z"></path></g></svg><svg width="44" height="50" viewBox="-10 -10 44 50" id="inside" y="1676"><g fill="none" fill-rule="evenodd" stroke="#1D509F" stroke-linecap="round" stroke-linejoin="round" stroke-width="1.215"><path d="M3.852 1.488h18.985v6.756H3.852z"></path><path d="M10.533 10.477H3.037c-.896 0-1.63-.733-1.63-1.628V6.453c0-.895.734-1.627 1.63-1.627h.815m1.141 5.651h8.31c.897 0 1.63.732 1.63 1.628v1.383M15.667 29H14.28c-.733 0-1.385-.507-1.385-1.231V14.73c0-.652.57-1.231 1.385-1.231h1.386c.733 0 1.385.507 1.385 1.231v13.04c0 .652-.652 1.231-1.385 1.231z"></path></g></svg><svg width="48" height="56" viewBox="-10 -10 48 56" id="inside-big" y="1726"><g fill="none" fill-rule="evenodd" stroke="#1D509F" stroke-linecap="round" stroke-linejoin="round" stroke-width="1.458"><path d="M4.37 1.593h22.437v8.203H4.37z"></path><path d="M12.267 12.507h-8.86c-1.059 0-1.926-.89-1.926-1.976V7.622c0-1.087.867-1.977 1.926-1.977h.963m1.349 6.862h9.822c1.059 0 1.926.89 1.926 1.977v1.68M18.333 35h-1.637c-.866 0-1.637-.616-1.637-1.495V17.674c0-.792.674-1.495 1.637-1.495h1.637c.867 0 1.637.615 1.637 1.495v15.83c0 .792-.77 1.496-1.637 1.496z"></path></g></svg><svg width="44" height="50" viewBox="-10 -10 44 50" id="inside-o" y="1782"><title>inside</title><g transform="translate(1 1)" stroke="#FFF" stroke-width="1.215" fill="none" fill-rule="evenodd" stroke-linecap="round" stroke-linejoin="round"><path d="M2.852.488h18.985v6.756H2.852z"></path><path d="M9.533 9.477H2.037c-.896 0-1.63-.733-1.63-1.628V5.453c0-.895.734-1.627 1.63-1.627h.815M3.993 9.477h8.31c.897 0 1.63.732 1.63 1.628v1.383M14.667 28H13.28c-.733 0-1.385-.507-1.385-1.231V13.73c0-.652.57-1.231 1.385-1.231h1.386c.733 0 1.385.507 1.385 1.231V26.77c0 .652-.652 1.231-1.385 1.231z"></path></g></svg><svg width="62" height="62" viewBox="-10 -10 62 62" id="instagram" y="1832"><title>Instagram_Color</title><path d="M42 21a21 21 0 0 1-21 21A21 21 0 0 1 0 21 21 21 0 0 1 21 0a21 21 0 0 1 21 21z" fill="#a332a4"></path><path d="M21.001 9.8c-3.042 0-3.423.013-4.618.068-1.192.054-2.006.243-2.718.52a5.484 5.484 0 0 0-1.985 1.292 5.498 5.498 0 0 0-1.292 1.983c-.278.713-.467 1.527-.52 2.719C9.813 17.576 9.8 17.958 9.8 21c0 3.042.014 3.422.068 4.617.055 1.192.243 2.006.52 2.718a5.488 5.488 0 0 0 1.292 1.985 5.484 5.484 0 0 0 1.983 1.292c.713.277 1.527.466 2.719.52 1.195.055 1.576.068 4.618.068 3.042 0 3.422-.013 4.617-.067 1.192-.055 2.007-.244 2.72-.52a5.48 5.48 0 0 0 1.982-1.293 5.498 5.498 0 0 0 1.293-1.984c.275-.713.464-1.527.52-2.719.054-1.194.068-1.575.068-4.617s-.014-3.423-.068-4.618c-.056-1.192-.245-2.006-.52-2.718a5.497 5.497 0 0 0-1.293-1.984 5.474 5.474 0 0 0-1.983-1.292c-.714-.277-1.528-.466-2.72-.52-1.195-.055-1.576-.068-4.618-.068zm-1.005 2.018h1.005c2.99 0 3.345.011 4.526.065 1.092.05 1.685.232 2.08.385.522.203.895.446 1.286.838.392.392.635.765.839 1.288.153.394.336.987.385 2.08.054 1.18.066 1.535.066 4.524s-.012 3.343-.066 4.524c-.05 1.092-.232 1.685-.385 2.079a3.463 3.463 0 0 1-.839 1.287 3.464 3.464 0 0 1-1.287.837c-.394.154-.987.336-2.08.386-1.18.054-1.535.066-4.525.066s-3.345-.012-4.526-.066c-1.092-.05-1.684-.233-2.08-.386a3.47 3.47 0 0 1-1.287-.838 3.471 3.471 0 0 1-.839-1.287c-.153-.394-.336-.987-.385-2.079-.054-1.18-.065-1.535-.065-4.526 0-2.991.011-3.344.065-4.525.05-1.092.232-1.684.385-2.08a3.47 3.47 0 0 1 .839-1.287 3.476 3.476 0 0 1 1.288-.838c.394-.154.987-.336 2.08-.386 1.032-.047 1.433-.061 3.52-.063zm6.984 1.86a1.344 1.344 0 1 0 0 2.689 1.344 1.344 0 0 0 0-2.69zM21 15.248a5.752 5.752 0 1 0 .001 11.504 5.752 5.752 0 0 0-.001-11.504zm0 2.019a3.733 3.733 0 1 1 0 7.467 3.733 3.733 0 0 1 0-7.467z" fill="#fff" fill-rule="evenodd"></path></svg><svg width="49" height="46" viewBox="-10 -10 49 46" id="list" y="1894"><g fill="#1D509F"><path d="M22.251 18.292H.637a.598.598 0 0 1-.604-.59V1.495c0-.326.27-.59.604-.59h21.616c.333 0 .604.264.604.59V17.7a.599.599 0 0 1-.606.591zM1.241 17.11h20.407V2.087H1.241V17.11z"></path><path d="M24.366 21.982a.383.383 0 0 1-.047-.003L2.644 20.332a.609.609 0 0 1-.415-.207.581.581 0 0 1-.141-.434l.14-1.56a.607.607 0 0 1 .655-.537.594.594 0 0 1 .549.64l-.087.967 20.465 1.554 1.192-15.113-2.104-.171a.595.595 0 0 1-.551-.639c.028-.325.326-.559.652-.538l2.703.22c.33.027.578.311.551.634L24.97 21.436a.583.583 0 0 1-.209.404.613.613 0 0 1-.394.142z"></path><path d="M26.749 25.095a.952.952 0 0 1-.06-.003L5.087 23.044a.594.594 0 0 1-.544-.632l.128-1.69a.59.59 0 0 1 .648-.546.596.596 0 0 1 .557.633l-.085 1.114 20.415 1.936 1.498-15.086-1.808-.179a.591.591 0 0 1-.54-.645.602.602 0 0 1 .66-.528l2.409.237c.33.032.574.32.541.644l-1.616 16.26a.6.6 0 0 1-.6.533z"></path></g></svg><svg width="58" height="52" viewBox="-10 -10 58 52" id="list-big" y="1940"><g fill="#1D509F"><path d="M29.157 22.92H.834a.783.783 0 0 1-.791-.772V.957C.043.53.397.184.834.184H29.16c.437 0 .791.346.791.773v21.19a.784.784 0 0 1-.793.774zm-27.53-1.545h26.74V1.73H1.627v19.646z"></path><path d="M31.928 27.745l-.062-.003-28.402-2.154a.798.798 0 0 1-.543-.27.76.76 0 0 1-.185-.568l.184-2.041c.038-.424.426-.731.858-.702a.777.777 0 0 1 .719.838l-.114 1.264L31.2 26.141l1.56-19.763-2.756-.224a.778.778 0 0 1-.722-.835c.037-.425.428-.73.855-.704l3.542.289a.777.777 0 0 1 .722.828l-1.683 21.3a.762.762 0 0 1-.274.528.805.805 0 0 1-.516.185z"></path><path d="M35.05 31.816a1.25 1.25 0 0 1-.077-.003L6.664 29.135a.778.778 0 0 1-.712-.827l.168-2.21a.773.773 0 0 1 .848-.714.78.78 0 0 1 .73.828l-.11 1.456 26.75 2.532L36.3 10.472l-2.37-.233a.773.773 0 0 1-.708-.844.789.789 0 0 1 .866-.691l3.156.31a.777.777 0 0 1 .71.843L35.836 31.12a.784.784 0 0 1-.787.695z"></path></g></svg><svg width="49" height="46" viewBox="-10 -10 49 46" id="list-o" y="1992"><title>list-icon</title><g fill="#FFF" fill-rule="nonzero"><path d="M22.251 18.292H.637a.598.598 0 0 1-.604-.59V1.495c0-.326.27-.59.604-.59h21.616c.333 0 .604.264.604.59v16.205a.599.599 0 0 1-.606.591zM1.241 17.11h20.407V2.087H1.241V17.11z"></path><path d="M24.366 21.982c-.016 0-.03-.001-.047-.003L2.644 20.332a.609.609 0 0 1-.415-.207.581.581 0 0 1-.141-.434l.14-1.56a.607.607 0 0 1 .655-.537.594.594 0 0 1 .549.64l-.087.967 20.465 1.554 1.192-15.113-2.104-.171a.595.595 0 0 1-.551-.639c.028-.325.326-.559.652-.538l2.703.22c.33.027.578.311.551.634L24.97 21.436a.583.583 0 0 1-.209.404.613.613 0 0 1-.394.142z"></path><path d="M26.749 25.095a.952.952 0 0 1-.06-.003L5.087 23.044a.594.594 0 0 1-.544-.632l.128-1.69a.59.59 0 0 1 .648-.546.596.596 0 0 1 .557.633l-.085 1.114 20.415 1.936 1.498-15.086-1.808-.179a.591.591 0 0 1-.54-.645.602.602 0 0 1 .66-.528l2.409.237c.33.032.574.32.541.644l-1.616 16.26a.6.6 0 0 1-.6.533z"></path></g></svg><svg width="48" height="41" viewBox="-10 -10 48 41" id="mansard" y="2038"><g fill="none" fill-rule="evenodd" stroke="#1D509F" stroke-width="1.3"><path d="M2.068 1.073l10.31 19.23 13.556-1.582L15.32.66l-13.25.412z"></path><path d="M1.813 6.323l12.043 9.004 12.23-1.3L12.985 5.66l-11.171.662z"></path></g></svg><svg width="56" height="47" viewBox="-10 -10 56 47" id="mansard-big" y="2079"><g fill="none" fill-rule="evenodd" stroke="#1D509F" stroke-width="1.69"><path d="M2.675 1.388L15.92 26.094l17.41-2.032L19.69.86l-17.015.528z"></path><path d="M2.357 8.137l15.46 11.56 15.696-1.67L16.69 7.289l-14.334.85z"></path></g></svg><svg width="48" height="41" viewBox="-10 -10 48 41" id="mansard-o" y="2126"><title>mansard-icon</title><g stroke="#FFF" stroke-width="1.3" fill="none" fill-rule="evenodd"><path d="M2.068 1.073l10.31 19.23 13.556-1.582L15.32.66l-13.25.412z"></path><path d="M1.813 6.323l12.043 9.004 12.23-1.3L12.985 5.66l-11.171.662z"></path></g></svg><svg width="63" height="63" viewBox="-10 -10 63 63" id="map" y="2167"><g fill="#2057AC"><path d="M42.159 12.868h-4.454c.084-.556.128-1.122.128-1.69C37.833 5.02 32.823.01 26.663.01c-6.157 0-11.168 5.01-11.168 11.168 0 .568.044 1.134.128 1.69H.841A.841.841 0 0 0 0 13.71v28.437c0 .028.001.057.004.085l.004.028.008.054.009.035.011.045.012.034a.43.43 0 0 0 .016.043l.014.031.022.044.016.027a.39.39 0 0 0 .026.044l.02.027c.01.013.018.026.029.039l.032.035.023.026.021.019c.014.012.026.025.04.036l.039.029.027.02c.014.01.028.017.042.026l.029.016a.4.4 0 0 0 .042.02l.033.016.04.015.038.013.04.01.04.01.046.007.035.005a.859.859 0 0 0 .083.004H42.16a.841.841 0 0 0 .84-.84V13.71a.841.841 0 0 0-.841-.84zM26.664 1.693a9.492 9.492 0 0 1 9.198 11.812c-.273 1.084-1.003 2.473-1.57 3.313a.764.764 0 0 0-.013.019L26.664 28.14l-4.648-6.9-.006-.008-.468-.695-2.493-3.701a9.397 9.397 0 0 1-1.584-3.333 9.49 9.49 0 0 1-.287-2.326c0-5.23 4.255-9.485 9.486-9.485zM16.014 14.55a11.111 11.111 0 0 0 1.651 3.244l2.481 3.684.08.117-1.171 1.17-8.214-8.215h5.174zm-7.204.35l9.054 9.054-6.74 6.734-9.052-9.05L8.81 14.9zm-7.127-.349h5.095l-5.095 5.095v-5.095zm0 9.077l8.25 8.25-8.25 8.24v-16.49zm39.634 17.68H26.082l9.499-9.5 5.736 5.737v3.762zm0-6.143l-4.546-4.546 4.546-4.547v9.093zm0-11.472L23.702 41.307H2.874l8.842-8.832.002-.002.002-.002 9.463-9.454 4.783 7.1a.841.841 0 0 0 1.396 0l8.301-12.324.01-.015c.529-.778 1.22-2.022 1.63-3.227h4.014v9.142z"></path><path d="M26.5 16a5.5 5.5 0 1 1 0-11 5.5 5.5 0 0 1 0 11zm0-2a3.5 3.5 0 1 0 0-7 3.5 3.5 0 0 0 0 7z"></path></g></svg><svg width="52" height="34" viewBox="-10 -10 52 34" id="money" y="2230"><g fill="none" fill-rule="evenodd" opacity=".8"><path fill="#D9D7D7" d="M0 0h32v14H0V0zm2.344 6.566v.985h1.044v1.42H2.344V9.9h1.044v1.983h1.176V9.9H6.93v-.93H4.564V7.55h1.485c.48 0 .926-.057 1.337-.17.412-.112.77-.283 1.073-.513a2.47 2.47 0 0 0 .72-.865c.177-.347.265-.755.265-1.224s-.083-.872-.25-1.21a2.304 2.304 0 0 0-.69-.837 3.02 3.02 0 0 0-1.059-.492 5.39 5.39 0 0 0-1.367-.162h-2.69v4.488H2.344zm3.734 0H4.564V3.063h1.514c.676 0 1.208.136 1.595.408.387.272.58.708.58 1.308 0 .6-.193 1.048-.58 1.344-.387.295-.919.443-1.595.443z"></path><path fill="#E9E9E9" d="M15 0h4v14h-4z"></path></g></svg><svg width="39" height="36" viewBox="-10 -10 39 36" id="money-office" y="2264"><path fill="#2057AC" fill-rule="evenodd" d="M19 15.978h-4.63L9.278 0h4.63L19 15.978zm-5.521 0h-4.63L4.834 3.196h4.629l4.016 12.782zM7.864 16H0L3.867 3.306 7.864 16zM3.867 6.014c.31.941.946 3.118 1.527 5.103.505 1.727.96 3.284 1.131 3.796H1.357c.14-.442.473-1.663.859-3.085.586-2.156 1.293-4.76 1.65-5.814z" opacity=".4"></path></svg><svg width="49" height="40" viewBox="-10 -10 49 40" id="roof" y="2300"><path fill="#1D509F" d="M29 17.562c0-.005 0-.012-.002-.017v-.023c-.002-.005-.002-.01-.002-.016l-.004-.026c0-.004 0-.009-.003-.013a.564.564 0 0 0-.007-.038L24.752.459A.603.603 0 0 0 24.166 0H4.833a.605.605 0 0 0-.586.46L.017 17.428l-.007.038-.003.014-.003.025-.002.016-.001.023-.001.017v1.831a.604.604 0 0 0 .804.573l3.26-1.143 3.29 1.143a.601.601 0 0 0 .397 0l3.274-1.143 3.277 1.143a.596.596 0 0 0 .396 0l3.276-1.143 3.275 1.143c.13.045.269.045.396 0l3.277-1.143 3.275 1.143a.6.6 0 0 0 .548-.078.606.606 0 0 0 .255-.495v-1.831zm-17.776-1.771a.607.607 0 0 0-.397 0l-2.555.891.589-4.72 2.53-.89 2.505.874v4.777l-2.672-.932zm-6.963 0a.606.606 0 0 0-.397 0l-2.402.842 1.16-4.655 2.555-.906 2.47.855-.602 4.83-2.784-.966zm-.28-9.264l2.276-.783 2.07.727L7.8 10.7l-2.429-.841a.601.601 0 0 0-.398.001l-2 .71L3.98 6.526zm9.915-5.315v3.996L11.95 4.53a.601.601 0 0 0-.395 0l-1.85.64.494-3.958h3.696zm4.903 0l.494 3.958-1.85-.64a.599.599 0 0 0-.394 0l-1.945.678V1.212h3.695zm7.227 9.356l-2-.709a.603.603 0 0 0-.4-.001L21.2 10.7l-.527-4.229 2.07-.728 2.276.784 1.007 4.041zM9.54 6.51l2.212-.767 2.143.748v4.172l-2.305-.805a.604.604 0 0 0-.398 0l-2.165.762.513-4.11zm5.564-.019l2.143-.747 2.213.767.512 4.107-2.165-.76a.601.601 0 0 0-.397 0l-2.306.805V6.49zm0 5.455l2.503-.874 2.532.889.588 4.721-2.554-.891a.61.61 0 0 0-.398 0l-2.671.932v-4.777zm6.85 4.81l-.6-4.827 2.469-.857 2.555.906 1.16 4.657-2.418-.844a.607.607 0 0 0-.396 0l-2.77.966zm2.717-11.63l-1.733-.597a.602.602 0 0 0-.397.001l-2.021.71-.503-4.028h3.678l.976 3.914zM5.305 1.212h3.677L8.48 5.241 6.46 4.53a.6.6 0 0 0-.397-.002l-1.732.597.975-3.914zM25.12 17.61a.607.607 0 0 0-.396 0l-3.277 1.143-3.274-1.143a.61.61 0 0 0-.398 0L14.5 18.752l-3.276-1.143a.607.607 0 0 0-.397 0l-3.276 1.143-3.29-1.143a.606.606 0 0 0-.397 0l-2.656.931v-.534l2.856-1 3.29 1.142.02.006a.445.445 0 0 0 .035.01l.022.004a.488.488 0 0 0 .035.007l.01.002.018.002h.013a.75.75 0 0 0 .046.003l.03-.002.021-.001c.01 0 .021-.003.033-.004l.018-.002a.394.394 0 0 0 .032-.007l.02-.005.03-.009.014-.004 3.274-1.143 3.277 1.143.008.003.025.008.029.007a.916.916 0 0 1 .025.005l.033.005.021.003a.61.61 0 0 0 .113 0c.008 0 .014-.002.021-.003l.034-.005.025-.005.028-.007.026-.008.008-.003 3.276-1.143 3.275 1.143.014.004.03.01.02.004.032.007a1.047 1.047 0 0 0 .051.006c.009 0 .02 0 .028.002h.023l.046-.001.014-.002h.015l.01-.003a.56.56 0 0 0 .038-.007c.006 0 .013-.002.02-.004a.513.513 0 0 0 .055-.016l3.277-1.143 2.869 1.002v.534l-2.67-.932z"></path></svg><svg width="59" height="46" viewBox="-10 -10 59 46" id="roof-big" y="2340"><path fill="#1D509F" d="M39 22.83l-.002-.021c0-.01 0-.02-.002-.03 0-.007 0-.014-.002-.021l-.005-.034c0-.005 0-.011-.003-.017a.712.712 0 0 0-.01-.05L33.287.597A.806.806 0 0 0 32.5 0h-26a.808.808 0 0 0-.787.597L.024 22.657c-.005.017-.007.034-.01.05l-.004.019-.005.032a.064.064 0 0 1-.003.02v.03C0 22.817 0 22.825 0 22.832v2.38c0 .256.127.496.342.643.215.148.49.186.739.102l4.384-1.485 4.425 1.485c.172.059.36.058.534 0l4.403-1.485 4.406 1.485c.172.059.36.059.533 0l4.405-1.485 4.405 1.485a.827.827 0 0 0 .533 0l4.406-1.485 4.405 1.485a.826.826 0 0 0 .737-.102.78.78 0 0 0 .343-.643v-2.38zm-23.906-2.302a.843.843 0 0 0-.533 0l-3.436 1.159.791-6.135 3.404-1.158 3.367 1.136v6.21l-3.593-1.212zm-9.363 0a.84.84 0 0 0-.535 0l-3.23 1.095 1.56-6.052 3.437-1.177 3.32 1.111-.81 6.28-3.742-1.257zM5.354 8.485l3.06-1.018 2.783.945-.707 5.496-3.266-1.093a.835.835 0 0 0-.535.002l-2.69.922 1.355-5.254zm13.333-6.909v5.195l-2.615-.882a.835.835 0 0 0-.532 0l-2.486.832.663-5.145h4.97zm6.595 0l.664 5.145-2.487-.833a.832.832 0 0 0-.531 0l-2.616.883V1.576h4.97zm9.719 12.163l-2.691-.922a.838.838 0 0 0-.537-.002L28.51 13.91l-.708-5.498 2.783-.946 3.062 1.019L35 13.739zM12.829 8.464l2.975-.998 2.883.973v5.422l-3.1-1.045a.838.838 0 0 0-.536 0l-2.911.99.689-5.342zm7.483-.025l2.882-.972 2.976.997.689 5.34-2.911-.988a.835.835 0 0 0-.535 0l-3.101 1.045V8.44zm0 7.09l3.367-1.135 3.405 1.155.79 6.138-3.435-1.159a.847.847 0 0 0-.534 0l-3.593 1.212v-6.21zm9.213 6.255l-.808-6.276 3.32-1.114 3.436 1.177 1.56 6.055-3.25-1.098a.843.843 0 0 0-.534 0l-3.724 1.256zm3.653-15.12l-2.33-.776a.835.835 0 0 0-.534.001l-2.718.924-.676-5.237h4.946l1.312 5.087zM7.134 1.575h4.945l-.675 5.237-2.718-.924a.834.834 0 0 0-.533-.001l-2.33.775 1.311-5.087zm26.648 21.316a.843.843 0 0 0-.533 0l-4.406 1.485-4.404-1.485a.847.847 0 0 0-.534 0L19.5 24.377l-4.406-1.485a.843.843 0 0 0-.533 0l-4.406 1.486-4.424-1.486a.84.84 0 0 0-.535 0l-3.571 1.21v-.694l3.84-1.301 4.426 1.485v.001l.025.007a.615.615 0 0 0 .077.019.676.676 0 0 0 .048.01l.014.001.024.003h.016c.02.002.04.003.062.003l.04-.002.03-.001.043-.005.025-.003.043-.01.026-.005.04-.012.02-.006 4.403-1.485 4.406 1.485.011.004.035.01.038.01.033.006.045.007.029.004a.848.848 0 0 0 .151 0l.029-.004.045-.007.034-.007.037-.009.036-.01.01-.004 4.406-1.485 4.404 1.485.02.006.04.012.026.005.043.01a1.452 1.452 0 0 0 .069.008c.012 0 .026 0 .038.002l.03.001.063-.002.018-.002.021-.002.013-.002a.776.776 0 0 0 .051-.01c.009 0 .018-.003.028-.005a.709.709 0 0 0 .073-.02l4.406-1.486 3.859 1.302v.695l-3.592-1.212z"></path></svg><svg width="49" height="40" viewBox="-10 -10 49 40" id="roof-o" y="2386"><title>roof-icon</title><path d="M29 17.562c0-.005 0-.012-.002-.017v-.023c-.002-.005-.002-.01-.002-.016l-.004-.026c0-.004 0-.009-.003-.013a.564.564 0 0 0-.007-.038L24.752.459A.603.603 0 0 0 24.166 0H4.833a.605.605 0 0 0-.586.46L.017 17.428l-.007.038-.003.014-.003.025-.002.016-.001.023-.001.017v1.831a.604.604 0 0 0 .804.573l3.26-1.143 3.29 1.143a.601.601 0 0 0 .397 0l3.274-1.143 3.277 1.143a.596.596 0 0 0 .396 0l3.276-1.143 3.275 1.143c.13.045.269.045.396 0l3.277-1.143 3.275 1.143a.6.6 0 0 0 .548-.078.606.606 0 0 0 .255-.495v-1.818-.013zm-17.776-1.771a.607.607 0 0 0-.397 0l-2.555.891.589-4.72 2.53-.89 2.505.874v4.777l-2.672-.932zm-6.963 0a.606.606 0 0 0-.397 0l-2.402.842 1.16-4.655 2.555-.906 2.47.855-.602 4.83-2.784-.966zm-.28-9.264l2.276-.783 2.07.727L7.8 10.7l-2.429-.841a.601.601 0 0 0-.398.001l-2 .71L3.98 6.526zm9.915-5.315v3.996L11.95 4.53a.601.601 0 0 0-.395 0l-1.85.64.494-3.958h3.696zm4.903 0l.494 3.958-1.85-.64a.599.599 0 0 0-.394 0l-1.945.678V1.212h3.695zm7.227 9.356l-2-.709a.603.603 0 0 0-.4-.001L21.2 10.7l-.527-4.229 2.07-.728 2.276.784 1.007 4.041zM9.54 6.51l2.212-.767 2.143.748v4.172l-2.305-.805a.604.604 0 0 0-.398 0l-2.165.762.513-4.11zm5.564-.019l2.143-.747 2.213.767.512 4.107-2.165-.76a.601.601 0 0 0-.397 0l-2.306.805V6.49zm0 5.455l2.503-.874 2.532.889.588 4.721-2.554-.891a.61.61 0 0 0-.398 0l-2.671.932v-4.777zm6.85 4.81l-.6-4.827 2.469-.857 2.555.906 1.16 4.657-2.418-.844a.607.607 0 0 0-.396 0l-2.77.966zm2.717-11.63l-1.733-.597a.602.602 0 0 0-.397.001l-2.021.71-.503-4.028h3.678l.976 3.914zM5.305 1.212h3.677L8.48 5.241 6.46 4.53a.6.6 0 0 0-.397-.002l-1.732.597.975-3.914zM25.12 17.61a.607.607 0 0 0-.396 0l-3.277 1.143-3.274-1.143a.61.61 0 0 0-.398 0L14.5 18.752l-3.276-1.143a.607.607 0 0 0-.397 0l-3.276 1.143-3.29-1.143a.606.606 0 0 0-.397 0l-2.656.931v-.534l2.856-1 3.29 1.142.02.006a.445.445 0 0 0 .035.01l.022.004a.488.488 0 0 0 .035.007l.01.002.018.002h.013a.75.75 0 0 0 .046.003l.03-.002.021-.001c.01 0 .021-.003.033-.004l.018-.002a.394.394 0 0 0 .032-.007l.02-.005.03-.009.014-.004 3.274-1.143 3.277 1.143.008.003.025.008.029.007a.916.916 0 0 1 .025.005l.033.005.021.003a.61.61 0 0 0 .113 0c.008 0 .014-.002.021-.003l.034-.005.025-.005.028-.007.026-.008.008-.003 3.276-1.143 3.275 1.143.014.004.03.01.02.004.032.007a1.047 1.047 0 0 0 .051.006c.009 0 .02 0 .028.002h.023l.046-.001.014-.002h.015l.01-.003a.56.56 0 0 0 .038-.007c.006 0 .013-.002.02-.004a.513.513 0 0 0 .055-.016l3.277-1.143 2.869 1.002v.534l-2.67-.932z" fill="#FFF" fill-rule="nonzero"></path></svg><svg width="44" height="50" viewBox="-10 -10 44 50" id="screw" y="2426"><title>screw</title><g transform="translate(-1)" fill="#1D509F" fill-rule="nonzero"><path d="M24.065.03L16.86.28c-.468.022-.834.432-.828.92l.04 1.165a.92.92 0 0 0 .298.628L18.42 4.86l.126 3.6-.359.316a.59.59 0 0 0-.06.807c.11.134.272.209.443.197h.017l.057 1.659-.358.317a.59.59 0 0 0-.06.807.525.525 0 0 0 .465.196l.058 1.66-.359.316a.59.59 0 0 0-.06.807.525.525 0 0 0 .465.197l.058 1.659-.359.317a.59.59 0 0 0-.06.807c.11.134.272.209.443.197h.016l.024.683 2.372 4.74 2.035-4.894-.148-4.237.359-.317c.23-.21.25-.572.049-.812a.553.553 0 0 0-.454-.197l-.058-1.66.358-.317c.23-.209.25-.572.05-.812a.553.553 0 0 0-.454-.197l-.058-1.659.358-.317c.23-.209.25-.572.05-.812a.553.553 0 0 0-.455-.197l-.057-1.659.358-.317c.23-.21.25-.572.049-.812a.553.553 0 0 0-.454-.197V4.7l1.915-2.004a.907.907 0 0 0 .253-.64L24.945.89c-.017-.488-.411-.871-.88-.86zm-1.84 19.02l-1.017 2.456-1.186-2.379-.042-1.2 2.138-1.942.107 3.065zm-.159-4.546l-2.138 1.942-.053-1.51 2.139-1.942.052 1.51zm-.104-2.986l-2.138 1.943-.053-1.51 2.138-1.943.053 1.51zm-.104-2.985l-2.138 1.943-.053-1.51 2.138-1.943.053 1.51zm2.032-6.56l-2.182 2.272.046 1.303-2.139 1.943-.11-3.17-2.336-2.114-.027-.786 6.72-.235.028.787zM4.207 9.093c-.04.156.011.322.11.47l.81.978-.374.304-.788-.976a.538.538 0 0 0-.435-.206c-.16.006-.326.058-.43.184a5.66 5.66 0 0 0-.204 7.374.546.546 0 0 0 .39.201c.158.017.3-.037.423-.116l2.272-1.844 1.131 1.4a.535.535 0 0 0-.17.532c.06.304.381.498.685.439l.233-.044 1.273 1.576a.535.535 0 0 0-.17.531c.059.304.381.498.684.439l.233-.045 1.273 1.577a.535.535 0 0 0-.17.531c.06.304.381.498.685.439l.233-.045 1.273 1.577a.535.535 0 0 0-.17.531c.059.304.381.498.684.439l.233-.045 1.273 1.577a.535.535 0 0 0-.17.531c.06.304.381.498.685.439l.233-.045.788.976a.62.62 0 0 0 .277.19l2.763.862a.565.565 0 0 0 .536-.104.656.656 0 0 0 .201-.39l.012-.114-.229-2.382.093-.013a.568.568 0 0 0 .44-.503c.008-.068.013-.114-.003-.184-.06-.304-.381-.498-.684-.438l-.233.044-1.273-1.576a.576.576 0 0 0 .176-.371c.007-.068.012-.113-.004-.184-.06-.303-.381-.498-.685-.438l-.233.044-1.272-1.576a.576.576 0 0 0 .176-.37c.007-.069.011-.114-.004-.184-.06-.304-.382-.498-.685-.438l-.233.044-1.273-1.577a.576.576 0 0 0 .176-.37c.008-.068.012-.114-.003-.184-.06-.304-.382-.498-.685-.438l-.233.044-1.273-1.576a.576.576 0 0 0 .176-.37c.007-.069.012-.114-.003-.184-.06-.304-.382-.498-.685-.439l-.233.044-2.477-2.939 2.272-1.844a.55.55 0 0 0 .201-.391.656.656 0 0 0-.115-.425A5.622 5.622 0 0 0 4.475 8.71c-.145.077-.23.228-.268.384zM19.296 28.47l-1.791-.555-.324-.4 1.987-.433.128 1.388zm-.633-2.448l-2.267.494-1.212-1.501 2.266-.494 1.213 1.5zm-2.02-2.502l-2.268.494-1.212-1.501 2.267-.494 1.212 1.5zm-2.021-2.502l-2.267.494-1.212-1.501 2.266-.494 1.213 1.5zm-2.02-2.502l-2.268.494-1.212-1.5 2.267-.495 1.212 1.5zm-2.021-2.502l-2.267.494-1.435-1.776 1.623-1.318 2.079 2.6zm-.112-5.667l-7.016 5.696a4.516 4.516 0 0 1 .083-4.914l.707.876c.202.25.563.288.79.083l1.249-1.014c.25-.202.288-.565.083-.792l-.707-.876c1.646-.674 3.525-.293 4.81.94z"></path></g></svg><svg width="47.41" height="55" viewBox="-10 -10 47.409932999999995 55" id="screw-big" y="2476"><title>screw</title><g transform="matrix(1.17356 0 0 1.17356 -1.912 -.035)" fill="#1d509f" fill-rule="nonzero"><path d="M24.065.03L16.86.28c-.468.022-.834.432-.828.92l.04 1.165a.92.92 0 0 0 .298.628L18.42 4.86l.126 3.6-.359.316a.59.59 0 0 0-.06.807c.11.134.272.209.443.197h.017l.057 1.659-.358.317a.59.59 0 0 0-.06.807c.11.134.272.209.443.197h.022l.058 1.658-.359.317a.59.59 0 0 0-.06.807c.11.134.272.21.443.197h.022l.058 1.659-.359.317a.59.59 0 0 0-.06.807c.11.134.272.209.443.197h.016l.024.683 2.372 4.74 2.035-4.894-.148-4.237.359-.317c.23-.21.25-.572.049-.812a.553.553 0 0 0-.454-.197l-.058-1.66.358-.317c.23-.209.25-.572.05-.812a.553.553 0 0 0-.454-.197l-.058-1.659.358-.317c.23-.209.25-.572.05-.812a.553.553 0 0 0-.455-.197l-.057-1.659.358-.317c.23-.21.25-.572.049-.812a.553.553 0 0 0-.454-.197V4.7l1.915-2.004a.907.907 0 0 0 .253-.64L24.945.89c-.017-.488-.411-.871-.88-.86zm-1.84 19.02l-1.017 2.456-1.186-2.379-.042-1.2 2.138-1.942zm-.159-4.546l-2.138 1.942-.053-1.51 2.139-1.942zm-.104-2.986l-2.138 1.943-.053-1.51 2.138-1.943zm-.104-2.985l-2.138 1.943-.053-1.51 2.138-1.943zm2.032-6.56l-2.182 2.272.046 1.303-2.139 1.943-.11-3.17-2.336-2.114-.027-.786 6.72-.235zM4.207 9.093c-.04.156.011.322.11.47l.81.978-.374.304-.788-.976a.538.538 0 0 0-.435-.206c-.16.006-.326.058-.43.184a5.66 5.66 0 0 0-.204 7.374.546.546 0 0 0 .39.201c.158.017.3-.037.423-.116l2.272-1.844 1.131 1.4a.535.535 0 0 0-.17.532c.06.304.381.498.685.439l.233-.044 1.273 1.576a.535.535 0 0 0-.17.531c.059.304.381.498.684.439l.233-.045 1.273 1.577a.535.535 0 0 0-.17.531c.06.304.381.498.685.439l.233-.045 1.273 1.577a.535.535 0 0 0-.17.531c.059.304.381.498.684.439l.233-.045 1.273 1.577a.535.535 0 0 0-.17.531c.06.304.381.498.685.439l.233-.045.788.976a.62.62 0 0 0 .277.19l2.763.862a.565.565 0 0 0 .536-.104.656.656 0 0 0 .201-.39l.012-.114-.229-2.382.093-.013a.568.568 0 0 0 .44-.503c.008-.068.013-.114-.003-.184-.06-.304-.381-.498-.684-.438l-.233.044-1.273-1.576a.575.575 0 0 0 .176-.371c.007-.068.012-.113-.004-.184-.06-.303-.381-.498-.685-.438l-.233.044-1.272-1.576a.575.575 0 0 0 .176-.37c.007-.069.011-.114-.004-.184-.06-.304-.382-.498-.685-.438l-.233.044-1.273-1.577a.576.576 0 0 0 .176-.37c.008-.068.012-.114-.003-.184-.06-.304-.382-.498-.685-.438l-.233.044-1.273-1.576a.576.576 0 0 0 .176-.37c.007-.069.012-.114-.003-.184-.06-.304-.382-.498-.685-.439l-.233.044-2.477-2.939 2.272-1.844a.55.55 0 0 0 .201-.391.656.656 0 0 0-.115-.425A5.622 5.622 0 0 0 4.475 8.71c-.145.077-.23.228-.268.384zM19.296 28.47l-1.791-.555-.324-.4 1.987-.433zm-.633-2.448l-2.267.494-1.212-1.501 2.266-.494zm-2.02-2.502l-2.268.494-1.212-1.501 2.267-.494zm-2.021-2.502l-2.267.494-1.212-1.501 2.266-.494zm-2.02-2.502l-2.268.494-1.212-1.5 2.267-.495zm-2.021-2.502l-2.267.494-1.435-1.776 1.623-1.318zm-.112-5.667l-7.016 5.696a4.516 4.516 0 0 1 .083-4.914l.707.876c.202.25.563.288.79.083l1.249-1.014c.25-.202.288-.565.083-.792l-.707-.876c1.646-.674 3.525-.293 4.81.94z"></path></g></svg><svg width="44" height="50" viewBox="-10 -10 44 50" id="screw-o" y="2531"><title>screw</title><g transform="translate(-1)" fill="#fff" fill-rule="nonzero"><path d="M24.065.03L16.86.28c-.468.022-.834.432-.828.92l.04 1.165a.92.92 0 0 0 .298.628L18.42 4.86l.126 3.6-.359.316a.59.59 0 0 0-.06.807c.11.134.272.209.443.197h.017l.057 1.659-.358.317a.59.59 0 0 0-.06.807.525.525 0 0 0 .465.196l.058 1.66-.359.316a.59.59 0 0 0-.06.807.525.525 0 0 0 .465.197l.058 1.659-.359.317a.59.59 0 0 0-.06.807c.11.134.272.209.443.197h.016l.024.683 2.372 4.74 2.035-4.894-.148-4.237.359-.317c.23-.21.25-.572.049-.812a.553.553 0 0 0-.454-.197l-.058-1.66.358-.317c.23-.209.25-.572.05-.812a.553.553 0 0 0-.454-.197l-.058-1.659.358-.317c.23-.209.25-.572.05-.812a.553.553 0 0 0-.455-.197l-.057-1.659.358-.317c.23-.21.25-.572.049-.812a.553.553 0 0 0-.454-.197V4.7l1.915-2.004a.907.907 0 0 0 .253-.64L24.945.89c-.017-.488-.411-.871-.88-.86zm-1.84 19.02l-1.017 2.456-1.186-2.379-.042-1.2 2.138-1.942.107 3.065zm-.159-4.546l-2.138 1.942-.053-1.51 2.139-1.942.052 1.51zm-.104-2.986l-2.138 1.943-.053-1.51 2.138-1.943.053 1.51zm-.104-2.985l-2.138 1.943-.053-1.51 2.138-1.943.053 1.51zm2.032-6.56l-2.182 2.272.046 1.303-2.139 1.943-.11-3.17-2.336-2.114-.027-.786 6.72-.235.028.787zM4.207 9.093c-.04.156.011.322.11.47l.81.978-.374.304-.788-.976a.538.538 0 0 0-.435-.206c-.16.006-.326.058-.43.184a5.66 5.66 0 0 0-.204 7.374.546.546 0 0 0 .39.201c.158.017.3-.037.423-.116l2.272-1.844 1.131 1.4a.535.535 0 0 0-.17.532c.06.304.381.498.685.439l.233-.044 1.273 1.576a.535.535 0 0 0-.17.531c.059.304.381.498.684.439l.233-.045 1.273 1.577a.535.535 0 0 0-.17.531c.06.304.381.498.685.439l.233-.045 1.273 1.577a.535.535 0 0 0-.17.531c.059.304.381.498.684.439l.233-.045 1.273 1.577a.535.535 0 0 0-.17.531c.06.304.381.498.685.439l.233-.045.788.976a.62.62 0 0 0 .277.19l2.763.862a.565.565 0 0 0 .536-.104.656.656 0 0 0 .201-.39l.012-.114-.229-2.382.093-.013a.568.568 0 0 0 .44-.503c.008-.068.013-.114-.003-.184-.06-.304-.381-.498-.684-.438l-.233.044-1.273-1.576a.576.576 0 0 0 .176-.371c.007-.068.012-.113-.004-.184-.06-.303-.381-.498-.685-.438l-.233.044-1.272-1.576a.576.576 0 0 0 .176-.37c.007-.069.011-.114-.004-.184-.06-.304-.382-.498-.685-.438l-.233.044-1.273-1.577a.576.576 0 0 0 .176-.37c.008-.068.012-.114-.003-.184-.06-.304-.382-.498-.685-.438l-.233.044-1.273-1.576a.576.576 0 0 0 .176-.37c.007-.069.012-.114-.003-.184-.06-.304-.382-.498-.685-.439l-.233.044-2.477-2.939 2.272-1.844a.55.55 0 0 0 .201-.391.656.656 0 0 0-.115-.425A5.622 5.622 0 0 0 4.475 8.71c-.145.077-.23.228-.268.384zM19.296 28.47l-1.791-.555-.324-.4 1.987-.433.128 1.388zm-.633-2.448l-2.267.494-1.212-1.501 2.266-.494 1.213 1.5zm-2.02-2.502l-2.268.494-1.212-1.501 2.267-.494 1.212 1.5zm-2.021-2.502l-2.267.494-1.212-1.501 2.266-.494 1.213 1.5zm-2.02-2.502l-2.268.494-1.212-1.5 2.267-.495 1.212 1.5zm-2.021-2.502l-2.267.494-1.435-1.776 1.623-1.318 2.079 2.6zm-.112-5.667l-7.016 5.696a4.516 4.516 0 0 1 .083-4.914l.707.876c.202.25.563.288.79.083l1.249-1.014c.25-.202.288-.565.083-.792l-.707-.876c1.646-.674 3.525-.293 4.81.94z"></path></g></svg><svg width="48" height="39" viewBox="-10 -10 48 39" id="technical-iso" y="2581"><g fill="none" fill-rule="evenodd" stroke="#1D509F" stroke-linecap="round" stroke-linejoin="round" stroke-width="1.1"><path d="M.784 12.025c.672 3.487 3.808 6.075 7.504 6.075 3.36 0 6.272-2.25 7.28-5.288l11.424-3.374M26.768 5.5L15.456 8.088C14.448 5.05 11.648 2.8 8.176 2.8 4.48 2.8 1.456 5.388.784 8.763m26.096.787c-.56 1.8-1.792 3.262-3.584 3.938M21.168 1.45c2.576 0 4.704 1.575 5.6 3.825"></path><path d="M3.024 9.1c.56-2.25 2.688-3.938 5.152-3.938a5.222 5.222 0 0 1 4.704 2.926m.112 4.725c-.896 1.8-2.688 2.925-4.816 2.925-2.464 0-4.48-1.688-5.152-3.825M21.392 1.45L8.176 2.8m2.576 14.85l12.768-4.162m-8.064-5.4h-2.464m2.464 4.725h-2.464M.784 9.1h2.24m-2.24 2.812h2.24"></path></g></svg><svg width="59" height="47" viewBox="-10 -10 59 47" id="technical-iso-big" y="2620"><g fill="none" fill-rule="evenodd" stroke="#1D509F" stroke-linecap="round" stroke-linejoin="round" stroke-width="1.597"><path d="M1.018 17.042c.948 5.074 5.372 8.839 10.585 8.839 4.74 0 8.848-3.274 10.27-7.694l16.116-4.91m-.316-5.729l-15.958 3.764c-1.422-4.42-5.372-7.693-10.27-7.693-5.213 0-9.48 3.765-10.427 8.676M37.83 13.44c-.79 2.62-2.527 4.748-5.055 5.73M29.773 1.655c3.634 0 6.636 2.291 7.9 5.565"></path><path d="M4.178 12.786c.79-3.274 3.792-5.73 7.267-5.73 2.844 0 5.372 1.637 6.636 4.256m.159 6.876c-1.265 2.619-3.793 4.255-6.795 4.255-3.475 0-6.32-2.455-7.267-5.565M30.089 1.655L11.445 3.619m3.635 21.607l18.01-6.056m-11.375-7.857H18.24m3.475 6.875H18.24M1.018 12.786h3.16m-3.16 4.092h3.16"></path></g></svg><svg width="48" height="39" viewBox="-10 -10 48 39" id="technical-iso-o" y="2667"><title>technical-iso</title><g transform="translate(0 1)" stroke="#FFF" stroke-width="1.1" fill="none" fill-rule="evenodd" stroke-linecap="round" stroke-linejoin="round"><path d="M.784 11.025c.672 3.487 3.808 6.075 7.504 6.075 3.36 0 6.272-2.25 7.28-5.288l11.424-3.374M26.768 4.5L15.456 7.088C14.448 4.05 11.648 1.8 8.176 1.8 4.48 1.8 1.456 4.388.784 7.763M26.88 8.55c-.56 1.8-1.792 3.262-3.584 3.938M21.168.45c2.576 0 4.704 1.575 5.6 3.825"></path><path d="M3.024 8.1c.56-2.25 2.688-3.938 5.152-3.938a5.222 5.222 0 0 1 4.704 2.926M12.992 11.813c-.896 1.8-2.688 2.925-4.816 2.925-2.464 0-4.48-1.688-5.152-3.825M21.392.45L8.176 1.8M10.752 16.65l12.768-4.162M15.456 7.088h-2.464M15.456 11.813h-2.464M.784 8.1h2.24M.784 10.912h2.24"></path></g></svg><svg width="62" height="62" viewBox="-10 -10 62 62" id="twitter" y="2706"><g fill="none" fill-rule="evenodd"><path fill="#55ACEE" d="M0 21C0 9.402 9.402 0 21 0s21 9.402 21 21-9.402 21-21 21S0 32.598 0 21z"></path><path fill="#FFF" d="M20.371 17.07l.044.726-.734-.09c-2.674-.34-5.01-1.497-6.992-3.44l-.97-.964-.25.712c-.528 1.587-.19 3.263.911 4.39.588.623.456.712-.558.34-.353-.118-.661-.207-.69-.162-.103.103.25 1.453.528 1.987.382.741 1.16 1.468 2.013 1.898l.72.341-.852.015c-.823 0-.852.015-.764.326.294.964 1.454 1.987 2.747 2.432l.91.312-.793.474a8.27 8.27 0 0 1-3.936 1.098c-.662.014-1.205.074-1.205.118 0 .149 1.792.979 2.835 1.305 3.129.964 6.845.549 9.636-1.097 1.983-1.172 3.966-3.5 4.891-5.754.5-1.201 1-3.396 1-4.449 0-.682.043-.771.866-1.587.485-.474.94-.993 1.028-1.142.147-.281.132-.281-.617-.03-1.248.446-1.425.386-.808-.281.456-.475 1-1.335 1-1.587 0-.044-.221.03-.47.163-.265.149-.853.371-1.293.505l-.794.252-.72-.49c-.396-.267-.954-.563-1.248-.652-.75-.208-1.895-.178-2.57.06-1.837.666-2.997 2.387-2.865 4.27z"></path></g></svg><svg width="43" height="49" viewBox="-10 -10 43 49" id="vent-house" y="2768"><g fill="none" fill-rule="evenodd" stroke="#1D509F" stroke-width="1.3"><path d="M.798 22.951l21.653 5.347M7.65 24.301l7.7 1.872V17.65h-7.7v6.651z"></path><rect width="11.7" height="2.7" x="5.65" y="14.65" rx=".9"></rect><rect width="11.7" height="2.7" x="5.65" y=".65" rx=".9"></rect><rect width="15.7" height="10.7" x="3.65" y="3.65" rx="2.7"></rect></g></svg><svg width="50" height="58" viewBox="-10 -10 50 58" id="vent-house-big" y="2817"><g fill="none" fill-rule="evenodd" stroke="#1D509F" stroke-width="1.69" transform="translate(1)"><path d="M.041 30.074l28.242 7.006M8.975 31.849l10.05 2.454V23.121H8.975v8.728z"></path><rect width="15.267" height="3.551" x="6.367" y="19.19" rx="1.17"></rect><rect width="15.267" height="3.551" x="6.367" y=".845" rx="1.17"></rect><rect width="20.484" height="14.034" x="3.758" y="4.776" rx="3.51"></rect></g></svg><svg width="43" height="49" viewBox="-10 -10 43 49" id="vent-house-o" y="2875"><title>vent-house-icon</title><g stroke="#FFF" stroke-width="1.3" fill="none" fill-rule="evenodd"><path d="M.798 22.951l21.653 5.347M7.65 24.301l7.7 1.872V17.65h-7.7v6.651z"></path><rect x="5.65" y="14.65" width="11.7" height="2.7" rx=".9"></rect><rect x="5.65" y=".65" width="11.7" height="2.7" rx=".9"></rect><rect x="3.65" y="3.65" width="15.7" height="10.7" rx="2.7"></rect></g></svg><svg width="36" height="36" viewBox="-10 -10 36 36" id="view-card" y="2924"><path fill="#D8D8D8" fill-rule="evenodd" d="M0 0h16v4H0V0zm0 6h16v4H0V6zm0 6h16v4H0v-4z"></path></svg><svg width="36" height="36" viewBox="-10 -10 36 36" id="view-grid" y="2960"><path fill="#1F56AA" fill-rule="evenodd" d="M0 0h7v7H0V0zm9 0h7v7H9V0zm0 9h7v7H9V9zM0 9h7v7H0V9z"></path></svg><svg width="62" height="62" viewBox="-10 -10 62 62" id="vk" y="2996"><g fill="none" fill-rule="evenodd"><path fill="#4C6C91" d="M0 21C0 9.402 9.402 0 21 0s21 9.402 21 21-9.402 21-21 21S0 32.598 0 21z"></path><path fill="#FFF" d="M22.099 27.192s.404-.045.61-.263c.19-.2.184-.577.184-.577s-.025-1.763.808-2.023c.822-.256 1.877 1.704 2.997 2.458.846.57 1.488.445 1.488.445l2.992-.04s1.564-.095.822-1.303c-.06-.099-.432-.893-2.224-2.526-1.876-1.709-1.624-1.432.635-4.389 1.376-1.8 1.926-2.9 1.754-3.369-.163-.45-1.176-.33-1.176-.33l-3.368.02s-.25-.033-.435.076c-.18.106-.298.354-.298.354s-.532 1.393-1.243 2.578c-1.5 2.5-2.1 2.632-2.345 2.477-.57-.363-.428-1.454-.428-2.23 0-2.422.375-3.432-.729-3.694-.365-.087-.635-.144-1.572-.153-1.202-.012-2.218.004-2.795.28-.383.184-.679.595-.498.619.222.029.726.133.994.49.345.461.333 1.496.333 1.496s.198 2.852-.464 3.206c-.453.243-1.076-.253-2.413-2.52-.685-1.162-1.202-2.446-1.202-2.446s-.1-.24-.278-.37a1.412 1.412 0 0 0-.518-.204l-3.2.02s-.48.014-.657.22c-.157.18-.012.558-.012.558s2.505 5.755 5.343 8.655c2.602 2.659 5.556 2.485 5.556 2.485h1.339z"></path></g></svg><svg width="44" height="53" viewBox="-10 -10 44 53" id="warmth" y="3058"><g fill="none" fill-rule="evenodd" stroke="#1D509F" stroke-linecap="round" stroke-linejoin="round" stroke-width="1.08"><path d="M1.44 12.736h3.08v19.043H1.44zm0 0L13.32 2.329s1.43-.997 4.73-.997c3.74 0 4.51 2.214 4.51 3.654 0 1.771-1.1 2.657-5.28 2.435-2.53-.11-3.96-2.878-1.98-3.764m-1.1.886l-9.68 8.193"></path><path d="M22.45 4.875v16.054s-.11 4.65-4.29 4.65c0 0-3.3.332-4.4-2.325V5.539m-9.24 26.24l8.91-8.968"></path></g></svg><svg width="48" height="59" viewBox="-10 -10 48 59" id="warmth-big" y="3111"><g fill="none" fill-rule="evenodd" stroke="#1D509F" stroke-linecap="round" stroke-linejoin="round" stroke-width="1.296"><path d="M1.52 15.007h3.64v22.729H1.52zm0 0L15.56 2.586s1.69-1.19 5.59-1.19c4.42 0 5.33 2.643 5.33 4.361 0 2.114-1.3 3.172-6.24 2.907-2.99-.132-4.68-3.435-2.34-4.493m-1.3 1.058L5.16 15.007"></path><path d="M26.35 5.625v19.16s-.13 5.55-5.07 5.55c0 0-3.9.397-5.2-2.774V6.418M5.16 37.736l10.53-10.704"></path></g></svg><svg width="44" height="53" viewBox="-10 -10 44 53" id="warmth-o" y="3170"><title>warmth</title><g transform="translate(1 1)" stroke="#FFF" stroke-width="1.08" fill="none" fill-rule="evenodd" stroke-linecap="round" stroke-linejoin="round"><path d="M.44 11.736h3.08v19.043H.44zM.44 11.736L12.32 1.329s1.43-.997 4.73-.997c3.74 0 4.51 2.214 4.51 3.654 0 1.771-1.1 2.657-5.28 2.435-2.53-.11-3.96-2.878-1.98-3.764M13.2 3.543l-9.68 8.193"></path><path d="M21.45 3.875v16.054s-.11 4.65-4.29 4.65c0 0-3.3.332-4.4-2.325V4.539M3.52 30.779l8.91-8.968"></path></g></svg><svg width="59" height="56" viewBox="-10 -10 59 56" id="warning" y="3223"><g fill="#2057AC"><path d="M19.478 25.295c-1.09 0-2.002.92-2.002 2.018 0 1.098.913 2.018 2.002 2.018 1.05 0 2.002-.92 1.954-1.97a1.963 1.963 0 0 0-1.954-2.066z"></path><path d="M38.009 32.447c1.257-2.187 1.265-4.795.016-6.974l-12.54-21.89C24.242 1.378 22 .07 19.485.07s-4.757 1.316-5.998 3.503L.93 25.49a6.994 6.994 0 0 0 .024 7.014c1.25 2.164 3.484 3.463 5.982 3.463h25.05c2.506 0 4.757-1.315 6.022-3.519zm-2.723-1.582c-.697 1.21-1.93 1.93-3.307 1.93H6.929a3.727 3.727 0 0 1-3.267-1.89 3.846 3.846 0 0 1-.008-3.85L16.21 5.148a3.711 3.711 0 0 1 3.275-1.913c1.37 0 2.595.719 3.275 1.921l12.55 21.907c.672 1.179.664 2.6-.025 3.802z"></path><path d="M18.981 11.13c-.953.274-1.545 1.146-1.545 2.203.048.638.088 1.283.136 1.921l.408 7.24c.048.824.681 1.421 1.498 1.421s1.457-.638 1.498-1.469c0-.5 0-.96.048-1.469.088-1.558.184-3.116.272-4.674.048-1.008.136-2.017.184-3.026a2.51 2.51 0 0 0-.184-1.01 2.003 2.003 0 0 0-2.315-1.138z"></path></g></svg><svg width="47" height="48" viewBox="-10 -10 47 48" id="wat" y="3279"><g fill="none" fill-rule="evenodd" stroke="#1D509F" stroke-linecap="round" stroke-linejoin="round" stroke-width="1.08"><path d="M3.012 4.683C1.614 4.25.646 2.842.646 1.325l18.182 7.583c0 1.95 1.613 3.575 3.55 3.575 1.936 0 3.55-1.625 3.55-3.575L7.746 1.325c.108 1.083-.215 1.842-.968 2.492m-3.981.866l18.828 7.8"></path><path d="M9.145 7.283V10.1h1.506v2.708H15.6V10.1m-4.088 2.708v4.875s.322 4.334 5.056 4.334c3.658.108 3.766 3.358 3.658 4.983h3.12m-5.272-7.908h.646c2.044 0 3.658 1.841 4.196 3.358.323.758.43 1.625.43 2.492v1.95"></path><path d="M15.062 12.808v4.442s.323 1.733 3.12 1.842"></path></g></svg><svg width="52" height="53" viewBox="-10 -10 52 53" id="wat-big" y="3327"><g fill="none" fill-rule="evenodd" stroke="#1D509F" stroke-linecap="round" stroke-linejoin="round" stroke-width="1.296"><path d="M3.592 5.392C1.924 4.875.77 3.196.77 1.387l21.678 9.042c0 2.325 1.924 4.263 4.233 4.263 2.31 0 4.233-1.938 4.233-4.263L9.236 1.387c.128 1.292-.257 2.196-1.155 2.971M3.335 5.392l22.448 9.3"></path><path d="M10.903 8.492v3.358H12.7v3.23h5.9v-3.23"></path><path d="M13.726 15.08v5.812s.384 5.166 6.028 5.166c4.362.13 4.49 4.005 4.362 5.942h3.72m-6.286-9.43h.77c2.437 0 4.361 2.197 5.003 4.005.385.904.513 1.938.513 2.97v2.326"></path><path d="M17.959 15.08v5.295s.384 2.067 3.72 2.196"></path></g></svg><svg width="47" height="50" viewBox="-10 -10 47 50" id="wat-o" y="3380"><title>wat</title><g transform="translate(1 1)" stroke="#FFF" stroke-width="1.08" fill="none" fill-rule="evenodd" stroke-linecap="round" stroke-linejoin="round"><path d="M2.367 3.358C.968 2.925 0 1.517 0 0l18.182 7.583c0 1.95 1.614 3.575 3.55 3.575 1.937 0 3.55-1.625 3.55-3.575L7.102 0c.107 1.083-.215 1.842-.969 2.492M1.797 5.683l18.828 7.8M8.145 8.283V11.1H9.65v2.708H14.6V11.1M10.512 13.808v4.875s.322 4.334 5.056 4.334c3.658.108 3.766 3.358 3.658 4.983h3.12M17.074 20.092h.646c2.044 0 3.658 1.841 4.196 3.358.323.758.43 1.625.43 2.492v1.95"></path><path d="M14.062 13.808v4.442s.323 1.733 3.12 1.842"></path></g></svg><svg width="48" height="48" viewBox="-10 -10 48 48" id="waterproof" y="3430"><g fill="#1D509F"><path d="M26.027 26.437H14l7.986-8.172a.65.65 0 0 0 .191-.456.65.65 0 0 0-.19-.456l-2.069-2.116a.606.606 0 0 0-.89 0l-8.305 8.465-3.755-3.842 1.496-1.53a.69.69 0 0 0 .159-.65c-.064-.229-.255-.392-.51-.457l-7.19-1.27a.661.661 0 0 0-.573.196.666.666 0 0 0-.19.586l1.24 7.358c.032.228.223.423.445.521.223.065.478 0 .637-.163l1.495-1.53 3.468 3.549H.795a.646.646 0 0 0-.636.65c0 .36.286.652.636.652h25.232c.35 0 .637-.293.637-.651 0-.358-.287-.684-.637-.684zm-6.554-9.832l1.177 1.204-7.827 8.01-1.178-1.205 7.828-8.01zM3.532 21.52L2.45 22.628l-.89-5.21 5.09.912-1.082 1.107a.64.64 0 0 0 0 .912l6.014 6.153H9.227l-4.772-4.981a.642.642 0 0 0-.923 0zM23.482.26a.66.66 0 0 0-.51.26c-.381.554-3.817 5.438-3.817 7.685 0 2.442 1.94 4.428 4.327 4.428 2.386 0 4.327-1.986 4.327-4.428 0-2.247-3.436-7.13-3.818-7.684-.096-.163-.286-.26-.51-.26zm0 11.07c-1.687 0-3.055-1.4-3.055-3.125 0-1.205 1.718-4.168 3.055-6.186C24.85 4.037 26.536 7 26.536 8.205a3.071 3.071 0 0 1-3.054 3.125z"></path><path d="M23.64 6.381c.192.196 1.02 1.27.033 2.28a.64.64 0 0 0 0 .911.62.62 0 0 0 .445.195c.16 0 .318-.065.446-.195 1.495-1.53.668-3.32.031-4.07a.606.606 0 0 0-.89-.032c-.255.228-.287.618-.064.911z"></path></g></svg><svg width="56" height="56" viewBox="-10 -10 56 56" id="waterproof-big" y="3478"><g fill="#1D509F"><path d="M33.464 33.99H18l10.268-10.506a.836.836 0 0 0 .246-.586.836.836 0 0 0-.246-.586L25.61 19.59a.779.779 0 0 0-1.145 0L13.786 30.474l-4.827-4.94 1.923-1.967a.887.887 0 0 0 .204-.837c-.081-.293-.327-.502-.654-.586l-9.246-1.632a.85.85 0 0 0-.736.25.856.856 0 0 0-.245.754l1.595 9.46c.04.294.286.545.573.67.286.084.613 0 .818-.209l1.923-1.967 4.459 4.563h-8.55a.83.83 0 0 0-.818.837c0 .46.368.837.818.837h32.441a.83.83 0 0 0 .818-.837c0-.46-.368-.88-.818-.88zm-8.428-12.64l1.514 1.549-10.064 10.297-1.513-1.548L25.036 21.35zM4.541 27.67L3.15 29.094l-1.145-6.698 6.545 1.172-1.39 1.424a.822.822 0 0 0 0 1.172l7.73 7.911h-3.026L5.727 27.67a.826.826 0 0 0-1.186 0zM30.19.335a.847.847 0 0 0-.654.335c-.49.711-4.909 6.99-4.909 9.879 0 3.14 2.496 5.693 5.564 5.693s5.564-2.554 5.564-5.693c0-2.889-4.419-9.168-4.91-9.88-.122-.209-.368-.334-.654-.334zm0 14.232c-2.167 0-3.926-1.8-3.926-4.018 0-1.549 2.209-5.358 3.927-7.954C31.95 5.191 34.118 9 34.118 10.55c.041 2.218-1.759 4.018-3.927 4.018z"></path><path d="M30.395 8.205c.246.25 1.31 1.632.041 2.93a.822.822 0 0 0 0 1.172.799.799 0 0 0 .573.251.8.8 0 0 0 .573-.251c1.923-1.967.859-4.27.04-5.233a.779.779 0 0 0-1.145-.041c-.327.293-.368.795-.082 1.172z"></path></g></svg><svg width="48" height="46" viewBox="-10 -10 48 46" id="waterproof-o" y="3534"><title>waterproof-icon</title><g fill="#FFF" fill-rule="nonzero"><path d="M26.027 24.549H14l7.986-7.589a.583.583 0 0 0 .191-.423.583.583 0 0 0-.19-.423l-2.069-1.965a.638.638 0 0 0-.89 0l-8.305 7.86-3.755-3.567 1.496-1.421c.159-.151.222-.393.159-.605-.064-.211-.255-.363-.51-.423l-7.19-1.179a.693.693 0 0 0-.573.181.591.591 0 0 0-.19.545l1.24 6.832c.032.212.223.393.445.484.223.06.478 0 .637-.151l1.495-1.421 3.468 3.295H.795c-.35 0-.636.272-.636.605 0 .332.286.604.636.604h25.232c.35 0 .637-.272.637-.604a.649.649 0 0 0-.637-.635zm-6.554-9.13l1.177 1.118-7.827 7.437-1.178-1.118 7.828-7.437zM3.532 19.984L2.45 21.012l-.89-4.838 5.09.847-1.082 1.028a.565.565 0 0 0 0 .846l6.014 5.714H9.227l-4.772-4.625a.677.677 0 0 0-.923 0zM23.482.242c-.191 0-.382.09-.51.242-.381.514-3.817 5.049-3.817 7.135 0 2.267 1.94 4.111 4.327 4.111 2.386 0 4.327-1.844 4.327-4.111 0-2.086-3.436-6.621-3.818-7.135-.096-.151-.286-.242-.51-.242zm0 10.279c-1.687 0-3.055-1.3-3.055-2.902 0-1.119 1.718-3.87 3.055-5.745C24.85 3.75 26.536 6.5 26.536 7.62c.032 1.602-1.368 2.902-3.054 2.902z"></path><path d="M23.64 5.926c.192.181 1.02 1.179.033 2.116a.565.565 0 0 0 0 .846c.127.121.286.182.445.182.16 0 .318-.06.446-.182 1.495-1.42.668-3.083.031-3.779a.637.637 0 0 0-.89-.03c-.255.212-.287.574-.064.847z"></path></g></svg><svg width="63" height="62" viewBox="-10 -10 63 62" id="youtube" y="3580"><g fill="none" fill-rule="evenodd"><path fill="#CE1312" d="M0 21C0 9.402 9.482 0 21.178 0c11.696 0 21.178 9.402 21.178 21s-9.482 21-21.178 21C9.482 42 0 32.598 0 21z"></path><path fill="#FFF" d="M32.2 16.773s-.22-1.577-.896-2.272c-.858-.912-1.82-.916-2.26-.97-3.157-.231-7.892-.231-7.892-.231h-.01s-4.734 0-7.891.232c-.441.053-1.402.057-2.26.969-.677.695-.897 2.272-.897 2.272s-.225 1.853-.225 3.705v1.736c0 1.853.225 3.705.225 3.705s.22 1.577.896 2.272c.859.912 1.986.884 2.488.979 1.805.176 7.67.23 7.67.23s4.74-.007 7.896-.239c.44-.054 1.402-.058 2.26-.97.676-.695.897-2.272.897-2.272s.225-1.852.225-3.705v-1.736a35.23 35.23 0 0 0-.225-3.705z"></path><path fill="#CE1312" d="M18.818 24.319v-6.432l6.095 3.227z"></path></g></svg></svg>