<svg xmlns="http://www.w3.org/2000/svg" xmlns:xlink="http://www.w3.org/1999/xlink" width="118" height="3642"><style><![CDATA[.B{fill:none}.C{stroke:#1d509f}.D{fill-rule:evenodd}.E{stroke-linecap:round}.F{stroke-linejoin:round}.G{fill:#1d509f}.H{fill:#fff}.I{stroke:#fff}.J{fill-rule:nonzero}.K{fill:#2057ac}.L{stroke-width:1.3}.M{stroke-width:.2}.N{stroke-width:1.1}.O{stroke-width:1.08}.P{stroke-width:1.69}.Q{stroke-width:.704}.R{stroke-width:1.14}.S{stroke-width:1.215}.T{stroke-width:1.296}]]></style><svg width="54" height="36" viewBox="-10 -10 54 36"><use xlink:href="#B" class="G"/></svg><svg width="64" height="41" viewBox="-10 -10 64 41" y="36"><path d="M43.185 19.385h-.815V13.73a.81.81 0 0 0-.814-.808h-5.704V7.27a.811.811 0 0 0-.815-.807h-5.704V.808A.811.811 0 0 0 28.52 0H15.48a.812.812 0 0 0-.814.808v5.654H8.963a.812.812 0 0 0-.815.807v5.654H2.444a.811.811 0 0 0-.814.808v5.654H.815a.811.811 0 0 0-.815.807.81.81 0 0 0 .815.808h42.37a.81.81 0 0 0 .815-.808.81.81 0 0 0-.815-.807zm-8.963-6.462H22.815V8.077h11.407v4.846zM16.296 1.615h11.408v4.847H16.296V1.615zM9.778 8.077h11.407v4.846H9.778V8.077zm-6.52 6.46h11.408v4.847H3.26v-4.847zm13.037 0h11.408v4.847H16.296v-4.847zm13.037 4.847v-4.847H40.74v4.847H29.333z" class="G"/></svg><svg width="54" height="36" viewBox="-10 -10 54 36" y="77"><use xlink:href="#B" class="H"/></svg><svg width="59" height="63" viewBox="-10 -10 59 63" y="113"><path d="M28.554 30.1h-4.18a.687.687 0 0 0-.492.21L19.5 34.8l-4.383-4.5a.687.687 0 0 0-.492-.21h-4.18C4.394 30.1 0 34.654 0 40.928v1.355c0 .396.312.717.696.717s.697-.32.697-.717v-1.355c0-5.443 3.807-9.395 9.053-9.395h3.9l4.672 4.807a.68.68 0 0 0 .984 0l4.67-4.807h3.9c5.247 0 9.054 3.952 9.054 9.395v1.355c0 .396.312.717.697.717s.696-.32.696-.717v-1.355C39 34.654 34.606 30.1 28.554 30.1zm3.342-20.232a10.01 10.01 0 0 0-2.847-5.356C26.602 1.724 23.15.093 19.5 0c-3.65.092-7.1 1.723-9.55 4.5-4.695 4.208-3.166 13.875-2.976 14.967.156.9.233 2.495-.993 3.245-.644.386-1.32.7-2.024.965a.721.721 0 0 0-.44.907.72.72 0 0 0 .168.28A7.272 7.272 0 0 0 8.92 27.31a4.48 4.48 0 0 0 1-.1.719.719 0 0 0 .5-.873.695.695 0 0 0-.838-.517 5.107 5.107 0 0 1-4.092-1.225c.413-.192.816-.407 1.206-.645 1.422-.87 2.024-2.594 1.65-4.73-.64-3.667-.825-10.68 2.554-13.658a.704.704 0 0 0 .08-.084c.033-.04 3.357-4.044 8.52-4.044s8.487 4.003 8.52 4.044c.024.03.05.058.08.084a8.582 8.582 0 0 1 2.441 4.636.7.7 0 0 0 .839.532.718.718 0 0 0 .516-.86zm3.417 13.995a.693.693 0 0 0-.27-.173 11.824 11.824 0 0 1-1.991-.944.686.686 0 0 0-.954.255.728.728 0 0 0 .248.982 12.6 12.6 0 0 0 1.166.617 5.096 5.096 0 0 1-4.098 1.223.696.696 0 0 0-.843.524.718.718 0 0 0 .51.868v-.003a4.31 4.31 0 0 0 1 .1 7.272 7.272 0 0 0 5.233-2.436.731.731 0 0 0 0-1.013zM32.036 12.9h-2.744c-.014 0-.027-.01-.042-.01h-2.777v-2.857a.716.716 0 0 0-.705-.726.716.716 0 0 0-.706.726v2.858h-2.767v-2.858a.716.716 0 0 0-.706-.726.716.716 0 0 0-.705.726v2.858h-2.768v-2.858a.716.716 0 0 0-.705-.726.716.716 0 0 0-.706.726v2.858h-2.767v-2.858a.716.716 0 0 0-.706-.726.716.716 0 0 0-.705.726v2.858H9.75a.717.717 0 0 0-.704.77l.348 5.928c.325 6.292 4.357 10.52 10.03 10.52h.147a9.834 9.834 0 0 0 4.412-1.007.735.735 0 0 0 .329-.968.696.696 0 0 0-.94-.339 8.472 8.472 0 0 1-3.801.86h-.14c-4.875 0-8.34-3.675-8.623-9.15l-.305-5.164h18l-.305 5.164c-.024.4.272.744.66.768a.712.712 0 0 0 .747-.68l.3-5.26h2.122c.384 0 .696.32.696.717v4.3a.707.707 0 0 1-.696.717.707.707 0 0 0-.697.716c0 .396.312.717.697.717 1.154 0 2.1-.963 2.1-2.15v-4.3c0-1.187-.935-2.15-2.1-2.15zm-.696 2.857a.716.716 0 0 0-.706.726c-.005 4.347-3.428 7.87-7.652 7.874H22.9c-.4-1.537-1.917-2.457-3.4-2.056s-2.4 1.97-2 3.508 1.916 2.458 3.4 2.057a2.836 2.836 0 0 0 1.999-2.057h.092c5.003-.006 9.057-4.177 9.063-9.326a.716.716 0 0 0-.706-.726zm-11.144 10.75c-.764 0-1.383-.637-1.383-1.424s.62-1.424 1.383-1.424 1.384.638 1.384 1.424-.62 1.424-1.384 1.424z" class="K"/></svg><svg width="118" height="34" viewBox="-10 -10 118 34" y="176"><defs><linearGradient id="A" x1=".008%" y1="50%" y2="50%"><stop offset="30%" stop-color="#00b4e6"/><stop offset="100%" stop-color="#088ccb"/></linearGradient><path id="B" d="M33.37 14.77h-.63v-4.308a.622.622 0 0 0-.629-.616h-4.407V5.538a.622.622 0 0 0-.63-.615h-4.407V.615a.622.622 0 0 0-.63-.615H11.963a.623.623 0 0 0-.63.615v4.308H6.926a.623.623 0 0 0-.63.615v4.308H1.9a.622.622 0 0 0-.63.616v4.307H.63a.622.622 0 0 0-.629.616c0 .34.282.615.63.615h32.74c.35 0 .63-.275.63-.615a.622.622 0 0 0-.63-.616zm-6.926-4.924H17.63V6.154h8.814v3.692zM12.593 1.23h8.814v3.692h-8.814V1.23zM7.556 6.154h8.814v3.692H7.556V6.154zM2.52 11.077h8.814v3.692H2.52v-3.692zm10.074 0h8.814v3.692h-8.814v-3.692zm10.074 3.692v-3.692h8.814v3.692h-8.814z"/><path id="C" d="M.5.5v22h28v-1.554c-7.34-1.02-13.206-3.374-17.588-7.073C6.552 10.193 4.3 5.725 4.208.5H.5z"/><path id="D" d="M.5.5v22h26.045c-6.826-1.124-12.42-3.478-16.77-7.068C5.018 11.5 2.454 6.522 2.095.5H.5zm28 22h.14l.17.2-.118.118a55.43 55.43 0 0 1-.192-.024V22.5z"/><path id="E" d="M1.435.5L28.5 21.965V9.58c-3.054.043-5.8-.757-8.226-2.4C17.8 5.515 16.354 3.28 15.92.5H1.435z"/><path id="F" d="M4.264 3.79h13.43v1H4.264zm2.058 3.578h14.806v1H6.322zm2.115 3.577h20.415v1H8.437zm3.198 3.578H28.85v1H11.635zm6.5 3.578h10.718v1H18.134z"/><path id="G" d="M10 0h.807v13.238H10zM7 0h.807v10H7zm6 0h.807v16H13zm3 4h.807v13.747H16zm3 2.6h1V19h-1zM22 8h.863v12H22zm3 1h.863v11.8H25z"/><path id="H" d="M0 21C0 9.402 9.402 0 21 0s21 9.402 21 21-9.402 21-21 21S0 32.598 0 21z"/><path id="I" d="M6 26H1V5.113L3.5 1 6 5.113zm10 0h-5V5.113L13.5 1 16 5.113zm10 0h-5V5.113L23.5 1 26 5.113zM6 8h5m-5 5h5m-5 5h5m-5 5h5m5-15h5m-5 5h5m-5 5h5m-5 5h4.992"/><path id="J" d="M8.404 8.16l6.67 6.562c3.408-4.716 2.166-12.33-6.787-13.665.78 1.506 2.166 3.75.116 7.102zm-3.032 3.465c-.347.313-.722.625-1.127.966-3.32 3.01-2.368 6.506-.722 9.148 1.473 2.187 3.6 3.863 7.682 4.062-1.617-3.778-.808-5.34.982-7.5l-6.815-6.676zm8.115 8.068c-1.675 2.13-1.098 3.864-.318 5.88.722 0 2.54-.738 4.16-2.187l-3.784-3.75-.057.057zm6.555-.085c.78-2.13.693-4.8-1.184-7.955-.404 1.42-1.386 2.955-2.454 4.375l3.638 3.58z"/><path id="K" d="M30.17 10.444H12.886c-1.415 0-2.515-2.18-2.515-4.694s1.1-4.694 2.515-4.694H30.17m.001 9.388l-11.628 9.22H.63l11.785-9.22"/><path id="L" d="M15.175 42C25.292 29.805 30.35 20.897 30.35 15.273 30.35 6.838 23.556 0 15.175 0S0 6.838 0 15.273C0 20.897 5.058 29.805 15.175 42z"/><path id="M" d="M9.82 10.324v16.24c0 1.276-.975 2.32-2.166 2.32H3.213c-1.192 0-2.167-1.044-2.167-2.32V3.016c0-1.276.975-2.32 2.167-2.32h4.442c.758 0 1.3.348 1.733.928"/><path id="N" d="M9.82 3.016c0 1.276-.975 2.32-2.166 2.32H3.213c-1.192 0-2.167-1.044-2.167-2.32S2.02.696 3.213.696h4.442c1.19 0 2.166 1.044 2.166 2.32"/><path id="O" d="M10.363 3.596l2.708 3.828S1.155 17.4 1.046 22.272c.65-7.424 2.275-12.644 9.317-18.676zm-.975-1.972l3.467 5.568"/><path id="P" d="M3.96 16.19v-4.357l8.215 8.257H7.84l-.19-.08-3.612-3.63-.08-.2zm6.536-1.707h4.343l.19.08 5.5 5.527h-4.343l-.19-.08-5.5-5.527zm-1.253-1.26L4.038 7.99l-.08-.2V3.434l5.205 5.232.08.2v4.367zm9.607 1.26h4.324l.19.08 5.5 5.527H24.54l-.19-.08-5.5-5.527zM9.243 4.825L5.168.73h4.075v4.096zm15.514 7.104V7.593l5.205 5.23.08.2v4.338l-5.205-5.23-.08-.2zm0-8.368V.73h1.358l.19.08 3.656 3.674.08.2v4.3l-5.205-5.232-.08-.2z"/><path id="Q" d="M25.576 20.09h-4.333l8.798-8.843v4.357l-.08.2-4.195 4.216-.19.08zm-8.345 0h-4.343l5.5-5.527.19-.08h4.343l-5.498 5.527-.192.08zm12.73-12.683l-5.205 5.23V8.27l.08-.2 5.205-5.232v4.367l-.08.2zM8.877 20.09H4.553l5.5-5.527.19-.08h4.324L9.068 20l-.19.08zM28.25.73l-3.492 3.5V.73h3.492zM3.96 16.766V12.43l.08-.2 5.205-5.232v4.337l-.08.2-5.205 5.232zm0-8.368V4.09l.08-.2L7.1.81l.192-.08h1.94v2.246l-.08.2L3.96 8.398z"/><path id="R" d="M3.25 1.918l.51.512L.923 5.268.41 4.756l2.84-2.838zm0 4.524l.51.51L.923 9.79.41 9.28l2.84-2.838zm0 4.885l.51.512-2.838 2.838-.512-.512 2.84-2.838zm0 4.705l.51.512-2.838 2.838-.512-.512 2.84-2.838zM30.5 1.918l-.512.512 2.838 2.838.512-.512-2.84-2.838zm0 4.524l-.512.51 2.838 2.838.512-.51-2.84-2.838zm0 4.885l-.512.512 2.838 2.838.512-.512-2.84-2.838zm0 4.705l-.512.512 2.838 2.838.512-.512-2.84-2.838zM7.64 19.988l.512.512-2.838 2.838-.512-.51 2.838-2.84zm15.325 0l.512.512-2.838 2.838-.512-.51 2.838-2.84zm5.202 0l.512.512-2.838 2.838-.512-.51 2.838-2.84zm-10.3 0l.51.512-2.838 2.838-.512-.51 2.84-2.84zm-5.11 0l.512.512-2.838 2.838-.512-.51 2.838-2.84z"/><path id="S" d="M6.227 17.217a1.31 1.31 0 0 1 1.429 0c.1.07.183.07.293.07a.54.54 0 0 0 .476-.247c.183-.247.1-.565-.147-.742-.805-.495-1.83-.495-2.6 0a.507.507 0 0 0-.147.742c.1.248.44.32.696.177z"/><path id="T" d="M2.674 5.303a.533.533 0 0 0-.476.601c.55 4.525 3.077 7.39 3.187 7.53.1.106.256.177.403.177.1 0 .256-.035.366-.14a.5.5 0 0 0 .036-.743c-.036-.035-2.417-2.757-2.93-6.93 0-.318-.293-.53-.586-.495z"/><path id="U" d="M6.96 25.596c-1 0-1.832.778-1.832 1.768s.806 1.767 1.832 1.767 1.83-.777 1.83-1.767-.842-1.768-1.83-1.768zm0 2.475a.722.722 0 0 1-.733-.707c0-.4.33-.707.733-.707s.732.318.732.707-.33.707-.732.707z"/><path id="V" d="M16.018 20.907c-.263-.09-.542.04-.628.29l-1.877 5.45a.49.49 0 0 0 .317.615c.263.09.542-.04.628-.29l1.877-5.45a.49.49 0 0 0-.317-.615"/><path id="W" d="M13.92.212L0 .177V3.36C0 9.5 2.967 13.823 4.03 15.237c-.074.036-.147.106-.22.142l-.367.177.147.424a19.21 19.21 0 0 1 .33 8.166l-.477 2.758c-.183 1 .1 2.015.806 2.793.66.778 1.648 1.202 2.7 1.202s2.052-.424 2.71-1.202a3.5 3.5 0 0 0 .806-2.793L10 24.11a19.374 19.374 0 0 1 .33-8.202l.073-.318-.256-.212a.77.77 0 0 0-.22-.142c1.1-1.378 4.03-5.727 4.03-11.878V.212zM8.8 29.025a2.493 2.493 0 0 1-1.868.849 2.493 2.493 0 0 1-1.868-.849 2.297 2.297 0 0 1-.55-1.909l.477-2.757c.476-2.758.403-5.55-.257-8.308a3.848 3.848 0 0 1 4.396 0 20.312 20.312 0 0 0-.257 8.272l.477 2.793c.146.672-.074 1.38-.55 1.9zm4.03-25.63c0 5.904-2.968 10.146-3.883 11.313-1.246-.53-2.7-.566-3.956 0C4.066 13.54 1.1 9.298 1.1 3.36V1.237l11.722.036z"/><path id="X" d="M15.404 27.295c-.26.75-1.105 1.142-1.887.873s-1.208-1.1-.95-1.85l2.3-6.708c.316-.21.724-.566.898-1.072.155-.45.09-.92-.01-1.272l2.69.927c-.295.216-.636.547-.79.997-.174.506-.072 1.037.048 1.398zM19.26 10.4l-.186-1.233 1.4-1.956.465.16-.102 2.403-1.07 1.015-2.105 6.115-.473-.163 2.105-6.115zm.37 7.692a.49.49 0 0 0-.313-.617l-.712-.245 2.032-5.9 1.178-1.117.148-3.503-1.89-.65-2.04 2.85.24 1.606-2.032 5.9-.71-.245a.49.49 0 0 0-.627.293l-.234.68s.316.617.16 1.07-.785.745-.785.745l-2.422 7.035c-.43 1.252.277 2.634 1.582 3.083s2.714-.203 3.145-1.455l2.422-7.035s-.316-.617-.16-1.07.785-.745.785-.745z"/><path id="Y" d="M10.533 10.477H3.037c-.896 0-1.63-.733-1.63-1.628V6.453c0-.895.734-1.627 1.63-1.627h.815m1.14 5.65h8.3c.897 0 1.63.732 1.63 1.628v1.383M15.667 29H14.28c-.733 0-1.385-.507-1.385-1.23V14.73c0-.652.57-1.23 1.385-1.23h1.386c.733 0 1.385.507 1.385 1.23v13.04c0 .652-.652 1.23-1.385 1.23z"/><path id="Z" d="M22.25 18.292H.637a.598.598 0 0 1-.604-.59V1.495c0-.326.27-.6.604-.6h21.616c.333 0 .604.264.604.6V17.7a.599.599 0 0 1-.606.591zm-21-1.182h20.407V2.087H1.24V17.1z"/><path id="a" d="M26.75 25.095a.952.952 0 0 1-.06-.003L5.087 23.044a.594.594 0 0 1-.544-.632l.128-1.7a.59.59 0 0 1 .648-.546.596.596 0 0 1 .557.633l-.085 1.114 20.415 1.936 1.498-15.086-1.808-.18a.591.591 0 0 1-.54-.645.602.602 0 0 1 .66-.528l2.41.237c.33.032.574.32.54.644l-1.616 16.26a.6.6 0 0 1-.6.533z"/><path id="b" d="M29 17.562l-.002-.04-.006-.042a.564.564 0 0 0-.01-.051L24.752.46A.603.603 0 0 0 24.166 0H4.833a.605.605 0 0 0-.586.46L.002 17.52l-.001.023L0 17.56v1.83a.604.604 0 0 0 .804.573l3.26-1.143 3.3 1.143a.601.601 0 0 0 .397 0l3.274-1.143 3.277 1.143a.596.596 0 0 0 .396 0l3.276-1.143 3.275 1.143a.6.6 0 0 0 .396 0l3.277-1.143 3.275 1.143a.6.6 0 0 0 .548-.078.606.606 0 0 0 .255-.495v-1.83zm-17.776-1.77a.607.607 0 0 0-.397 0l-2.555.89.59-4.72 2.53-.9 2.505.874v4.777l-2.672-.932zm-6.963 0a.606.606 0 0 0-.397 0l-2.402.842 1.16-4.655 2.555-.906 2.47.855-.602 4.83-2.784-.966zm-.28-9.264l2.276-.783 2.07.727L7.8 10.7l-2.43-.84a.601.601 0 0 0-.398.001l-2 .7L3.98 6.526zm9.915-5.315v3.996L11.95 4.53a.601.601 0 0 0-.395 0l-1.85.64.494-3.958h3.696zm4.903 0l.494 3.958-1.85-.64a.599.599 0 0 0-.394 0l-1.945.678V1.212H18.8zm7.227 9.356l-2-.71a.603.603 0 0 0-.4-.001L21.2 10.7l-.527-4.23 2.07-.728 2.276.784 1.007 4.04zM9.54 6.5l2.212-.767 2.143.748v4.172L11.6 9.858a.604.604 0 0 0-.398 0l-2.165.762.513-4.1zm5.564-.02l2.143-.747 2.213.767.512 4.107-2.165-.76a.601.601 0 0 0-.397 0l-2.306.805V6.5zm0 5.455l2.503-.874 2.532.89.588 4.72-2.554-.89a.61.61 0 0 0-.398 0l-2.67.932v-4.777zm6.85 4.8l-.6-4.827 2.47-.857 2.555.906 1.16 4.657-2.418-.844a.607.607 0 0 0-.396 0l-2.77.966zm2.717-11.63l-1.733-.597a.602.602 0 0 0-.397.001l-2.02.7-.503-4.028h3.678l.976 3.914zM5.305 1.212h3.677L8.48 5.24l-2.02-.71a.6.6 0 0 0-.397-.002l-1.732.597.975-3.914zM25.12 17.6a.607.607 0 0 0-.396 0l-3.277 1.143-3.274-1.143a.61.61 0 0 0-.398 0L14.5 18.752l-3.276-1.143a.607.607 0 0 0-.397 0L7.55 18.752l-3.3-1.143a.606.606 0 0 0-.397 0l-2.656.93v-.534l2.856-1 3.3 1.148a.445.445 0 0 0 .035.01l.022.004a.488.488 0 0 0 .035.007l.01.002.018.002h.013a.75.75 0 0 0 .046.003l.03-.002h.02c.01 0 .02-.003.033-.004l.018-.002a.394.394 0 0 0 .032-.007l.02-.005.03-.01.014-.004 3.274-1.143L14.3 18.15l.025.008.03.007a.916.916 0 0 1 .025.005l.033.005.02.003a.61.61 0 0 0 .113 0c.008 0 .014-.002.02-.003l.034-.005.025-.005.028-.007.026-.008.008-.003 3.276-1.143 3.29 1.147.03.01.02.004.032.007a1.047 1.047 0 0 0 .051.006c.01 0 .02 0 .028.002h.023.046l.014-.002h.015l.01-.003a.56.56 0 0 0 .038-.007c.006 0 .013-.002.02-.004a.513.513 0 0 0 .055-.016l3.277-1.143 2.87 1.002v.534l-2.67-.932z"/><path id="c" d="M23.065.03L15.86.28c-.468.022-.834.432-.828.92l.04 1.165a.92.92 0 0 0 .298.628l2.05 1.867.126 3.6-.36.316a.59.59 0 0 0-.06.807c.1.134.272.21.443.197h.017l.057 1.66-.358.317a.59.59 0 0 0-.06.807c.11.14.287.214.465.196l.058 1.66-.36.316a.59.59 0 0 0-.06.807c.11.14.287.215.465.197l.058 1.66-.36.317a.59.59 0 0 0-.06.807c.1.134.272.21.443.197h.016l.024.683 2.372 4.74 2.035-4.894-.148-4.237.36-.317c.23-.2.25-.572.05-.812-.112-.133-.28-.206-.454-.197l-.058-1.66.358-.317c.23-.21.25-.572.05-.812-.112-.133-.28-.206-.454-.197l-.058-1.66.358-.317c.23-.21.25-.572.05-.812-.112-.134-.28-.207-.455-.197l-.057-1.66.358-.317c.23-.2.25-.572.05-.812-.112-.133-.28-.206-.454-.197V4.7l1.915-2.004c.165-.172.256-.402.253-.64L23.945.9c-.017-.488-.41-.87-.88-.86zm-1.84 19.02l-1.017 2.456-1.186-2.38-.042-1.2 2.138-1.942.107 3.065zm-.16-4.546l-2.138 1.942-.053-1.5 2.14-1.942.052 1.5zm-.104-2.986l-2.138 1.943-.053-1.5 2.138-1.943.053 1.5zm-.104-2.985l-2.138 1.943-.053-1.5 2.138-1.943.053 1.5zm2.032-6.56l-2.182 2.272.046 1.303-2.14 1.943-.1-3.17-2.336-2.114-.027-.786 6.72-.235.028.787zM3.207 9.093c-.04.156.01.322.1.47l.8.978-.374.304-.788-.976a.54.54 0 0 0-.435-.206c-.16.006-.326.058-.43.184a5.66 5.66 0 0 0-.204 7.374c.096.12.238.19.4.2.158.017.3-.037.423-.116l2.272-1.844 1.13 1.4c-.152.13-.218.337-.17.532.06.304.38.498.685.44l.233-.044 1.273 1.576c-.152.13-.217.336-.17.53.06.304.38.498.684.44l.233-.045 1.273 1.577c-.152.13-.217.336-.17.53.06.304.38.498.685.44l.233-.045 1.273 1.577c-.152.13-.217.336-.17.53.06.304.38.498.684.44l.233-.045 1.273 1.577c-.152.13-.217.336-.17.53.06.304.38.498.685.44l.233-.045.788.976a.62.62 0 0 0 .277.19l2.763.862c.185.06.387.02.536-.104.1-.103.18-.24.2-.4l.012-.114-.23-2.382.093-.013a.57.57 0 0 0 .44-.503c.008-.068.013-.114-.003-.184-.06-.304-.38-.498-.684-.438l-.233.044-1.273-1.576c.102-.098.165-.23.176-.37.007-.068.012-.113-.004-.184-.06-.303-.38-.498-.685-.438l-.233.044-1.272-1.576c.102-.098.165-.23.176-.37.007-.07.01-.114-.004-.184-.06-.304-.382-.498-.685-.438l-.233.044-1.273-1.577c.102-.098.165-.23.176-.37.008-.068.012-.114-.003-.184-.06-.304-.382-.498-.685-.438l-.233.044-1.273-1.576c.102-.098.165-.23.176-.37.007-.07.012-.114-.003-.184-.06-.304-.382-.498-.685-.44l-.233.044-2.477-2.94 2.272-1.844a.55.55 0 0 0 .201-.391c.012-.15-.03-.3-.115-.425C8.965 7.862 5.883 7.295 3.475 8.7c-.145.077-.23.228-.268.384zm15.09 19.377l-1.79-.555-.324-.4 1.987-.433.128 1.388zm-.633-2.448l-2.267.494-1.212-1.5 2.266-.494 1.213 1.5zm-2.02-2.502l-2.268.494-1.212-1.5 2.267-.494 1.212 1.5zm-2.02-2.502l-2.267.494-1.212-1.5 2.266-.494 1.213 1.5zm-2.02-2.502L9.334 19l-1.212-1.5 2.267-.495 1.212 1.5zm-2.02-2.502l-2.267.494-1.435-1.776 1.623-1.318 2.08 2.6zm-.112-5.667l-7.016 5.696c-.944-1.51-.912-3.436.083-4.914l.707.876c.202.25.563.288.8.083l1.25-1.014c.25-.202.288-.565.083-.792l-.707-.876c1.646-.674 3.525-.293 4.8.94z"/><path id="d" d="M.784 12.025c.672 3.487 3.808 6.075 7.504 6.075 3.36 0 6.272-2.25 7.28-5.288l11.424-3.374M26.768 5.5L15.456 8.088C14.448 5.05 11.648 2.8 8.176 2.8 4.48 2.8 1.456 5.388.784 8.763m26.096.787c-.56 1.8-1.792 3.262-3.584 3.938M21.168 1.45c2.576 0 4.704 1.575 5.6 3.825"/><path id="e" d="M1.44 12.736h3.08V31.78H1.44zm0 0L13.32 2.33s1.43-.997 4.73-.997c3.74 0 4.5 2.214 4.5 3.654 0 1.77-1.1 2.657-5.28 2.435-2.53-.1-3.96-2.878-1.98-3.764m-1.1.886l-9.68 8.193"/><path id="f" d="M22.45 4.875V20.93s-.1 4.65-4.3 4.65c0 0-3.3.332-4.4-2.325V5.54M4.52 31.78l8.9-8.968"/></defs><g opacity=".5" class="B D"><path fill="#004f8b" d="M10.524 11.2l1.51-9.023h2.413l-1.5 9.023h-2.412M21.7 2.39a6.13 6.13 0 0 0-2.163-.379c-2.385 0-4.065 1.224-4.08 2.978-.013 1.296 1.2 2.02 2.116 2.45.94.443 1.255.725 1.25 1.12-.005.605-.75.88-1.444.88-.966 0-1.48-.137-2.27-.473l-.31-.144-.34 2.02c.565.252 1.607.47 2.7.48 2.537 0 4.184-1.2 4.202-3.082.01-1.027-.634-1.808-2.026-2.452-.844-.417-1.36-.696-1.355-1.118 0-.375.437-.776 1.382-.776a4.38 4.38 0 0 1 1.807.345l.216.104.327-1.955m6.2-.214h-1.866c-.577 0-1 .16-1.264.75l-3.584 8.268H23.7l.51-1.355 3.1.003.294 1.352h2.24L27.88 2.175M24.903 7.99l.962-2.522c-.015.024.198-.523.32-.86l.163.778.56 2.605h-2.004M8.5 2.173L6.135 8.326l-.25-1.25c-.44-1.442-1.8-3.003-3.343-3.785l2.16 7.9h2.554l3.8-9.006H8.5"/><path fill="#ed9f2d" d="M3.944 2.168H.052l-.03.188c3.027.746 5.03 2.55 5.863 4.72L5.038 2.93c-.146-.572-.57-.742-1.094-.762"/><path fill="#e30e17" d="M46.23 6.807c0-2.164.95-4.1 2.43-5.337A6.136 6.136 0 0 0 44.691 0c-3.534 0-6.4 3.048-6.4 6.807s2.866 6.807 6.4 6.807c1.5 0 2.88-.55 3.97-1.47-1.48-1.247-2.43-3.173-2.43-5.337"/><path fill="#ea600a" d="M46.23 6.807c0 2.164.95 4.1 2.43 5.337 1.48-1.247 2.43-3.173 2.43-5.337s-.95-4.1-2.43-5.337c-1.48 1.247-2.43 3.173-2.43 5.337"/><path fill="#f59f00" d="M52.63 0a6.13 6.13 0 0 0-3.969 1.47c1.48 1.247 2.43 3.173 2.43 5.337s-.95 4.1-2.43 5.337a6.136 6.136 0 0 0 3.97 1.47c3.534 0 6.4-3.048 6.4-6.807S56.165 0 52.63 0"/><path fill="#4db45e" d="M75.54 2.667v.003c-.003 0-1.166-.003-1.476 1.136l-1.107 4.008h-.22L71.63 3.802c-.3-1.14-1.476-1.135-1.476-1.135h-2.657v8.666h2.657V6.186h.22l1.55 5.147h1.845L75.32 6.2h.22v5.143h2.657V2.667H75.54zm9.706 0s-.78.072-1.144.908l-1.883 4.24h-.222V2.667H79.34v8.666h2.5s.815-.075 1.18-.908l1.846-4.24h.22v5.147h2.657V2.667h-2.5zm3.7 3.936v4.73h2.657V8.57h2.88c1.254 0 2.317-.822 2.712-1.968h-8.248z"/><path fill="url(#A)" d="M94.472 2.667h-5.908c.295 1.65 1.502 2.975 3.063 3.406a4.12 4.12 0 0 0 1.11.151h4.555a2.98 2.98 0 0 0 .059-.605c0-1.63-1.288-2.952-2.88-2.952z"/></g></svg><svg viewBox="-10 -10 90 65" height="65" width="90" y="210"><path d="M3.16-.016h43.2c1.75 0 4.083 1.776 5.268 3l17.2 17.75c1.638 1.644 1.485 2.113-.025 3.656L51.63 41.984c-1.2 1.22-3.517 3-5.268 3H3.16c-1.75 0-3.16-1.338-3.16-3v-39c0-1.662 1.4-3 3.16-3z" fill="#3c76cf"/></svg><svg width="63" height="44" viewBox="-10 -10 63 44" y="275"><g class="D K"><path d="M42.283 17.18v-4.1a.729.729 0 0 0-.027-.164c-.005-.02-.004-.045-.01-.066a.726.726 0 0 0-.119-.223l-.01-.012-5.724-7.26a.712.712 0 0 0-.56-.273h-5.016V.727A.722.722 0 0 0 30.1 0H6.45a.722.722 0 0 0-.717.727c0 .402.32.728.717.728h.717v4.363H5.733a.722.722 0 0 0-.716.727c0 .402.32.728.716.728h1.434v4.363h-2.15a.722.722 0 0 0-.717.728c0 .4.32.727.717.727h2.15v4.1a2.703 2.703 0 0 0 .21 3.697.712.712 0 0 0 .506.213h2.223c.34 1.693 1.808 2.91 3.5 2.91s3.17-1.216 3.512-2.9h15.194c.34 1.694 1.81 2.9 3.51 2.9s3.17-1.216 3.51-2.9h2.223a.71.71 0 0 0 .506-.212 2.703 2.703 0 0 0 .21-3.698zm-2.327-4.968L34.4 11.7V9.455h3.382l2.174 2.757zm-26.34 10.333c-1.187 0-2.15-.976-2.15-2.18s.963-2.182 2.15-2.182 2.15.977 2.15 2.182-.962 2.18-2.15 2.18zm3.512-2.91c-.34-1.693-1.81-2.91-3.51-2.91s-3.17 1.216-3.51 2.9H8.208a1.267 1.267 0 0 1 .182-1.668.733.733 0 0 0 .21-.514v-.728h.717a.722.722 0 0 0 .716-.727.722.722 0 0 0-.716-.727H8.6V13.1h6.45a.722.722 0 0 0 .717-.727.722.722 0 0 0-.717-.728H8.6V7.273h13.617a.722.722 0 0 0 .716-.728.722.722 0 0 0-.716-.727H8.6V1.455h20.783v18.18H17.128zm18.705 2.9c-1.187 0-2.15-.977-2.15-2.182s.963-2.182 2.15-2.182 2.15.977 2.15 2.182-.963 2.18-2.15 2.18zm5.41-2.9h-1.898c-.34-1.693-1.808-2.91-3.5-2.91s-3.17 1.216-3.512 2.9h-1.505V6.544h4.672L36.636 8h-2.953a.722.722 0 0 0-.716.727v3.637c0 .376.282.7.652.724l7.23.667v1.518h-.717a.722.722 0 0 0-.716.727.72.72 0 0 0 .716.727h.717v.728a.75.75 0 0 0 .206.51 1.27 1.27 0 0 1 .186 1.671z" class="J"/><rect width="36.596" height="1.385" x="6.404" y="22.615" rx=".692"/><path d="M3.583 0H2.15a.722.722 0 0 0-.717.727c0 .402.32.728.717.728h1.433A.722.722 0 0 0 4.3.727.722.722 0 0 0 3.583 0zm-.716 5.818H1.433a.722.722 0 0 0-.716.727c0 .402.32.728.716.728h1.434a.722.722 0 0 0 .716-.728.722.722 0 0 0-.716-.727zm-.74 5.722l-1.434.045a.723.723 0 0 0-.694.738.722.722 0 0 0 .716.716H.74l1.433-.046a.723.723 0 0 0 .694-.75.714.714 0 0 0-.22-.512.693.693 0 0 0-.518-.191z" class="J"/></g></svg><svg width="63" height="71" viewBox="-10 -10 63 71" y="319"><g class="D"><g class="J"><path d="M30.363 32.737V8.152c0-.242-.073-.484-.25-.7L24.486.428A1.15 1.15 0 0 0 23.599 0H6.763a1.12 1.12 0 0 0-.887.428L.25 7.442a1.134 1.134 0 0 0-.25.71V31.6c0 .63.508 1.138 1.138 1.138H14.32M7.312 2.277H23.05l3.802 4.737H3.5l3.8-4.738zM17.538 9.3v4.867l-1.695-1.203a1.127 1.127 0 0 0-1.315 0l-1.695 1.203V9.3h4.705zM2.276 30.46V9.3h8.273v7.07a1.143 1.143 0 0 0 1.8.929l2.832-2.018 2.833 2.018a1.14 1.14 0 0 0 1.8-.929V9.282h8.273v21.18H2.276z" class="K"/><path stroke="#2057ac" stroke-width="2.5" d="M27.486 48.8a20 20 0 0 1-12.414-12.47C14.357 33.946 14 31.773 14 29.8v-6.574c5.967-2.16 11.03-7.35 13.5-10.228 2.47 2.878 7.533 8.07 13.5 10.228V29.8c-.014 8.633-5.417 16.18-13.514 18.988z" class="H"/></g><path d="M15 26h11.75a1.25 1.25 0 0 1 0 2.5H15V26zm0 4h6.75a1.25 1.25 0 0 1 0 2.5H15V30z" class="K"/></g></svg><svg width="42" height="34" viewBox="-10 -10 42 34" y="390"><path fill="#2a2a2a" d="M21.6 10.022V7.636a.443.443 0 0 0-.015-.096c-.003-.012-.003-.026-.007-.038a.43.43 0 0 0-.066-.13l-.005-.007-3.195-4.236a.392.392 0 0 0-.312-.16h-2.8V.425C15.2.2 15.02 0 14.8 0H1.6c-.22 0-.4.2-.4.424s.18.424.4.424H2v2.546h-.8c-.22 0-.4.2-.4.424s.18.424.4.424H2v2.546H.8c-.22 0-.4.2-.4.424s.18.424.4.424H2v2.386a1.629 1.629 0 0 0 .117 2.157c.075.08.177.124.283.124h1.24c.2.988 1 1.697 1.96 1.697s1.77-.7 1.96-1.697h8.48c.2.988 1 1.697 1.96 1.697s1.77-.7 1.96-1.697h1.24a.389.389 0 0 0 .283-.124 1.63 1.63 0 0 0 .117-2.157zm-1.3-2.898l-3.1-.3V5.516h1.888L20.3 7.124zM5.6 13.152c-.663 0-1.2-.57-1.2-1.273s.537-1.273 1.2-1.273 1.2.57 1.2 1.273-.538 1.272-1.2 1.273zm1.96-1.697c-.2-.988-1-1.697-1.96-1.697s-1.77.71-1.96 1.697H2.58a.764.764 0 0 1 .102-.973.438.438 0 0 0 .117-.3v-.424h.4c.22 0 .4-.2.4-.425s-.18-.424-.4-.424h-.4V7.636h3.6c.22 0 .4-.2.4-.424s-.18-.424-.4-.424H2.8V4.242h7.6c.22 0 .4-.2.4-.424s-.18-.424-.4-.424H2.8V.848h11.6v10.607H7.56zM18 13.152c-.663 0-1.2-.57-1.2-1.273s.537-1.273 1.2-1.273 1.2.57 1.2 1.273-.538 1.272-1.2 1.273zm3.02-1.697h-1.06c-.2-.988-1.01-1.697-1.96-1.697s-1.77.71-1.96 1.697h-.84V3.818h2.608l.64.85H16.8c-.22 0-.4.2-.4.424v2.12c0 .22.158.403.364.423l4.036.39v.885h-.4c-.22 0-.4.2-.4.424s.18.425.4.425h.4v.424c0 .1.042.217.115.297.265.25.3.67.104.976z" opacity=".8"/></svg><svg width="49" height="43" viewBox="-10 -10 49 43" y="424"><g class="B D"><g class="C"><use xlink:href="#C"/><use xlink:href="#D"/><use xlink:href="#E"/><path d="M1.435.5L28.5 21.965V.5H1.435z"/><g class="Q"><path d="M22.352.352h6.296v3.296h-6.296z"/><path d="M25.352 3.352v4.296h3.296V3.352h-3.296z"/><path d="M17.748 3.352l3.554 4.296h4.346V3.352h-7.9z"/><path d="M15.55.352l1.518 3.296h4.58V.352H15.55z"/></g></g><g class="G"><use xlink:href="#F"/><use xlink:href="#G"/></g></g></svg><svg width="55" height="48" viewBox="-10 -10 55 48" y="467"><g class="B D"><g class="C"><g stroke-width="1.2"><path d="M.6.6v26.8h33.8v-1.908c-8.86-1.24-15.942-4.108-21.23-8.61C7.907 12.4 5.202 6.96 5.082.6H.6z"/><path d="M.6.6v26.8h31.542c-8.286-1.36-15.07-4.233-20.346-8.62C6.056 14.003 2.962 7.932 2.532.6H.6zm33.8 26.8h.18l.197.223-.136.136-.24-.03v-.33z"/><path d="M.6.6v26.8h33.8V11.653c-3.687.054-7.004-.92-9.932-2.92-2.972-2.03-4.73-4.75-5.25-8.133H.6z"/><path d="M.6.6v26.8h33.8V.6H.6z"/></g><g stroke-width=".845"><path d="M26.974.422h7.603v4.025h-7.603z"/><path d="M30.595 4.075v5.242h3.983V4.075h-3.983z"/><path d="M21.4 4.075l4.3 5.242h5.247V4.075H21.4z"/><path d="M18.76.422l1.84 4.025h5.53V.422h-7.368z"/></g></g><g class="G"><path d="M5.147 4.612h16.21v1h-16.2zM7.63 8.968H25.5v1H7.63zm2.553 4.355h24.64v1h-24.64zm3.86 4.357H34.82v1H14.043zm7.844 4.355h12.935v1H21.887z"/><path d="M12.07 0h.974v16.116h-.974zm-3.62 0h.974v12.174h-.974zM15.7 0h.974v19.478H15.7zm3.62 4.87h.975v16.735H19.3zm3.62 3.164h1.207V23.13H22.93zm3.62 1.706h1.04v14.608h-1.04zm3.62 1.217h1.042v14.365h-1.042z"/></g></g></svg><svg width="49" height="43" viewBox="-10 -10 49 43" y="515"><g class="B D"><g class="I"><use xlink:href="#C"/><use xlink:href="#D"/><use xlink:href="#E"/><path d="M1.435.5L28.5 21.965V.5H1.435z"/><g class="Q"><path d="M22.352.352h6.296v3.296h-6.296z"/><path d="M25.352 3.352v4.296h3.296V3.352h-3.296z"/><path d="M17.748 3.352l3.554 4.296h4.346V3.352h-7.9z"/><path d="M15.55.352l1.518 3.296h4.58V.352H15.55z"/></g></g><g class="H"><use xlink:href="#F"/><use xlink:href="#G"/></g></g></svg><svg width="62" height="62" viewBox="-10 -10 62 62" y="558"><g class="D"><use xlink:href="#H" fill="#3b5998"/><path d="M22.49 32.648V21.222h3.154l.418-3.937H22.49l.005-1.97c0-1.027.098-1.577 1.573-1.577h1.97V9.8h-3.154c-3.79 0-5.122 1.9-5.122 5.122v2.364H15.4v3.937h2.362v11.425h4.727z" class="H"/></g></svg><svg width="47" height="47" viewBox="-10 -10 47 47" y="620"><use xlink:href="#I" class="B C E F N"/></svg><svg width="55" height="55" viewBox="-10 -10 55 55" y="667"><path d="M7.6 34H1V6.43L4.3 1l3.3 5.43zm13.2 0h-6.6V6.43L17.5 1l3.3 5.43zM34 34h-6.6V6.43L30.7 1 34 6.43zM7.6 10.24h6.6m-6.6 6.6h6.6m-6.6 6.6h6.6m-6.6 6.6h6.6m6.6-19.8h6.6m-6.6 6.6h6.6m-6.6 6.6h6.6m-6.6 6.6h6.6" stroke-width="1.43" class="B C E F"/></svg><svg width="47" height="47" viewBox="-10 -10 47 47" y="722"><use xlink:href="#I" class="B E F I N"/></svg><svg width="42" height="47" viewBox="-10 -10 42 47" y="769"><g class="B"><use xlink:href="#J" class="C L"/><path d="M.18 4.223l.92-.92 20.93 20.932-.918.92z" class="G"/></g></svg><svg width="49" height="55" viewBox="-10 -10 49 55" y="816"><g class="B"><path d="M10.962 10.45l8.7 8.663c4.445-6.226 2.825-16.276-8.852-18.038 1.017 1.988 2.825 4.95.15 9.375zm-3.956 4.575c-.452.412-.94.825-1.47 1.275-4.332 3.975-3.09 8.587-.94 12.075 1.92 2.887 4.708 5.1 10.02 5.362-2.1-4.987-1.055-7.05 1.28-9.9l-8.9-8.812zm10.585 10.65c-2.184 2.813-1.43 5.1-.414 7.762.942 0 3.315-.974 5.424-2.887l-4.934-4.95-.076.075zm8.55-.112c1.017-2.813.904-6.338-1.544-10.5-.528 1.874-1.808 3.9-3.202 5.774l4.746 4.726z" class="C P"/><path d="M.07 5.246l1.2-1.2 27.63 27.63-1.2 1.2z" class="G"/></g></svg><svg width="42" height="47" viewBox="-10 -10 42 47" y="871"><g class="B"><use xlink:href="#J" class="I L"/><path d="M.18 4.223l.92-.92 20.93 20.932-.918.92z" class="H"/></g></svg><svg width="54" height="41" viewBox="-10 -10 54 41" y="918"><g class="B C F L"><ellipse cx="30.171" cy="5.75" rx="2.514" ry="4.694"/><use xlink:href="#K" class="E"/></g></svg><svg width="61" height="45" viewBox="-10 -10 61 45" y="959"><g stroke-width="1.56" class="B C F"><ellipse cx="36.571" cy="6.75" rx="3.048" ry="5.682"/><path d="M36.57 12.432H15.62c-1.714 0-3.048-2.638-3.048-5.682s1.334-5.682 3.048-5.682h20.952m-.001 11.364L22.476 23.594H.762l14.286-11.162" class="E"/></g></svg><svg width="54" height="41" viewBox="-10 -10 54 41" y="1004"><g class="B F I L"><ellipse cx="30.171" cy="5.75" rx="2.514" ry="4.694"/><use xlink:href="#K" class="E"/></g></svg><svg width="51" height="62" viewBox="-10 -10 51 62" y="1045"><g class="D"><use xlink:href="#L" class="K"/><path d="M23.846 19.183H19.78L15.304 7.2h4.067l4.475 11.983zm-4.85 0h-4.068L11.4 9.597h4.067l3.528 9.586zm-4.933.017h-6.9l3.398-9.52 3.512 9.52zm-3.512-7.5l2.336 6.674h-4.54l.755-2.318 1.45-4.356z" class="H"/></g></svg><svg width="51" height="62" viewBox="-10 -10 51 62" y="1107"><g class="D"><use xlink:href="#L" class="K"/><path d="M14.54 19.223v3.264a.3.3 0 0 1-.287.296H11.07a.3.3 0 0 1-.288-.296v-3.264a.3.3 0 0 1 .288-.295h1.235v1.18h.745v-1.18h1.202c.152 0 .287.12.287.295zm4.215-.295h-1.202v1.18h-.745v-1.18h-1.235a.3.3 0 0 0-.288.295v3.264a.3.3 0 0 0 .288.296h3.182a.3.3 0 0 0 .287-.296v-3.264a.289.289 0 0 0-.287-.295zm-5.433-4.62a.3.3 0 0 0-.288.296v3.265a.3.3 0 0 0 .288.295h3.182a.3.3 0 0 0 .287-.295v-3.265a.3.3 0 0 0-.287-.295h-1.202v1.18h-.745v-1.18h-1.235zm9.14-1.753l-6.94-6.32a.931.931 0 0 0-1.236 0l-6.94 6.32c-.4.347-.152 1.007.372 1.007h.728v8.925a.29.29 0 0 0 .288.296h1a.29.29 0 0 0 .287-.296V13.58h9.75v8.925c0 .173.135.295.287.295h1a.29.29 0 0 0 .287-.295V13.58h.728c.542 0 .78-.66.4-1.025z" class="H J"/></g></svg><svg width="34" height="50" viewBox="-10 -10 34 50" y="1169"><g class="B C E F R"><use xlink:href="#M"/><use xlink:href="#N"/><use xlink:href="#O"/></g></svg><svg width="37" height="56" viewBox="-10 -10 37 56" y="1219"><g stroke-width="1.368" class="B C E F"><path d="M11.857 12.46v19.6c0 1.54-1.2 2.8-2.667 2.8H3.724c-1.467 0-2.667-1.26-2.667-2.8V3.64c0-1.54 1.2-2.8 2.667-2.8H9.2c.934 0 1.6.42 2.134 1.12"/><path d="M11.857 3.64c0 1.54-1.2 2.8-2.667 2.8H3.724c-1.467 0-2.667-1.26-2.667-2.8s1.2-2.8 2.667-2.8H9.2c1.467 0 2.667 1.26 2.667 2.8"/><path d="M12.524 4.34l3.333 4.62S1.2 21 1.057 26.88c.8-8.96 2.8-15.26 11.467-22.54zm-1.2-2.38L15.6 8.68"/></g></svg><svg width="34" height="50" viewBox="-10 -10 34 50" y="1275"><g class="B E F I R"><use xlink:href="#M"/><use xlink:href="#N"/><use xlink:href="#O"/></g></svg><svg width="54" height="44" viewBox="-10 -10 54 44" y="1325"><g class="B D"><g class="C"><path d="M9.473 14.252h15.054V.5h5.744v19.82H3.73V.5h5.744v13.752z"/><g stroke-width=".54"><use xlink:href="#P"/><use xlink:href="#Q"/></g></g><use xlink:href="#R" class="G"/></g></svg><svg width="65" height="53" viewBox="-10 -10 65 53" y="1369"><g class="B D"><g class="C"><path stroke-width="1.32" d="M12.536 19.876h19.928V1.34h7.598v26.685H4.938V1.34h7.598v18.536z"/><g stroke-width=".713"><path d="M5.24 22.617v-6L16.1 27.72h-5.873L5.24 22.617zm8.664-2.438H19.8l7.368 7.542h-5.885l-7.368-7.542zm-1.673-1.712l-7-7.155V5.288l7 7.156v6.023zm12.73 1.712h5.86L38.2 27.72h-5.86l-7.368-7.542zM12.232 7.15l-5.38-5.506h5.38V7.15zm20.536 9.728v-5.985l7 7.156v5.985l-7-7.156zm0-11.28V1.644h1.945l5.046 5.164v5.946l-6.99-7.156z"/><path d="M34 27.72h-5.872l11.63-11.904v6L34 27.72zm-11.044 0H17.07l7.368-7.542h5.885l-7.368 7.542zm16.803-17.2l-6.99 7.156v-6.024l7-7.156v6.024zm-27.86 17.2H6.04l7.368-7.543h5.86L11.9 27.72zm25.476-26.08L32.768 6.36V1.644h4.607zM5.24 23.243v-5.985l6.99-7.156v5.985l-7 7.155zm0-11.28V6.018l4.274-4.374h2.717v3.164l-7 7.156z"/></g></g><path d="M4.295 3.27l.7.7-3.757 3.757-.7-.7L4.295 3.27zm0 6.098l.7.7-3.757 3.756-.7-.7L4.295 9.37zm0 6.585l.7.7L1.227 20.4l-.7-.7 3.757-3.756zm0 6.34l.7.7-3.757 3.756-.7-.7 3.757-3.756zM40.386 3.27l-.7.7 3.757 3.757.7-.7-3.757-3.757zm0 6.098l-.7.7 3.757 3.756.7-.7-3.757-3.756zm0 6.585l-.7.7 3.757 3.756.7-.7-3.757-3.756zm0 6.34l-.7.7 3.757 3.756.7-.7-3.757-3.756zm-30.282 5.333l.7.7-3.756 3.756-.7-.7 3.756-3.756zm20.283 0l.7.7-3.756 3.756-.7-.7 3.756-3.756zm6.885 0l.7.7-3.756 3.756-.7-.7 3.756-3.756zm-13.646 0l.7.7-3.756 3.756-.7-.7 3.756-3.756zm-6.76 0l.69.7-3.756 3.756-.7-.7 3.756-3.756z" class="G"/></g></svg><svg width="54" height="44" viewBox="-10 -10 54 44" y="1422"><g class="B D"><g class="I"><path d="M9.473 14.252h15.054V.5h5.744v19.82H3.73V.5h5.744v13.752z"/><g stroke-width=".54"><use xlink:href="#P"/><use xlink:href="#Q"/></g></g><use xlink:href="#R" class="H"/></g></svg><svg width="49" height="54" viewBox="-10 -10 49 54" y="1466"><g transform="rotate(34 5.823 23.406)" class="D G"><use xlink:href="#S"/><path d="M13.92.212L0 .177V3.36C0 9.5 2.967 13.823 4.03 15.237c-.074.036-.147.106-.22.142l-.367.177.147.424a19.21 19.21 0 0 1 .33 8.166l-.477 2.758c-.183 1 .1 2.015.806 2.793.66.778 1.648 1.202 2.7 1.202s2.052-.424 2.71-1.202a3.5 3.5 0 0 0 .806-2.793L10 24.11a19.374 19.374 0 0 1 .33-8.202l.073-.318-.256-.212c-.074-.07-.147-.106-.22-.142 1.1-1.378 4.03-5.727 4.03-11.878V.212h-.037zM8.8 29.025a2.493 2.493 0 0 1-1.868.849 2.493 2.493 0 0 1-1.868-.849 2.297 2.297 0 0 1-.55-1.909l.477-2.757c.476-2.758.403-5.55-.257-8.308a3.848 3.848 0 0 1 4.396 0 20.312 20.312 0 0 0-.257 8.272l.477 2.793c.146.672-.074 1.38-.55 1.9zm4.03-25.63c0 5.904-2.968 10.146-3.883 11.313-1.246-.53-2.7-.566-3.956 0C4.066 13.54 1.1 9.298 1.1 3.36V1.237l11.722.036v2.12z" class="C J M"/><use xlink:href="#T"/><g class="J"><use xlink:href="#U"/><path d="M15.404 27.295c-.26.75-1.105 1.142-1.887.873s-1.208-1.1-.95-1.85l2.3-6.708c.316-.21.724-.566.898-1.072.155-.45.09-.92-.01-1.272l2.69.927c-.295.216-.636.547-.79.997-.174.506-.072 1.037.048 1.398l-2.3 6.708zM19.26 10.4l-.185-1.232 1.4-1.956.465.16-.102 2.403-1.07 1.015-2.105 6.115-.473-.163 2.105-6.115-.034-.226zm.372 7.692a.49.49 0 0 0-.313-.617l-.712-.245 2.032-5.9 1.178-1.117.148-3.503-1.89-.65-2.04 2.85.24 1.606-2.032 5.9-.71-.245a.49.49 0 0 0-.627.293l-.234.68s.316.617.16 1.07-.785.745-.785.745l-2.422 7.035c-.43 1.252.277 2.634 1.582 3.083s2.714-.203 3.145-1.455l2.422-7.035s-.316-.617-.16-1.07.785-.745.785-.745l.234-.68z" class="C M"/></g><use xlink:href="#V"/></g></svg><svg width="49.843" height="55" viewBox="-10 -10 49.843 55" y="1520"><g transform="matrix(.890046 .600344 -.600344 .890046 14.18849 -.007901)" class="D G"><use xlink:href="#S"/><use xlink:href="#W" class="C J M"/><use xlink:href="#T"/><g class="J"><use xlink:href="#U"/><use xlink:href="#X" class="C M"/></g><use xlink:href="#V"/></g></svg><svg width="49" height="54" viewBox="-10 -10 49 54" y="1575"><g transform="rotate(34 5.823 23.406)" class="D H"><use xlink:href="#S"/><use xlink:href="#W" stroke="#fffffd" class="J M"/><use xlink:href="#T"/><g class="J"><use xlink:href="#U"/><use xlink:href="#X" stroke="#fffffb" class="M"/></g><use xlink:href="#V"/></g></svg><svg width="47" height="47" viewBox="-10 -10 47 47" y="1629"><g class="B D"><circle cx="13.5" cy="13.5" r="12.5" stroke="#979797"/><path fill="#979797" d="M13 11h1v9h-1zm0-4h1v2h-1z"/></g></svg><svg width="44" height="50" viewBox="-10 -10 44 50" y="1676"><g class="B C F S"><path d="M3.852 1.488h18.985v6.756H3.852z"/><use xlink:href="#Y" class="E"/></g></svg><svg width="48" height="56" viewBox="-10 -10 48 56" y="1726"><g stroke-width="1.458" class="B C F"><path d="M4.37 1.593h22.437v8.203H4.37z"/><path d="M12.267 12.507h-8.86c-1.06 0-1.926-.9-1.926-1.976v-2.91c0-1.087.867-1.977 1.926-1.977h.963m1.35 6.862h9.822c1.06 0 1.926.9 1.926 1.977v1.68M18.333 35h-1.637c-.866 0-1.637-.616-1.637-1.495v-15.83c0-.792.674-1.495 1.637-1.495h1.637c.867 0 1.637.615 1.637 1.495v15.83c0 .792-.77 1.496-1.637 1.496z" class="E"/></g></svg><svg width="44" height="50" viewBox="-10 -10 44 50" y="1782"><g class="B F I S"><path d="M3.852 1.488h18.985v6.756H3.852z"/><use xlink:href="#Y" class="E"/></g></svg><svg width="62" height="62" viewBox="-10 -10 62 62" y="1832"><path d="M42 21a21 21 0 1 1-42 0 21 21 0 1 1 42 0z" fill="#a332a4"/><path d="M21 9.8l-4.618.068c-1.192.054-2.006.243-2.718.52a5.484 5.484 0 0 0-1.985 1.292 5.498 5.498 0 0 0-1.292 1.983c-.278.713-.467 1.527-.52 2.72L9.8 21l.068 4.617c.055 1.192.243 2.006.52 2.718a5.488 5.488 0 0 0 1.292 1.985 5.484 5.484 0 0 0 1.983 1.292c.713.277 1.527.466 2.72.52L21 32.2l4.617-.067c1.192-.055 2.007-.244 2.72-.52a5.48 5.48 0 0 0 1.982-1.293 5.498 5.498 0 0 0 1.293-1.984c.275-.713.464-1.527.52-2.72L32.2 21l-.068-4.618c-.056-1.192-.245-2.006-.52-2.718a5.497 5.497 0 0 0-1.293-1.984 5.474 5.474 0 0 0-1.983-1.292c-.714-.277-1.528-.466-2.72-.52L20.998 9.8zm-1.005 2.018H21l4.526.065c1.092.05 1.685.232 2.08.385a3.46 3.46 0 0 1 1.286.838 3.48 3.48 0 0 1 .839 1.288c.153.394.336.987.385 2.08l.066 4.524-.066 4.524c-.05 1.092-.232 1.685-.385 2.08a3.463 3.463 0 0 1-.839 1.287 3.464 3.464 0 0 1-1.287.837c-.394.154-.987.336-2.08.386L21 30.177c-3 0-3.345-.012-4.526-.066-1.092-.05-1.684-.233-2.08-.386a3.47 3.47 0 0 1-1.287-.838 3.471 3.471 0 0 1-.839-1.287c-.153-.394-.336-.987-.385-2.08l-.065-4.526.065-4.525c.05-1.092.232-1.684.385-2.08a3.47 3.47 0 0 1 .839-1.287 3.476 3.476 0 0 1 1.288-.838c.394-.154.987-.336 2.08-.386l3.52-.063zm6.984 1.86a1.344 1.344 0 1 0 0 2.689 1.344 1.344 0 0 0 0-2.69zM21 15.248a5.752 5.752 0 1 0 .001 11.504A5.752 5.752 0 0 0 21 15.248zm0 2.02a3.733 3.733 0 1 1 0 7.467 3.733 3.733 0 0 1 0-7.467z" class="D H"/></svg><svg width="49" height="46" viewBox="-10 -10 49 46" y="1894"><g class="G"><use xlink:href="#Z"/><path d="M24.366 21.982a.383.383 0 0 1-.047-.003L2.644 20.332a.609.609 0 0 1-.415-.207.581.581 0 0 1-.141-.434l.14-1.56a.607.607 0 0 1 .655-.537.594.594 0 0 1 .549.64l-.087.967L23.8 20.755l1.192-15.113-2.104-.17a.595.595 0 0 1-.551-.639c.028-.325.326-.56.652-.538l2.703.22c.33.027.578.31.55.634L24.97 21.436a.583.583 0 0 1-.209.404.613.613 0 0 1-.394.142z"/><use xlink:href="#a"/></g></svg><svg width="58" height="52" viewBox="-10 -10 58 52" y="1940"><g class="G"><path d="M29.157 22.92H.834a.783.783 0 0 1-.791-.772V.957c0-.427.354-.773.79-.773H29.16c.437 0 .79.346.79.773v21.2a.784.784 0 0 1-.793.774zm-27.53-1.545h26.74V1.73H1.627v19.646z"/><path d="M31.928 27.745l-.062-.003-28.402-2.154a.798.798 0 0 1-.543-.27.76.76 0 0 1-.185-.568l.184-2.04c.038-.424.426-.73.858-.702a.777.777 0 0 1 .719.838l-.114 1.264L31.2 26.14l1.56-19.763-2.756-.224a.778.778 0 0 1-.722-.835c.037-.425.428-.73.855-.704l3.542.29a.777.777 0 0 1 .722.828l-1.683 21.3a.762.762 0 0 1-.274.528.805.805 0 0 1-.516.185z"/><path d="M35.05 31.816a1.25 1.25 0 0 1-.077-.003l-28.31-2.678a.778.778 0 0 1-.712-.827l.168-2.2a.773.773 0 0 1 .848-.714.78.78 0 0 1 .73.828l-.1 1.456 26.75 2.532L36.3 10.472l-2.37-.233a.773.773 0 0 1-.708-.844.789.789 0 0 1 .866-.691l3.156.3a.777.777 0 0 1 .71.843L35.836 31.12a.784.784 0 0 1-.787.695z"/></g></svg><svg width="49" height="46" viewBox="-10 -10 49 46" y="1992"><g class="H"><use xlink:href="#Z"/><path d="M24.366 21.982c-.016 0-.03-.001-.047-.003L2.644 20.332a.609.609 0 0 1-.415-.207.581.581 0 0 1-.141-.434l.14-1.56a.607.607 0 0 1 .655-.537.594.594 0 0 1 .549.64l-.087.967L23.8 20.755l1.192-15.113-2.104-.17a.595.595 0 0 1-.551-.639c.028-.325.326-.56.652-.538l2.703.22c.33.027.578.31.55.634L24.97 21.436a.583.583 0 0 1-.209.404.613.613 0 0 1-.394.142z"/><use xlink:href="#a"/></g></svg><svg width="48" height="41" viewBox="-10 -10 48 41" y="2038"><g class="B C L"><path d="M2.068 1.073l10.3 19.23 13.556-1.582L15.32.66l-13.25.412z"/><path d="M1.813 6.323l12.043 9.004 12.23-1.3-13.1-8.367-11.17.662z"/></g></svg><svg width="56" height="47" viewBox="-10 -10 56 47" y="2079"><g class="B C P"><path d="M2.675 1.388L15.92 26.094l17.4-2.032L19.7.86l-17.015.528z"/><path d="M2.357 8.137l15.46 11.56 15.696-1.67L16.7 7.29l-14.334.85z"/></g></svg><svg width="48" height="41" viewBox="-10 -10 48 41" y="2126"><g class="B I L"><path d="M2.068 1.073l10.3 19.23 13.556-1.582L15.32.66l-13.25.412z"/><path d="M1.813 6.323l12.043 9.004 12.23-1.3-13.1-8.367-11.17.662z"/></g></svg><svg width="63" height="63" viewBox="-10 -10 63 63" y="2167"><path d="M42.16 12.868h-4.454a11.36 11.36 0 0 0 .128-1.7C37.834 5 32.834 0 26.664 0a11.17 11.17 0 0 0-11.168 11.168 11.56 11.56 0 0 0 .128 1.7H.84a.841.841 0 0 0-.84.842v28.437c0 .028.001.057.004.085l.004.028.008.054.01.035.01.045.012.034a.43.43 0 0 0 .016.043l.014.03.022.044.016.027a.39.39 0 0 0 .026.044l.02.027c.01.013.018.026.03.04l.032.035.023.026.02.02c.014.012.026.025.04.036l.066.05c.014.01.028.017.042.026l.03.016a.4.4 0 0 0 .042.02l.033.016.04.015.038.013.08.02.046.007.035.005a.859.859 0 0 0 .083.004h41.32a.841.841 0 0 0 .84-.84V13.7a.841.841 0 0 0-.841-.84zM26.664 1.693a9.492 9.492 0 0 1 9.198 11.812c-.273 1.084-1.003 2.473-1.57 3.313a.764.764 0 0 0-.013.019L26.664 28.14 19.05 16.836a9.397 9.397 0 0 1-1.584-3.333 9.49 9.49 0 0 1-.287-2.326 9.5 9.5 0 0 1 9.486-9.485zM16.014 14.55a11.111 11.111 0 0 0 1.651 3.244l2.56 3.8-1.17 1.17-8.214-8.215h5.174zM8.8 14.9l9.054 9.054-6.74 6.734-9.052-9.05L8.8 14.9zm-7.127-.35h5.095l-5.095 5.095V14.55zm0 9.077l8.25 8.25-8.25 8.24v-16.5zm39.634 17.68H26.082l9.5-9.5 5.736 5.737v3.762zm0-6.143L36.77 30.62l4.546-4.547v9.093zm0-11.472L23.702 41.307H2.874l18.3-18.3 4.783 7.1a.841.841 0 0 0 1.396 0l8.3-12.34c.53-.778 1.22-2.022 1.63-3.227h4.014v9.142zM26.5 16a5.5 5.5 0 1 1 0-11 5.5 5.5 0 0 1 0 11zm0-2a3.5 3.5 0 1 0 0-7 3.5 3.5 0 0 0 0 7z" class="K"/></svg><svg width="52" height="34" viewBox="-10 -10 52 34" y="2230"><g opacity=".8" class="B D"><path fill="#d9d7d7" d="M0 0h32v14H0V0zm2.344 6.566v.985h1.044v1.42H2.344v.93h1.044v1.983h1.176V9.9H6.93v-.93H4.564V7.55H6.05a5.03 5.03 0 0 0 1.337-.17c.412-.112.77-.283 1.073-.513a2.47 2.47 0 0 0 .72-.865c.177-.347.265-.755.265-1.224s-.083-.872-.25-1.2a2.304 2.304 0 0 0-.69-.837 3.02 3.02 0 0 0-1.059-.492 5.39 5.39 0 0 0-1.367-.162h-2.7v4.488H2.344zm3.734 0H4.564V3.063h1.514c.676 0 1.208.136 1.595.408s.58.708.58 1.308-.193 1.048-.58 1.344-.92.443-1.595.443z"/><path fill="#e9e9e9" d="M15 0h4v14h-4z"/></g></svg><svg width="39" height="36" viewBox="-10 -10 39 36" y="2264"><path d="M19 15.978h-4.63L9.278 0h4.63L19 15.978zm-5.52 0H8.85L4.834 3.196h4.63l4.016 12.782zM7.864 16H0L3.867 3.306 7.864 16zM3.867 6.014l1.527 5.103 1.13 3.796H1.357l.86-3.085 1.65-5.814z" opacity=".4" class="D K"/></svg><svg width="49" height="40" viewBox="-10 -10 49 40" y="2300"><use xlink:href="#b" class="G"/></svg><svg width="59" height="46" viewBox="-10 -10 59 46" y="2340"><path d="M39 22.83l-.002-.02c0-.01 0-.02-.002-.03s0-.014-.002-.02l-.005-.034a.712.712 0 0 0-.013-.067L33.287.597A.806.806 0 0 0 32.5 0h-26a.808.808 0 0 0-.787.597l-5.69 22.06c-.005.017-.007.034-.01.05l-.004.02-.005.032a.064.064 0 0 1-.003.02v.03c-.002.01-.002.017-.002.024v2.38a.78.78 0 0 0 .342.643c.215.148.5.186.74.102l4.384-1.485L9.9 25.957c.172.06.36.058.534 0l4.403-1.485 4.406 1.485c.172.06.36.06.533 0l4.405-1.485 4.405 1.485a.827.827 0 0 0 .533 0l4.406-1.485 4.405 1.485a.826.826 0 0 0 .737-.102.78.78 0 0 0 .343-.643v-2.38zm-23.906-2.302a.843.843 0 0 0-.533 0l-3.436 1.16.79-6.135 3.404-1.158 3.367 1.136v6.2l-3.593-1.212zm-9.363 0a.84.84 0 0 0-.535 0l-3.23 1.095 1.56-6.052 3.437-1.177 3.32 1.11-.8 6.28-3.742-1.257zM5.354 8.485l3.06-1.018 2.783.945-.707 5.496-3.266-1.093a.835.835 0 0 0-.535.002L4 13.74l1.355-5.254zm13.333-6.91V6.77l-2.615-.882a.835.835 0 0 0-.532 0l-2.486.832.663-5.145h4.97zm6.595 0l.664 5.145-2.487-.833a.832.832 0 0 0-.531 0l-2.616.883V1.576h4.97zM35 13.74l-2.69-.922a.838.838 0 0 0-.537-.002L28.5 13.9l-.708-5.498 2.783-.946 3.062 1.02L35 13.74zM12.83 8.464l2.975-.998 2.883.973v5.422l-3.1-1.045a.838.838 0 0 0-.536 0l-2.91 1 .69-5.342zm7.483-.025l2.882-.972 2.976.997.69 5.34-2.91-.988a.835.835 0 0 0-.535 0l-3.1 1.045V8.44zm0 7.1l3.367-1.135 3.405 1.155.8 6.138-3.435-1.16a.847.847 0 0 0-.534 0l-3.593 1.212v-6.2zm9.213 6.255l-.808-6.276 3.32-1.114 3.436 1.177 1.56 6.055-3.25-1.098a.843.843 0 0 0-.534 0l-3.724 1.256zm3.653-15.12l-2.33-.776a.835.835 0 0 0-.534.001l-2.718.924-.676-5.237h4.946l1.312 5.087zM7.134 1.575h4.945l-.675 5.237-2.718-.924a.834.834 0 0 0-.533-.001l-2.33.775 1.31-5.087zM33.782 22.89a.843.843 0 0 0-.533 0l-4.406 1.485-4.404-1.485a.847.847 0 0 0-.534 0L19.5 24.377l-4.406-1.485a.843.843 0 0 0-.533 0l-4.406 1.486-4.424-1.486a.84.84 0 0 0-.535 0l-3.57 1.2v-.694l3.84-1.3 4.45 1.493a.615.615 0 0 0 .077.019.676.676 0 0 0 .048.01l.014.001.024.003h.016c.02.002.04.003.062.003l.04-.002.03-.001.043-.005.025-.003.043-.01.026-.005.06-.018 4.403-1.485 4.452 1.5.038.01.033.006.045.007.03.004a.848.848 0 0 0 .151 0l.03-.004.045-.007.034-.007.037-.01.036-.01.01-.004 4.406-1.485 4.464 1.503.026.005.043.01a1.452 1.452 0 0 0 .069.008c.012 0 .026 0 .038.002l.03.001.063-.002.018-.002.02-.002.013-.002a.776.776 0 0 0 .051-.01c.01 0 .018-.003.028-.005a.709.709 0 0 0 .073-.02l4.406-1.486 3.86 1.302v.695l-3.592-1.212z" class="G"/></svg><svg width="49" height="40" viewBox="-10 -10 49 40" y="2386"><use xlink:href="#b" class="H"/></svg><svg width="44" height="50" viewBox="-10 -10 44 50" y="2426"><use xlink:href="#c" class="G"/></svg><svg width="47.41" height="55" viewBox="-10 -10 47.41 55" y="2476"><path d="M26.33 0l-8.455.293c-.55.026-.98.507-.972 1.08l.047 1.367a1.08 1.08 0 0 0 .35.737l2.406 2.19.148 4.225-.42.37c-.27.247-.3.662-.07.947.13.157.32.245.52.23h.02l.067 1.947-.42.372c-.27.247-.3.662-.07.947.13.157.32.245.52.23h.026l.068 1.946-.42.372c-.27.247-.3.662-.07.947.13.157.32.246.52.23h.026l.068 1.947-.42.372c-.27.247-.3.662-.07.947.13.157.32.245.52.23h.02l.028.802 2.784 5.563 2.388-5.743-.174-4.972.42-.372c.27-.246.293-.67.058-.953a.65.65 0 0 0-.533-.231l-.068-1.948.42-.372c.27-.245.293-.67.06-.953a.65.65 0 0 0-.533-.231l-.068-1.947.42-.372c.27-.245.293-.67.06-.953a.65.65 0 0 0-.534-.231L24.92 7.07l.42-.372c.27-.246.293-.67.058-.953a.65.65 0 0 0-.533-.231V5.48l2.247-2.352c.194-.202.3-.47.297-.75l-.047-1.368C27.343.437 26.88-.013 26.33 0zm-2.16 22.32l-1.194 2.882-1.392-2.792-.05-1.408 2.51-2.28zm-.187-5.335l-2.51 2.28-.062-1.772 2.5-2.28zm-.122-3.504l-2.51 2.28L21.3 14l2.51-2.28zM23.74 9.98l-2.51 2.28-.062-1.772 2.51-2.28zm2.385-7.7l-2.56 2.666.054 1.53-2.5 2.28-.13-3.72-2.74-2.48-.032-.922 7.886-.276zm-23.1 8.356c-.047.183.013.378.13.552l.95 1.148-.44.357-.925-1.145a.63.63 0 0 0-.51-.242c-.188.007-.383.068-.505.216-2.207 2.43-2.31 6.106-.24 8.654a.64.64 0 0 0 .458.236c.185.02.352-.043.496-.136l2.666-2.164 1.327 1.643a.63.63 0 0 0-.2.624c.07.357.447.584.804.515l.273-.052 1.494 1.85a.63.63 0 0 0-.2.623c.07.357.447.584.803.515l.273-.053 1.494 1.85a.63.63 0 0 0-.2.623c.07.357.447.584.804.515l.273-.053 1.494 1.85a.63.63 0 0 0-.2.623c.07.357.447.584.803.515l.273-.053 1.494 1.85a.63.63 0 0 0-.2.623c.07.357.447.584.804.515l.273-.053.925 1.145a.73.73 0 0 0 .325.223l3.243 1.012c.217.07.454.024.63-.122a.77.77 0 0 0 .236-.458l.014-.134-.27-2.795.11-.015c.282-.064.5-.302.516-.6.01-.08.015-.134-.004-.216-.07-.357-.447-.584-.803-.514l-.273.052-1.494-1.85c.12-.115.194-.27.207-.435.008-.08.014-.133-.005-.216-.07-.356-.447-.584-.804-.514l-.273.052-1.493-1.85c.12-.114.193-.27.207-.434.008-.08.013-.134-.005-.216-.07-.357-.448-.584-.804-.514l-.273.052-1.494-1.85c.12-.115.193-.27.207-.434a.58.58 0 0 0-.004-.216c-.07-.357-.448-.584-.804-.514l-.273.052-1.494-1.85c.12-.115.193-.27.207-.434.008-.08.014-.134-.004-.216-.07-.357-.448-.584-.804-.515l-.273.052-2.907-3.45 2.666-2.164c.14-.114.224-.28.236-.46a.77.77 0 0 0-.135-.499 6.6 6.6 0 0 0-8.492-1.563c-.17.1-.27.268-.315.45zm17.708 22.74l-2.102-.65-.38-.47 2.332-.508zM20 30.503l-2.66.58-1.422-1.762 2.66-.58zm-2.37-2.936l-2.662.58-1.422-1.762 2.66-.58zm-2.372-2.936l-2.66.58-1.422-1.762 2.66-.58zm-2.37-2.936l-2.662.58-1.422-1.76 2.66-.58zm-2.372-2.936l-2.66.58-1.684-2.084 1.905-1.547zm-.13-6.65L2.14 18.792a5.3 5.3 0 0 1 .097-5.767l.83 1.028c.237.293.66.338.927.097l1.466-1.2c.293-.237.338-.663.097-.93l-.83-1.028c1.932-.79 4.137-.344 5.645 1.103z" class="G"/></svg><svg width="44" height="50" viewBox="-10 -10 44 50" y="2531"><use xlink:href="#c" class="H"/></svg><svg width="48" height="39" viewBox="-10 -10 48 39" y="2581"><g class="B C E F N"><use xlink:href="#d"/><path d="M3.024 9.1c.56-2.25 2.688-3.938 5.152-3.938a5.222 5.222 0 0 1 4.704 2.926m.112 4.725c-.896 1.8-2.688 2.925-4.816 2.925-2.464 0-4.48-1.688-5.152-3.825M21.392 1.45L8.176 2.8m2.576 14.85l12.768-4.162m-8.064-5.4h-2.464m2.464 4.725h-2.464M.784 9.1h2.24m-2.24 2.812h2.24"/></g></svg><svg width="59" height="47" viewBox="-10 -10 59 47" y="2620"><g stroke-width="1.597" class="B C E F"><path d="M1.018 17.042c.948 5.074 5.372 8.84 10.585 8.84 4.74 0 8.848-3.274 10.27-7.694l16.116-4.9m-.316-5.73l-15.958 3.764c-1.422-4.42-5.372-7.693-10.27-7.693-5.213 0-9.48 3.765-10.427 8.676M37.83 13.44c-.8 2.62-2.527 4.748-5.055 5.73M29.773 1.655c3.634 0 6.636 2.29 7.9 5.565"/><path d="M4.178 12.786c.8-3.274 3.792-5.73 7.267-5.73 2.844 0 5.372 1.637 6.636 4.256m.16 6.876c-1.265 2.62-3.793 4.255-6.795 4.255-3.475 0-6.32-2.455-7.267-5.565M30.09 1.655L11.445 3.62m3.635 21.607l18-6.056m-11.375-7.857H18.24m3.475 6.875H18.24M1.018 12.786h3.16m-3.16 4.092h3.16"/></g></svg><svg width="48" height="39" viewBox="-10 -10 48 39" y="2667"><g class="B E F I N"><use xlink:href="#d"/><path d="M3.024 9.1c.56-2.25 2.688-3.938 5.152-3.938a5.22 5.22 0 0 1 4.704 2.926m.112 4.725c-.896 1.8-2.688 2.925-4.816 2.925-2.464 0-4.48-1.688-5.152-3.825M21.392 1.45L8.176 2.8m2.576 14.85l12.768-4.162m-8.064-5.4h-2.464m2.464 4.725h-2.464M.784 9.1h2.24m-2.24 2.812h2.24"/></g></svg><svg width="62" height="62" viewBox="-10 -10 62 62" y="2706"><g class="D"><use xlink:href="#H" fill="#55acee"/><path d="M20.37 17.07l.044.726-.734-.1c-2.674-.34-5-1.497-6.992-3.44l-.97-.964-.25.712c-.528 1.587-.2 3.263.91 4.4.588.623.456.712-.558.34-.353-.118-.66-.207-.7-.162-.103.103.25 1.453.528 1.987.382.74 1.16 1.468 2.013 1.898l.72.34-.852.015c-.823 0-.852.015-.764.326.294.964 1.454 1.987 2.747 2.432l.9.312-.793.474a8.27 8.27 0 0 1-3.936 1.098c-.662.014-1.205.074-1.205.118 0 .15 1.792.98 2.835 1.305 3.13.964 6.845.55 9.636-1.097 1.983-1.172 3.966-3.5 4.89-5.754.5-1.2 1-3.396 1-4.45 0-.682.043-.77.866-1.587.485-.474.94-.993 1.028-1.142.147-.28.132-.28-.617-.03-1.248.446-1.425.386-.808-.28.456-.475 1-1.335 1-1.587 0-.044-.22.03-.47.163-.265.15-.853.37-1.293.505l-.794.252-.72-.5c-.396-.267-.954-.563-1.248-.652-.75-.208-1.895-.178-2.57.06-1.837.666-2.997 2.387-2.865 4.27z" class="H"/></g></svg><svg width="43" height="49" viewBox="-10 -10 43 49" y="2768"><g class="B C L"><path d="M.798 22.95l21.653 5.347M7.65 24.3l7.7 1.872V17.65h-7.7v6.65z"/><rect width="11.7" height="2.7" x="5.65" y="14.65" rx=".9"/><rect width="11.7" height="2.7" x="5.65" y=".65" rx=".9"/><rect width="15.7" height="10.7" x="3.65" y="3.65" rx="2.7"/></g></svg><svg width="50" height="58" viewBox="-10 -10 50 58" y="2817"><g class="B C P"><path d="M1.04 30.074l28.242 7.006M9.975 31.85l10.05 2.454V23.12H9.975v8.728z"/><rect width="15.267" height="3.551" x="7.367" y="19.19" rx="1.17"/><rect width="15.267" height="3.551" x="7.367" y=".845" rx="1.17"/><rect width="20.484" height="14.034" x="4.758" y="4.776" rx="3.51"/></g></svg><svg width="43" height="49" viewBox="-10 -10 43 49" y="2875"><g class="B I L"><path d="M.798 22.95l21.653 5.347M7.65 24.3l7.7 1.872V17.65h-7.7v6.65z"/><rect x="5.65" y="14.65" width="11.7" height="2.7" rx=".9"/><rect x="5.65" y=".65" width="11.7" height="2.7" rx=".9"/><rect x="3.65" y="3.65" width="15.7" height="10.7" rx="2.7"/></g></svg><svg width="36" height="36" viewBox="-10 -10 36 36" y="2924"><path fill="#d8d8d8" d="M0 0h16v4H0V0zm0 6h16v4H0V6zm0 6h16v4H0v-4z" class="D"/></svg><svg width="36" height="36" viewBox="-10 -10 36 36" y="2960"><path fill="#1f56aa" d="M0 0h7v7H0V0zm9 0h7v7H9V0zm0 9h7v7H9V9zM0 9h7v7H0V9z" class="D"/></svg><svg width="62" height="62" viewBox="-10 -10 62 62" y="2996"><g class="D"><use xlink:href="#H" fill="#4c6c91"/><path d="M22.1 27.192s.404-.045.6-.263c.2-.2.184-.577.184-.577s-.025-1.763.808-2.023c.822-.256 1.877 1.704 2.997 2.458.846.57 1.488.445 1.488.445l2.992-.04s1.564-.095.822-1.303c-.06-.1-.432-.893-2.224-2.526-1.876-1.71-1.624-1.432.635-4.39 1.376-1.8 1.926-2.9 1.754-3.37-.163-.45-1.176-.33-1.176-.33l-3.368.02s-.25-.033-.435.076-.298.354-.298.354-.532 1.393-1.243 2.578c-1.5 2.5-2.1 2.632-2.345 2.477-.57-.363-.428-1.454-.428-2.23 0-2.422.375-3.432-.73-3.694-.365-.087-.635-.144-1.572-.153-1.202-.012-2.218.004-2.795.28-.383.184-.68.595-.498.62.222.03.726.133.994.5.345.46.333 1.496.333 1.496s.198 2.852-.464 3.206c-.453.243-1.076-.253-2.413-2.52-.685-1.162-1.202-2.446-1.202-2.446s-.1-.24-.278-.37a1.412 1.412 0 0 0-.518-.204l-3.2.02s-.48.014-.657.22c-.157.18-.012.558-.012.558s2.505 5.755 5.343 8.655c2.602 2.66 5.556 2.485 5.556 2.485h1.34z" class="H"/></g></svg><svg width="44" height="53" viewBox="-10 -10 44 53" y="3058"><g class="B C E F O"><use xlink:href="#e"/><use xlink:href="#f"/></g></svg><svg width="48" height="59" viewBox="-10 -10 48 59" y="3111"><g class="B C E F T"><path d="M1.52 15.007h3.64v22.73H1.52zm0 0l14.04-12.42s1.7-1.2 5.6-1.2c4.42 0 5.33 2.643 5.33 4.36 0 2.114-1.3 3.172-6.24 2.907-3-.132-4.68-3.435-2.34-4.493M16.6 5.23L5.16 15.007"/><path d="M26.35 5.625v19.16s-.13 5.55-5.07 5.55c0 0-3.9.397-5.2-2.774V6.418M5.16 37.736L15.7 27.032"/></g></svg><svg width="44" height="53" viewBox="-10 -10 44 53" y="3170"><g class="B E F I O"><use xlink:href="#e"/><use xlink:href="#f"/></g></svg><svg width="59" height="56" viewBox="-10 -10 59 56" y="3223"><path d="M19.478 25.295c-1.1 0-2.002.92-2.002 2.018s.913 2.018 2.002 2.018c1.05 0 2.002-.92 1.954-1.97a1.963 1.963 0 0 0-1.954-2.066zM38 32.447c1.257-2.187 1.265-4.795.016-6.974l-12.54-21.9A6.82 6.82 0 0 0 19.485.07c-2.515 0-4.757 1.316-5.998 3.503L.93 25.5a6.994 6.994 0 0 0 .024 7.014c1.25 2.164 3.484 3.463 5.982 3.463h25.05c2.506 0 4.757-1.315 6.022-3.52zm-2.723-1.582a3.78 3.78 0 0 1-3.307 1.93H6.93a3.727 3.727 0 0 1-3.267-1.89 3.846 3.846 0 0 1-.008-3.85L16.2 5.148a3.711 3.711 0 0 1 3.275-1.913 3.73 3.73 0 0 1 3.275 1.92L35.3 27.063c.672 1.18.664 2.6-.025 3.802zM18.98 11.13c-.953.274-1.545 1.146-1.545 2.203l.136 1.92.408 7.24a1.47 1.47 0 0 0 1.498 1.421c.817 0 1.457-.638 1.498-1.47l.048-1.47.272-4.674.184-3.026a2.51 2.51 0 0 0-.184-1.01 2.003 2.003 0 0 0-2.315-1.138z" class="K"/></svg><svg width="47" height="48" viewBox="-10 -10 47 48" y="3279"><g class="B C E F O"><path d="M3.012 4.683C1.614 4.25.646 2.842.646 1.325l18.182 7.583c0 1.95 1.613 3.575 3.55 3.575s3.55-1.625 3.55-3.575L7.746 1.325c.108 1.083-.215 1.842-.968 2.492m-3.98.866l18.828 7.8"/><path d="M9.145 7.283V10.1h1.506v2.708h4.95V10.1m-4.088 2.708v4.875s.322 4.334 5.056 4.334c3.658.108 3.766 3.358 3.658 4.983h3.12m-5.272-7.908h.646c2.044 0 3.658 1.84 4.196 3.358.323.758.43 1.625.43 2.492v1.95"/><path d="M15.062 12.808v4.442s.323 1.733 3.12 1.842"/></g></svg><svg width="52" height="53" viewBox="-10 -10 52 53" y="3327"><g class="B C E F T"><path d="M3.592 5.392C1.924 4.875.77 3.196.77 1.387l21.678 9.042a4.29 4.29 0 0 0 4.233 4.263c2.3 0 4.233-1.938 4.233-4.263L9.236 1.387c.128 1.292-.257 2.196-1.155 2.97M3.335 5.392l22.448 9.3"/><path d="M10.903 8.492v3.358H12.7v3.23h5.9v-3.23"/><path d="M13.726 15.08v5.812s.384 5.166 6.028 5.166c4.362.13 4.5 4.005 4.362 5.942h3.72m-6.286-9.43h.77c2.437 0 4.36 2.197 5.003 4.005.385.904.513 1.938.513 2.97v2.326"/><path d="M17.96 15.08v5.295s.384 2.067 3.72 2.196"/></g></svg><svg width="47" height="50" viewBox="-10 -10 47 50" y="3380"><g class="B E F I O"><path d="M3.367 4.358C1.968 3.925 1 2.517 1 1l18.182 7.583c0 1.95 1.614 3.575 3.55 3.575s3.55-1.625 3.55-3.575L8.102 1c.107 1.083-.215 1.842-.97 2.492m-4.336 3.19l18.828 7.8m-12.48-5.2V12.1h1.505v2.708h4.95V12.1m-4.088 2.708v4.875s.322 4.334 5.056 4.334c3.658.108 3.766 3.358 3.658 4.983h3.12m-5.272-7.908h.646c2.044 0 3.658 1.84 4.196 3.358.323.758.43 1.625.43 2.492v1.95"/><path d="M15.062 14.808v4.442s.323 1.733 3.12 1.842"/></g></svg><svg width="48" height="48" viewBox="-10 -10 48 48" y="3430"><path d="M26.027 26.437H14l7.986-8.172a.65.65 0 0 0 .191-.456.65.65 0 0 0-.19-.456l-2.07-2.116a.606.606 0 0 0-.89 0l-8.305 8.465-3.755-3.842 1.496-1.53a.69.69 0 0 0 .159-.65c-.064-.23-.255-.392-.5-.457l-7.2-1.27a.661.661 0 0 0-.573.196.666.666 0 0 0-.19.586l1.24 7.358c.032.228.223.423.445.52.223.065.478 0 .637-.163l1.495-1.53 3.468 3.55H.795a.646.646 0 0 0-.636.65c0 .36.286.652.636.652h25.232c.35 0 .637-.293.637-.65s-.287-.684-.637-.684zm-6.554-9.832l1.177 1.204-7.827 8-1.178-1.205 7.828-8zM3.532 21.52L2.45 22.628l-.9-5.2 5.1.912-1.082 1.107a.64.64 0 0 0 0 .912l6.014 6.153H9.227l-4.772-4.98a.642.642 0 0 0-.923 0zM23.482.26a.66.66 0 0 0-.51.26c-.38.554-3.817 5.438-3.817 7.685 0 2.442 1.94 4.428 4.327 4.428s4.327-1.986 4.327-4.428c0-2.247-3.436-7.13-3.818-7.684-.096-.163-.286-.26-.5-.26zm0 11.07c-1.687 0-3.055-1.4-3.055-3.125 0-1.205 1.718-4.168 3.055-6.186C24.85 4.037 26.536 7 26.536 8.205a3.071 3.071 0 0 1-3.054 3.125zm.158-4.95c.192.196 1.02 1.27.033 2.28a.64.64 0 0 0 0 .911.62.62 0 0 0 .445.195c.16 0 .318-.065.446-.195 1.495-1.53.668-3.32.03-4.07a.606.606 0 0 0-.89-.032c-.255.228-.287.618-.064.9z" class="G"/></svg><svg width="56" height="56" viewBox="-10 -10 56 56" y="3478"><path d="M33.464 34H18l10.268-10.506a.836.836 0 0 0 .246-.586.836.836 0 0 0-.246-.586L25.6 19.6a.779.779 0 0 0-1.145 0l-10.68 10.884-4.827-4.94 1.923-1.967a.887.887 0 0 0 .204-.837c-.08-.293-.327-.502-.654-.586l-9.246-1.632a.85.85 0 0 0-.736.25.856.856 0 0 0-.245.754l1.595 9.46c.04.294.286.545.573.67.286.084.613 0 .818-.2l1.923-1.967 4.46 4.563h-8.55a.83.83 0 0 0-.818.837.83.83 0 0 0 .818.837h32.44a.83.83 0 0 0 .818-.837c0-.46-.368-.88-.818-.88zm-8.428-12.64l1.514 1.55-10.064 10.297-1.513-1.548 10.063-10.31zM4.54 27.67l-1.4 1.424-1.145-6.698 6.545 1.172-1.4 1.424a.822.822 0 0 0 0 1.172l7.73 7.9h-3.026L5.727 27.67a.826.826 0 0 0-1.186 0zM30.2.335a.847.847 0 0 0-.654.335c-.5.7-4.9 7-4.9 9.88 0 3.14 2.496 5.693 5.564 5.693s5.564-2.554 5.564-5.693c0-2.9-4.42-9.168-4.9-9.88-.122-.2-.368-.334-.654-.334zm0 14.232c-2.167 0-3.926-1.8-3.926-4.018 0-1.55 2.2-5.358 3.927-7.954C31.95 5.2 34.118 9 34.118 10.55a3.95 3.95 0 0 1-3.927 4.018zm.195-6.362c.246.25 1.3 1.632.04 2.93a.822.822 0 0 0 0 1.172.799.799 0 0 0 .573.251.8.8 0 0 0 .573-.251c1.923-1.967.86-4.27.04-5.233a.779.779 0 0 0-1.145-.041c-.327.293-.368.795-.082 1.172z" class="G"/></svg><svg width="48" height="46" viewBox="-10 -10 48 46" y="3534"><path d="M26.027 24.55H14l7.986-7.6a.583.583 0 0 0 .191-.423.583.583 0 0 0-.19-.423l-2.07-1.965a.638.638 0 0 0-.89 0l-8.305 7.86-3.755-3.567 1.496-1.42a.61.61 0 0 0 .159-.605c-.064-.2-.255-.363-.5-.423l-7.2-1.18a.693.693 0 0 0-.573.181.591.591 0 0 0-.19.545l1.24 6.832c.032.212.223.393.445.484a.69.69 0 0 0 .637-.151l1.495-1.42 3.468 3.295H.795c-.35 0-.636.272-.636.605s.286.604.636.604h25.232c.35 0 .637-.272.637-.604a.649.649 0 0 0-.637-.635zm-6.554-9.13l1.177 1.118-7.827 7.437-1.178-1.118 7.828-7.437zm-15.94 4.565L2.45 21.012l-.9-4.838 5.1.847-1.082 1.028a.565.565 0 0 0 0 .846l6.014 5.714H9.227l-4.772-4.625a.677.677 0 0 0-.923 0zM23.482.242c-.2 0-.382.1-.5.242-.38.514-3.817 5.05-3.817 7.135 0 2.267 1.94 4.1 4.327 4.1s4.327-1.844 4.327-4.1C27.82 5.533 24.383 1 24 .484c-.096-.15-.286-.242-.5-.242zm0 10.28c-1.687 0-3.055-1.3-3.055-2.902 0-1.12 1.718-3.87 3.055-5.745C24.85 3.75 26.536 6.5 26.536 7.62c.032 1.602-1.368 2.902-3.054 2.902zm.158-4.596c.192.18 1.02 1.18.033 2.116a.565.565 0 0 0 0 .846.65.65 0 0 0 .445.182.64.64 0 0 0 .446-.182c1.495-1.42.668-3.083.03-3.78a.637.637 0 0 0-.89-.03c-.255.212-.287.574-.064.847z" class="H"/></svg><svg width="63" height="62" viewBox="-10 -10 63 62" y="3580"><g class="D"><path fill="#ce1312" d="M0 21C0 9.402 9.482 0 21.178 0s21.178 9.402 21.178 21-9.482 21-21.178 21S0 32.598 0 21z"/><path d="M32.2 16.773s-.22-1.577-.896-2.272c-.858-.912-1.82-.916-2.26-.97l-7.902-.23-7.89.232c-.44.053-1.402.057-2.26.97-.677.695-.897 2.272-.897 2.272s-.225 1.853-.225 3.705v1.736c0 1.853.225 3.705.225 3.705s.22 1.577.896 2.272c.86.912 1.986.884 2.488.98 1.805.176 7.67.23 7.67.23l7.896-.24c.44-.054 1.402-.058 2.26-.97.676-.695.897-2.272.897-2.272s.225-1.852.225-3.705v-1.736a35.23 35.23 0 0 0-.225-3.705z" class="H"/><path fill="#ce1312" d="M18.818 24.32v-6.432l6.095 3.227z"/></g></svg></svg>