<svg xmlns="http://www.w3.org/2000/svg" xmlns:xlink="http://www.w3.org/1999/xlink" width="98" height="1292" viewBox="0 0 98 1292"><svg width="34" height="16" viewBox="0 0 34 16" id="brick-and-stone" y="0"><path fill="#1D509F" d="M33.37 14.77h-.63v-4.308a.622.622 0 0 0-.629-.616h-4.407V5.538a.622.622 0 0 0-.63-.615h-4.407V.615a.622.622 0 0 0-.63-.615H11.963a.623.623 0 0 0-.63.615v4.308H6.926a.623.623 0 0 0-.63.615v4.308H1.89a.622.622 0 0 0-.63.616v4.307H.63a.622.622 0 0 0-.629.616c0 .34.282.615.63.615h32.74c.349 0 .63-.275.63-.615a.622.622 0 0 0-.63-.616zm-6.926-4.924H17.63V6.154h8.814v3.692zM12.593 1.231h8.814v3.692h-8.814V1.231zM7.556 6.154h8.814v3.692H7.556V6.154zm-5.037 4.923h8.814v3.692H2.52v-3.692zm10.074 0h8.814v3.692h-8.814v-3.692zm10.074 3.692v-3.692h8.814v3.692h-8.814z"></path></svg><svg width="34" height="16" viewBox="0 0 34 16" id="brick-and-stone-o" y="16"><title>brick-and-stone-icon</title><path d="M33.37 14.77h-.63v-4.308a.622.622 0 0 0-.629-.616h-4.407V5.538a.622.622 0 0 0-.63-.615h-4.407V.615a.622.622 0 0 0-.63-.615H11.963a.623.623 0 0 0-.63.615v4.308H6.926a.623.623 0 0 0-.63.615v4.308H1.89a.622.622 0 0 0-.63.616v4.307H.63a.622.622 0 0 0-.629.616c0 .34.282.615.63.615h32.74c.349 0 .63-.275.63-.615a.622.622 0 0 0-.63-.616zm-6.926-4.924H17.63V6.154h8.814v3.692zM12.593 1.231h8.814v3.692h-8.814V1.231zM7.556 6.154h8.814v3.692H7.556V6.154zm-5.037 4.923h8.814v3.692H2.52v-3.692zm10.074 0h8.814v3.692h-8.814v-3.692zm10.074 3.692v-3.692h8.814v3.692h-8.814z" fill="#FFF" fill-rule="nonzero"></path></svg><svg width="39" height="43" viewBox="0 0 39 43" id="call-center" y="32"><g fill="#2057AC"><path d="M28.554 30.1h-4.179a.687.687 0 0 0-.492.21L19.5 34.82l-4.383-4.51a.687.687 0 0 0-.492-.21h-4.179C4.394 30.1 0 34.654 0 40.928v1.355c0 .396.312.717.696.717.385 0 .697-.32.697-.717v-1.355c0-5.443 3.807-9.395 9.053-9.395h3.89l4.672 4.807c.272.28.712.28.984 0l4.671-4.807h3.89c5.247 0 9.054 3.952 9.054 9.395v1.355c0 .396.312.717.697.717.384 0 .696-.32.696-.717v-1.355C39 34.654 34.606 30.1 28.554 30.1zm3.342-20.232a10.01 10.01 0 0 0-2.847-5.356C26.602 1.724 23.149.093 19.5 0c-3.65.092-7.101 1.723-9.549 4.51-4.695 4.208-3.166 13.875-2.976 14.967.156.89.233 2.495-.993 3.245-.644.386-1.321.71-2.024.965a.721.721 0 0 0-.44.907.72.72 0 0 0 .168.28A7.272 7.272 0 0 0 8.92 27.31c.336.005.672-.029 1-.101a.719.719 0 0 0 .5-.873.695.695 0 0 0-.838-.517 5.107 5.107 0 0 1-4.092-1.225c.413-.192.816-.407 1.206-.645 1.422-.87 2.024-2.594 1.651-4.73-.64-3.667-.825-10.68 2.554-13.658a.704.704 0 0 0 .08-.084c.033-.041 3.357-4.044 8.52-4.044 5.163 0 8.487 4.003 8.52 4.044.024.03.051.058.08.084a8.582 8.582 0 0 1 2.441 4.636.7.7 0 0 0 .839.532.718.718 0 0 0 .516-.86zm3.417 13.995a.693.693 0 0 0-.27-.173 11.824 11.824 0 0 1-1.991-.944.686.686 0 0 0-.954.255.728.728 0 0 0 .248.982c.378.226.767.432 1.166.617a5.096 5.096 0 0 1-4.098 1.223.696.696 0 0 0-.843.524.718.718 0 0 0 .51.868v-.003c.328.072.664.106 1 .1a7.272 7.272 0 0 0 5.233-2.436.731.731 0 0 0 0-1.013z"></path><path d="M32.036 12.9h-2.744c-.014 0-.027-.01-.042-.01h-2.777v-2.857a.716.716 0 0 0-.705-.726.716.716 0 0 0-.706.726v2.858h-2.767v-2.858a.716.716 0 0 0-.706-.726.716.716 0 0 0-.705.726v2.858h-2.768v-2.858a.716.716 0 0 0-.705-.726.716.716 0 0 0-.706.726v2.858h-2.767v-2.858a.716.716 0 0 0-.706-.726.716.716 0 0 0-.705.726v2.858H9.75a.717.717 0 0 0-.704.77l.348 5.928c.325 6.292 4.357 10.52 10.029 10.52h.147a9.834 9.834 0 0 0 4.412-1.007.735.735 0 0 0 .329-.968.696.696 0 0 0-.94-.339 8.472 8.472 0 0 1-3.801.86h-.14c-4.875 0-8.34-3.675-8.623-9.15l-.305-5.164h17.999l-.305 5.164c-.024.4.272.744.66.768a.712.712 0 0 0 .747-.68l.311-5.26h2.122c.384 0 .696.321.696.717v4.3a.707.707 0 0 1-.696.717.707.707 0 0 0-.697.716c0 .396.312.717.697.717 1.154 0 2.089-.963 2.089-2.15v-4.3c0-1.187-.935-2.15-2.09-2.15z"></path><path d="M31.34 15.757a.716.716 0 0 0-.706.726c-.005 4.347-3.428 7.87-7.652 7.874h-.092c-.39-1.537-1.917-2.457-3.41-2.056-1.494.4-2.389 1.971-1.999 3.508.39 1.537 1.916 2.458 3.41 2.057a2.836 2.836 0 0 0 1.999-2.057h.092c5.003-.006 9.057-4.177 9.063-9.326a.716.716 0 0 0-.706-.726zm-11.144 10.75c-.764 0-1.383-.637-1.383-1.424 0-.786.62-1.424 1.383-1.424.765 0 1.384.638 1.384 1.424 0 .786-.62 1.424-1.384 1.424z"></path></g></svg><svg width="98" height="14" viewBox="0 0 98 14" id="cards" y="75"><defs><linearGradient id="a" x1=".008%" y1="50%" y2="50%"><stop offset="30%" stop-color="#00B4E6"></stop><stop offset="100%" stop-color="#088CCB"></stop></linearGradient></defs><g fill="none" fill-rule="evenodd" opacity=".5"><path fill="#004F8B" d="M10.524 11.19l1.509-9.023h2.413l-1.51 9.023h-2.412M21.69 2.389a6.13 6.13 0 0 0-2.163-.379c-2.385 0-4.065 1.224-4.08 2.978-.013 1.296 1.2 2.02 2.116 2.45.939.443 1.255.725 1.25 1.12-.005.605-.75.881-1.444.881-.966 0-1.479-.137-2.271-.473l-.311-.144-.34 2.02c.565.252 1.607.47 2.69.481 2.537 0 4.184-1.21 4.202-3.082.01-1.027-.634-1.808-2.026-2.452-.844-.417-1.36-.696-1.355-1.118 0-.375.437-.776 1.382-.776a4.38 4.38 0 0 1 1.807.345l.216.104.327-1.955m6.19-.214h-1.866c-.577 0-1.01.161-1.264.749l-3.584 8.268H23.7s.415-1.111.509-1.355l3.09.003c.073.316.294 1.352.294 1.352h2.24l-1.954-9.017m-2.976 5.816c.2-.52.962-2.522.962-2.522-.015.024.198-.523.32-.861l.163.778.559 2.605h-2.004M8.5 2.173L6.135 8.326l-.251-1.25c-.44-1.442-1.81-3.003-3.343-3.785l2.16 7.89 2.554-.002 3.8-9.006H8.499"></path><path fill="#ED9F2D" d="M3.944 2.168H.052l-.03.188c3.027.746 5.03 2.551 5.863 4.72L5.038 2.93c-.146-.572-.57-.742-1.094-.762"></path><path fill="#E30E17" d="M46.23 6.807c0-2.164.951-4.09 2.431-5.337A6.136 6.136 0 0 0 44.691 0c-3.534 0-6.4 3.048-6.4 6.807 0 3.76 2.866 6.807 6.4 6.807 1.5 0 2.879-.55 3.97-1.47-1.48-1.247-2.43-3.173-2.43-5.337"></path><path fill="#EA600A" d="M46.23 6.807c0 2.164.951 4.09 2.431 5.337 1.48-1.247 2.43-3.173 2.43-5.337 0-2.164-.95-4.09-2.43-5.337-1.48 1.247-2.43 3.173-2.43 5.337"></path><path fill="#F59F00" d="M52.63 0c-1.5 0-2.878.55-3.969 1.47 1.48 1.247 2.43 3.173 2.43 5.337 0 2.164-.95 4.09-2.43 5.337a6.136 6.136 0 0 0 3.97 1.47c3.534 0 6.4-3.048 6.4-6.807 0-3.76-2.866-6.807-6.4-6.807"></path><g><path fill="#4DB45E" d="M75.541 2.667v.003c-.003 0-1.166-.003-1.476 1.136-.284 1.044-1.085 3.928-1.107 4.008h-.221s-.82-2.948-1.107-4.012c-.31-1.14-1.476-1.135-1.476-1.135h-2.657v8.666h2.657V6.186h.221l1.55 5.147h1.845l1.55-5.143h.221v5.143h2.657V2.667h-2.657zm9.706 0s-.779.072-1.144.908L82.22 7.814h-.222V2.667h-2.657v8.666h2.51s.815-.075 1.18-.908l1.846-4.239h.221v5.147h2.657V2.667h-2.51zm3.69 3.936v4.73h2.657V8.571h2.879c1.254 0 2.317-.822 2.712-1.968h-8.248z"></path><path fill="url(#a)" d="M5.941 0H.033c.295 1.65 1.502 2.975 3.063 3.406a4.12 4.12 0 0 0 1.11.151h4.555a2.98 2.98 0 0 0 .059-.605C8.82 1.321 7.532 0 5.94 0z" transform="translate(88.531 2.667)"></path></g></g></svg><svg width="70" height="45" viewBox="0 0 11.520632 7.4060997" id="counter" y="89"><path d="M.52 0h7.11c.288 0 .672.292.867.494l2.831 2.921c.27.27.245.348-.004.602L8.497 6.912c-.196.201-.579.494-.867.494H.52A.506.506 0 0 1 0 6.912V.494C0 .22.232 0 .52 0z" fill="#3c76cf"></path></svg><svg width="43" height="24" viewBox="0 0 43 24" id="delivery" y="134"><g fill="#2057AC" fill-rule="evenodd"><path fill-rule="nonzero" d="M42.283 17.18v-4.09a.729.729 0 0 0-.027-.164c-.005-.021-.004-.045-.011-.066a.726.726 0 0 0-.119-.223l-.009-.012-5.724-7.261a.712.712 0 0 0-.56-.273h-5.016V.727A.722.722 0 0 0 30.1 0H6.45a.722.722 0 0 0-.717.727c0 .402.321.728.717.728h.717v4.363H5.733a.722.722 0 0 0-.716.727c0 .402.32.728.716.728h1.434v4.363h-2.15a.722.722 0 0 0-.717.728c0 .401.32.727.717.727h2.15v4.09a2.703 2.703 0 0 0 .21 3.697.712.712 0 0 0 .506.213h2.223c.34 1.693 1.808 2.909 3.51 2.909 1.703 0 3.171-1.216 3.512-2.91h15.194c.341 1.694 1.809 2.91 3.511 2.91 1.703 0 3.17-1.216 3.511-2.91h2.223a.71.71 0 0 0 .506-.212 2.703 2.703 0 0 0 .21-3.698zm-2.327-4.968L34.4 11.7V9.455h3.382l2.174 2.757zm-26.34 10.333c-1.187 0-2.15-.976-2.15-2.181s.963-2.182 2.15-2.182c1.188 0 2.15.977 2.15 2.182 0 1.204-.962 2.18-2.15 2.181zm3.512-2.909c-.341-1.693-1.809-2.909-3.511-2.909-1.703 0-3.17 1.216-3.511 2.91H8.208a1.267 1.267 0 0 1 .182-1.668.733.733 0 0 0 .21-.514v-.728h.717a.722.722 0 0 0 .716-.727.722.722 0 0 0-.716-.727H8.6V13.09h6.45a.722.722 0 0 0 .717-.727.722.722 0 0 0-.717-.728H8.6V7.273h13.617a.722.722 0 0 0 .716-.728.722.722 0 0 0-.716-.727H8.6V1.455h20.783v18.181H17.128zm18.705 2.91c-1.187 0-2.15-.977-2.15-2.182s.963-2.182 2.15-2.182c1.188 0 2.15.977 2.15 2.182-.001 1.204-.963 2.18-2.15 2.181zm5.409-2.91h-1.898c-.34-1.693-1.808-2.909-3.51-2.909-1.703 0-3.171 1.216-3.512 2.91h-1.505V6.544h4.672L36.636 8h-2.953a.722.722 0 0 0-.716.727v3.637c0 .376.282.69.652.724l7.231.667v1.518h-.717a.722.722 0 0 0-.716.727c0 .402.32.727.716.727h.717v.728a.75.75 0 0 0 .206.51 1.27 1.27 0 0 1 .186 1.671z"></path><rect width="36.596" height="1.385" x="6.404" y="22.615" rx=".692"></rect><path fill-rule="nonzero" d="M3.583 0H2.15a.722.722 0 0 0-.717.727c0 .402.321.728.717.728h1.433A.722.722 0 0 0 4.3.727.722.722 0 0 0 3.583 0zm-.716 5.818H1.433a.722.722 0 0 0-.716.727c0 .402.32.728.716.728h1.434a.722.722 0 0 0 .716-.728.722.722 0 0 0-.716-.727zm-.739 5.722l-1.434.045a.723.723 0 0 0-.694.738.722.722 0 0 0 .716.716H.74l1.433-.046a.723.723 0 0 0 .694-.75.714.714 0 0 0-.22-.512.693.693 0 0 0-.518-.191z"></path></g></svg><svg width="29" height="23" viewBox="0 0 29 23" id="facade" y="158"><title>Group 5</title><g fill="none" fill-rule="evenodd"><path d="M.5.5v22h28v-1.554c-7.34-1.019-13.206-3.374-17.588-7.073C6.552 10.193 4.31 5.725 4.208.5H.5z" stroke="#1D509F"></path><path d="M.5.5v22h26.045c-6.826-1.124-12.419-3.478-16.771-7.068C5.018 11.51 2.454 6.522 2.095.5H.5zm28 22h.14l.17.19-.118.118a55.43 55.43 0 0 1-.192-.024V22.5z" stroke="#1D509F"></path><path d="M1.435.5L28.5 21.965V9.58c-3.054.043-5.8-.757-8.226-2.4C17.81 5.515 16.354 3.279 15.92.5H1.435z" stroke="#1D509F"></path><path d="M1.435.5L28.5 21.965V.5H1.435z" stroke="#1D509F"></path><path stroke="#1D509F" stroke-width=".704" d="M22.352.352h6.296v3.296h-6.296z"></path><path d="M25.352 3.352v4.296h3.296V3.352h-3.296z" stroke="#1D509F" stroke-width=".704"></path><path d="M17.748 3.352l3.554 4.296h4.346V3.352h-7.9z" stroke="#1D509F" stroke-width=".704"></path><path d="M15.55.352l1.518 3.296h4.58V.352H15.55z" stroke="#1D509F" stroke-width=".704"></path><g transform="translate(4 3)" fill="#1D509F"><path d="M.264.789h13.43v1H.264zM2.322 4.367h14.806v1H2.322zM4.437 7.944h20.415v1H4.437zM7.635 11.522h17.216v1H7.635zM14.134 15.1h10.718v1H14.134z"></path></g><path fill="#1D509F" d="M10 0h.807v13.238H10zM7 0h.807v10H7zM13 0h.807v16H13zM16 4h.807v13.747H16zM19 6.599h1V19h-1zM22 8h.863v12H22zM25 9h.863v11.8H25z"></path></g></svg><svg width="29" height="23" viewBox="0 0 29 23" id="facade-o" y="181"><title>facade-wh</title><g fill="none" fill-rule="evenodd"><path d="M.5.5v22h28v-1.554c-7.34-1.019-13.206-3.374-17.588-7.073C6.552 10.193 4.31 5.725 4.208.5H.5z" stroke="#FFF"></path><path d="M.5.5v22h26.045c-6.826-1.124-12.419-3.478-16.771-7.068C5.018 11.51 2.454 6.522 2.095.5H.5zm28 22h.14l.17.19-.118.118a55.43 55.43 0 0 1-.192-.024V22.5z" stroke="#FFF"></path><path d="M1.435.5L28.5 21.965V9.58c-3.054.043-5.8-.757-8.226-2.4C17.81 5.515 16.354 3.279 15.92.5H1.435z" stroke="#FFF"></path><path d="M1.435.5L28.5 21.965V.5H1.435z" stroke="#FFF"></path><path stroke="#FFF" stroke-width=".704" d="M22.352.352h6.296v3.296h-6.296z"></path><path d="M25.352 3.352v4.296h3.296V3.352h-3.296z" stroke="#FFF" stroke-width=".704"></path><path d="M17.748 3.352l3.554 4.296h4.346V3.352h-7.9z" stroke="#FFF" stroke-width=".704"></path><path d="M15.55.352l1.518 3.296h4.58V.352H15.55z" stroke="#FFF" stroke-width=".704"></path><g transform="translate(4 3)" fill="#FFF"><path d="M.264.789h13.43v1H.264zM2.322 4.367h14.806v1H2.322zM4.437 7.944h20.415v1H4.437zM7.635 11.522h17.216v1H7.635zM14.134 15.1h10.718v1H14.134z"></path></g><path fill="#FFF" d="M10 0h.807v13.238H10zM7 0h.807v10H7zM13 0h.807v16H13zM16 4h.807v13.747H16zM19 6.599h1V19h-1zM22 8h.863v12H22zM25 9h.863v11.8H25z"></path></g></svg><svg width="42" height="42" viewBox="0 0 42 42" id="facebook" y="204"><g fill="none" fill-rule="evenodd"><path fill="#3B5998" d="M0 21C0 9.402 9.402 0 21 0s21 9.402 21 21-9.402 21-21 21S0 32.598 0 21z"></path><path fill="#FFF" d="M22.489 32.648V21.222h3.154l.418-3.937h-3.572l.005-1.97c0-1.027.098-1.577 1.573-1.577h1.971V9.8h-3.154c-3.789 0-5.122 1.91-5.122 5.122v2.364H15.4v3.937h2.362v11.425h4.727z"></path></g></svg><svg width="27" height="27" viewBox="0 0 27 27" id="fence" y="246"><path d="M6 26H1V5.113L3.5 1 6 5.113zm10 0h-5V5.113L13.5 1 16 5.113zm10 0h-5V5.113L23.5 1 26 5.113zM6 8h5m-5 5h5m-5 5h5m-5 5h5m5-15h5m-5 5h5m-5 5h5m-5 5h4.992" fill="none" fill-rule="evenodd" stroke="#1D509F" stroke-linecap="round" stroke-linejoin="round" stroke-width="1.1"></path></svg><svg width="27" height="27" viewBox="0 0 27 27" id="fence-o" y="273"><title>fence</title><g transform="translate(1 1)" stroke="#FFF" stroke-width="1.1" fill="none" fill-rule="evenodd" stroke-linecap="round" stroke-linejoin="round"><path d="M5 25H0V4.113L2.5 0 5 4.113zM15 25h-5V4.113L12.5 0 15 4.113zM25 25h-5V4.113L22.5 0 25 4.113zM5 7h5M5 12h5M5 17h5M5 22h5M15 7h5M15 12h5M15 17h5M15 22h4.992"></path></g></svg><svg width="22" height="27" viewBox="0 0 22 27" id="fire-protect" y="300"><g fill="none"><path stroke="#1D509F" stroke-width="1.3" d="M8.404 8.16l6.671 6.562c3.408-4.716 2.166-12.33-6.787-13.665.78 1.506 2.166 3.75.116 7.102zm-3.032 3.465c-.347.313-.722.625-1.127.966-3.32 3.011-2.368 6.506-.722 9.148 1.473 2.187 3.61 3.863 7.682 4.062-1.617-3.778-.808-5.34.982-7.5l-6.815-6.676zm8.115 8.068c-1.675 2.13-1.098 3.864-.318 5.88.722 0 2.541-.738 4.159-2.187l-3.784-3.75-.057.057zm6.555-.085c.78-2.13.693-4.801-1.184-7.955-.404 1.42-1.386 2.955-2.454 4.375l3.638 3.58z"></path><path fill="#1D509F" d="M.18 4.223l.92-.92 20.93 20.932-.918.92z"></path></g></svg><svg width="22" height="27" viewBox="0 0 22 27" id="fire-protect-o" y="327"><title>fire-protect</title><g transform="translate(0 1)" fill-rule="nonzero" fill="none"><path d="M8.404 7.16l6.671 6.562C18.483 9.006 17.241 1.392 8.288.057c.78 1.506 2.166 3.75.116 7.102zM5.372 10.625c-.347.313-.722.625-1.127.966-3.32 3.011-2.368 6.506-.722 9.148 1.473 2.187 3.61 3.863 7.682 4.062-1.617-3.778-.808-5.34.982-7.5l-6.815-6.676zM13.487 18.693c-1.675 2.13-1.098 3.864-.318 5.88.722 0 2.541-.738 4.159-2.187l-3.784-3.75-.057.057zM20.042 18.608c.78-2.13.693-4.801-1.184-7.955-.404 1.42-1.386 2.955-2.454 4.375l3.638 3.58z" stroke="#FFF" stroke-width="1.3"></path><path fill="#FFF" d="M.18 3.223l.92-.92 20.93 20.932-.918.92z"></path></g></svg><svg width="34" height="21" viewBox="0 0 34 21" id="flat-roof" y="354"><title>flat-roof</title><g transform="translate(0 1)" stroke="#1D509F" stroke-width="1.3" fill="none" fill-rule="evenodd" stroke-linecap="round" stroke-linejoin="round"><ellipse cx="30.171" cy="4.75" rx="2.514" ry="4.694"></ellipse><path d="M30.171 9.444H12.886c-1.415 0-2.515-2.18-2.515-4.694 0-2.515 1.1-4.694 2.515-4.694H30.17M30.171 9.444l-11.628 9.22H.629l11.785-9.22"></path></g></svg><svg width="34" height="21" viewBox="0 0 34 21" id="flat-roof-o" y="375"><title>flat-roof-wh</title><g transform="translate(0 1)" stroke="#FFF" stroke-width="1.3" fill="none" fill-rule="evenodd" stroke-linecap="round" stroke-linejoin="round"><ellipse cx="30.171" cy="4.75" rx="2.514" ry="4.694"></ellipse><path d="M30.171 9.444H12.886c-1.415 0-2.515-2.18-2.515-4.694 0-2.515 1.1-4.694 2.515-4.694H30.17M30.171 9.444l-11.628 9.22H.629l11.785-9.22"></path></g></svg><svg width="14" height="30" viewBox="0 0 14 30" id="gidro-vetro" y="396"><g fill="none" fill-rule="evenodd" stroke="#1D509F" stroke-linecap="round" stroke-linejoin="round" stroke-width="1.14"><path d="M9.821 10.324v16.24c0 1.276-.975 2.32-2.166 2.32H3.213c-1.192 0-2.167-1.044-2.167-2.32V3.016c0-1.276.975-2.32 2.167-2.32h4.442c.758 0 1.3.348 1.733.928"></path><path d="M9.821 3.016c0 1.276-.975 2.32-2.166 2.32H3.213c-1.192 0-2.167-1.044-2.167-2.32 0-1.276.975-2.32 2.167-2.32h4.442c1.191 0 2.166 1.044 2.166 2.32"></path><path d="M10.363 3.596l2.708 3.828S1.155 17.4 1.046 22.272c.65-7.424 2.275-12.644 9.317-18.676zm-.975-1.972l3.467 5.568"></path></g></svg><svg width="14" height="30" viewBox="0 0 14 30" id="gidro-vetro-o" y="426"><title>gidro-vetro</title><g transform="translate(1)" stroke="#FFF" stroke-width="1.14" fill="none" fill-rule="evenodd" stroke-linecap="round" stroke-linejoin="round"><path d="M8.821 10.324v16.24c0 1.276-.975 2.32-2.166 2.32H2.213c-1.192 0-2.167-1.044-2.167-2.32V3.016c0-1.276.975-2.32 2.167-2.32h4.442c.758 0 1.3.348 1.733.928"></path><path d="M8.821 3.016c0 1.276-.975 2.32-2.166 2.32H2.213c-1.192 0-2.167-1.044-2.167-2.32 0-1.276.975-2.32 2.167-2.32h4.442c1.191 0 2.166 1.044 2.166 2.32"></path><path d="M9.363 3.596l2.708 3.828S.155 17.4.046 22.272c.65-7.424 2.275-12.644 9.317-18.676zM8.388 1.624l3.467 5.568"></path></g></svg><svg width="34" height="24" viewBox="0 0 34 24" id="groundwork" y="456"><title>groundwork</title><g transform="translate(0 1)" fill="none" fill-rule="evenodd"><path d="M9.473 13.252h15.054V-.5h5.744v19.819H3.729V-.5h5.744v13.752z" stroke="#1D509F"></path><path d="M3.96 15.189v-4.357l8.215 8.257H7.84l-.191-.08-3.612-3.63-.079-.19zm6.536-1.707h4.343l.191.08 5.499 5.527h-4.343l-.191-.08-5.5-5.527zm-1.253-1.259L4.038 6.991l-.079-.19V2.434l5.205 5.232.079.19v4.367zm9.607 1.26h4.324l.191.079 5.5 5.527H24.54l-.191-.08-5.499-5.527zM9.243 3.825L5.168-.27h4.075v4.096zm15.514 7.104V6.593l5.205 5.231.079.19v4.338l-5.205-5.231-.079-.19zm0-8.368V-.27h1.358l.191.08 3.656 3.674.079.19v4.31l-5.205-5.232-.079-.19z" stroke="#1D509F" stroke-width=".54"></path><path d="M25.576 19.089h-4.333l8.798-8.843v4.357l-.079.19-4.195 4.216-.191.08zm-8.345 0h-4.343l5.499-5.527.191-.08h4.343l-5.498 5.527-.192.08zM29.962 6.406l-5.205 5.231V7.27l.079-.19 5.205-5.232v4.367l-.079.19zM8.877 19.089H4.553l5.499-5.527.191-.08h4.324L9.068 19.01l-.191.08zM28.249-.27l-3.492 3.51V-.27h3.492zM3.96 15.766V11.43l.079-.19 5.205-5.232v4.337l-.079.19-5.205 5.232zm0-8.368V3.089l.079-.19L7.11-.191l.192-.079h1.94v2.246l-.079.19L3.96 7.398z" stroke="#1D509F" stroke-width=".54"></path><path d="M3.25.918l.511.512L.923 4.268l-.512-.512L3.25.918zm0 4.524l.511.511L.923 8.791.411 8.28 3.25 5.442zm0 4.885l.511.512-2.838 2.838-.512-.512 2.839-2.838zm0 4.705l.511.512-2.838 2.838-.512-.512 2.839-2.838zM30.51.918l-.512.512 2.838 2.838.512-.512L30.509.918zm0 4.524l-.512.511 2.838 2.838.512-.511-2.839-2.838zm0 4.885l-.512.512 2.838 2.838.512-.512-2.839-2.838zm0 4.705l-.512.512 2.838 2.838.512-.512-2.839-2.838zM7.639 18.988l.512.512-2.838 2.838-.512-.511 2.838-2.839zm15.325 0l.512.512-2.838 2.838-.512-.511 2.838-2.839zm5.202 0l.512.512-2.838 2.838-.512-.511 2.838-2.839zm-10.31 0l.511.512-2.838 2.838-.512-.511 2.839-2.839zm-5.109 0l.512.512-2.838 2.838-.512-.511 2.838-2.839z" fill="#1D509F"></path></g></svg><svg width="34" height="24" viewBox="0 0 34 24" id="groundwork-o" y="480"><title>groundwork-wh</title><g transform="translate(0 1)" fill="none" fill-rule="evenodd"><path d="M9.473 13.252h15.054V-.5h5.744v19.819H3.729V-.5h5.744v13.752z" stroke="#FFF"></path><path d="M3.96 15.189v-4.357l8.215 8.257H7.84l-.191-.08-3.612-3.63-.079-.19zm6.536-1.707h4.343l.191.08 5.499 5.527h-4.343l-.191-.08-5.5-5.527zm-1.253-1.259L4.038 6.991l-.079-.19V2.434l5.205 5.232.079.19v4.367zm9.607 1.26h4.324l.191.079 5.5 5.527H24.54l-.191-.08-5.499-5.527zM9.243 3.825L5.168-.27h4.075v4.096zm15.514 7.104V6.593l5.205 5.231.079.19v4.338l-5.205-5.231-.079-.19zm0-8.368V-.27h1.358l.191.08 3.656 3.674.079.19v4.31l-5.205-5.232-.079-.19z" stroke="#FFF" stroke-width=".54"></path><path d="M25.576 19.089h-4.333l8.798-8.843v4.357l-.079.19-4.195 4.216-.191.08zm-8.345 0h-4.343l5.499-5.527.191-.08h4.343l-5.498 5.527-.192.08zM29.962 6.406l-5.205 5.231V7.27l.079-.19 5.205-5.232v4.367l-.079.19zM8.877 19.089H4.553l5.499-5.527.191-.08h4.324L9.068 19.01l-.191.08zM28.249-.27l-3.492 3.51V-.27h3.492zM3.96 15.766V11.43l.079-.19 5.205-5.232v4.337l-.079.19-5.205 5.232zm0-8.368V3.089l.079-.19L7.11-.191l.192-.079h1.94v2.246l-.079.19L3.96 7.398z" stroke="#FFF" stroke-width=".54"></path><path d="M3.25.918l.511.512L.923 4.268l-.512-.512L3.25.918zm0 4.524l.511.511L.923 8.791.411 8.28 3.25 5.442zm0 4.885l.511.512-2.838 2.838-.512-.512 2.839-2.838zm0 4.705l.511.512-2.838 2.838-.512-.512 2.839-2.838zM30.51.918l-.512.512 2.838 2.838.512-.512L30.509.918zm0 4.524l-.512.511 2.838 2.838.512-.511-2.839-2.838zm0 4.885l-.512.512 2.838 2.838.512-.512-2.839-2.838zm0 4.705l-.512.512 2.838 2.838.512-.512-2.839-2.838zM7.639 18.988l.512.512-2.838 2.838-.512-.511 2.838-2.839zm15.325 0l.512.512-2.838 2.838-.512-.511 2.838-2.839zm5.202 0l.512.512-2.838 2.838-.512-.511 2.838-2.839zm-10.31 0l.511.512-2.838 2.838-.512-.511 2.839-2.839zm-5.109 0l.512.512-2.838 2.838-.512-.511 2.838-2.839z" fill="#FFF"></path></g></svg><svg width="27" height="27" viewBox="0 0 27 27" id="info" y="504"><g fill="none" fill-rule="evenodd" transform="translate(1 1)"><circle cx="12.5" cy="12.5" r="12.5" stroke="#979797"></circle><path fill="#979797" d="M12 10h1v9h-1zm0-4h1v2h-1z"></path></g></svg><svg width="24" height="30" viewBox="0 0 24 30" id="inside" y="531"><g fill="none" fill-rule="evenodd" stroke="#1D509F" stroke-linecap="round" stroke-linejoin="round" stroke-width="1.215"><path d="M3.852 1.488h18.985v6.756H3.852z"></path><path d="M10.533 10.477H3.037c-.896 0-1.63-.733-1.63-1.628V6.453c0-.895.734-1.627 1.63-1.627h.815m1.141 5.651h8.31c.897 0 1.63.732 1.63 1.628v1.383M15.667 29H14.28c-.733 0-1.385-.507-1.385-1.231V14.73c0-.652.57-1.231 1.385-1.231h1.386c.733 0 1.385.507 1.385 1.231v13.04c0 .652-.652 1.231-1.385 1.231z"></path></g></svg><svg width="24" height="30" viewBox="0 0 24 30" id="inside-o" y="561"><title>inside</title><g transform="translate(1 1)" stroke="#FFF" stroke-width="1.215" fill="none" fill-rule="evenodd" stroke-linecap="round" stroke-linejoin="round"><path d="M2.852.488h18.985v6.756H2.852z"></path><path d="M9.533 9.477H2.037c-.896 0-1.63-.733-1.63-1.628V5.453c0-.895.734-1.627 1.63-1.627h.815M3.993 9.477h8.31c.897 0 1.63.732 1.63 1.628v1.383M14.667 28H13.28c-.733 0-1.385-.507-1.385-1.231V13.73c0-.652.57-1.231 1.385-1.231h1.386c.733 0 1.385.507 1.385 1.231V26.77c0 .652-.652 1.231-1.385 1.231z"></path></g></svg><svg width="42" height="42" viewBox="0 0 42 42" id="instagram" y="591"><title>Instagram_Color</title><path d="M42 21a21 21 0 0 1-21 21A21 21 0 0 1 0 21 21 21 0 0 1 21 0a21 21 0 0 1 21 21z" fill="#a332a4"></path><path d="M21.001 9.8c-3.042 0-3.423.013-4.618.068-1.192.054-2.006.243-2.718.52a5.484 5.484 0 0 0-1.985 1.292 5.498 5.498 0 0 0-1.292 1.983c-.278.713-.467 1.527-.52 2.719C9.813 17.576 9.8 17.958 9.8 21c0 3.042.014 3.422.068 4.617.055 1.192.243 2.006.52 2.718a5.488 5.488 0 0 0 1.292 1.985 5.484 5.484 0 0 0 1.983 1.292c.713.277 1.527.466 2.719.52 1.195.055 1.576.068 4.618.068 3.042 0 3.422-.013 4.617-.067 1.192-.055 2.007-.244 2.72-.52a5.48 5.48 0 0 0 1.982-1.293 5.498 5.498 0 0 0 1.293-1.984c.275-.713.464-1.527.52-2.719.054-1.194.068-1.575.068-4.617s-.014-3.423-.068-4.618c-.056-1.192-.245-2.006-.52-2.718a5.497 5.497 0 0 0-1.293-1.984 5.474 5.474 0 0 0-1.983-1.292c-.714-.277-1.528-.466-2.72-.52-1.195-.055-1.576-.068-4.618-.068zm-1.005 2.018h1.005c2.99 0 3.345.011 4.526.065 1.092.05 1.685.232 2.08.385.522.203.895.446 1.286.838.392.392.635.765.839 1.288.153.394.336.987.385 2.08.054 1.18.066 1.535.066 4.524s-.012 3.343-.066 4.524c-.05 1.092-.232 1.685-.385 2.079a3.463 3.463 0 0 1-.839 1.287 3.464 3.464 0 0 1-1.287.837c-.394.154-.987.336-2.08.386-1.18.054-1.535.066-4.525.066s-3.345-.012-4.526-.066c-1.092-.05-1.684-.233-2.08-.386a3.47 3.47 0 0 1-1.287-.838 3.471 3.471 0 0 1-.839-1.287c-.153-.394-.336-.987-.385-2.079-.054-1.18-.065-1.535-.065-4.526 0-2.991.011-3.344.065-4.525.05-1.092.232-1.684.385-2.08a3.47 3.47 0 0 1 .839-1.287 3.476 3.476 0 0 1 1.288-.838c.394-.154.987-.336 2.08-.386 1.032-.047 1.433-.061 3.52-.063zm6.984 1.86a1.344 1.344 0 1 0 0 2.689 1.344 1.344 0 0 0 0-2.69zM21 15.248a5.752 5.752 0 1 0 .001 11.504 5.752 5.752 0 0 0-.001-11.504zm0 2.019a3.733 3.733 0 1 1 0 7.467 3.733 3.733 0 0 1 0-7.467z" fill="#fff" fill-rule="evenodd"></path></svg><svg width="29" height="26" viewBox="0 0 29 26" id="list" y="633"><g fill="#1D509F"><path d="M22.251 18.292H.637a.598.598 0 0 1-.604-.59V1.495c0-.326.27-.59.604-.59h21.616c.333 0 .604.264.604.59V17.7a.599.599 0 0 1-.606.591zM1.241 17.11h20.407V2.087H1.241V17.11z"></path><path d="M24.366 21.982a.383.383 0 0 1-.047-.003L2.644 20.332a.609.609 0 0 1-.415-.207.581.581 0 0 1-.141-.434l.14-1.56a.607.607 0 0 1 .655-.537.594.594 0 0 1 .549.64l-.087.967 20.465 1.554 1.192-15.113-2.104-.171a.595.595 0 0 1-.551-.639c.028-.325.326-.559.652-.538l2.703.22c.33.027.578.311.551.634L24.97 21.436a.583.583 0 0 1-.209.404.613.613 0 0 1-.394.142z"></path><path d="M26.749 25.095a.952.952 0 0 1-.06-.003L5.087 23.044a.594.594 0 0 1-.544-.632l.128-1.69a.59.59 0 0 1 .648-.546.596.596 0 0 1 .557.633l-.085 1.114 20.415 1.936 1.498-15.086-1.808-.179a.591.591 0 0 1-.54-.645.602.602 0 0 1 .66-.528l2.409.237c.33.032.574.32.541.644l-1.616 16.26a.6.6 0 0 1-.6.533z"></path></g></svg><svg width="29" height="26" viewBox="0 0 29 26" id="list-o" y="659"><title>list-icon</title><g fill="#FFF" fill-rule="nonzero"><path d="M22.251 18.292H.637a.598.598 0 0 1-.604-.59V1.495c0-.326.27-.59.604-.59h21.616c.333 0 .604.264.604.59v16.205a.599.599 0 0 1-.606.591zM1.241 17.11h20.407V2.087H1.241V17.11z"></path><path d="M24.366 21.982c-.016 0-.03-.001-.047-.003L2.644 20.332a.609.609 0 0 1-.415-.207.581.581 0 0 1-.141-.434l.14-1.56a.607.607 0 0 1 .655-.537.594.594 0 0 1 .549.64l-.087.967 20.465 1.554 1.192-15.113-2.104-.171a.595.595 0 0 1-.551-.639c.028-.325.326-.559.652-.538l2.703.22c.33.027.578.311.551.634L24.97 21.436a.583.583 0 0 1-.209.404.613.613 0 0 1-.394.142z"></path><path d="M26.749 25.095a.952.952 0 0 1-.06-.003L5.087 23.044a.594.594 0 0 1-.544-.632l.128-1.69a.59.59 0 0 1 .648-.546.596.596 0 0 1 .557.633l-.085 1.114 20.415 1.936 1.498-15.086-1.808-.179a.591.591 0 0 1-.54-.645.602.602 0 0 1 .66-.528l2.409.237c.33.032.574.32.541.644l-1.616 16.26a.6.6 0 0 1-.6.533z"></path></g></svg><svg width="28" height="21" viewBox="0 0 28 21" id="mansard" y="685"><g fill="none" fill-rule="evenodd" stroke="#1D509F" stroke-width="1.3"><path d="M2.068 1.073l10.31 19.23 13.556-1.582L15.32.66l-13.25.412z"></path><path d="M1.813 6.323l12.043 9.004 12.23-1.3L12.985 5.66l-11.171.662z"></path></g></svg><svg width="28" height="21" viewBox="0 0 28 21" id="mansard-o" y="706"><title>mansard-icon</title><g stroke="#FFF" stroke-width="1.3" fill="none" fill-rule="evenodd"><path d="M2.068 1.073l10.31 19.23 13.556-1.582L15.32.66l-13.25.412z"></path><path d="M1.813 6.323l12.043 9.004 12.23-1.3L12.985 5.66l-11.171.662z"></path></g></svg><svg width="43" height="43" viewBox="0 0 43 43" id="map" y="727"><g fill="#2057AC"><path d="M42.159 12.868h-4.454c.084-.556.128-1.122.128-1.69C37.833 5.02 32.823.01 26.663.01c-6.157 0-11.168 5.01-11.168 11.168 0 .568.044 1.134.128 1.69H.841A.841.841 0 0 0 0 13.71v28.437c0 .028.001.057.004.085l.004.028.008.054.009.035.011.045.012.034a.43.43 0 0 0 .016.043l.014.031.022.044.016.027a.39.39 0 0 0 .026.044l.02.027c.01.013.018.026.029.039l.032.035.023.026.021.019c.014.012.026.025.04.036l.039.029.027.02c.014.01.028.017.042.026l.029.016a.4.4 0 0 0 .042.02l.033.016.04.015.038.013.04.01.04.01.046.007.035.005a.859.859 0 0 0 .083.004H42.16a.841.841 0 0 0 .84-.84V13.71a.841.841 0 0 0-.841-.84zM26.664 1.693a9.492 9.492 0 0 1 9.198 11.812c-.273 1.084-1.003 2.473-1.57 3.313a.764.764 0 0 0-.013.019L26.664 28.14l-4.648-6.9-.006-.008-.468-.695-2.493-3.701a9.397 9.397 0 0 1-1.584-3.333 9.49 9.49 0 0 1-.287-2.326c0-5.23 4.255-9.485 9.486-9.485zM16.014 14.55a11.111 11.111 0 0 0 1.651 3.244l2.481 3.684.08.117-1.171 1.17-8.214-8.215h5.174zm-7.204.35l9.054 9.054-6.74 6.734-9.052-9.05L8.81 14.9zm-7.127-.349h5.095l-5.095 5.095v-5.095zm0 9.077l8.25 8.25-8.25 8.24v-16.49zm39.634 17.68H26.082l9.499-9.5 5.736 5.737v3.762zm0-6.143l-4.546-4.546 4.546-4.547v9.093zm0-11.472L23.702 41.307H2.874l8.842-8.832.002-.002.002-.002 9.463-9.454 4.783 7.1a.841.841 0 0 0 1.396 0l8.301-12.324.01-.015c.529-.778 1.22-2.022 1.63-3.227h4.014v9.142z"></path><path d="M26.5 16a5.5 5.5 0 1 1 0-11 5.5 5.5 0 0 1 0 11zm0-2a3.5 3.5 0 1 0 0-7 3.5 3.5 0 0 0 0 7z"></path></g></svg><svg width="32" height="14" viewBox="0 0 32 14" id="money" y="770"><g fill="none" fill-rule="evenodd" opacity=".8"><path fill="#D9D7D7" d="M0 0h32v14H0V0zm2.344 6.566v.985h1.044v1.42H2.344V9.9h1.044v1.983h1.176V9.9H6.93v-.93H4.564V7.55h1.485c.48 0 .926-.057 1.337-.17.412-.112.77-.283 1.073-.513a2.47 2.47 0 0 0 .72-.865c.177-.347.265-.755.265-1.224s-.083-.872-.25-1.21a2.304 2.304 0 0 0-.69-.837 3.02 3.02 0 0 0-1.059-.492 5.39 5.39 0 0 0-1.367-.162h-2.69v4.488H2.344zm3.734 0H4.564V3.063h1.514c.676 0 1.208.136 1.595.408.387.272.58.708.58 1.308 0 .6-.193 1.048-.58 1.344-.387.295-.919.443-1.595.443z"></path><path fill="#E9E9E9" d="M15 0h4v14h-4z"></path></g></svg><svg width="29" height="20" viewBox="0 0 29 20" id="roof" y="784"><path fill="#1D509F" d="M29 17.562c0-.005 0-.012-.002-.017v-.023c-.002-.005-.002-.01-.002-.016l-.004-.026c0-.004 0-.009-.003-.013a.564.564 0 0 0-.007-.038L24.752.459A.603.603 0 0 0 24.166 0H4.833a.605.605 0 0 0-.586.46L.017 17.428l-.007.038-.003.014-.003.025-.002.016-.001.023-.001.017v1.831a.604.604 0 0 0 .804.573l3.26-1.143 3.29 1.143a.601.601 0 0 0 .397 0l3.274-1.143 3.277 1.143a.596.596 0 0 0 .396 0l3.276-1.143 3.275 1.143c.13.045.269.045.396 0l3.277-1.143 3.275 1.143a.6.6 0 0 0 .548-.078.606.606 0 0 0 .255-.495v-1.831zm-17.776-1.771a.607.607 0 0 0-.397 0l-2.555.891.589-4.72 2.53-.89 2.505.874v4.777l-2.672-.932zm-6.963 0a.606.606 0 0 0-.397 0l-2.402.842 1.16-4.655 2.555-.906 2.47.855-.602 4.83-2.784-.966zm-.28-9.264l2.276-.783 2.07.727L7.8 10.7l-2.429-.841a.601.601 0 0 0-.398.001l-2 .71L3.98 6.526zm9.915-5.315v3.996L11.95 4.53a.601.601 0 0 0-.395 0l-1.85.64.494-3.958h3.696zm4.903 0l.494 3.958-1.85-.64a.599.599 0 0 0-.394 0l-1.945.678V1.212h3.695zm7.227 9.356l-2-.709a.603.603 0 0 0-.4-.001L21.2 10.7l-.527-4.229 2.07-.728 2.276.784 1.007 4.041zM9.54 6.51l2.212-.767 2.143.748v4.172l-2.305-.805a.604.604 0 0 0-.398 0l-2.165.762.513-4.11zm5.564-.019l2.143-.747 2.213.767.512 4.107-2.165-.76a.601.601 0 0 0-.397 0l-2.306.805V6.49zm0 5.455l2.503-.874 2.532.889.588 4.721-2.554-.891a.61.61 0 0 0-.398 0l-2.671.932v-4.777zm6.85 4.81l-.6-4.827 2.469-.857 2.555.906 1.16 4.657-2.418-.844a.607.607 0 0 0-.396 0l-2.77.966zm2.717-11.63l-1.733-.597a.602.602 0 0 0-.397.001l-2.021.71-.503-4.028h3.678l.976 3.914zM5.305 1.212h3.677L8.48 5.241 6.46 4.53a.6.6 0 0 0-.397-.002l-1.732.597.975-3.914zM25.12 17.61a.607.607 0 0 0-.396 0l-3.277 1.143-3.274-1.143a.61.61 0 0 0-.398 0L14.5 18.752l-3.276-1.143a.607.607 0 0 0-.397 0l-3.276 1.143-3.29-1.143a.606.606 0 0 0-.397 0l-2.656.931v-.534l2.856-1 3.29 1.142.02.006a.445.445 0 0 0 .035.01l.022.004a.488.488 0 0 0 .035.007l.01.002.018.002h.013a.75.75 0 0 0 .046.003l.03-.002.021-.001c.01 0 .021-.003.033-.004l.018-.002a.394.394 0 0 0 .032-.007l.02-.005.03-.009.014-.004 3.274-1.143 3.277 1.143.008.003.025.008.029.007a.916.916 0 0 1 .025.005l.033.005.021.003a.61.61 0 0 0 .113 0c.008 0 .014-.002.021-.003l.034-.005.025-.005.028-.007.026-.008.008-.003 3.276-1.143 3.275 1.143.014.004.03.01.02.004.032.007a1.047 1.047 0 0 0 .051.006c.009 0 .02 0 .028.002h.023l.046-.001.014-.002h.015l.01-.003a.56.56 0 0 0 .038-.007c.006 0 .013-.002.02-.004a.513.513 0 0 0 .055-.016l3.277-1.143 2.869 1.002v.534l-2.67-.932z"></path></svg><svg width="29" height="20" viewBox="0 0 29 20" id="roof-o" y="804"><title>roof-icon</title><path d="M29 17.562c0-.005 0-.012-.002-.017v-.023c-.002-.005-.002-.01-.002-.016l-.004-.026c0-.004 0-.009-.003-.013a.564.564 0 0 0-.007-.038L24.752.459A.603.603 0 0 0 24.166 0H4.833a.605.605 0 0 0-.586.46L.017 17.428l-.007.038-.003.014-.003.025-.002.016-.001.023-.001.017v1.831a.604.604 0 0 0 .804.573l3.26-1.143 3.29 1.143a.601.601 0 0 0 .397 0l3.274-1.143 3.277 1.143a.596.596 0 0 0 .396 0l3.276-1.143 3.275 1.143c.13.045.269.045.396 0l3.277-1.143 3.275 1.143a.6.6 0 0 0 .548-.078.606.606 0 0 0 .255-.495v-1.818-.013zm-17.776-1.771a.607.607 0 0 0-.397 0l-2.555.891.589-4.72 2.53-.89 2.505.874v4.777l-2.672-.932zm-6.963 0a.606.606 0 0 0-.397 0l-2.402.842 1.16-4.655 2.555-.906 2.47.855-.602 4.83-2.784-.966zm-.28-9.264l2.276-.783 2.07.727L7.8 10.7l-2.429-.841a.601.601 0 0 0-.398.001l-2 .71L3.98 6.526zm9.915-5.315v3.996L11.95 4.53a.601.601 0 0 0-.395 0l-1.85.64.494-3.958h3.696zm4.903 0l.494 3.958-1.85-.64a.599.599 0 0 0-.394 0l-1.945.678V1.212h3.695zm7.227 9.356l-2-.709a.603.603 0 0 0-.4-.001L21.2 10.7l-.527-4.229 2.07-.728 2.276.784 1.007 4.041zM9.54 6.51l2.212-.767 2.143.748v4.172l-2.305-.805a.604.604 0 0 0-.398 0l-2.165.762.513-4.11zm5.564-.019l2.143-.747 2.213.767.512 4.107-2.165-.76a.601.601 0 0 0-.397 0l-2.306.805V6.49zm0 5.455l2.503-.874 2.532.889.588 4.721-2.554-.891a.61.61 0 0 0-.398 0l-2.671.932v-4.777zm6.85 4.81l-.6-4.827 2.469-.857 2.555.906 1.16 4.657-2.418-.844a.607.607 0 0 0-.396 0l-2.77.966zm2.717-11.63l-1.733-.597a.602.602 0 0 0-.397.001l-2.021.71-.503-4.028h3.678l.976 3.914zM5.305 1.212h3.677L8.48 5.241 6.46 4.53a.6.6 0 0 0-.397-.002l-1.732.597.975-3.914zM25.12 17.61a.607.607 0 0 0-.396 0l-3.277 1.143-3.274-1.143a.61.61 0 0 0-.398 0L14.5 18.752l-3.276-1.143a.607.607 0 0 0-.397 0l-3.276 1.143-3.29-1.143a.606.606 0 0 0-.397 0l-2.656.931v-.534l2.856-1 3.29 1.142.02.006a.445.445 0 0 0 .035.01l.022.004a.488.488 0 0 0 .035.007l.01.002.018.002h.013a.75.75 0 0 0 .046.003l.03-.002.021-.001c.01 0 .021-.003.033-.004l.018-.002a.394.394 0 0 0 .032-.007l.02-.005.03-.009.014-.004 3.274-1.143 3.277 1.143.008.003.025.008.029.007a.916.916 0 0 1 .025.005l.033.005.021.003a.61.61 0 0 0 .113 0c.008 0 .014-.002.021-.003l.034-.005.025-.005.028-.007.026-.008.008-.003 3.276-1.143 3.275 1.143.014.004.03.01.02.004.032.007a1.047 1.047 0 0 0 .051.006c.009 0 .02 0 .028.002h.023l.046-.001.014-.002h.015l.01-.003a.56.56 0 0 0 .038-.007c.006 0 .013-.002.02-.004a.513.513 0 0 0 .055-.016l3.277-1.143 2.869 1.002v.534l-2.67-.932z" fill="#FFF" fill-rule="nonzero"></path></svg><svg width="28" height="19" viewBox="0 0 28 19" id="technical-iso" y="824"><g fill="none" fill-rule="evenodd" stroke="#1D509F" stroke-linecap="round" stroke-linejoin="round" stroke-width="1.1"><path d="M.784 12.025c.672 3.487 3.808 6.075 7.504 6.075 3.36 0 6.272-2.25 7.28-5.288l11.424-3.374M26.768 5.5L15.456 8.088C14.448 5.05 11.648 2.8 8.176 2.8 4.48 2.8 1.456 5.388.784 8.763m26.096.787c-.56 1.8-1.792 3.262-3.584 3.938M21.168 1.45c2.576 0 4.704 1.575 5.6 3.825"></path><path d="M3.024 9.1c.56-2.25 2.688-3.938 5.152-3.938a5.222 5.222 0 0 1 4.704 2.926m.112 4.725c-.896 1.8-2.688 2.925-4.816 2.925-2.464 0-4.48-1.688-5.152-3.825M21.392 1.45L8.176 2.8m2.576 14.85l12.768-4.162m-8.064-5.4h-2.464m2.464 4.725h-2.464M.784 9.1h2.24m-2.24 2.812h2.24"></path></g></svg><svg width="28" height="19" viewBox="0 0 28 19" id="technical-iso-o" y="843"><title>technical-iso</title><g transform="translate(0 1)" stroke="#FFF" stroke-width="1.1" fill="none" fill-rule="evenodd" stroke-linecap="round" stroke-linejoin="round"><path d="M.784 11.025c.672 3.487 3.808 6.075 7.504 6.075 3.36 0 6.272-2.25 7.28-5.288l11.424-3.374M26.768 4.5L15.456 7.088C14.448 4.05 11.648 1.8 8.176 1.8 4.48 1.8 1.456 4.388.784 7.763M26.88 8.55c-.56 1.8-1.792 3.262-3.584 3.938M21.168.45c2.576 0 4.704 1.575 5.6 3.825"></path><path d="M3.024 8.1c.56-2.25 2.688-3.938 5.152-3.938a5.222 5.222 0 0 1 4.704 2.926M12.992 11.813c-.896 1.8-2.688 2.925-4.816 2.925-2.464 0-4.48-1.688-5.152-3.825M21.392.45L8.176 1.8M10.752 16.65l12.768-4.162M15.456 7.088h-2.464M15.456 11.813h-2.464M.784 8.1h2.24M.784 10.912h2.24"></path></g></svg><svg width="42" height="42" viewBox="0 0 42 42" id="twitter" y="862"><g fill="none" fill-rule="evenodd"><path fill="#55ACEE" d="M0 21C0 9.402 9.402 0 21 0s21 9.402 21 21-9.402 21-21 21S0 32.598 0 21z"></path><path fill="#FFF" d="M20.371 17.07l.044.726-.734-.09c-2.674-.34-5.01-1.497-6.992-3.44l-.97-.964-.25.712c-.528 1.587-.19 3.263.911 4.39.588.623.456.712-.558.34-.353-.118-.661-.207-.69-.162-.103.103.25 1.453.528 1.987.382.741 1.16 1.468 2.013 1.898l.72.341-.852.015c-.823 0-.852.015-.764.326.294.964 1.454 1.987 2.747 2.432l.91.312-.793.474a8.27 8.27 0 0 1-3.936 1.098c-.662.014-1.205.074-1.205.118 0 .149 1.792.979 2.835 1.305 3.129.964 6.845.549 9.636-1.097 1.983-1.172 3.966-3.5 4.891-5.754.5-1.201 1-3.396 1-4.449 0-.682.043-.771.866-1.587.485-.474.94-.993 1.028-1.142.147-.281.132-.281-.617-.03-1.248.446-1.425.386-.808-.281.456-.475 1-1.335 1-1.587 0-.044-.221.03-.47.163-.265.149-.853.371-1.293.505l-.794.252-.72-.49c-.396-.267-.954-.563-1.248-.652-.75-.208-1.895-.178-2.57.06-1.837.666-2.997 2.387-2.865 4.27z"></path></g></svg><svg width="23" height="29" viewBox="0 0 23 29" id="vent-house" y="904"><g fill="none" fill-rule="evenodd" stroke="#1D509F" stroke-width="1.3"><path d="M.798 22.951l21.653 5.347M7.65 24.301l7.7 1.872V17.65h-7.7v6.651z"></path><rect width="11.7" height="2.7" x="5.65" y="14.65" rx=".9"></rect><rect width="11.7" height="2.7" x="5.65" y=".65" rx=".9"></rect><rect width="15.7" height="10.7" x="3.65" y="3.65" rx="2.7"></rect></g></svg><svg width="23" height="29" viewBox="0 0 23 29" id="vent-house-o" y="933"><title>vent-house-icon</title><g stroke="#FFF" stroke-width="1.3" fill="none" fill-rule="evenodd"><path d="M.798 22.951l21.653 5.347M7.65 24.301l7.7 1.872V17.65h-7.7v6.651z"></path><rect x="5.65" y="14.65" width="11.7" height="2.7" rx=".9"></rect><rect x="5.65" y=".65" width="11.7" height="2.7" rx=".9"></rect><rect x="3.65" y="3.65" width="15.7" height="10.7" rx="2.7"></rect></g></svg><svg width="16" height="16" viewBox="0 0 16 16" id="view-card" y="962"><path fill="#D8D8D8" fill-rule="evenodd" d="M0 0h16v4H0V0zm0 6h16v4H0V6zm0 6h16v4H0v-4z"></path></svg><svg width="16" height="16" viewBox="0 0 16 16" id="view-grid" y="978"><path fill="#1F56AA" fill-rule="evenodd" d="M0 0h7v7H0V0zm9 0h7v7H9V0zm0 9h7v7H9V9zM0 9h7v7H0V9z"></path></svg><svg width="42" height="42" viewBox="0 0 42 42" id="vk" y="994"><g fill="none" fill-rule="evenodd"><path fill="#4C6C91" d="M0 21C0 9.402 9.402 0 21 0s21 9.402 21 21-9.402 21-21 21S0 32.598 0 21z"></path><path fill="#FFF" d="M22.099 27.192s.404-.045.61-.263c.19-.2.184-.577.184-.577s-.025-1.763.808-2.023c.822-.256 1.877 1.704 2.997 2.458.846.57 1.488.445 1.488.445l2.992-.04s1.564-.095.822-1.303c-.06-.099-.432-.893-2.224-2.526-1.876-1.709-1.624-1.432.635-4.389 1.376-1.8 1.926-2.9 1.754-3.369-.163-.45-1.176-.33-1.176-.33l-3.368.02s-.25-.033-.435.076c-.18.106-.298.354-.298.354s-.532 1.393-1.243 2.578c-1.5 2.5-2.1 2.632-2.345 2.477-.57-.363-.428-1.454-.428-2.23 0-2.422.375-3.432-.729-3.694-.365-.087-.635-.144-1.572-.153-1.202-.012-2.218.004-2.795.28-.383.184-.679.595-.498.619.222.029.726.133.994.49.345.461.333 1.496.333 1.496s.198 2.852-.464 3.206c-.453.243-1.076-.253-2.413-2.52-.685-1.162-1.202-2.446-1.202-2.446s-.1-.24-.278-.37a1.412 1.412 0 0 0-.518-.204l-3.2.02s-.48.014-.657.22c-.157.18-.012.558-.012.558s2.505 5.755 5.343 8.655c2.602 2.659 5.556 2.485 5.556 2.485h1.339z"></path></g></svg><svg width="24" height="33" viewBox="0 0 24 33" id="warmth" y="1036"><g fill="none" fill-rule="evenodd" stroke="#1D509F" stroke-linecap="round" stroke-linejoin="round" stroke-width="1.08"><path d="M1.44 12.736h3.08v19.043H1.44zm0 0L13.32 2.329s1.43-.997 4.73-.997c3.74 0 4.51 2.214 4.51 3.654 0 1.771-1.1 2.657-5.28 2.435-2.53-.11-3.96-2.878-1.98-3.764m-1.1.886l-9.68 8.193"></path><path d="M22.45 4.875v16.054s-.11 4.65-4.29 4.65c0 0-3.3.332-4.4-2.325V5.539m-9.24 26.24l8.91-8.968"></path></g></svg><svg width="24" height="33" viewBox="0 0 24 33" id="warmth-o" y="1069"><title>warmth</title><g transform="translate(1 1)" stroke="#FFF" stroke-width="1.08" fill="none" fill-rule="evenodd" stroke-linecap="round" stroke-linejoin="round"><path d="M.44 11.736h3.08v19.043H.44zM.44 11.736L12.32 1.329s1.43-.997 4.73-.997c3.74 0 4.51 2.214 4.51 3.654 0 1.771-1.1 2.657-5.28 2.435-2.53-.11-3.96-2.878-1.98-3.764M13.2 3.543l-9.68 8.193"></path><path d="M21.45 3.875v16.054s-.11 4.65-4.29 4.65c0 0-3.3.332-4.4-2.325V4.539M3.52 30.779l8.91-8.968"></path></g></svg><svg width="39" height="36" viewBox="0 0 39 36" id="warning" y="1102"><g fill="#2057AC"><path d="M19.478 25.295c-1.09 0-2.002.92-2.002 2.018 0 1.098.913 2.018 2.002 2.018 1.05 0 2.002-.92 1.954-1.97a1.963 1.963 0 0 0-1.954-2.066z"></path><path d="M38.009 32.447c1.257-2.187 1.265-4.795.016-6.974l-12.54-21.89C24.242 1.378 22 .07 19.485.07s-4.757 1.316-5.998 3.503L.93 25.49a6.994 6.994 0 0 0 .024 7.014c1.25 2.164 3.484 3.463 5.982 3.463h25.05c2.506 0 4.757-1.315 6.022-3.519zm-2.723-1.582c-.697 1.21-1.93 1.93-3.307 1.93H6.929a3.727 3.727 0 0 1-3.267-1.89 3.846 3.846 0 0 1-.008-3.85L16.21 5.148a3.711 3.711 0 0 1 3.275-1.913c1.37 0 2.595.719 3.275 1.921l12.55 21.907c.672 1.179.664 2.6-.025 3.802z"></path><path d="M18.981 11.13c-.953.274-1.545 1.146-1.545 2.203.048.638.088 1.283.136 1.921l.408 7.24c.048.824.681 1.421 1.498 1.421s1.457-.638 1.498-1.469c0-.5 0-.96.048-1.469.088-1.558.184-3.116.272-4.674.048-1.008.136-2.017.184-3.026a2.51 2.51 0 0 0-.184-1.01 2.003 2.003 0 0 0-2.315-1.138z"></path></g></svg><svg width="27" height="28" viewBox="0 0 27 28" id="wat" y="1138"><g fill="none" fill-rule="evenodd" stroke="#1D509F" stroke-linecap="round" stroke-linejoin="round" stroke-width="1.08"><path d="M3.012 4.683C1.614 4.25.646 2.842.646 1.325l18.182 7.583c0 1.95 1.613 3.575 3.55 3.575 1.936 0 3.55-1.625 3.55-3.575L7.746 1.325c.108 1.083-.215 1.842-.968 2.492m-3.981.866l18.828 7.8"></path><path d="M9.145 7.283V10.1h1.506v2.708H15.6V10.1m-4.088 2.708v4.875s.322 4.334 5.056 4.334c3.658.108 3.766 3.358 3.658 4.983h3.12m-5.272-7.908h.646c2.044 0 3.658 1.841 4.196 3.358.323.758.43 1.625.43 2.492v1.95"></path><path d="M15.062 12.808v4.442s.323 1.733 3.12 1.842"></path></g></svg><svg width="27" height="30" viewBox="0 0 27 30" id="wat-o" y="1166"><title>wat</title><g transform="translate(1 1)" stroke="#FFF" stroke-width="1.08" fill="none" fill-rule="evenodd" stroke-linecap="round" stroke-linejoin="round"><path d="M2.367 3.358C.968 2.925 0 1.517 0 0l18.182 7.583c0 1.95 1.614 3.575 3.55 3.575 1.937 0 3.55-1.625 3.55-3.575L7.102 0c.107 1.083-.215 1.842-.969 2.492M1.797 5.683l18.828 7.8M8.145 8.283V11.1H9.65v2.708H14.6V11.1M10.512 13.808v4.875s.322 4.334 5.056 4.334c3.658.108 3.766 3.358 3.658 4.983h3.12M17.074 20.092h.646c2.044 0 3.658 1.841 4.196 3.358.323.758.43 1.625.43 2.492v1.95"></path><path d="M14.062 13.808v4.442s.323 1.733 3.12 1.842"></path></g></svg><svg width="28" height="28" viewBox="0 0 28 28" id="waterproof" y="1196"><g fill="#1D509F"><path d="M26.027 26.437H14l7.986-8.172a.65.65 0 0 0 .191-.456.65.65 0 0 0-.19-.456l-2.069-2.116a.606.606 0 0 0-.89 0l-8.305 8.465-3.755-3.842 1.496-1.53a.69.69 0 0 0 .159-.65c-.064-.229-.255-.392-.51-.457l-7.19-1.27a.661.661 0 0 0-.573.196.666.666 0 0 0-.19.586l1.24 7.358c.032.228.223.423.445.521.223.065.478 0 .637-.163l1.495-1.53 3.468 3.549H.795a.646.646 0 0 0-.636.65c0 .36.286.652.636.652h25.232c.35 0 .637-.293.637-.651 0-.358-.287-.684-.637-.684zm-6.554-9.832l1.177 1.204-7.827 8.01-1.178-1.205 7.828-8.01zM3.532 21.52L2.45 22.628l-.89-5.21 5.09.912-1.082 1.107a.64.64 0 0 0 0 .912l6.014 6.153H9.227l-4.772-4.981a.642.642 0 0 0-.923 0zM23.482.26a.66.66 0 0 0-.51.26c-.381.554-3.817 5.438-3.817 7.685 0 2.442 1.94 4.428 4.327 4.428 2.386 0 4.327-1.986 4.327-4.428 0-2.247-3.436-7.13-3.818-7.684-.096-.163-.286-.26-.51-.26zm0 11.07c-1.687 0-3.055-1.4-3.055-3.125 0-1.205 1.718-4.168 3.055-6.186C24.85 4.037 26.536 7 26.536 8.205a3.071 3.071 0 0 1-3.054 3.125z"></path><path d="M23.64 6.381c.192.196 1.02 1.27.033 2.28a.64.64 0 0 0 0 .911.62.62 0 0 0 .445.195c.16 0 .318-.065.446-.195 1.495-1.53.668-3.32.031-4.07a.606.606 0 0 0-.89-.032c-.255.228-.287.618-.064.911z"></path></g></svg><svg width="28" height="26" viewBox="0 0 28 26" id="waterproof-o" y="1224"><title>waterproof-icon</title><g fill="#FFF" fill-rule="nonzero"><path d="M26.027 24.549H14l7.986-7.589a.583.583 0 0 0 .191-.423.583.583 0 0 0-.19-.423l-2.069-1.965a.638.638 0 0 0-.89 0l-8.305 7.86-3.755-3.567 1.496-1.421c.159-.151.222-.393.159-.605-.064-.211-.255-.363-.51-.423l-7.19-1.179a.693.693 0 0 0-.573.181.591.591 0 0 0-.19.545l1.24 6.832c.032.212.223.393.445.484.223.06.478 0 .637-.151l1.495-1.421 3.468 3.295H.795c-.35 0-.636.272-.636.605 0 .332.286.604.636.604h25.232c.35 0 .637-.272.637-.604a.649.649 0 0 0-.637-.635zm-6.554-9.13l1.177 1.118-7.827 7.437-1.178-1.118 7.828-7.437zM3.532 19.984L2.45 21.012l-.89-4.838 5.09.847-1.082 1.028a.565.565 0 0 0 0 .846l6.014 5.714H9.227l-4.772-4.625a.677.677 0 0 0-.923 0zM23.482.242c-.191 0-.382.09-.51.242-.381.514-3.817 5.049-3.817 7.135 0 2.267 1.94 4.111 4.327 4.111 2.386 0 4.327-1.844 4.327-4.111 0-2.086-3.436-6.621-3.818-7.135-.096-.151-.286-.242-.51-.242zm0 10.279c-1.687 0-3.055-1.3-3.055-2.902 0-1.119 1.718-3.87 3.055-5.745C24.85 3.75 26.536 6.5 26.536 7.62c.032 1.602-1.368 2.902-3.054 2.902z"></path><path d="M23.64 5.926c.192.181 1.02 1.179.033 2.116a.565.565 0 0 0 0 .846c.127.121.286.182.445.182.16 0 .318-.06.446-.182 1.495-1.42.668-3.083.031-3.779a.637.637 0 0 0-.89-.03c-.255.212-.287.574-.064.847z"></path></g></svg><svg width="43" height="42" viewBox="0 0 43 42" id="youtube" y="1250"><g fill="none" fill-rule="evenodd"><path fill="#CE1312" d="M0 21C0 9.402 9.482 0 21.178 0c11.696 0 21.178 9.402 21.178 21s-9.482 21-21.178 21C9.482 42 0 32.598 0 21z"></path><path fill="#FFF" d="M32.2 16.773s-.22-1.577-.896-2.272c-.858-.912-1.82-.916-2.26-.97-3.157-.231-7.892-.231-7.892-.231h-.01s-4.734 0-7.891.232c-.441.053-1.402.057-2.26.969-.677.695-.897 2.272-.897 2.272s-.225 1.853-.225 3.705v1.736c0 1.853.225 3.705.225 3.705s.22 1.577.896 2.272c.859.912 1.986.884 2.488.979 1.805.176 7.67.23 7.67.23s4.74-.007 7.896-.239c.44-.054 1.402-.058 2.26-.97.676-.695.897-2.272.897-2.272s.225-1.852.225-3.705v-1.736a35.23 35.23 0 0 0-.225-3.705z"></path><path fill="#CE1312" d="M18.818 24.319v-6.432l6.095 3.227z"></path></g></svg></svg>