<?xml version="1.0" encoding="UTF-8" standalone="no"?>
<svg width="35px" height="24px" viewBox="0 0 35 24" version="1.1" xmlns="http://www.w3.org/2000/svg" xmlns:xlink="http://www.w3.org/1999/xlink">
    <!-- Generator: Sketch 50.2 (55047) - http://www.bohemiancoding.com/sketch -->
    <title>Group 9</title>
    <desc>Created with Sketch.</desc>
    <defs>
        <polygon id="path-1" points="5.29069767 0 5.29069767 15.2 23.1976744 15.2 23.1976744 0 28.4883721 0 28.4883721 20.8 0 20.8 0 0"></polygon>
    </defs>
    <g id="Page-1" stroke="none" stroke-width="1" fill="none" fill-rule="evenodd">
        <g id="Group-9">
            <g id="Group-6" transform="translate(3.255814, 0.000000)">
                <path d="M4.80469767,0.486 L0.486,0.486 L0.486,20.314 L28.0023721,20.314 L28.0023721,0.486 L23.6836744,0.486 L23.6836744,15.686 L4.80469767,15.686 L4.80469767,0.486 Z" id="Mask" stroke="#FFFFFF" stroke-width="0.972"></path>
                <mask id="mask-2" fill="white">
                    <use xlink:href="#path-1"></use>
                </mask>
                <g id="Mask"></g>
                <g id="Group-8" mask="url(#mask-2)" stroke="#FFFFFF" stroke-width="0.567">
                    <g transform="translate(-20.755814, -18.000000)" id="Rectangle-15">
                        <rect transform="translate(47.868114, 20.647518) rotate(-315.000000) translate(-47.868114, -20.647518) " x="19.6632422" y="19.731018" width="56.4097442" height="1.833"></rect>
                        <rect transform="translate(45.019277, 23.447518) rotate(-315.000000) translate(-45.019277, -23.447518) " x="16.814405" y="22.531018" width="56.4097442" height="1.833"></rect>
                        <rect transform="translate(42.577417, 27.047518) rotate(-315.000000) translate(-42.577417, -27.047518) " x="14.3725445" y="26.131018" width="56.4097442" height="1.833"></rect>
                        <rect transform="translate(38.914626, 29.447518) rotate(-315.000000) translate(-38.914626, -29.447518) " x="10.7097538" y="28.531018" width="56.4097442" height="1.833"></rect>
                        <rect transform="translate(34.844858, 31.447518) rotate(-315.000000) translate(-34.844858, -31.447518) " x="6.63998635" y="30.531018" width="56.4097442" height="1.833"></rect>
                        <rect transform="translate(29.961138, 32.647518) rotate(-315.000000) translate(-29.961138, -32.647518) " x="1.75626542" y="31.731018" width="56.4097442" height="1.833"></rect>
                        <rect transform="translate(25.484393, 34.247518) rotate(-315.000000) translate(-25.484393, -34.247518) " x="-2.72047877" y="33.331018" width="56.4097442" height="1.833"></rect>
                        <rect transform="translate(21.007649, 35.447518) rotate(-315.000000) translate(-21.007649, -35.447518) " x="-7.19722295" y="34.531018" width="56.4097442" height="1.833"></rect>
                    </g>
                </g>
                <g id="Group-8" mask="url(#mask-2)" stroke="#FFFFFF" stroke-width="0.567">
                    <g transform="translate(13.636852, 10.241344) rotate(-90.000000) translate(-13.636852, -10.241344) translate(-20.914431, -18.647545)" id="Rectangle-15">
                        <rect transform="translate(47.868114, 21.536407) rotate(-315.000000) translate(-47.868114, -21.536407) " x="19.6632422" y="20.6199069" width="56.4097442" height="1.833"></rect>
                        <rect transform="translate(45.019277, 24.336407) rotate(-315.000000) translate(-45.019277, -24.336407) " x="16.814405" y="23.4199069" width="56.4097442" height="1.833"></rect>
                        <rect transform="translate(42.577417, 27.936407) rotate(-315.000000) translate(-42.577417, -27.936407) " x="14.3725445" y="27.0199069" width="56.4097442" height="1.833"></rect>
                        <rect transform="translate(38.914626, 30.336407) rotate(-315.000000) translate(-38.914626, -30.336407) " x="10.7097538" y="29.4199069" width="56.4097442" height="1.833"></rect>
                        <rect transform="translate(34.844858, 32.336407) rotate(-315.000000) translate(-34.844858, -32.336407) " x="6.63998635" y="31.4199069" width="56.4097442" height="1.833"></rect>
                        <rect transform="translate(29.961138, 33.536407) rotate(-315.000000) translate(-29.961138, -33.536407) " x="1.75626542" y="32.6199069" width="56.4097442" height="1.833"></rect>
                        <rect transform="translate(25.484393, 35.136407) rotate(-315.000000) translate(-25.484393, -35.136407) " x="-2.72047877" y="34.2199069" width="56.4097442" height="1.833"></rect>
                        <rect transform="translate(21.007649, 36.336407) rotate(-315.000000) translate(-21.007649, -36.336407) " x="-7.19722295" y="35.4199069" width="56.4097442" height="1.833"></rect>
                    </g>
                </g>
            </g>
            <rect id="Rectangle-16" fill="#FFFFFF" transform="translate(32.800777, 3.200000) rotate(-315.000000) translate(-32.800777, -3.200000) " x="30.5624046" y="2.8" width="4.47674419" height="1"></rect>
            <rect id="Rectangle-16" fill="#FFFFFF" transform="translate(1.870544, 3.200000) scale(-1, 1) rotate(-315.000000) translate(-1.870544, -3.200000) " x="-0.367827992" y="2.8" width="4.47674419" height="1"></rect>
            <rect id="Rectangle-16" fill="#FFFFFF" transform="translate(32.800777, 6.000000) rotate(-315.000000) translate(-32.800777, -6.000000) " x="30.5624046" y="5.6" width="4.47674419" height="1"></rect>
            <rect id="Rectangle-16" fill="#FFFFFF" transform="translate(1.870544, 6.000000) scale(-1, 1) rotate(-315.000000) translate(-1.870544, -6.000000) " x="-0.367827992" y="5.6" width="4.47674419" height="1"></rect>
            <rect id="Rectangle-16" fill="#FFFFFF" transform="translate(32.800777, 9.200000) rotate(-315.000000) translate(-32.800777, -9.200000) " x="30.5624046" y="8.8" width="4.47674419" height="1"></rect>
            <rect id="Rectangle-16" fill="#FFFFFF" transform="translate(1.870544, 9.200000) scale(-1, 1) rotate(-315.000000) translate(-1.870544, -9.200000) " x="-0.367827992" y="8.8" width="4.47674419" height="1"></rect>
            <rect id="Rectangle-16" fill="#FFFFFF" transform="translate(32.800777, 12.400000) rotate(-315.000000) translate(-32.800777, -12.400000) " x="30.5624046" y="12" width="4.47674419" height="1"></rect>
            <rect id="Rectangle-16" fill="#FFFFFF" transform="translate(1.870544, 12.400000) scale(-1, 1) rotate(-315.000000) translate(-1.870544, -12.400000) " x="-0.367827992" y="12" width="4.47674419" height="1"></rect>
            <rect id="Rectangle-16" fill="#FFFFFF" transform="translate(32.800777, 15.600000) rotate(-315.000000) translate(-32.800777, -15.600000) " x="30.5624046" y="15.2" width="4.47674419" height="1"></rect>
            <rect id="Rectangle-16" fill="#FFFFFF" transform="translate(1.870544, 15.600000) scale(-1, 1) rotate(-315.000000) translate(-1.870544, -15.600000) " x="-0.367827992" y="15.2" width="4.47674419" height="1"></rect>
            <rect id="Rectangle-16" fill="#FFFFFF" transform="translate(32.800777, 18.800000) rotate(-315.000000) translate(-32.800777, -18.800000) " x="30.5624046" y="18.4" width="4.47674419" height="1"></rect>
            <rect id="Rectangle-16" fill="#FFFFFF" transform="translate(1.870544, 18.800000) scale(-1, 1) rotate(-315.000000) translate(-1.870544, -18.800000) " x="-0.367827992" y="18.4" width="4.47674419" height="1"></rect>
            <rect id="Rectangle-16" fill="#FFFFFF" transform="translate(3.761540, 21.838478) scale(-1, 1) rotate(-315.000000) translate(-3.761540, -21.838478) " x="1.52316772" y="21.4384776" width="4.47674419" height="1"></rect>
            <rect id="Rectangle-16" fill="#FFFFFF" transform="translate(12.308051, 21.838478) scale(-1, 1) rotate(-315.000000) translate(-12.308051, -21.838478) " x="10.0696793" y="21.4384776" width="4.47674419" height="1"></rect>
            <rect id="Rectangle-16" fill="#FFFFFF" transform="translate(20.854563, 21.838478) scale(-1, 1) rotate(-315.000000) translate(-20.854563, -21.838478) " x="18.616191" y="21.4384776" width="4.47674419" height="1"></rect>
            <rect id="Rectangle-16" fill="#FFFFFF" transform="translate(26.656977, 21.838478) scale(-1, 1) rotate(-315.000000) translate(-26.656977, -21.838478) " x="24.4186047" y="21.4384776" width="4.47674419" height="1"></rect>
            <rect id="Rectangle-16" fill="#FFFFFF" transform="translate(6.610377, 21.838478) scale(-1, 1) rotate(-315.000000) translate(-6.610377, -21.838478) " x="4.37200493" y="21.4384776" width="4.47674419" height="1"></rect>
            <rect id="Rectangle-16" fill="#FFFFFF" transform="translate(15.156889, 21.838478) scale(-1, 1) rotate(-315.000000) translate(-15.156889, -21.838478) " x="12.9185166" y="21.4384776" width="4.47674419" height="1"></rect>
            <rect id="Rectangle-16" fill="#FFFFFF" transform="translate(23.703400, 21.838478) scale(-1, 1) rotate(-315.000000) translate(-23.703400, -21.838478) " x="21.4650282" y="21.4384776" width="4.47674419" height="1"></rect>
            <rect id="Rectangle-16" fill="#FFFFFF" transform="translate(29.505814, 21.838478) scale(-1, 1) rotate(-315.000000) translate(-29.505814, -21.838478) " x="27.2674419" y="21.4384776" width="4.47674419" height="1"></rect>
            <rect id="Rectangle-16" fill="#FFFFFF" transform="translate(9.459214, 21.838478) scale(-1, 1) rotate(-315.000000) translate(-9.459214, -21.838478) " x="7.22084214" y="21.4384776" width="4.47674419" height="1"></rect>
            <rect id="Rectangle-16" fill="#FFFFFF" transform="translate(17.906977, 21.838478) scale(-1, 1) rotate(-315.000000) translate(-17.906977, -21.838478) " x="15.6686047" y="21.4384776" width="4.47674419" height="1"></rect>
        </g>
    </g>
</svg>