<svg xmlns="http://www.w3.org/2000/svg" width="34" height="16" viewBox="0 0 34 16">
    <path fill="#1D509F" fill-rule="nonzero" d="M33.37 14.77h-.63v-4.308a.622.622 0 0 0-.629-.616h-4.407V5.538a.622.622 0 0 0-.63-.615h-4.407V.615a.622.622 0 0 0-.63-.615H11.963a.623.623 0 0 0-.63.615v4.308H6.926a.623.623 0 0 0-.63.615v4.308H1.89a.622.622 0 0 0-.63.616v4.307H.63a.622.622 0 0 0-.629.616c0 .34.282.615.63.615h32.74c.349 0 .63-.275.63-.615a.622.622 0 0 0-.63-.616zm-6.926-4.924H17.63V6.154h8.814v3.692zM12.593 1.231h8.814v3.692h-8.814V1.231zM7.556 6.154h8.814v3.692H7.556V6.154zm-5.037 4.923h8.814v3.692H2.52v-3.692zm10.074 0h8.814v3.692h-8.814v-3.692zm10.074 3.692v-3.692h8.814v3.692h-8.814z"/>
</svg>
