<svg xmlns="http://www.w3.org/2000/svg" width="39" height="43" viewBox="0 0 39 43">
    <g fill="#2057AC" fill-rule="nonzero">
        <path d="M28.554 30.1h-4.179a.687.687 0 0 0-.492.21L19.5 34.82l-4.383-4.51a.687.687 0 0 0-.492-.21h-4.179C4.394 30.1 0 34.654 0 40.928v1.355c0 .396.312.717.696.717.385 0 .697-.32.697-.717v-1.355c0-5.443 3.807-9.395 9.053-9.395h3.89l4.672 4.807c.272.28.712.28.984 0l4.671-4.807h3.89c5.247 0 9.054 3.952 9.054 9.395v1.355c0 .396.312.717.697.717.384 0 .696-.32.696-.717v-1.355C39 34.654 34.606 30.1 28.554 30.1zM31.896 9.868a10.01 10.01 0 0 0-2.847-5.356C26.602 1.724 23.149.093 19.5 0c-3.65.092-7.101 1.723-9.549 4.51-4.695 4.208-3.166 13.875-2.976 14.967.156.89.233 2.495-.993 3.245-.644.386-1.321.71-2.024.965a.721.721 0 0 0-.44.907.72.72 0 0 0 .168.28A7.272 7.272 0 0 0 8.92 27.31c.336.005.672-.029 1-.101a.719.719 0 0 0 .5-.873.695.695 0 0 0-.838-.517 5.107 5.107 0 0 1-4.092-1.225c.413-.192.816-.407 1.206-.645 1.422-.87 2.024-2.594 1.651-4.73-.64-3.667-.825-10.68 2.554-13.658a.704.704 0 0 0 .08-.084c.033-.041 3.357-4.044 8.52-4.044 5.163 0 8.487 4.003 8.52 4.044.024.03.051.058.08.084a8.582 8.582 0 0 1 2.441 4.636.7.7 0 0 0 .839.532.718.718 0 0 0 .516-.86zM35.313 23.863a.693.693 0 0 0-.27-.173 11.824 11.824 0 0 1-1.991-.944.686.686 0 0 0-.954.255.728.728 0 0 0 .248.982c.378.226.767.432 1.166.617a5.096 5.096 0 0 1-4.098 1.223.696.696 0 0 0-.843.524.718.718 0 0 0 .51.868v-.003c.328.072.664.106 1 .1a7.272 7.272 0 0 0 5.233-2.436.731.731 0 0 0 0-1.013z"/>
        <path d="M32.036 12.9h-2.744c-.014 0-.027-.01-.042-.01h-2.777v-2.857a.716.716 0 0 0-.705-.726.716.716 0 0 0-.706.726v2.858h-2.767v-2.858a.716.716 0 0 0-.706-.726.716.716 0 0 0-.705.726v2.858h-2.768v-2.858a.716.716 0 0 0-.705-.726.716.716 0 0 0-.706.726v2.858h-2.767v-2.858a.716.716 0 0 0-.706-.726.716.716 0 0 0-.705.726v2.858H9.75a.717.717 0 0 0-.704.77l.348 5.928c.325 6.292 4.357 10.52 10.029 10.52h.147a9.834 9.834 0 0 0 4.412-1.007.735.735 0 0 0 .329-.968.696.696 0 0 0-.94-.339 8.472 8.472 0 0 1-3.801.86h-.14c-4.875 0-8.34-3.675-8.623-9.15l-.305-5.164h17.999l-.305 5.164c-.024.4.272.744.66.768a.712.712 0 0 0 .747-.68l.311-5.26h2.122c.384 0 .696.321.696.717v4.3a.707.707 0 0 1-.696.717.707.707 0 0 0-.697.716c0 .396.312.717.697.717 1.154 0 2.089-.963 2.089-2.15v-4.3c0-1.187-.935-2.15-2.09-2.15z"/>
        <path d="M31.34 15.757a.716.716 0 0 0-.706.726c-.005 4.347-3.428 7.87-7.652 7.874h-.092c-.39-1.537-1.917-2.457-3.41-2.056-1.494.4-2.389 1.971-1.999 3.508.39 1.537 1.916 2.458 3.41 2.057a2.836 2.836 0 0 0 1.999-2.057h.092c5.003-.006 9.057-4.177 9.063-9.326a.716.716 0 0 0-.706-.726zm-11.144 10.75c-.764 0-1.383-.637-1.383-1.424 0-.786.62-1.424 1.383-1.424.765 0 1.384.638 1.384 1.424 0 .786-.62 1.424-1.384 1.424z"/>
    </g>
</svg>
