<svg xmlns="http://www.w3.org/2000/svg" width="43" height="51" viewBox="0 0 43 51">
    <g fill="none" fill-rule="evenodd">
        <path fill="#2057AC" fill-rule="nonzero" d="M30.363 32.737v-18.07-6.515c0-.242-.073-.484-.25-.71L24.486.428A1.15 1.15 0 0 0 23.599 0H6.763c-.347 0-.67.153-.887.428L.25 7.442a1.134 1.134 0 0 0-.25.71v23.447c0 .63.508 1.138 1.138 1.138H14.32M7.312 2.277H23.05l3.802 4.737H3.51l3.801-4.738zM17.538 9.29v4.867l-1.695-1.203a1.127 1.127 0 0 0-1.315 0l-1.695 1.203V9.29h4.705zM2.276 30.46V9.29h8.273v7.07a1.143 1.143 0 0 0 1.8.929l2.832-2.018 2.833 2.018c.75.54 1.8 0 1.8-.929V9.282h8.273v21.179H2.276z"/>
        <path fill="#FFF" fill-rule="nonzero" stroke="#2057AC" stroke-width="2.5" d="M27.486 48.79a20 20 0 0 1-12.414-12.47C14.357 33.946 14 31.773 14 29.801v-6.574c5.967-2.159 11.031-7.35 13.5-10.228 2.469 2.878 7.533 8.07 13.5 10.228v6.574c-.014 8.633-5.417 16.18-13.514 18.988z"/>
        <path fill="#2057AC" d="M15 26h11.75a1.25 1.25 0 0 1 0 2.5H15V26zM15 30h6.75a1.25 1.25 0 0 1 0 2.5H15V30z"/>
    </g>
</svg>
