<svg xmlns="http://www.w3.org/2000/svg" width="22" height="14" viewBox="0 0 22 14">
    <path fill="#2A2A2A" fill-rule="nonzero" d="M21.6 10.022V7.636a.443.443 0 0 0-.015-.096c-.003-.012-.003-.026-.007-.038a.43.43 0 0 0-.066-.13l-.005-.007-3.195-4.236a.392.392 0 0 0-.312-.16h-2.8V.425C15.2.19 15.02 0 14.8 0H1.6c-.22 0-.4.19-.4.424 0 .235.18.424.4.424H2v2.546h-.8c-.22 0-.4.19-.4.424 0 .234.18.424.4.424H2v2.546H.8c-.22 0-.4.19-.4.424 0 .234.18.424.4.424H2v2.386a1.629 1.629 0 0 0 .117 2.157c.075.08.177.124.283.124h1.24C3.83 13.291 4.65 14 5.6 14s1.77-.71 1.96-1.697h8.48C16.23 13.291 17.05 14 18 14s1.77-.71 1.96-1.697h1.24a.389.389 0 0 0 .283-.124c.578-.57.63-1.521.117-2.157zm-1.299-2.898l-3.101-.3V5.516h1.888L20.3 7.124zM5.6 13.152c-.663 0-1.2-.57-1.2-1.273s.537-1.273 1.2-1.273c.663 0 1.2.57 1.2 1.273 0 .702-.538 1.272-1.2 1.273zm1.96-1.697c-.19-.988-1.01-1.697-1.96-1.697s-1.77.709-1.96 1.697H2.581a.764.764 0 0 1 .102-.973.438.438 0 0 0 .117-.3v-.424h.4c.22 0 .4-.19.4-.425 0-.234-.18-.424-.4-.424h-.4V7.636h3.6c.22 0 .4-.19.4-.424 0-.234-.18-.424-.4-.424H2.8V4.242h7.6c.22 0 .4-.19.4-.424 0-.234-.18-.424-.4-.424H2.8V.848h11.6v10.607H7.56zM18 13.152c-.663 0-1.2-.57-1.2-1.273s.537-1.273 1.2-1.273c.663 0 1.2.57 1.2 1.273 0 .702-.538 1.272-1.2 1.273zm3.019-1.697h-1.06c-.19-.988-1.009-1.697-1.959-1.697-.95 0-1.77.709-1.96 1.697h-.84V3.818h2.608l.64.849H16.8c-.22 0-.4.19-.4.424v2.121c0 .22.158.403.364.423l4.036.389v.885h-.4c-.22 0-.4.19-.4.424 0 .235.18.425.4.425h.4v.424c0 .11.042.217.115.297.265.25.31.67.104.976z" opacity=".8"/>
</svg>
