<svg xmlns="http://www.w3.org/2000/svg" width="35" height="28" viewBox="0 0 35 28">
    <g fill="none" fill-rule="evenodd">
        <path stroke="#1D509F" stroke-width="1.2" d="M.6.6v26.8h33.8v-1.908c-8.861-1.24-15.942-4.108-21.23-8.611C7.907 12.399 5.202 6.96 5.082.6H.6z"/>
        <path stroke="#1D509F" stroke-width="1.2" d="M.6.6v26.8h31.542c-8.286-1.36-15.071-4.233-20.346-8.621C6.056 14.003 2.962 7.932 2.532.6H.6zm33.8 26.8h.18l.197.223-.136.136-.241-.03V27.4z"/>
        <path stroke="#1D509F" stroke-width="1.2" d="M.6.6v26.8h33.8V11.653c-3.687.054-7.004-.92-9.932-2.92-2.972-2.03-4.73-4.751-5.25-8.133H.6z"/>
        <path stroke="#1D509F" stroke-width="1.2" d="M.6.6v26.8h33.8V.6H.6z"/>
        <path stroke="#1D509F" stroke-width=".845" d="M26.974.422h7.603v4.025h-7.603z"/>
        <path stroke="#1D509F" stroke-width=".845" d="M30.595 4.075v5.242h3.983V4.075h-3.983z"/>
        <path stroke="#1D509F" stroke-width=".845" d="M21.41 4.075l4.3 5.242h5.247V4.075H21.41z"/>
        <path stroke="#1D509F" stroke-width=".845" d="M18.76.422L20.6 4.447h5.53V.422h-7.368z"/>
        <g fill="#1D509F">
            <path d="M5.147 4.612h16.209v1H5.146zM7.63 8.968h17.869v1H7.629zM10.183 13.323h24.639v1h-24.64zM14.043 17.68H34.82v1H14.043zM21.887 22.035h12.935v1H21.887z"/>
        </g>
        <path fill="#1D509F" d="M12.069 0h.974v16.116h-.974zM8.448 0h.974v12.174h-.974zM15.69 0h.974v19.478h-.974zM19.31 4.87h.975v16.735h-.975zM22.931 8.034h1.207V23.13h-1.207zM26.552 9.74h1.04v14.608h-1.04zM30.172 10.957h1.042v14.365h-1.042z"/>
    </g>
</svg>
