<?xml version="1.0" encoding="UTF-8" standalone="no"?>
<svg width="29px" height="23px" viewBox="0 0 29 23" version="1.1" xmlns="http://www.w3.org/2000/svg" xmlns:xlink="http://www.w3.org/1999/xlink">
    <!-- Generator: Sketch 50.2 (55047) - http://www.bohemiancoding.com/sketch -->
    <title>facade-wh</title>
    <desc>Created with Sketch.</desc>
    <defs></defs>
    <g id="Page-1" stroke="none" stroke-width="1" fill="none" fill-rule="evenodd">
        <g id="facade-wh">
            <path d="M0.5,0.5 L0.5,22.5 L28.5,22.5 L28.5,20.9462054 C21.1594576,19.9271301 15.2935773,17.5719174 10.9120984,13.873195 C6.55196409,10.192491 4.30965497,5.72452358 4.20830106,0.5 L0.5,0.5 Z" id="Rectangle-9" stroke="#FFFFFF"></path>
            <path d="M0.5,0.5 L0.5,22.5 L26.5446194,22.5 C19.7189622,21.3764665 14.1261425,19.0221917 9.77394237,15.4324204 C5.01844436,11.5100019 2.45339708,6.52244349 2.09524204,0.5 L0.5,0.5 Z M28.5,22.5 L28.6409192,22.5 L28.8098712,22.6901288 L28.6921013,22.8078987 C28.6279664,22.8000157 28.5639327,22.7920317 28.5,22.7839468 L28.5,22.5 Z" id="Rectangle-9" stroke="#FFFFFF"></path>
            <path d="M1.43507633,0.5 L28.5,21.9652843 L28.5,9.57950944 C25.4459916,9.62269855 22.6992342,8.8226794 20.2735915,7.18061334 C17.8112351,5.51369352 16.3533423,3.27779473 15.9210284,0.5 L1.43507633,0.5 Z" id="Rectangle-10" stroke="#FFFFFF"></path>
            <path d="M1.43507633,0.5 L28.5,21.9652843 L28.5,0.5 L1.43507633,0.5 Z" id="Rectangle-11" stroke="#FFFFFF"></path>
            <rect id="Rectangle-12" stroke="#FFFFFF" stroke-width="0.704" x="22.352" y="0.352" width="6.296" height="3.296"></rect>
            <path d="M25.352,3.352 L25.352,7.648 L28.648,7.648 L28.648,3.352 L25.352,3.352 Z" id="Rectangle-12" stroke="#FFFFFF" stroke-width="0.704"></path>
            <path d="M17.7480653,3.352 L21.3022289,7.648 L25.648,7.648 L25.648,3.352 L17.7480653,3.352 Z" id="Rectangle-12" stroke="#FFFFFF" stroke-width="0.704"></path>
            <path d="M15.5497046,0.352 L17.068035,3.648 L21.648,3.648 L21.648,0.352 L15.5497046,0.352 Z" id="Rectangle-12" stroke="#FFFFFF" stroke-width="0.704"></path>
            <g id="Group-4" transform="translate(4.000000, 3.000000)" fill="#FFFFFF">
                <rect id="Rectangle-13" x="0.26439483" y="0.788888889" width="13.4300003" height="1"></rect>
                <rect id="Rectangle-13" x="2.32197415" y="4.36666667" width="14.8061105" height="1"></rect>
                <rect id="Rectangle-13" x="4.43713278" y="7.94444444" width="20.4150264" height="1"></rect>
                <rect id="Rectangle-13" x="7.63548692" y="11.5222222" width="17.2158219" height="1"></rect>
                <rect id="Rectangle-13" x="14.1342703" y="15.1" width="10.7178889" height="1"></rect>
            </g>
            <polygon id="Rectangle-14" fill="#FFFFFF" points="10 0 10.8072072 0 10.8072072 13.2381615 10 13.2381615"></polygon>
            <polygon id="Rectangle-14" fill="#FFFFFF" points="7 0 7.80720721 0 7.80720721 10 7 10"></polygon>
            <polygon id="Rectangle-14" fill="#FFFFFF" points="13 0 13.8072072 0 13.8072072 16 13 16"></polygon>
            <polygon id="Rectangle-14" fill="#FFFFFF" points="16 4 16.8072072 4 16.8072072 17.7469204 16 17.7469204"></polygon>
            <rect id="Rectangle-14" fill="#FFFFFF" x="19" y="6.59938636" width="1" height="12.4006136"></rect>
            <polygon id="Rectangle-14" fill="#FFFFFF" points="22 8 22.8626444 8 22.8626444 20 22 20"></polygon>
            <polygon id="Rectangle-14" fill="#FFFFFF" points="25 9 25.8626444 9 25.8626444 20.7998333 25 20.7998333"></polygon>
        </g>
    </g>
</svg>