<?xml version="1.0" encoding="UTF-8" standalone="no"?>
<svg width="30px" height="23px" viewBox="0 0 30 23" version="1.1" xmlns="http://www.w3.org/2000/svg" xmlns:xlink="http://www.w3.org/1999/xlink">
    <!-- Generator: Sketch 50.2 (55047) - http://www.bohemiancoding.com/sketch -->
    <title>Group 5</title>
    <desc>Created with Sketch.</desc>
    <defs></defs>
    <g id="Page-1" stroke="none" stroke-width="1" fill="none" fill-rule="evenodd">
        <g id="Group-5">
            <path d="M0.5,0.5 L0.5,22.5 L28.8478261,22.5 L28.8478261,20.9469154 C21.4189793,19.9284096 15.4829473,17.5736557 11.0490951,13.8750819 C6.6368505,10.1945323 4.36732803,5.7258776 4.26477096,0.5 L0.5,0.5 Z" id="Rectangle-9" stroke="#FFFFFF"></path>
            <path d="M0.5,0.5 L0.5,22.5 L26.8639617,22.5 C19.9585233,21.3766768 14.3004517,19.0230702 9.89724717,15.4342736 C5.08490238,11.5120106 2.48879481,6.52376297 2.12635853,0.5 L0.5,0.5 Z M28.8478261,22.5 L28.9889418,22.5 L29.1579259,22.6899002 L29.0396063,22.8082198 C28.9755799,22.8004457 28.9116532,22.7925732 28.8478261,22.7846025 L28.8478261,22.5 Z" id="Rectangle-9" stroke="#FFFFFF"></path>
            <path d="M1.01979733,0.352 L28.9958261,22.2769174 L28.9958261,9.42862345 C25.8742589,9.50092633 23.0738847,8.7108756 20.6046947,7.05914057 C18.1098209,5.39022473 16.6512316,3.14789028 16.2451988,0.352 L1.01979733,0.352 Z" id="Rectangle-10" stroke="#FFFFFF" stroke-width="0.704"></path>
            <path d="M1.48354922,0.5 L28.8478261,21.7537515 L28.8478261,0.5 L1.48354922,0.5 Z" id="Rectangle-11" stroke="#FFFFFF"></path>
            <rect id="Rectangle-12" stroke="#FFFFFF" stroke-width="0.704" x="22.2967709" y="0.352" width="6.69905523" height="3.38488889"></rect>
            <path d="M25.3461246,3.72770681 L25.3461246,7.57022222 L28.9958261,7.57022222 L28.9958261,3.72770681 L25.3461246,3.72770681 Z" id="Rectangle-12" stroke="#FFFFFF" stroke-width="0.704"></path>
            <path d="M18.0557075,3.77925334 L21.7178519,7.57022222 L25.5586933,7.57022222 L25.5586933,3.77925334 L18.0557075,3.77925334 Z" id="Rectangle-12" stroke="#FFFFFF" stroke-width="0.704"></path>
            <path d="M16.0159775,0.352 L17.6291883,3.73688889 L22.5093396,3.73688889 L22.5093396,0.352 L16.0159775,0.352 Z" id="Rectangle-12" stroke="#FFFFFF" stroke-width="0.704"></path>
            <g id="Group-4" transform="translate(4.759107, 1.533333)" fill="#FFFFFF">
                <rect id="Rectangle-13" x="0" y="0" width="11.8977673" height="1"></rect>
                <rect id="Rectangle-13" x="0.26439483" y="1.78888889" width="12.426557" height="1"></rect>
                <rect id="Rectangle-13" x="0.528789659" y="3.57777778" width="13.4841363" height="1"></rect>
                <rect id="Rectangle-13" x="1.32197415" y="5.36666667" width="14.8061105" height="1"></rect>
                <rect id="Rectangle-13" x="2.37955347" y="7.15555556" width="17.9788484" height="1"></rect>
                <rect id="Rectangle-13" x="3.43713278" y="8.94444444" width="21.1515864" height="1"></rect>
                <rect id="Rectangle-13" x="5.28789659" y="10.7333333" width="19.0364277" height="1"></rect>
                <rect id="Rectangle-13" x="6.75088132" y="12.5222222" width="17.8369568" height="1"></rect>
                <rect id="Rectangle-13" x="10.0470035" y="14.3111111" width="14.2773208" height="1"></rect>
                <rect id="Rectangle-13" x="13.4841363" y="16.1" width="11.1045828" height="1"></rect>
                <rect id="Rectangle-13" x="18.7720329" y="17.8888889" width="5.81739135" height="1"></rect>
            </g>
            <rect id="Rectangle-14" fill="#FFFFFF" x="6.87426557" y="0" width="1" height="8.68888889"></rect>
            <polygon id="Rectangle-14" fill="#FFFFFF" points="5.02350176 0 5.54994125 0 5.54994125 5.26730809 5.02350176 5.26730809"></polygon>
            <rect id="Rectangle-14" fill="#FFFFFF" x="8.72502938" y="0" width="1" height="11.8833336"></rect>
            <rect id="Rectangle-14" fill="#FFFFFF" x="10.5757932" y="0" width="1" height="13.672222"></rect>
            <rect id="Rectangle-14" fill="#FFFFFF" x="12.426557" y="0" width="1" height="15.2055551"></rect>
            <rect id="Rectangle-14" fill="#FFFFFF" x="14.2773208" y="0" width="1" height="15.8444444"></rect>
            <rect id="Rectangle-14" fill="#FFFFFF" x="16.1280846" y="0" width="1" height="16.8666664"></rect>
            <rect id="Rectangle-14" fill="#FFFFFF" x="17.9788484" y="4.98333333" width="1" height="13.2888889"></rect>
            <rect id="Rectangle-14" fill="#FFFFFF" x="19.8296122" y="6.38888889" width="1" height="12.6499995"></rect>
            <polygon id="Rectangle-14" fill="#FFFFFF" points="21.680376 7.59629615 22.2068155 7.59629615 22.2068155 19.1666667 21.680376 19.1666667"></polygon>
            <rect id="Rectangle-14" fill="#FFFFFF" x="23.5311398" y="8.43333333" width="1" height="11.2444444"></rect>
            <rect id="Rectangle-14" fill="#FFFFFF" x="25.3819036" y="8.94444444" width="1" height="10.9888889"></rect>
            <rect id="Rectangle-14" fill="#FFFFFF" x="27.2326675" y="9.2" width="1" height="11.2444444"></rect>
        </g>
    </g>
</svg>