<?xml version="1.0" encoding="UTF-8" standalone="no"?>
<svg width="27px" height="27px" viewBox="0 0 27 27" version="1.1" xmlns="http://www.w3.org/2000/svg" xmlns:xlink="http://www.w3.org/1999/xlink">
    <!-- Generator: Sketch 50.2 (55047) - http://www.bohemiancoding.com/sketch -->
    <title>fence</title>
    <desc>Created with Sketch.</desc>
    <defs></defs>
    <g id="Page-1" stroke="none" stroke-width="1" fill="none" fill-rule="evenodd" stroke-linecap="round" stroke-linejoin="round">
        <g id="fence" transform="translate(1.000000, 1.000000)" stroke="#FFFFFF" stroke-width="1.1">
            <polygon id="Shape" points="5 25 0 25 0 4.11304348 2.5 0 5 4.11304348"></polygon>
            <polygon id="Shape" points="15 25 10 25 10 4.11304348 12.5 0 15 4.11304348"></polygon>
            <polygon id="Shape" points="25 25 20 25 20 4.11304348 22.5 0 25 4.11304348"></polygon>
            <path d="M5,7 L10,7" id="Shape"></path>
            <path d="M5,12 L10,12" id="Shape"></path>
            <path d="M5,17 L10,17" id="Shape"></path>
            <path d="M5,22 L10,22" id="Shape"></path>
            <path d="M15,7 L20,7" id="Shape"></path>
            <path d="M15,12 L20,12" id="Shape"></path>
            <path d="M15,17 L20,17" id="Shape"></path>
            <path d="M15,22 L19.9921541,22.0004401" id="Shape"></path>
        </g>
    </g>
</svg>