<?xml version="1.0" encoding="UTF-8" standalone="no"?>
<svg width="38px" height="23px" viewBox="0 0 38 23" version="1.1" xmlns="http://www.w3.org/2000/svg" xmlns:xlink="http://www.w3.org/1999/xlink">
    <!-- Generator: Sketch 50.2 (55047) - http://www.bohemiancoding.com/sketch -->
    <title>flat-roof</title>
    <desc>Created with Sketch.</desc>
    <defs></defs>
    <g id="Page-1" stroke="none" stroke-width="1" fill="none" fill-rule="evenodd">
        <g id="flat-roof">
            <g id="Group" transform="translate(0.000000, 1.586207)">
                <ellipse id="Oval" stroke="#FFFFFF" stroke-width="1.2" stroke-linecap="round" stroke-linejoin="round" cx="26.4135116" cy="3.01724138" rx="1.4052076" ry="2.4137931"></ellipse>
                <path d="M26.4135116,5.43103448 L16.7527094,5.43103448 C15.9622801,5.43103448 15.3475018,4.31034483 15.3475018,3.01724138 C15.3475018,1.72413793 15.9622801,0.603448276 16.7527094,0.603448276 L26.4135116,0.603448276" id="Shape" stroke="#FFFFFF" stroke-width="1.2" stroke-linecap="round" stroke-linejoin="round"></path>
                <polyline id="Shape" stroke="#FFFFFF" stroke-width="1.2" stroke-linecap="round" stroke-linejoin="round" points="26.4135116 5.43103448 18.3655382 17.4161053 7.30033519 17.4161053 11.9134517 11.3992217"></polyline>
                <g id="Group-2" transform="translate(11.351271, 10.197441) rotate(1.000000) translate(-11.351271, -10.197441) translate(0.351271, 4.197441)" fill="#FFFFFF" fill-rule="nonzero">
                    <path d="M10.5252245,7.26042146 L10.1527347,6.42678161 C10.0690599,6.24225423 9.85399201,6.16130424 9.672,6.24583653 L7.79363265,7.21518519 C7.62023278,7.30469915 7.54721211,7.51705243 7.62808163,7.69662835 L7.62808163,7.71601533 L0.369306122,10.8146999 C0.239676737,10.8695683 0.152875738,10.9954194 0.14644898,11.1378161 L0.881877551,11.3963091 L7.92734694,8.40102171 C8.01472801,8.56664675 8.21168475,8.63793783 8.38261224,8.56581098 L10.3469388,7.75478927 C10.5320919,7.6785885 10.6217426,7.46483911 10.5475102,7.27657727 L10.5252245,7.26042146 Z" id="Shape"></path>
                    <path d="M13.7504437,8.08670776 C12.8393936,8.08560786 11.9324352,7.96301718 11.0528567,7.72208354 C10.9715295,7.70018509 10.9078911,7.63591536 10.8859134,7.55348414 C10.8639356,7.47105291 11.0584135,7.18118165 11.117763,7.12064888 C11.1771125,7.0601161 11.2510144,6.75279573 11.3323416,6.77469419 C13.6551777,7.40335665 15.4558239,7.48865144 17.3295783,6.4324985 L17.2366649,6.41049531 C17.0305492,6.34603496 16.931305,5.99102168 16.7170896,5.96556123 C16.5952044,5.96356293 16.4949895,5.86744981 16.4861328,5.74405738 C16.477276,5.62066494 16.5627083,5.51082613 16.6830213,5.49092107 C18.4669594,5.15772997 18.839135,5.17305003 19.6258021,4.14204359 C20.3624604,3.15146282 21.1765999,3.01456588 20.8827304,1.80987888 C19.5158292,2.42713195 18.1414579,2.48343108 16.6458428,2.52192643 C16.5546475,2.52361882 16.4704888,2.47237039 16.4290447,2.38990731 C16.3889244,2.30672885 16.3997866,2.20751045 16.4569188,2.13529901 C16.5498322,2.01899645 16.6024831,1.94355696 16.6458428,1.88383402 C14.9063917,1.74014193 13.9778252,2.2982811 13.0258942,3.78111711 C12.9611688,3.87938488 12.8353658,3.91483749 12.7299858,3.8645072 C12.6246058,3.81417691 12.5713359,3.69319769 12.6046866,3.57994512 C12.6079938,3.52970813 12.6079938,3.47930312 12.6046866,3.42906613 C11.6414839,3.96028592 10.8074324,5.02585265 10.6742565,6.0600024 C10.6571516,6.19107066 10.3070638,6.09706286 10.1779218,6.07970283 C10.0487799,6.0623428 9.95795592,5.9420179 9.97506081,5.81094964 C10.0730052,5.09810501 10.330448,4.41747934 10.7276597,3.82123295 C11.1086832,3.21200075 11.6720242,2.74270807 12.3350622,2.4821819 C12.4437708,2.44304451 12.5644079,2.48962359 12.6199968,2.59219783 C13.8240055,1.18791592 15.655144,0.511035493 17.4669813,0.800509805 C17.5574475,0.812423286 17.6329849,0.876316339 17.6608361,0.964481158 C17.6886872,1.05264598 17.6638363,1.14920469 17.5970602,1.21228372 C17.5359883,1.26866448 17.4780843,1.32848159 17.4236217,1.39145252 C18.7802169,1.29418925 20.1069165,0.940242783 21.3352776,0.347872831 C21.4516591,0.29387868 21.5892225,0.34414021 21.6449891,0.461032074 L21.6449891,0.489321885 C22.0940289,1.91733335 21.828124,3.47789343 20.9326527,4.66992727 C20.2481904,5.5689146 19.4924944,5.9272522 18.3372706,6.18814712 C18.3987374,6.19915108 18.4607856,6.20649801 18.5230975,6.21015031 C18.624615,6.21475893 18.7117569,6.28496806 18.7392086,6.38426831 C18.7666604,6.48356856 18.7282233,6.58953766 18.6438849,6.64707072 C17.1889422,7.60761095 15.4859866,8.10861582 13.7504437,8.08670776 Z" id="Shape"></path>
                    <path d="M13.8176353,6.63376116 C13.1387113,6.63007511 12.4620956,6.55317244 11.7991863,6.40434865 C11.7361478,6.39044876 11.6811882,6.35157593 11.6465161,6.29636525 C11.6118441,6.24115457 11.6003306,6.17417777 11.6145333,6.11031289 L11.6145333,6.09092591 C11.7896353,5.51577904 13.2445741,3.32505107 15.6641659,3.18287994 C15.7749328,3.17729308 15.8752611,3.24885026 15.9076119,3.35651294 C15.9399626,3.46417562 15.8960523,3.5803766 15.8010639,3.63847381 C15.687206,3.70449096 15.5804978,3.78246691 15.4826965,3.87111749 C16.124404,3.89857681 16.7629156,3.76541877 17.3419618,3.48337802 C17.4288368,3.44008975 17.5327707,3.45350589 17.606203,3.51748718 C17.6796353,3.58146847 17.7084381,3.68370525 17.6794312,3.77741378 C17.4066745,4.63539443 16.8228626,5.35612088 16.0462067,5.79365899 C16.1073054,5.90515616 16.0741022,6.04556672 15.9697986,6.11677521 C15.3324817,6.49821464 14.5976067,6.67820539 13.859023,6.63376116 L13.8176353,6.63376116 Z M14.0112478,5.85201804 L14.0423201,5.85201804 C14.3460775,5.85833196 14.6492571,5.8224198 14.9434178,5.74528141 C14.9094059,5.69620419 14.9010531,5.63339862 14.9210275,5.57692572 C14.9410019,5.52045282 14.9868045,5.47737765 15.0438054,5.46145903 C15.624947,5.28969102 16.1139702,4.88861741 16.4014274,4.34800198 C16.0716565,4.45585828 15.727292,4.51069805 15.3808207,4.51053275 C15.207921,4.51074333 15.0352804,4.49695319 14.8645419,4.4692936 C14.8029329,4.45952818 14.7505649,4.41837392 14.7258262,4.36028162 C14.7010875,4.30218933 14.7074361,4.235279 14.7426428,4.18304538 L14.8023972,4.10056708 C13.962081,4.38789246 13.2485715,4.96687076 12.7874758,5.73557808 C13.1959402,5.81118784 13.6031015,5.85015693 14.0112478,5.85201804 Z" id="Shape"></path>
                </g>
            </g>
            <path d="M8.55918367,6.44847306 L35.2855033,8.12413793 L36.8081633,8.12413793 L36.8081633,0.6 L8.55918367,0.6 L8.55918367,6.44847306 Z" id="Rectangle-7" stroke="#FDFDFD" stroke-width="1.2"></path>
            <path d="M27.9747018,3.77241379 L21.0922872,16.0551724 L26.5623985,16.0551724 L34.6991441,3.77241379 L27.9747018,3.77241379 Z M1.24923527,16.0551724 L0,16.0551724 L0.468319618,17.0302414 L1.24923527,16.0551724 Z M11.0862814,3.77241379 L12.0473403,2.57241379 L8.93168882,2.57241379 L8.93168882,3.77241379 L11.0862814,3.77241379 Z M14.534936,3.77241379 L15.4699442,3.77241379 L14.9245027,2.9224267 L14.534936,3.77241379 Z M8.90549461,16.0551724 L8.74507648,16.4051853 L9.29051801,16.0551724 L8.90549461,16.0551724 Z" id="Rectangle-2" stroke="#FDFDFD" stroke-width="1.2"></path>
            <path d="M30.1402923,3.75703612 L29.4721293,17.9837222 L32.0518108,21.4409097 L31.8920746,6.34497496 L30.1402923,3.75703612 Z" id="Rectangle-4" stroke="#FDFDFD" stroke-width="1.2" transform="translate(30.766975, 12.600326) rotate(34.000000) translate(-30.766975, -12.600326) "></path>
            <polyline id="Rectangle-6" stroke="#FDFDFD" stroke-width="1.2" points="26.5313829 21.8540511 0.610845864 21.8540511 0.610845864 16.6065397"></polyline>
        </g>
    </g>
</svg>