<svg xmlns="http://www.w3.org/2000/svg" width="31" height="42" viewBox="0 0 31 42">
    <g fill="none" fill-rule="evenodd">
        <path fill="#2057AC" d="M15.175 42C25.292 29.805 30.35 20.897 30.35 15.273 30.35 6.838 23.556 0 15.175 0 6.795 0 0 6.838 0 15.273 0 20.897 5.058 29.805 15.175 42z"/>
        <path fill="#FFF" fill-rule="nonzero" d="M14.54 19.223v3.264a.3.3 0 0 1-.287.296H11.07a.3.3 0 0 1-.288-.296v-3.264a.3.3 0 0 1 .288-.295h1.235v1.18h.745v-1.18h1.202c.152 0 .287.121.287.295zm4.215-.295h-1.202v1.18h-.745v-1.18h-1.235a.3.3 0 0 0-.288.295v3.264a.3.3 0 0 0 .288.296h3.182a.3.3 0 0 0 .287-.296v-3.264a.289.289 0 0 0-.287-.295zm-5.433-4.62a.3.3 0 0 0-.288.296v3.265a.3.3 0 0 0 .288.295h3.182a.3.3 0 0 0 .287-.295v-3.265a.3.3 0 0 0-.287-.295h-1.202v1.18h-.745v-1.18h-1.235zm9.14-1.753l-6.94-6.32a.931.931 0 0 0-1.236 0l-6.939 6.32c-.39.347-.152 1.007.372 1.007h.728v8.925c0 .174.136.296.288.296h.999a.29.29 0 0 0 .287-.296V13.58h9.75v8.925c0 .173.135.295.287.295h.999a.29.29 0 0 0 .287-.295V13.58h.728c.542 0 .779-.66.39-1.025z"/>
    </g>
</svg>
