<svg xmlns="http://www.w3.org/2000/svg" width="17" height="36" viewBox="0 0 17 36">
    <g fill="none" fill-rule="evenodd" stroke="#1D509F" stroke-linecap="round" stroke-linejoin="round" stroke-width="1.368">
        <path d="M11.857 12.46v19.6c0 1.54-1.2 2.8-2.667 2.8H3.724c-1.467 0-2.667-1.26-2.667-2.8V3.64c0-1.54 1.2-2.8 2.667-2.8H9.19c.934 0 1.6.42 2.134 1.12"/>
        <path d="M11.857 3.64c0 1.54-1.2 2.8-2.667 2.8H3.724c-1.467 0-2.667-1.26-2.667-2.8 0-1.54 1.2-2.8 2.667-2.8H9.19c1.467 0 2.667 1.26 2.667 2.8"/>
        <path d="M12.524 4.34l3.333 4.62S1.19 21 1.057 26.88c.8-8.96 2.8-15.26 11.467-22.54zM11.324 1.96l4.266 6.72"/>
    </g>
</svg>
