<svg xmlns="http://www.w3.org/2000/svg" xmlns:xlink="http://www.w3.org/1999/xlink" width="35" height="24" viewBox="0 0 35 24">
    <defs>
        <path id="a" d="M5.29 0v15.2h17.908V0h5.29v20.8H0V0z"/>
    </defs>
    <g fill="none" fill-rule="evenodd">
        <g transform="translate(3.256)">
            <path stroke="#1D509F" stroke-width=".972" d="M4.805.486H.486v19.828h27.516V.486h-4.318v15.2H4.804V.486z"/>
            <mask id="b" fill="#fff">
                <use xlink:href="#a"/>
            </mask>
            <g stroke="#1D509F" stroke-width=".567" mask="url(#b)">
                <path d="M7.816-17.945l39.888 39.888-1.296 1.296L6.52-16.648zM4.967-15.145l39.888 39.888-1.296 1.296L3.671-13.849zM2.526-11.544l39.888 39.888-1.296 1.296L1.23-10.248zM-1.137-9.144l39.888 39.888-1.296 1.296L-2.433-7.848zM-5.207-7.144l39.888 39.887-1.296 1.297L-6.503-5.848zM-10.09-5.945l39.887 39.888-1.296 1.296-39.888-39.887zM-14.567-4.344l39.888 39.888-1.296 1.296-39.888-39.888zM-19.044-3.144l39.888 39.888-1.296 1.296L-20.34-1.848z"/>
            </g>
            <g stroke="#1D509F" stroke-width=".567" mask="url(#b)">
                <path d="M-14.308 16.22L25.58-23.666l1.296 1.296-39.888 39.888zM-11.508 19.07L28.38-20.819l1.296 1.296-39.888 39.888zM-7.907 21.51L31.98-18.376l1.296 1.296-39.888 39.888zM-5.507 25.174L34.38-14.714l1.296 1.296L-4.211 26.47zM-3.507 29.244L36.38-10.644l1.297 1.296L-2.211 30.54zM-2.308 34.128L37.58-5.76l1.296 1.296-39.888 39.888zM-.707 38.604L39.18-1.284 40.477.012.589 39.9zM.493 43.08L40.38 3.194l1.296 1.296L1.789 44.377z"/>
            </g>
        </g>
        <path fill="#1D509F" d="M31.5 1.334L34.667 4.5l-.707.707-3.166-3.166zM3.17 1.334L.006 4.5l.707.707 3.166-3.166zM31.5 4.134L34.667 7.3l-.707.707-3.166-3.166zM3.17 4.134L.006 7.3l.707.707 3.166-3.166zM31.5 7.334l3.166 3.166-.707.707-3.166-3.166zM3.17 7.334L.006 10.5l.707.707 3.166-3.166zM31.5 10.534l3.166 3.166-.707.707-3.166-3.166zM3.17 10.534L.006 13.7l.707.707 3.166-3.166zM31.5 13.734l3.166 3.166-.707.707-3.166-3.166zM3.17 13.734L.006 16.9l.707.707 3.166-3.166zM31.5 16.934l3.166 3.166-.707.707-3.166-3.166zM3.17 16.934L.006 20.1l.707.707 3.166-3.166zM5.061 19.972l-3.165 3.166.707.707 3.165-3.165zM13.607 19.973l-3.165 3.165.707.708 3.166-3.166zM22.154 19.972l-3.165 3.166.707.707 3.165-3.165zM27.956 19.973l-3.165 3.166.707.707 3.165-3.166zM7.91 19.973l-3.166 3.165.707.707 3.166-3.165zM16.456 19.973l-3.166 3.166.708.707 3.165-3.166zM25.003 19.973l-3.166 3.165.707.707 3.166-3.165zM30.806 19.972l-3.166 3.166.707.707 3.166-3.166zM10.759 19.973l-3.166 3.165.707.707 3.166-3.165zM19.206 19.973l-3.165 3.166.707.707 3.165-3.166z"/>
    </g>
</svg>
