<?xml version="1.0" encoding="UTF-8" standalone="no"?>
<svg
   xmlns:dc="http://purl.org/dc/elements/1.1/"
   xmlns:cc="http://creativecommons.org/ns#"
   xmlns:rdf="http://www.w3.org/1999/02/22-rdf-syntax-ns#"
   xmlns:svg="http://www.w3.org/2000/svg"
   xmlns="http://www.w3.org/2000/svg"
   xmlns:sodipodi="http://sodipodi.sourceforge.net/DTD/sodipodi-0.dtd"
   xmlns:inkscape="http://www.inkscape.org/namespaces/inkscape"
   width="29px"
   height="34px"
   viewBox="0 0 29 34"
   version="1.1"
   id="svg1270"
   sodipodi:docname="hand-tools-o.svg"
   inkscape:version="0.92.3 (2405546, 2018-03-11)">
  <metadata
     id="metadata1276">
    <rdf:RDF>
      <cc:Work
         rdf:about="">
        <dc:format>image/svg+xml</dc:format>
        <dc:type
           rdf:resource="http://purl.org/dc/dcmitype/StillImage" />
        <dc:title>hand-tools</dc:title>
      </cc:Work>
    </rdf:RDF>
  </metadata>
  <defs
     id="defs1274" />
  <sodipodi:namedview
     pagecolor="#ffffff"
     bordercolor="#666666"
     borderopacity="1"
     objecttolerance="10"
     gridtolerance="10"
     guidetolerance="10"
     inkscape:pageopacity="0"
     inkscape:pageshadow="2"
     inkscape:window-width="1920"
     inkscape:window-height="996"
     id="namedview1272"
     showgrid="false"
     inkscape:zoom="24.382353"
     inkscape:cx="14.705066"
     inkscape:cy="17"
     inkscape:window-x="-8"
     inkscape:window-y="-8"
     inkscape:window-maximized="1"
     inkscape:current-layer="Group-2" />
  <!-- Generator: Sketch 52.6 (67491) - http://www.bohemiancoding.com/sketch -->
  <title
     id="title1249">hand-tools</title>
  <desc
     id="desc1251">Created with Sketch.</desc>
  <g
     id="Symbols"
     stroke="none"
     stroke-width="1"
     fill="none"
     fill-rule="evenodd">
    <g
       style="fill:#1d509f"
       id="inside-decor"
       transform="translate(-15,-688)">
      <g
         id="g1265"
         transform="translate(11,688)">
        <g
           transform="rotate(34,7.8228682,29.947985)"
           id="hand-tools"
           style="fill:#ffffff">
          <path
             inkscape:connector-curvature="0"
             id="Path"
             d="m 6.2271062,17.217172 c 0.4395605,-0.282829 0.989011,-0.282829 1.4285715,0 0.1098901,0.07071 0.1831501,0.07071 0.2930402,0.07071 0.1831502,0 0.3663004,-0.07071 0.4761905,-0.247475 0.1831502,-0.247475 0.1098901,-0.565657 -0.1465201,-0.742424 -0.8058608,-0.49495 -1.8315019,-0.49495 -2.6007326,0 -0.2564103,0.141414 -0.3296704,0.494949 -0.1465202,0.742424 0.1098901,0.247475 0.4395605,0.318182 0.6959707,0.176768 z"
             style="fill:#ffffff" />
          <path
             inkscape:connector-curvature="0"
             style="fill-rule:nonzero;stroke:#fffffd;stroke-width:0.20031495;stroke-miterlimit:4;stroke-dasharray:none;fill:#ffffff;stroke-opacity:1"
             id="Shape"
             d="M 13.919414,0.21212121 0,0.17676768 V 3.3585859 C 0,9.510101 2.967033,13.823232 4.029304,15.237374 c -0.07326,0.03535 -0.1465201,0.10606 -0.2197802,0.141414 l -0.3663004,0.176768 0.1465202,0.424242 c 0.6959707,2.686869 0.8058608,5.444444 0.3296703,8.166667 L 3.4432234,26.90404 c -0.1831501,0.989899 0.1098902,2.015152 0.8058608,2.79293 0.6593407,0.777777 1.6483517,1.20202 2.7106228,1.20202 1.062271,0 2.051282,-0.424243 2.7106227,-1.20202 0.6593403,-0.777778 0.9523813,-1.767677 0.8058613,-2.79293 L 10,24.111111 c -0.4761905,-2.757576 -0.3663004,-5.479798 0.32967,-8.20202 l 0.07326,-0.318182 -0.25641,-0.212121 C 10.07326,15.308081 10,15.272727 9.9267399,15.237374 11.025641,13.858586 13.956044,9.510101 13.956044,3.3585859 V 0.21212121 Z M 8.7912088,29.025252 c -0.4761905,0.530304 -1.1355311,0.848485 -1.8681319,0.848485 -0.7326007,0 -1.3919414,-0.318181 -1.8681319,-0.848485 C 4.5787546,28.494949 4.3956044,27.787879 4.5054945,27.116162 L 4.981685,24.358586 c 0.4761905,-2.757576 0.4029304,-5.550505 -0.2564103,-8.308081 1.3186813,-0.919192 3.0769231,-0.919192 4.3956044,0 -0.6593406,2.722222 -0.7326007,5.515152 -0.2564102,8.272727 l 0.4761904,2.79293 c 0.1465202,0.671717 -0.07326,1.378787 -0.5494505,1.90909 z M 12.820513,3.3939394 c 0,5.9040404 -2.9670332,10.1464646 -3.8827841,11.3131316 -1.2454212,-0.530303 -2.7106227,-0.565657 -3.9560439,0 C 4.0659341,13.540404 1.0989011,9.2979798 1.0989011,3.3585859 V 1.2373737 l 11.7216119,0.035354 z" />
          <path
             inkscape:connector-curvature="0"
             id="path1255"
             d="m 2.6739927,5.3030303 c -0.2930403,0.035354 -0.5128205,0.2828283 -0.4761905,0.6010101 0.5494506,4.5252526 3.0769231,7.3888886 3.1868132,7.5303026 0.1098901,0.106061 0.2564102,0.176768 0.4029304,0.176768 0.1098901,0 0.2564102,-0.03535 0.3663003,-0.141414 0.2197803,-0.176768 0.2564103,-0.530303 0.03663,-0.742424 -0.03663,-0.03535 -2.4175824,-2.757576 -2.9304029,-6.9292932 0,-0.3181818 -0.2930403,-0.530303 -0.5860805,-0.4949495 z"
             style="fill:#ffffff" />
          <path
             style="fill-rule:nonzero;fill:#ffffff"
             inkscape:connector-curvature="0"
             id="path1257"
             d="m 6.959707,25.59596 c -0.989011,0 -1.8315019,0.777777 -1.8315019,1.767676 0,0.989899 0.8058608,1.767677 1.8315019,1.767677 1.025641,0 1.8315018,-0.777778 1.8315018,-1.767677 0,-0.989899 -0.8424909,-1.767676 -1.8315018,-1.767676 z m 0,2.474747 c -0.4029304,0 -0.7326008,-0.318182 -0.7326008,-0.707071 0,-0.388889 0.3296704,-0.70707 0.7326008,-0.70707 0.4029304,0 0.7326007,0.318181 0.7326007,0.70707 0,0.388889 -0.3296703,0.707071 -0.7326007,0.707071 z" />
          <g
             transform="rotate(19,-7.315143,58.523325)"
             id="Group-2"
             style="fill:#ffffff">
            <path
               style="fill-rule:nonzero;stroke:#fffffb;stroke-width:0.2;fill:#ffffff;stroke-opacity:1"
               inkscape:connector-curvature="0"
               id="path1259"
               d="m 4,21.599064 c 0,0.79464 -0.67275,1.44096 -1.5,1.44096 -0.82725,0 -1.5,-0.64632 -1.5,-1.44096 v -7.09296 c 0.2295,-0.30192 0.5,-0.7716 0.5,-1.30608 0,-0.47568 -0.214,-0.89952 -0.42275,-1.2 H 1.25 3.75 3.92275 C 3.714,12.300504 3.5,12.724344 3.5,13.200024 c 0,0.53448 0.2705,1.00416 0.5,1.30608 z m -1.8555,-17.2284 -0.57625,-1.10592 0.686,-2.30472 h 0.4915 l 0.686,2.30472 -0.57625,1.10592 -0.1055,0.2028 v 0.22656 6.24 h -0.5 v -6.24 -0.22656 z M 5,11.521224 c 0,-0.26592 -0.2245,-0.4812 -0.4975,-0.4812 H 3.75 v -6.24 l 0.75,-1.44 -1,-3.36 h -2 l -1,3.36 0.75,1.44 v 6.24 H 0.49775 c -0.275,0 -0.49775,0.21456 -0.49775,0.4812 v 0.7188 c 0,0 0.5,0.48 0.5,0.96 0,0.48 -0.5,0.96 -0.5,0.96 v 7.43904 c 0,1.326 1.119,2.40096 2.5,2.40096 1.38075,0 2.5,-1.0764 2.5,-2.40096 v -7.43904 c 0,0 -0.5,-0.48 -0.5,-0.96 0,-0.48 0.5,-0.96 0.5,-0.96 z" />
            <path
               inkscape:connector-curvature="0"
               id="path1261"
               d="M 2.5,15.36 C 2.222,15.36 2,15.57408 2,15.83784 v 5.76432 C 2,21.86424 2.224,22.08 2.5,22.08 2.778,22.08 3,21.86592 3,21.60216 V 15.83784 C 3,15.57576 2.776,15.36 2.5,15.36"
               style="fill:#ffffff" />
          </g>
        </g>
      </g>
    </g>
  </g>
</svg>
