<svg xmlns="http://www.w3.org/2000/svg" width="28" height="36" viewBox="0 0 28 36">
    <g fill="none" fill-rule="evenodd" stroke="#1D509F" stroke-linecap="round" stroke-linejoin="round" stroke-width="1.458">
        <path d="M4.37 1.593h22.437v8.203H4.37z"/>
        <path d="M12.267 12.507h-8.86c-1.059 0-1.926-.89-1.926-1.976V7.622c0-1.087.867-1.977 1.926-1.977h.963M5.719 12.507h9.822c1.059 0 1.926.89 1.926 1.977v1.68M18.333 35h-1.637c-.866 0-1.637-.616-1.637-1.495V17.674c0-.792.674-1.495 1.637-1.495h1.637c.867 0 1.637.615 1.637 1.495v15.83c0 .792-.77 1.496-1.637 1.496z"/>
    </g>
</svg>
