<?xml version="1.0" encoding="UTF-8" standalone="no"?>
<svg
   xmlns:dc="http://purl.org/dc/elements/1.1/"
   xmlns:cc="http://creativecommons.org/ns#"
   xmlns:rdf="http://www.w3.org/1999/02/22-rdf-syntax-ns#"
   xmlns:svg="http://www.w3.org/2000/svg"
   xmlns="http://www.w3.org/2000/svg"
   xmlns:xlink="http://www.w3.org/1999/xlink"
   xmlns:sodipodi="http://sodipodi.sourceforge.net/DTD/sodipodi-0.dtd"
   xmlns:inkscape="http://www.inkscape.org/namespaces/inkscape"
   width="42px"
   height="42px"
   viewBox="0 0 42 42"
   version="1.1"
   id="svg1017"
   sodipodi:docname="instagram.svg"
   inkscape:version="0.92.3 (2405546, 2018-03-11)">
  <metadata
     id="metadata1021">
    <rdf:RDF>
      <cc:Work
         rdf:about="">
        <dc:format>image/svg+xml</dc:format>
        <dc:type
           rdf:resource="http://purl.org/dc/dcmitype/StillImage" />
        <dc:title>Instagram_Color</dc:title>
      </cc:Work>
    </rdf:RDF>
  </metadata>
  <sodipodi:namedview
     pagecolor="#ffffff"
     bordercolor="#666666"
     borderopacity="1"
     objecttolerance="10"
     gridtolerance="10"
     guidetolerance="10"
     inkscape:pageopacity="0"
     inkscape:pageshadow="2"
     inkscape:window-width="1920"
     inkscape:window-height="996"
     id="namedview1019"
     showgrid="false"
     inkscape:zoom="13.956941"
     inkscape:cx="10.582197"
     inkscape:cy="18.366321"
     inkscape:window-x="-8"
     inkscape:window-y="-8"
     inkscape:window-maximized="1"
     inkscape:current-layer="svg1017" />
  <!-- Generator: Sketch 50.2 (55047) - http://www.bohemiancoding.com/sketch -->
  <title
     id="title999">Instagram_Color</title>
  <desc
     id="desc1001">Created with Sketch.</desc>
  <defs
     id="defs1004">
    <path
       d="M0,21 C0,9.40201968 9.40201968,0 21,0 C32.5979803,0 42,9.40201968 42,21 C42,32.5979803 32.5979803,42 21,42 C9.40201968,42 0,32.5979803 0,21 Z"
       id="path-1" />
    <mask
       fill="white"
       id="mask-2">
      <use
         height="100%"
         width="100%"
         y="0"
         x="0"
         id="use1006"
         xlink:href="#path-1" />
    </mask>
  </defs>
  <use
     height="100%"
     width="100%"
     y="0"
     x="0"
     style="fill:#a332a4;fill-rule:evenodd;stroke:none;stroke-width:1;fill-opacity:1"
     xlink:href="#path-1"
     id="back" />
  <path
     id="Shape"
     style="fill:#ffffff;fill-rule:evenodd;stroke:none;stroke-width:1"
     d="m 21.00105,9.8 c -3.041765,0 -3.423502,0.0133 -4.618181,0.067667 -1.192346,0.0546 -2.006221,0.24337 -2.718362,0.520339 -0.736641,0.28607 -1.361514,0.66874 -1.984054,1.291514 -0.623007,0.622539 -1.005677,1.247413 -1.29268,1.98382 -0.27767,0.712374 -0.4666717,1.526483 -0.520339,2.718362 C 9.8140002,17.576381 9.8,17.958352 9.8,21.000117 c 0,3.041765 0.013533,3.422335 0.067667,4.617014 0.054834,1.192346 0.243603,2.006221 0.520339,2.718362 0.286303,0.736641 0.668974,1.361514 1.291747,1.984054 0.622306,0.623007 1.24718,1.006611 1.983354,1.29268 0.712607,0.27697 1.526716,0.465738 2.718828,0.520339 1.194679,0.05437 1.576183,0.06767 4.617715,0.06767 3.041998,0 3.422569,-0.0133 4.617248,-0.06767 1.192346,-0.0546 2.007154,-0.243369 2.719762,-0.520339 0.736407,-0.286069 1.360347,-0.669673 1.982654,-1.29268 0.623006,-0.62254 1.005677,-1.247413 1.29268,-1.983821 0.275336,-0.712374 0.464338,-1.526482 0.520339,-2.718361 C 32.186,24.422686 32.2,24.041882 32.2,21.000117 c 0,-3.041765 -0.014,-3.423503 -0.06767,-4.618182 -0.056,-1.192345 -0.245003,-2.006221 -0.520339,-2.718361 -0.287,-0.736641 -0.669671,-1.361515 -1.292677,-1.984054 C 29.696307,11.056513 29.073301,10.673842 28.33596,10.388006 27.621952,10.111037 26.80761,9.9222679 25.615265,9.8676674 24.420586,9.8133001 24.040248,9.8 20.99755,9.8 Z m -1.004744,2.018354 c 0.298203,-4.66e-4 0.63094,0 1.004744,0 2.990431,0 3.344868,0.01073 4.52578,0.0644 1.092012,0.04993 1.684685,0.232402 2.079489,0.385704 0.522672,0.203002 0.895309,0.445671 1.28708,0.837675 0.392004,0.392005 0.634673,0.765342 0.838142,1.288014 0.153302,0.394337 0.336003,0.98701 0.385704,2.079021 0.05367,1.180679 0.06533,1.53535 0.06533,4.524381 0,2.989031 -0.01167,3.343701 -0.06533,4.52438 -0.04993,1.092012 -0.232402,1.684685 -0.385704,2.079022 -0.203002,0.522672 -0.446138,0.894843 -0.838142,1.286613 -0.392004,0.392005 -0.764175,0.634674 -1.28708,0.837676 -0.394338,0.154001 -0.987477,0.336003 -2.079489,0.385937 -1.180678,0.05367 -1.535349,0.06533 -4.52578,0.06533 -2.990664,0 -3.345102,-0.01167 -4.525781,-0.06533 -1.092011,-0.0504 -1.684684,-0.232869 -2.079721,-0.38617 -0.522672,-0.203003 -0.896009,-0.445672 -1.288013,-0.837676 -0.392005,-0.392004 -0.634674,-0.764408 -0.838143,-1.287313 -0.153301,-0.394338 -0.336003,-0.987011 -0.385704,-2.079022 -0.05367,-1.180679 -0.0644,-1.535349 -0.0644,-4.526247 0,-2.990898 0.01073,-3.343702 0.0644,-4.524381 0.04993,-1.092011 0.232403,-1.684684 0.385704,-2.079488 0.203003,-0.522672 0.446138,-0.896009 0.838143,-1.288013 0.392004,-0.392004 0.765341,-0.634674 1.288013,-0.838142 0.394804,-0.154002 0.98771,-0.336004 2.079721,-0.386171 1.033211,-0.04667 1.433615,-0.06067 3.521037,-0.063 z m 6.983273,1.859686 c -0.742008,0 -1.344014,0.601307 -1.344014,1.343548 0,0.742007 0.602006,1.344014 1.344014,1.344014 0.742008,0 1.344014,-0.602007 1.344014,-1.344014 0,-0.742008 -0.602006,-1.344014 -1.344014,-1.344014 z m -5.978529,1.57035 c -3.1764,0 -5.751727,2.575327 -5.751727,5.751727 0,3.176399 2.575327,5.75056 5.751727,5.75056 3.1764,0 5.750793,-2.574161 5.750793,-5.75056 0,-3.1764 -2.574627,-5.751727 -5.751026,-5.751727 z m 0,2.018354 c 2.061755,0 3.733372,1.671384 3.733372,3.733373 0,2.061754 -1.671617,3.733372 -3.733372,3.733372 -2.061988,0 -3.733372,-1.671618 -3.733372,-3.733372 0,-2.061989 1.671384,-3.733373 3.733372,-3.733373 z" />
</svg>
