<?xml version="1.0" encoding="UTF-8" standalone="no"?>
<svg width="29px" height="26px" viewBox="0 0 29 26" version="1.1" xmlns="http://www.w3.org/2000/svg" xmlns:xlink="http://www.w3.org/1999/xlink">
    <!-- Generator: Sketch 50.2 (55047) - http://www.bohemiancoding.com/sketch -->
    <title>list-icon</title>
    <desc>Created with Sketch.</desc>
    <defs></defs>
    <g id="Page-1" stroke="none" stroke-width="1" fill="none" fill-rule="evenodd">
        <g id="list-icon" fill="#FFFFFF" fill-rule="nonzero">
            <path d="M22.2514583,18.2921818 L0.636791667,18.2921818 C0.303291667,18.2921818 0.032625,18.0274545 0.032625,17.7012727 L0.032625,1.49618182 C0.032625,1.17 0.303291667,0.905272727 0.636791667,0.905272727 L22.2526667,0.905272727 C22.5861667,0.905272727 22.8568333,1.17 22.8568333,1.49618182 L22.8568333,17.7012727 C22.855625,18.0274545 22.5861667,18.2921818 22.2514583,18.2921818 Z M1.24095833,17.1103636 L21.6485,17.1103636 L21.6485,2.08709091 L1.24095833,2.08709091 L1.24095833,17.1103636 Z" id="Shape"></path>
            <path d="M24.3660417,21.9818182 C24.3503333,21.9818182 24.3358333,21.9806364 24.3189167,21.9794545 L2.64383333,20.332 C2.483125,20.3201818 2.3345,20.2457273 2.229375,20.1251818 C2.12425,20.0046364 2.07470833,19.8498182 2.088,19.6914545 L2.22816667,18.1302727 C2.25716667,17.8064545 2.55320833,17.5712727 2.88308333,17.5937273 C3.215375,17.6220909 3.461875,17.9092727 3.43166667,18.2342727 L3.34466667,19.201 L23.8102083,20.7550909 L25.001625,5.642 L22.8979167,5.47063636 C22.5668333,5.44463636 22.319125,5.15745455 22.3469167,4.83245455 C22.3747083,4.50745455 22.6731667,4.27345455 22.9994167,4.29354545 L25.7024583,4.51454545 C26.0323333,4.54054545 26.2800417,4.82536364 26.2534583,5.148 L24.969,21.4358182 C24.9569167,21.593 24.882,21.7383636 24.7599583,21.84 C24.65,21.9321818 24.5098333,21.9818182 24.3660417,21.9818182 Z" id="Shape"></path>
            <path d="M26.748875,25.0947273 C26.7283333,25.0947273 26.709,25.0935455 26.6896667,25.0923636 L5.085875,23.0442727 C4.75841667,23.0135455 4.51795833,22.7322727 4.542125,22.412 L4.67020833,20.722 C4.69558333,20.397 4.97108333,20.1476364 5.317875,20.176 C5.65016667,20.2008182 5.90029167,20.4844545 5.87491667,20.8094545 L5.79033333,21.9227273 L26.205125,23.8585455 L27.7034583,8.77263636 L25.8945833,8.59418182 C25.5622917,8.56227273 25.3194167,8.27272727 25.3544583,7.94890909 C25.3870833,7.62509091 25.690375,7.38518182 26.0154167,7.42063636 L28.423625,7.65818182 C28.7547083,7.69009091 28.9975833,7.97845455 28.9649583,8.30227273 L27.3494167,24.5629091 C27.3192083,24.8666364 27.0557917,25.0947273 26.748875,25.0947273 Z" id="Shape"></path>
        </g>
    </g>
</svg>