<svg xmlns="http://www.w3.org/2000/svg" width="39" height="26" viewBox="0 0 39 26">
    <path fill="#1D509F" fill-rule="nonzero" d="M39 22.83l-.002-.021c0-.01 0-.02-.002-.03 0-.007 0-.014-.002-.021l-.005-.034c0-.005 0-.011-.003-.017a.712.712 0 0 0-.01-.05L33.287.597A.806.806 0 0 0 32.5 0h-26a.808.808 0 0 0-.787.597L.024 22.657c-.005.017-.007.034-.01.05l-.004.019-.005.032c0 .007-.001.014-.003.02v.03C0 22.817 0 22.825 0 22.832v2.38c0 .256.127.496.342.643.215.148.49.186.739.102l4.384-1.485 4.425 1.485c.172.059.36.058.534 0l4.403-1.485 4.406 1.485c.172.059.36.059.533 0l4.405-1.485 4.405 1.485a.827.827 0 0 0 .533 0l4.406-1.485 4.405 1.485a.826.826 0 0 0 .737-.102.78.78 0 0 0 .343-.643v-2.363-.017zm-23.906-2.302a.843.843 0 0 0-.533 0l-3.436 1.159.791-6.135 3.404-1.158 3.367 1.136v6.21l-3.593-1.212zm-9.363 0a.84.84 0 0 0-.535 0l-3.23 1.095 1.56-6.052 3.437-1.177 3.32 1.111-.81 6.28-3.742-1.257zM5.354 8.485l3.06-1.018 2.783.945-.707 5.496-3.266-1.093a.835.835 0 0 0-.535.002l-2.69.922 1.355-5.254zm13.333-6.909v5.195l-2.615-.882a.835.835 0 0 0-.532 0l-2.486.832.663-5.145h4.97zm6.595 0l.664 5.145-2.487-.833a.832.832 0 0 0-.531 0l-2.616.883V1.576h4.97zm9.719 12.163l-2.691-.922a.838.838 0 0 0-.537-.002L28.51 13.91l-.708-5.498 2.783-.946 3.062 1.019L35 13.739zM12.829 8.464l2.975-.998 2.883.973v5.422l-3.1-1.045a.838.838 0 0 0-.536 0l-2.911.99.689-5.342zm7.483-.025l2.882-.972 2.976.997.689 5.34-2.911-.988a.835.835 0 0 0-.535 0l-3.101 1.045V8.44zm0 7.09l3.367-1.135 3.405 1.155.79 6.138-3.435-1.159a.847.847 0 0 0-.534 0l-3.593 1.212v-6.21zm9.213 6.255l-.808-6.276 3.32-1.114 3.436 1.177 1.56 6.055-3.25-1.098a.843.843 0 0 0-.534 0l-3.724 1.256zm3.653-15.12l-2.33-.776a.835.835 0 0 0-.534.001l-2.718.924-.676-5.237h4.946l1.312 5.087zM7.134 1.575h4.945l-.675 5.237-2.718-.924a.834.834 0 0 0-.533-.001l-2.33.775 1.311-5.087zm26.648 21.316a.843.843 0 0 0-.533 0l-4.406 1.485-4.404-1.485a.847.847 0 0 0-.534 0L19.5 24.377l-4.406-1.485a.843.843 0 0 0-.533 0l-4.406 1.486-4.424-1.486a.84.84 0 0 0-.535 0l-3.571 1.21v-.694l3.84-1.301 4.426 1.485v.001l.025.007a.615.615 0 0 0 .077.019.676.676 0 0 0 .048.01l.014.001.024.003h.016c.02.002.04.003.062.003l.04-.002.03-.001.043-.005.025-.003.043-.01.026-.005.04-.012.02-.006 4.403-1.485 4.406 1.485.011.004.035.01.038.01.033.006.045.007.029.004a.848.848 0 0 0 .151 0l.029-.004.045-.007.034-.007.037-.009.036-.01.01-.004 4.406-1.485 4.404 1.485.02.006.04.012.026.005.043.01a1.452 1.452 0 0 0 .069.008c.012 0 .026 0 .038.002l.03.001.063-.002.018-.002.021-.002.013-.002a.776.776 0 0 0 .051-.01c.009 0 .018-.003.028-.005a.709.709 0 0 0 .073-.02l4.406-1.486 3.859 1.302v.695l-3.592-1.212z"/>
</svg>
