<?xml version="1.0" encoding="UTF-8" standalone="no"?>
<svg width="29px" height="20px" viewBox="0 0 29 20" version="1.1" xmlns="http://www.w3.org/2000/svg" xmlns:xlink="http://www.w3.org/1999/xlink">
    <!-- Generator: Sketch 50.2 (55047) - http://www.bohemiancoding.com/sketch -->
    <title>roof-icon</title>
    <desc>Created with Sketch.</desc>
    <defs></defs>
    <g id="Page-1" stroke="none" stroke-width="1" fill="none" fill-rule="evenodd">
        <path d="M29,17.5619512 C28.9990937,17.5566103 28.9990937,17.5504172 28.9982441,17.5450763 C28.9982441,17.5370649 28.9982441,17.5299626 28.9973379,17.5220081 C28.9964316,17.5166672 28.9964316,17.5113263 28.995582,17.5060422 C28.9946758,17.4971786 28.9929199,17.4891673 28.9920703,17.4803037 C28.991164,17.4758719 28.991164,17.47144 28.9894081,17.4670082 C28.9876523,17.4545651 28.9849901,17.4412697 28.982328,17.4288265 L24.7519282,0.459430839 C24.685545,0.189545051 24.4439147,0 24.1660342,0 L4.83311621,0 C4.55608529,0 4.31451161,0.189545051 4.24722215,0.459430839 L0.0177286195,17.4287697 C0.0142168802,17.4412128 0.0124043696,17.4545083 0.00974224458,17.4669514 C0.00883598927,17.4713832 0.00883598927,17.475815 0.00708011961,17.4811559 C0.0061738643,17.4891673 0.00532424995,17.4971218 0.00356838028,17.5060422 C0.00356838028,17.5113831 0.00266212497,17.516724 0.00181251062,17.5220081 C0.00181251062,17.5300195 0.00090625531,17.5371217 0.00090625531,17.5450763 C0,17.5504172 0,17.5566103 0,17.5619512 C0,17.566383 0,17.5708148 0,17.5752466 L0,19.3934246 C0,19.5896174 0.0947036799,19.774276 0.253978051,19.8879122 C0.414158677,20.0015483 0.618632531,20.0308664 0.803565255,19.966037 L4.06393202,18.8234826 L7.35437512,19.966037 C7.48181728,20.011321 7.6216638,20.0104119 7.75086182,19.966037 L11.0253888,18.8234826 L14.3016717,19.966037 C14.4291138,20.011321 14.56981,20.011321 14.6981584,19.966037 L17.9735916,18.8234826 L21.2489683,19.966037 C21.3781663,20.011321 21.5180128,20.011321 21.645455,19.966037 L24.9217378,18.8234826 L28.1971711,19.966037 C28.2617984,19.9882529 28.3290312,19.9997869 28.3954144,19.9997869 C28.5193448,19.9997869 28.6423124,19.9616052 28.7450024,19.8879122 C28.905183,19.774276 28.9998867,19.5896174 28.9998867,19.3934246 L28.9998867,17.5752466 C29,17.5708148 29,17.566383 29,17.5619512 Z M11.2237455,15.7908186 C11.0963033,15.7464437 10.9564568,15.7464437 10.8272588,15.7908186 L8.27224183,16.6821804 L8.86079801,11.9627586 L11.3919125,11.0724196 L13.8956127,11.9458836 L13.8956127,16.7230326 L11.2237455,15.7908186 Z M4.26138239,15.7908186 C4.19675506,15.7686028 4.1304285,15.7570687 4.0640453,15.7570687 C3.99675584,15.7570687 3.92861677,15.7686028 3.86404608,15.7908186 L1.46212966,16.6333168 L2.62145677,11.9777586 L5.17737995,11.072306 L7.64652918,11.9271337 L7.04471901,16.7575779 L4.26138239,15.7908186 Z M3.98083973,6.52697473 L6.25706987,5.74351049 L8.32622066,6.47106576 L7.80053594,10.6986704 L5.37205491,9.85793354 C5.24285689,9.81310409 5.10301037,9.81355864 4.97381235,9.85924036 L2.97370688,10.5681593 L3.98083973,6.52697473 Z M13.895556,1.21227014 L13.895556,5.20817072 L11.9511853,4.52993353 C11.8237431,4.48510408 11.6838966,4.48510408 11.5556048,4.52947899 L9.70678734,5.16998898 L10.1997336,1.21227014 L13.895556,1.21227014 Z M18.7994168,1.21227014 L19.2932693,5.16998898 L17.4436022,4.52947899 C17.3161601,4.48510408 17.1763135,4.48510408 17.0488714,4.52993353 L15.1035944,5.20817072 L15.1035944,1.21227014 L18.7994168,1.21227014 Z M26.0263498,10.5681025 L24.025338,9.85918354 C23.8969896,9.813445 23.7553872,9.81304727 23.6261892,9.85787672 L21.1995207,10.6999204 L20.6729297,6.47100894 L22.7429868,5.74345367 L25.0192169,6.52691791 L26.0263498,10.5681025 Z M9.5395266,6.51049749 L11.7520357,5.74345367 L13.8954994,6.49140662 L13.8954994,10.6626477 L11.5900425,9.85833127 C11.4608445,9.81350182 11.320998,9.81350182 11.1918,9.85878581 L9.02709586,10.6196365 L9.5395266,6.51049749 Z M15.1035944,6.49146344 L17.2471147,5.74351049 L19.4596238,6.51055431 L19.9719979,10.6182728 L17.8072938,9.85878581 C17.6789454,9.81350182 17.5382492,9.81350182 17.4099008,9.85833127 L15.1035377,10.6626477 L15.1035377,6.49146344 L15.1035944,6.49146344 Z M15.1035944,11.9458268 L17.6072946,11.0723628 L20.1392586,11.9609404 L20.7269086,16.6821804 L18.1727979,15.7908186 C18.0435999,15.7464437 17.9037533,15.7464437 17.7754049,15.7908186 L15.1035377,16.7229757 L15.1035377,11.9458268 L15.1035944,11.9458268 Z M21.9544314,16.7567257 L21.3535275,11.9289519 L23.8226767,11.0723628 L26.3776936,11.9778154 L27.537927,16.635135 L25.1200378,15.7908754 C24.9916894,15.7465005 24.8518995,15.7465005 24.7235511,15.7908754 L21.9544314,16.7567257 Z M24.6705352,5.12555726 L22.9377184,4.52896762 C22.8085204,4.48459272 22.6695801,4.48504726 22.5412317,4.53027444 L20.5198292,5.2405002 L20.0171407,1.21221333 L23.6952345,1.21221333 L24.6705352,5.12555726 Z M5.3048221,1.21227014 L8.98200966,1.21227014 L8.48022742,5.24055702 L6.45882495,4.53033126 C6.33047655,4.48504726 6.19068666,4.48459272 6.06233826,4.52902444 L4.32952146,5.12561408 L5.3048221,1.21227014 Z M25.1200945,17.6089966 C24.991746,17.5646217 24.8519562,17.5646217 24.7236078,17.6089966 L21.4473249,18.751551 L18.1727979,17.6089966 C18.0435999,17.5646217 17.9037533,17.5646217 17.7754049,17.6089966 L14.5000283,18.751551 L11.2237455,17.6089966 C11.0963033,17.5646217 10.9564568,17.5646217 10.8272588,17.6089966 L7.55097588,18.75246 L4.26138239,17.6089966 C4.19675506,17.5867807 4.1304285,17.5752466 4.0640453,17.5752466 C3.99675584,17.5752466 3.92861677,17.5867807 3.86404608,17.6089966 L1.20815161,18.5403014 L1.20815161,18.0058707 L4.0640453,17.0053615 L7.35448841,18.1479159 L7.35448841,18.148825 C7.36156852,18.1505863 7.36689277,18.1523477 7.37306664,18.1541659 C7.38456475,18.1576886 7.39696912,18.1612681 7.40937349,18.1639386 C7.41645361,18.1656999 7.42353373,18.1674613 7.43061385,18.1683704 C7.44211197,18.1710408 7.45451634,18.1737113 7.46601445,18.1754726 C7.46952619,18.1754726 7.47309457,18.1763817 7.47666295,18.177234 C7.48283681,18.1781431 7.48906732,18.1781431 7.49433493,18.1789954 C7.49875292,18.1789954 7.5023213,18.1789954 7.5067393,18.1799044 C7.52180579,18.1808135 7.53681565,18.1816658 7.55273175,18.1816658 C7.562474,18.1816658 7.57221624,18.1807567 7.5828081,18.1799044 C7.58988822,18.1799044 7.59696834,18.1799044 7.60404846,18.1789954 C7.61469696,18.1780863 7.62528882,18.1763249 7.63678693,18.1754726 C7.6429608,18.1745635 7.6491913,18.1737113 7.65536517,18.1728022 C7.66601367,18.1710408 7.67660553,18.1683704 7.68719739,18.1656999 C7.69427751,18.1639386 7.70045137,18.1630295 7.70668188,18.1612681 C7.71733037,18.1585977 7.72616636,18.155075 7.73675822,18.1524045 C7.74117622,18.1506431 7.74559421,18.1497341 7.75091846,18.1479727 L11.0254455,17.0054183 L14.3017283,18.1479727 C14.3034842,18.1488818 14.3070526,18.1497341 14.3097147,18.1506431 C14.3177011,18.1533136 14.3265371,18.155984 14.3353731,18.1586545 C14.3451153,18.1613249 14.3548575,18.1630863 14.3636935,18.1657567 C14.3725295,18.1675181 14.3805159,18.1692795 14.3885023,18.1710976 C14.4000004,18.172859 14.4114985,18.1746204 14.422147,18.1764385 C14.4292271,18.1773476 14.4363072,18.1781999 14.4433874,18.179109 C14.4628719,18.1808704 14.4805438,18.1817794 14.5000283,18.1817794 C14.5186066,18.1817794 14.5371848,18.1808704 14.555763,18.179109 C14.5637494,18.1781999 14.5699233,18.1773476 14.5770034,18.1764385 C14.5885015,18.1746772 14.59915,18.1729158 14.6106481,18.1710976 C14.6186345,18.1693363 14.6274705,18.1675749 14.6363065,18.1657567 C14.6451425,18.1630863 14.6539784,18.1613249 14.6637207,18.1586545 C14.6725567,18.155984 14.6813927,18.1533136 14.6902853,18.1506431 C14.6929474,18.1497341 14.6956095,18.1488818 14.6982717,18.1479727 L17.9737049,17.0054183 L21.2490815,18.1479727 C21.2544058,18.1497341 21.2579175,18.1506431 21.2632418,18.1524045 C21.272984,18.155075 21.2827263,18.1585977 21.2933181,18.1612681 C21.299492,18.1630295 21.3057225,18.1639386 21.3128026,18.1656999 C21.3234511,18.1683704 21.334043,18.1710408 21.3446348,18.1728022 C21.3508087,18.1737113 21.3570392,18.1745635 21.3641193,18.1754726 C21.3747678,18.177234 21.3853597,18.1781431 21.3959515,18.1789954 C21.4047875,18.1799044 21.415436,18.1799044 21.424272,18.1807567 C21.4313521,18.1807567 21.4393385,18.1816658 21.4472682,18.1816658 C21.4623347,18.1816658 21.4773446,18.1807567 21.4932607,18.1799044 C21.4967724,18.1789954 21.5020967,18.1789954 21.5065147,18.1781431 C21.5118389,18.1781431 21.5171632,18.177234 21.5224308,18.177234 C21.5259425,18.1763249 21.5286047,18.1754726 21.532173,18.1754726 C21.5445774,18.1737113 21.5578314,18.1710408 21.5702358,18.1683704 C21.5764096,18.1674613 21.5834897,18.1656999 21.5905699,18.1639386 C21.602068,18.1612681 21.6144724,18.1577454 21.6259705,18.1541659 C21.6330506,18.1524045 21.6383748,18.1506431 21.645455,18.1479727 L24.9217378,17.0054183 L27.7909421,18.0068366 L27.7909421,18.5412673 L25.1200945,17.6089966 Z" id="roof-icon" fill="#FFFFFF" fill-rule="nonzero"></path>
    </g>
</svg>