<?xml version="1.0" encoding="UTF-8" standalone="no"?>
<svg
   xmlns:dc="http://purl.org/dc/elements/1.1/"
   xmlns:cc="http://creativecommons.org/ns#"
   xmlns:rdf="http://www.w3.org/1999/02/22-rdf-syntax-ns#"
   xmlns:svg="http://www.w3.org/2000/svg"
   xmlns="http://www.w3.org/2000/svg"
   xmlns:sodipodi="http://sodipodi.sourceforge.net/DTD/sodipodi-0.dtd"
   xmlns:inkscape="http://www.inkscape.org/namespaces/inkscape"
   width="27.409933"
   height="35"
   viewBox="0 0 27.409933 35"
   version="1.1"
   id="svg843"
   sodipodi:docname="screw-big.svg"
   inkscape:version="0.92.3 (2405546, 2018-03-11)">
  <metadata
     id="metadata849">
    <rdf:RDF>
      <cc:Work
         rdf:about="">
        <dc:format>image/svg+xml</dc:format>
        <dc:type
           rdf:resource="http://purl.org/dc/dcmitype/StillImage" />
        <dc:title>screw</dc:title>
      </cc:Work>
    </rdf:RDF>
  </metadata>
  <defs
     id="defs847" />
  <sodipodi:namedview
     pagecolor="#ffffff"
     bordercolor="#666666"
     borderopacity="1"
     objecttolerance="10"
     gridtolerance="10"
     guidetolerance="10"
     inkscape:pageopacity="0"
     inkscape:pageshadow="2"
     inkscape:window-width="1920"
     inkscape:window-height="996"
     id="namedview845"
     showgrid="false"
     inkscape:zoom="7.2310711"
     inkscape:cx="19.582489"
     inkscape:cy="6.2752401"
     inkscape:window-x="-8"
     inkscape:window-y="-8"
     inkscape:window-maximized="1"
     inkscape:current-layer="svg843" />
  <!-- Generator: Sketch 52.5 (67469) - http://www.bohemiancoding.com/sketch -->
  <title
     id="title833">screw</title>
  <desc
     id="desc835">Created with Sketch.</desc>
  <g
     id="Symbols"
     transform="matrix(1.1735552,0,0,1.1735552,-0.73816774,-0.03451509)"
     style="fill:none;fill-rule:evenodd;stroke:none;stroke-width:1">
    <g
       id="catalog"
       transform="translate(-16,-694)"
       style="fill:#1d509f;fill-rule:nonzero">
      <g
         id="screw"
         transform="translate(15,694)">
        <path
           d="m 24.4861,0.14832281 h -7.210102 c -0.468547,0.005744 -0.848896,0.40210628 -0.859921,0.89037819 v 1.1661082 c 0.0055,0.2412637 0.104734,0.4710388 0.275616,0.6376256 l 1.984432,1.9358545 V 8.3800126 L 18.3068,8.6844645 c -0.237029,0.1953088 -0.275616,0.5572044 -0.0882,0.8042126 0.104734,0.137865 0.264591,0.2182862 0.435473,0.2125418 0.0055,0 0.01654,0 0.01654,0 v 1.6601241 l -0.369324,0.304452 c -0.23703,0.195309 -0.275616,0.557205 -0.0882,0.804213 0.104734,0.137865 0.264591,0.218286 0.435472,0.212542 0.0055,0 0.02205,0 0.02205,0 v 1.660124 l -0.369324,0.304452 c -0.23703,0.195309 -0.275616,0.557204 -0.0882,0.804213 0.104734,0.137865 0.264591,0.218286 0.435472,0.212541 0.0055,0 0.02205,0 0.02205,0 v 1.660125 l -0.369324,0.304452 c -0.23703,0.195309 -0.275616,0.557204 -0.0882,0.804212 0.104734,0.137865 0.264591,0.218287 0.435472,0.212542 0.0055,0 0.01654,0 0.01654,0 v 0.683581 l 2.204924,4.819531 2.204925,-4.819531 v -4.239349 l 0.369325,-0.304452 C 23.6813,14.583938 23.714374,14.222042 23.521441,13.975034 23.4112,13.837169 23.24583,13.756748 23.074949,13.762492 v -1.660124 l 0.369325,-0.304452 c 0.237029,-0.201053 0.270103,-0.562949 0.07717,-0.809957 C 23.4112,10.850094 23.24583,10.769673 23.074949,10.775417 V 9.1152927 L 23.444274,8.8108408 C 23.681303,8.6097876 23.714377,8.247892 23.521446,8.0008838 23.4112,7.8630188 23.24583,7.7825976 23.074949,7.788342 V 6.1282175 L 23.444274,5.8237656 C 23.681303,5.6227125 23.714377,5.2608168 23.521446,5.0138087 23.4112,4.8759437 23.24583,4.7955224 23.074949,4.8012668 V 4.7725449 L 25.059381,2.8366904 C 25.230262,2.6701036 25.329484,2.4460729 25.334996,2.2048092 V 1.038701 c 0,-0.48827191 -0.380349,-0.88463381 -0.848896,-0.89037819 z M 21.983511,19.093273 20.881049,21.511655 19.778587,19.093273 v -1.200575 l 2.204924,-1.866922 z m 0,-4.549546 -2.204924,1.866922 v -1.51077 l 2.204924,-1.866922 z m 0,-2.987075 -2.204924,1.866922 v -1.510771 l 2.204924,-1.866921 z m 0,-2.987075 -2.204924,1.866922 V 8.9257283 l 2.204924,-1.866922 z m 2.260048,-6.4853997 -2.260048,2.1943514 v 1.3039731 l -2.204924,1.866922 V 4.2785287 L 17.518539,2.0841773 V 1.2971979 h 6.72502 z"
           id="Shape"
           transform="rotate(-2,20.875537,12.148323)"
           inkscape:connector-curvature="0" />
        <path
           d="m 20.100168,10.536148 c -0.159395,-0.02271 -0.31879,0.04542 -0.455413,0.158967 l -0.888056,0.908381 -0.34156,-0.340643 0.888056,-0.885672 c 0.113853,-0.113548 0.182165,-0.272515 0.159394,-0.4541909 -0.02277,-0.1589668 -0.09108,-0.3179335 -0.227706,-0.4087717 -2.277066,-1.6577965 -5.373875,-1.4079915 -7.354922,0.5677386 -0.113853,0.113548 -0.159394,0.249805 -0.159394,0.408772 0,0.158966 0.06831,0.295224 0.159394,0.408771 l 2.07213,2.066569 -1.275157,1.271734 c -0.136624,-0.136257 -0.36433,-0.181676 -0.546495,-0.113548 -0.296019,0.09084 -0.455413,0.431481 -0.364331,0.726705 l 0.06831,0.227096 -1.434551,1.430701 C 10.263245,16.3725 10.035538,16.32708 9.8533731,16.395209 9.5573546,16.486047 9.39796,16.82669 9.4890426,17.121914 l 0.068312,0.227096 -1.4345512,1.430701 C 7.9861794,18.643454 7.7584729,18.598034 7.5763076,18.666163 7.2802891,18.757001 7.1208945,19.097644 7.2119772,19.392868 l 0.068312,0.227096 -1.4345512,1.430701 C 5.709114,20.914408 5.4814074,20.868989 5.2992422,20.937117 5.0032237,21.027955 4.8438291,21.368598 4.9349117,21.663822 l 0.068312,0.227096 -1.4345513,1.430701 C 3.4320485,23.185362 3.204342,23.139943 3.0221767,23.208071 2.7261582,23.298909 2.5667636,23.639552 2.6578462,23.934777 l 0.068312,0.227095 -0.8880555,0.885672 c -0.068312,0.06813 -0.136624,0.181676 -0.1593946,0.295224 l -0.5692664,2.838693 c -0.045541,0.181676 0.022771,0.386062 0.1593946,0.522319 0.1138533,0.09084 0.2504772,0.158967 0.4098718,0.158967 0.045541,0 0.068312,0 0.1138533,0 l 2.3453774,-0.476901 0.022771,0.09084 c 0.068312,0.227095 0.2960186,0.386062 0.5464958,0.386062 0.068312,0 0.1138532,0 0.1821652,-0.02271 0.2960185,-0.09084 0.4554131,-0.431481 0.3643305,-0.726705 l -0.068312,-0.227095 1.4345512,-1.430702 c 0.1138533,0.09084 0.2277066,0.136258 0.3871012,0.136258 0.068312,0 0.1138532,0 0.1821652,-0.02271 0.2960185,-0.09084 0.4554131,-0.431481 0.3643305,-0.726705 L 7.485225,25.615282 8.9197763,24.184581 c 0.1138532,0.09084 0.2277065,0.136258 0.3871011,0.136258 0.068312,0 0.1138533,0 0.1821652,-0.02271 0.2960185,-0.09084 0.4554131,-0.431481 0.3643305,-0.726705 l -0.068312,-0.227096 1.4345509,-1.430701 c 0.113854,0.09084 0.227707,0.136258 0.387102,0.136258 0.06831,0 0.113853,0 0.182165,-0.02271 0.296018,-0.09084 0.455413,-0.431481 0.36433,-0.726705 l -0.06831,-0.227096 1.434551,-1.430701 c 0.113854,0.09084 0.227707,0.136258 0.387102,0.136258 0.06831,0 0.113853,0 0.182165,-0.02271 0.296018,-0.09084 0.455413,-0.431481 0.36433,-0.726705 l -0.06831,-0.227096 2.664167,-2.770564 2.072129,2.066569 c 0.113854,0.113547 0.250478,0.158966 0.409872,0.158966 0.159395,0 0.296019,-0.06813 0.409872,-0.158966 1.981047,-1.97573 2.231524,-5.064228 0.569267,-7.335182 -0.09108,-0.136257 -0.250478,-0.204386 -0.409872,-0.227095 z M 2.407369,27.568303 2.7716995,25.72883 3.13603,25.365478 l 0.6375783,1.93031 z m 2.3681481,-0.885672 -0.7286609,-2.202826 1.3662392,-1.362572 0.728661,2.202825 z m 2.2770655,-2.270954 -0.728661,-2.202825 1.3662393,-1.362573 0.728661,2.202825 z M 9.329648,22.140723 8.6009871,19.937897 9.9672264,18.575325 10.695887,20.77815 Z m 2.277066,-2.270954 -0.728661,-2.202826 1.366239,-1.362572 0.728661,2.202825 z m 2.277065,-2.270954 -0.728661,-2.202826 1.616717,-1.612377 1.480092,1.47612 z m 5.624352,-0.703996 -6.398554,-6.381381 c 1.41178,-1.0900578 3.301745,-1.2717341 4.89569,-0.431481 l -0.796973,0.794834 c -0.227706,0.227095 -0.227706,0.590448 0,0.794834 l 1.138533,1.135477 c 0.227707,0.227095 0.592037,0.227095 0.796973,0 l 0.796973,-0.794834 c 0.842514,1.566958 0.660349,3.47456 -0.432642,4.882551 z"
           id="path838"
           transform="rotate(-84,11.352148,18.640525)"
           inkscape:connector-curvature="0" />
      </g>
    </g>
  </g>
</svg>
