<?xml version="1.0" encoding="UTF-8"?>
<svg width="24px" height="30px" viewBox="0 0 24 30" version="1.1" xmlns="http://www.w3.org/2000/svg" xmlns:xlink="http://www.w3.org/1999/xlink">
    <!-- Generator: Sketch 52.5 (67469) - http://www.bohemiancoding.com/sketch -->
    <title>screw</title>
    <desc>Created with Sketch.</desc>
    <g id="Symbols" stroke="none" stroke-width="1" fill="none" fill-rule="evenodd">
        <g id="catalog" transform="translate(-16.000000, -694.000000)" fill="#1D509F" fill-rule="nonzero">
            <g id="screw" transform="translate(15.000000, 694.000000)">
                <path d="M24.4861004,0.148322815 L17.2759979,0.148322815 C16.8074514,0.15406719 16.427102,0.550429086 16.4160774,1.03870099 L16.4160774,2.20480917 C16.4215897,2.44607293 16.5208113,2.67584795 16.6916929,2.84243483 L18.6761248,4.77828931 L18.6761248,8.38001262 L18.3068,8.68446451 C18.0697706,8.87977327 18.0311845,9.24166891 18.218603,9.48867705 C18.3233369,9.62654206 18.4831939,9.70696331 18.6540756,9.70121894 C18.6595879,9.70121894 18.6706125,9.70121894 18.6706125,9.70121894 L18.6706125,11.3613434 L18.3012877,11.6657953 C18.0642583,11.861104 18.0256721,12.2229997 18.2130907,12.4700078 C18.3178246,12.6078728 18.4776816,12.6882941 18.6485633,12.6825497 C18.6540756,12.6825497 18.6706125,12.6825497 18.6706125,12.6825497 L18.6706125,14.3426742 L18.3012877,14.6471261 C18.0642583,14.8424348 18.0256721,15.2043305 18.2130907,15.4513386 C18.3178246,15.5892036 18.4776816,15.6696249 18.6485633,15.6638805 C18.6540756,15.6638805 18.6706125,15.6638805 18.6706125,15.6638805 L18.6706125,17.324005 L18.3012877,17.6284569 C18.0642583,17.8237656 18.0256721,18.1856613 18.2130907,18.4326694 C18.3178246,18.5705344 18.4776816,18.6509557 18.6485633,18.6452113 C18.6540756,18.6452113 18.6651002,18.6452113 18.6651002,18.6452113 L18.6651002,19.3287919 L20.8700245,24.1483228 L23.0749489,19.3287919 L23.0749489,15.089443 L23.4442737,14.7849911 C23.681303,14.5839379 23.7143769,14.2220423 23.521446,13.9750342 C23.4111998,13.8371692 23.2458305,13.7567479 23.0749489,13.7624923 L23.0749489,12.1023678 L23.4442737,11.7979159 C23.681303,11.5968628 23.7143769,11.2349671 23.521446,10.987959 C23.4111998,10.850094 23.2458305,10.7696727 23.0749489,10.7754171 L23.0749489,9.11529266 L23.4442737,8.81084077 C23.681303,8.60978763 23.7143769,8.24789199 23.521446,8.00088385 C23.4111998,7.86301884 23.2458305,7.78259759 23.0749489,7.78834196 L23.0749489,6.1282175 L23.4442737,5.82376561 C23.681303,5.62271248 23.7143769,5.26081683 23.521446,5.01380869 C23.4111998,4.87594369 23.2458305,4.79552243 23.0749489,4.80126681 L23.0749489,4.77254493 L25.0593808,2.83669045 C25.2302624,2.67010357 25.329484,2.44607293 25.3349963,2.20480917 L25.3349963,1.03870099 C25.3349963,0.550429086 24.9546469,0.15406719 24.4861004,0.148322815 Z M21.9835113,19.0932726 L20.8810491,21.5116546 L19.778587,19.0932726 L19.778587,17.8926981 L21.9835113,16.0257761 L21.9835113,19.0932726 Z M21.9835113,14.5437273 L19.778587,16.4106493 L19.778587,14.8998786 L21.9835113,13.0329566 L21.9835113,14.5437273 Z M21.9835113,11.5566522 L19.778587,13.4235741 L19.778587,11.9128034 L21.9835113,10.0458815 L21.9835113,11.5566522 Z M21.9835113,8.569577 L19.778587,10.436499 L19.778587,8.92572827 L21.9835113,7.0588063 L21.9835113,8.569577 Z M24.2435588,2.08417729 L21.9835113,4.27852866 L21.9835113,5.58250185 L19.778587,7.44942382 L19.778587,4.27852866 L17.5185395,2.08417729 L17.5185395,1.29719787 L24.2435588,1.29719787 L24.2435588,2.08417729 Z" id="Shape" transform="translate(20.875537, 12.148323) rotate(-2.000000) translate(-20.875537, -12.148323) "></path>
                <path d="M20.1001677,10.5361477 C19.9407731,10.5134382 19.7813785,10.5815668 19.6447546,10.6951145 L18.7566991,11.6034961 L18.4151392,11.262853 L19.3031948,10.3771809 C19.417048,10.2636332 19.48536,10.1046664 19.4625893,9.92299011 C19.4398187,9.76402333 19.3715067,9.60505655 19.2348828,9.51421838 C16.9578173,7.85642194 13.8610083,8.10622688 11.8799614,10.0819569 C11.7661081,10.1955046 11.7205668,10.3317618 11.7205668,10.4907286 C11.7205668,10.6496954 11.7888787,10.7859526 11.8799614,10.8995003 L13.9520909,12.9660685 L12.6769343,14.2378028 C12.5403103,14.1015455 12.3126038,14.0561265 12.1304386,14.1242551 C11.8344201,14.2150932 11.6750255,14.5557364 11.7661081,14.8509604 L11.8344201,15.0780558 L10.3998688,16.5087568 C10.2632449,16.3724996 10.0355383,16.3270805 9.8533731,16.3952091 C9.55735459,16.4860473 9.39796001,16.8266904 9.48904263,17.1219144 L9.55735459,17.3490098 L8.12280335,18.7797109 C7.98617942,18.6434536 7.75847288,18.5980345 7.57630764,18.6661632 C7.28028913,18.7570013 7.12089455,19.0976444 7.21197717,19.3928685 L7.28028913,19.6199639 L5.84573789,21.0506649 C5.70911396,20.9144077 5.48140742,20.8689886 5.29924218,20.9371172 C5.00322367,21.0279554 4.84382909,21.3685985 4.9349117,21.6638225 L5.00322367,21.8909179 L3.56867243,23.3216189 C3.4320485,23.1853617 3.20434195,23.1399426 3.02217672,23.2080712 C2.72615821,23.2989094 2.56676363,23.6395525 2.65784624,23.9347765 L2.72615821,24.1618719 L1.83810268,25.047544 C1.76979071,25.1156726 1.70147875,25.2292203 1.6787081,25.342768 L1.10944173,28.1814606 C1.06390042,28.3631369 1.13221239,28.5675228 1.26883631,28.70378 C1.38268959,28.7946182 1.51931351,28.8627468 1.6787081,28.8627468 C1.7242494,28.8627468 1.74702006,28.8627468 1.79256137,28.8627468 L4.13793879,28.3858465 L4.16070945,28.4766846 C4.22902141,28.70378 4.45672796,28.8627468 4.70720516,28.8627468 C4.77551712,28.8627468 4.82105843,28.8627468 4.8893704,28.8400373 C5.18538891,28.7491991 5.34478349,28.408556 5.25370087,28.113332 L5.18538891,27.8862366 L6.61994015,26.4555355 C6.73379342,26.5463737 6.84764669,26.5917928 7.00704127,26.5917928 C7.07535324,26.5917928 7.12089455,26.5917928 7.18920651,26.5690832 C7.48522502,26.4782451 7.6446196,26.137602 7.55353698,25.8423779 L7.48522502,25.6152825 L8.91977626,24.1845815 C9.03362953,24.2754196 9.14748281,24.3208387 9.30687739,24.3208387 C9.37518935,24.3208387 9.42073066,24.3208387 9.48904263,24.2981292 C9.78506114,24.207291 9.94445572,23.8666479 9.8533731,23.5714239 L9.78506114,23.3443285 L11.2196124,21.9136274 C11.3334656,22.0044656 11.4473189,22.0498847 11.6067135,22.0498847 C11.6750255,22.0498847 11.7205668,22.0498847 11.7888787,22.0271751 C12.0848973,21.936337 12.2442918,21.5956939 12.1532092,21.3004698 L12.0848973,21.0733744 L13.5194485,19.6426734 C13.6333018,19.7335116 13.747155,19.7789306 13.9065496,19.7789306 C13.9748616,19.7789306 14.0204029,19.7789306 14.0887149,19.7562211 C14.3847334,19.6653829 14.5441279,19.3247398 14.4530453,19.0295158 L14.3847334,18.8024204 L17.0489,16.0318565 L19.1210295,18.0984247 C19.2348828,18.2119724 19.3715067,18.2573914 19.5309013,18.2573914 C19.6902959,18.2573914 19.8269198,18.1892628 19.9407731,18.0984247 C21.92182,16.1226946 22.1722972,13.0341971 20.5100395,10.7632431 C20.4189568,10.6269859 20.2595623,10.5588572 20.1001677,10.5361477 Z M2.40736904,27.568303 L2.77169952,25.7288302 L3.13602999,25.3654776 L3.77360832,27.2957885 L2.40736904,27.568303 Z M4.77551712,26.6826309 L4.04685617,24.4798055 L5.41309545,23.1172331 L6.1417564,25.3200585 L4.77551712,26.6826309 Z M7.05258258,24.4116769 L6.32392164,22.2088515 L7.69016091,20.846279 L8.41882186,23.0491045 L7.05258258,24.4116769 Z M9.32964804,22.1407228 L8.6009871,19.9378974 L9.96722637,18.575325 L10.6958873,20.7781504 L9.32964804,22.1407228 Z M11.6067135,19.8697688 L10.8780526,17.6669434 L12.2442918,16.304371 L12.9729528,18.5071964 L11.6067135,19.8697688 Z M13.883779,17.5988148 L13.155118,15.3959893 L14.7718345,13.783612 L16.251927,15.2597321 L13.883779,17.5988148 Z M19.5081307,16.894819 L13.1095767,10.5134382 C14.5213573,9.42338022 16.4113216,9.2417039 18.0052674,10.0819569 L17.2082945,10.8767908 C16.980588,11.1038862 16.980588,11.4672389 17.2082945,11.6716247 L18.3468273,12.8071017 C18.5745338,13.0341971 18.9388643,13.0341971 19.1438002,12.8071017 L19.9407731,12.0122678 C20.7832873,13.5792261 20.6011221,15.4868275 19.5081307,16.894819 Z" id="Shape" transform="translate(11.352148, 18.640525) rotate(-84.000000) translate(-11.352148, -18.640525) "></path>
            </g>
        </g>
    </g>
</svg>