<svg xmlns="http://www.w3.org/2000/svg" width="28" height="19" viewBox="0 0 28 19">
    <g fill="none" fill-rule="evenodd" stroke="#1D509F" stroke-linecap="round" stroke-linejoin="round" stroke-width="1.1">
        <path d="M.784 12.025c.672 3.487 3.808 6.075 7.504 6.075 3.36 0 6.272-2.25 7.28-5.288l11.424-3.374M26.768 5.5L15.456 8.088C14.448 5.05 11.648 2.8 8.176 2.8 4.48 2.8 1.456 5.388.784 8.763M26.88 9.55c-.56 1.8-1.792 3.262-3.584 3.938M21.168 1.45c2.576 0 4.704 1.575 5.6 3.825"/>
        <path d="M3.024 9.1c.56-2.25 2.688-3.938 5.152-3.938a5.222 5.222 0 0 1 4.704 2.926M12.992 12.813c-.896 1.8-2.688 2.925-4.816 2.925-2.464 0-4.48-1.688-5.152-3.825M21.392 1.45L8.176 2.8M10.752 17.65l12.768-4.162M15.456 8.088h-2.464M15.456 12.813h-2.464M.784 9.1h2.24M.784 11.912h2.24"/>
    </g>
</svg>
