<?xml version="1.0" encoding="UTF-8" standalone="no"?>
<svg width="28px" height="19px" viewBox="0 0 28 19" version="1.1" xmlns="http://www.w3.org/2000/svg" xmlns:xlink="http://www.w3.org/1999/xlink">
    <!-- Generator: Sketch 50.2 (55047) - http://www.bohemiancoding.com/sketch -->
    <title>technical-iso</title>
    <desc>Created with Sketch.</desc>
    <defs></defs>
    <g id="Page-1" stroke="none" stroke-width="1" fill="none" fill-rule="evenodd" stroke-linecap="round" stroke-linejoin="round">
        <g id="technical-iso" transform="translate(0.000000, 1.000000)" stroke="#FFFFFF" stroke-width="1.1">
            <path d="M0.784,11.025 C1.456,14.5125 4.592,17.1 8.288,17.1 C11.648,17.1 14.56,14.85 15.568,11.8125 L26.992,8.4375" id="Shape"></path>
            <path d="M26.768,4.5 L15.456,7.0875 C14.448,4.05 11.648,1.8 8.176,1.8 C4.48,1.8 1.456,4.3875 0.784,7.7625" id="Shape"></path>
            <path d="M26.88,8.55 C26.32,10.35 25.088,11.8125 23.296,12.4875" id="Shape"></path>
            <path d="M21.168,0.45 C23.744,0.45 25.872,2.025 26.768,4.275" id="Shape"></path>
            <path d="M3.024,8.1 C3.584,5.85 5.712,4.1625 8.176,4.1625 C10.192,4.1625 11.984,5.2875 12.88,7.0875" id="Shape"></path>
            <path d="M12.992,11.8125 C12.096,13.6125 10.304,14.7375 8.176,14.7375 C5.712,14.7375 3.696,13.05 3.024,10.9125" id="Shape"></path>
            <path d="M21.392,0.45 L8.176,1.8" id="Shape"></path>
            <path d="M10.752,16.65 L23.52,12.4875" id="Shape"></path>
            <path d="M15.456,7.0875 L12.992,7.0875" id="Shape"></path>
            <path d="M15.456,11.8125 L12.992,11.8125" id="Shape"></path>
            <path d="M0.784,8.1 L3.024,8.1" id="Shape"></path>
            <path d="M0.784,10.9125 L3.024,10.9125" id="Shape"></path>
        </g>
    </g>
</svg>