<svg xmlns="http://www.w3.org/2000/svg" width="42" height="42" viewBox="0 0 42 42">
    <g fill="none" fill-rule="evenodd">
        <path fill="#55ACEE" d="M0 21C0 9.402 9.402 0 21 0s21 9.402 21 21-9.402 21-21 21S0 32.598 0 21z"/>
        <path fill="#FFF" d="M20.371 17.07l.044.726-.734-.09c-2.674-.34-5.01-1.497-6.992-3.44l-.97-.964-.25.712c-.528 1.587-.19 3.263.911 4.39.588.623.456.712-.558.34-.353-.118-.661-.207-.69-.162-.103.103.25 1.453.528 1.987.382.741 1.16 1.468 2.013 1.898l.72.341-.852.015c-.823 0-.852.015-.764.326.294.964 1.454 1.987 2.747 2.432l.91.312-.793.474a8.27 8.27 0 0 1-3.936 1.098c-.662.014-1.205.074-1.205.118 0 .149 1.792.979 2.835 1.305 3.129.964 6.845.549 9.636-1.097 1.983-1.172 3.966-3.5 4.891-5.754.5-1.201 1-3.396 1-4.449 0-.682.043-.771.866-1.587.485-.474.94-.993 1.028-1.142.147-.281.132-.281-.617-.03-1.248.446-1.425.386-.808-.281.456-.475 1-1.335 1-1.587 0-.044-.221.03-.47.163-.265.149-.853.371-1.293.505l-.794.252-.72-.49c-.396-.267-.954-.563-1.248-.652-.75-.208-1.895-.178-2.57.06-1.837.666-2.997 2.387-2.865 4.27z"/>
    </g>
</svg>
