<svg xmlns="http://www.w3.org/2000/svg" width="39" height="36" viewBox="0 0 39 36">
    <g fill="#2057AC" fill-rule="nonzero">
        <path d="M19.478 25.295c-1.09 0-2.002.92-2.002 2.018 0 1.098.913 2.018 2.002 2.018 1.05 0 2.002-.92 1.954-1.97a1.963 1.963 0 0 0-1.954-2.066z"/>
        <path d="M38.009 32.447c1.257-2.187 1.265-4.795.016-6.974l-12.54-21.89C24.242 1.378 22 .07 19.485.07c-2.515 0-4.757 1.316-5.998 3.503L.93 25.49a6.994 6.994 0 0 0 .024 7.014c1.25 2.164 3.484 3.463 5.982 3.463h25.05c2.506 0 4.757-1.315 6.022-3.519zm-2.723-1.582c-.697 1.21-1.93 1.93-3.307 1.93H6.929a3.727 3.727 0 0 1-3.267-1.89 3.846 3.846 0 0 1-.008-3.85L16.21 5.148a3.711 3.711 0 0 1 3.275-1.913c1.37 0 2.595.719 3.275 1.921l12.55 21.907c.672 1.179.664 2.6-.025 3.802z"/>
        <path d="M18.981 11.13c-.953.274-1.545 1.146-1.545 2.203.048.638.088 1.283.136 1.921l.408 7.24c.048.824.681 1.421 1.498 1.421s1.457-.638 1.498-1.469c0-.5 0-.96.048-1.469.088-1.558.184-3.116.272-4.674.048-1.008.136-2.017.184-3.026a2.51 2.51 0 0 0-.184-1.01 2.003 2.003 0 0 0-2.315-1.138z"/>
    </g>
</svg>
