<?xml version="1.0" encoding="UTF-8" standalone="no"?>
<svg width="27px" height="30px" viewBox="0 0 27 30" version="1.1" xmlns="http://www.w3.org/2000/svg" xmlns:xlink="http://www.w3.org/1999/xlink">
    <!-- Generator: Sketch 50.2 (55047) - http://www.bohemiancoding.com/sketch -->
    <title>wat</title>
    <desc>Created with Sketch.</desc>
    <defs></defs>
    <g id="Page-1" stroke="none" stroke-width="1" fill="none" fill-rule="evenodd" stroke-linecap="round" stroke-linejoin="round">
        <g id="wat" transform="translate(1.000000, 1.000000)" stroke="#FFFFFF" stroke-width="1.08">
            <path d="M2.36689655,3.35833333 C0.968275862,2.925 0,1.51666667 0,0 L18.182069,7.58333333 C18.182069,9.53333333 19.7958621,11.1583333 21.7324138,11.1583333 C23.6689655,11.1583333 25.2827586,9.53333333 25.2827586,7.58333333 L7.10068966,7.21644966e-16 C7.20827586,1.08333333 6.88551724,1.84166667 6.13241379,2.49166667" id="Shape"></path>
            <path d="M1.79724138,5.68333333 L20.6248276,13.4833333" id="Shape"></path>
            <polyline id="Shape" points="8.14482759 8.28333333 8.14482759 11.1 9.65103448 11.1 9.65103448 13.8083333 14.6 13.8083333 14.6 11.1"></polyline>
            <path d="M10.5117241,13.8083333 L10.5117241,18.6833333 C10.5117241,18.6833333 10.8344828,23.0166667 15.5682759,23.0166667 C19.2262069,23.125 19.3337931,26.375 19.2262069,28 L22.3462069,28" id="Shape"></path>
            <path d="M17.0744828,20.0916667 C17.2896552,20.0916667 17.5048276,20.0916667 17.72,20.0916667 C19.7641379,20.0916667 21.377931,21.9333333 21.9158621,23.45 C22.2386207,24.2083333 22.3462069,25.075 22.3462069,25.9416667 L22.3462069,27.8916667" id="Shape"></path>
            <path d="M14.062069,13.8083333 L14.062069,18.25 C14.062069,18.25 14.3848276,19.9833333 17.182069,20.0916667" id="Shape"></path>
        </g>
    </g>
</svg>