<svg xmlns="http://www.w3.org/2000/svg" width="32" height="33" viewBox="0 0 32 33">
    <g fill="none" fill-rule="evenodd" stroke="#1D509F" stroke-linecap="round" stroke-linejoin="round" stroke-width="1.296">
        <path d="M3.592 5.392C1.924 4.875.77 3.196.77 1.387l21.678 9.042c0 2.325 1.924 4.263 4.233 4.263 2.31 0 4.233-1.938 4.233-4.263L9.236 1.387c.128 1.292-.257 2.196-1.155 2.971M3.335 5.392l22.448 9.3"/>
        <path d="M10.903 8.492v3.358H12.7v3.23H18.6v-3.23"/>
        <path d="M13.726 15.08v5.812s.384 5.166 6.028 5.166c4.362.13 4.49 4.005 4.362 5.942h3.72M21.55 22.57h.77c2.437 0 4.361 2.197 5.003 4.005.385.904.513 1.938.513 2.97v2.326"/>
        <path d="M17.959 15.08v5.295s.384 2.067 3.72 2.196"/>
    </g>
</svg>
