<?xml version="1.0" encoding="UTF-8" standalone="no"?>
<svg
   xmlns:dc="http://purl.org/dc/elements/1.1/"
   xmlns:cc="http://creativecommons.org/ns#"
   xmlns:rdf="http://www.w3.org/1999/02/22-rdf-syntax-ns#"
   xmlns:svg="http://www.w3.org/2000/svg"
   xmlns="http://www.w3.org/2000/svg"
   xmlns:sodipodi="http://sodipodi.sourceforge.net/DTD/sodipodi-0.dtd"
   xmlns:inkscape="http://www.inkscape.org/namespaces/inkscape"
   width="117px"
   height="64px"
   viewBox="0 0 117 64"
   version="1.1"
   id="svg897"
   sodipodi:docname="5000-prod.svg"
   inkscape:version="0.92.3 (2405546, 2018-03-11)">
  <metadata
     id="metadata901">
    <rdf:RDF>
      <cc:Work
         rdf:about="">
        <dc:format>image/svg+xml</dc:format>
        <dc:type
           rdf:resource="http://purl.org/dc/dcmitype/StillImage" />
        <dc:title>5000-prod</dc:title>
      </cc:Work>
    </rdf:RDF>
  </metadata>
  <sodipodi:namedview
     pagecolor="#ffffff"
     bordercolor="#666666"
     borderopacity="1"
     objecttolerance="10"
     gridtolerance="10"
     guidetolerance="10"
     inkscape:pageopacity="0"
     inkscape:pageshadow="2"
     inkscape:window-width="1920"
     inkscape:window-height="996"
     id="namedview899"
     showgrid="false"
     inkscape:zoom="5.3632479"
     inkscape:cx="56.884702"
     inkscape:cy="8.1860094"
     inkscape:window-x="-8"
     inkscape:window-y="-8"
     inkscape:window-maximized="1"
     inkscape:current-layer="svg897" />
  <!-- Generator: Sketch 51.2 (57519) - http://www.bohemiancoding.com/sketch -->
  <title
     id="title859">5000-prod</title>
  <desc
     id="desc861">Created with Sketch.</desc>
  <defs
     id="defs863" />
  <g
     id="g946">
    <path
       style="fill:#2057ac;fill-rule:nonzero;stroke:none;stroke-width:1"
       inkscape:connector-curvature="0"
       id="Shape"
       d="M 27.847826,63.898305 H 3.9782609 C 1.7811281,63.898305 0,62.116581 0,59.918713 V 38.694223 C 0,36.496356 1.7811281,34.714632 3.9782609,34.714632 H 27.847826 c 2.197133,0 3.978261,1.781724 3.978261,3.979591 v 21.22449 c 0,2.197868 -1.781128,3.979592 -3.978261,3.979592 z M 3.9782609,37.367693 c -0.7323776,0 -1.326087,0.593908 -1.326087,1.32653 v 21.22449 c 0,0.732623 0.5937094,1.326531 1.326087,1.326531 H 27.847826 c 0.732378,0 1.326087,-0.593908 1.326087,-1.326531 v -21.22449 c 0,-0.732622 -0.593709,-1.32653 -1.326087,-1.32653 z" />
    <path
       style="fill:#2057ac;fill-rule:nonzero;stroke:none;stroke-width:1"
       inkscape:connector-curvature="0"
       id="path866"
       d="M 18.565217,47.979938 H 13.26087 c -1.464756,0 -2.652174,-1.187816 -2.652174,-2.653062 v -9.285714 c 0,-0.732622 0.593709,-1.32653 1.326087,-1.32653 0.732377,0 1.326087,0.593908 1.326087,1.32653 v 9.285714 h 5.304347 v -9.285714 c 0,-0.732622 0.59371,-1.32653 1.326087,-1.32653 0.732378,0 1.326087,0.593908 1.326087,1.32653 v 9.285714 c 0,1.465246 -1.187418,2.653062 -2.652174,2.653062 z" />
    <path
       style="fill:#2057ac;fill-rule:nonzero;stroke:none;stroke-width:1"
       inkscape:connector-curvature="0"
       id="path868"
       d="m 13.26087,55.939121 h -1.326087 c -0.732378,0 -1.326087,-0.593908 -1.326087,-1.32653 0,-0.732623 0.593709,-1.326531 1.326087,-1.326531 h 1.326087 c 0.732377,0 1.326086,0.593908 1.326086,1.326531 0,0.732622 -0.593709,1.32653 -1.326086,1.32653 z" />
    <path
       style="fill:#2057ac;fill-rule:nonzero;stroke:none;stroke-width:1"
       inkscape:connector-curvature="0"
       id="path870"
       d="m 19.891304,55.939121 h -1.326087 c -0.732377,0 -1.326087,-0.593908 -1.326087,-1.32653 0,-0.732623 0.59371,-1.326531 1.326087,-1.326531 h 1.326087 c 0.732378,0 1.326087,0.593908 1.326087,1.326531 0,0.732622 -0.593709,1.32653 -1.326087,1.32653 z" />
  </g>
  <g
     id="g940">
    <path
       style="fill:#2057ac;fill-rule:nonzero;stroke:none;stroke-width:1"
       inkscape:connector-curvature="0"
       id="path872"
       d="M 57.021739,63.898305 H 33.152174 c -2.197133,0 -3.978261,-1.781724 -3.978261,-3.979592 v -21.22449 c 0,-2.197867 1.781128,-3.979591 3.978261,-3.979591 H 57.021739 C 59.218872,34.714632 61,36.496356 61,38.694223 v 21.22449 c 0,2.197868 -1.781128,3.979592 -3.978261,3.979592 z M 33.152174,37.367693 c -0.732378,0 -1.326087,0.593908 -1.326087,1.32653 v 21.22449 c 0,0.732623 0.593709,1.326531 1.326087,1.326531 h 23.869565 c 0.732378,0 1.326087,-0.593908 1.326087,-1.326531 v -21.22449 c 0,-0.732622 -0.593709,-1.32653 -1.326087,-1.32653 z" />
    <path
       style="fill:#2057ac;fill-rule:nonzero;stroke:none;stroke-width:1"
       inkscape:connector-curvature="0"
       id="path874"
       d="m 47.73913,47.979938 h -5.304347 c -1.464756,0 -2.652174,-1.187816 -2.652174,-2.653062 v -9.285714 c 0,-0.732622 0.593709,-1.32653 1.326087,-1.32653 0.732377,0 1.326087,0.593908 1.326087,1.32653 v 9.285714 h 5.304347 v -9.285714 c 0,-0.732622 0.59371,-1.32653 1.326087,-1.32653 0.732378,0 1.326087,0.593908 1.326087,1.32653 v 9.285714 c 0,1.465246 -1.187418,2.653062 -2.652174,2.653062 z" />
    <path
       style="fill:#2057ac;fill-rule:nonzero;stroke:none;stroke-width:1"
       inkscape:connector-curvature="0"
       id="path876"
       d="m 42.434783,55.939121 h -1.326087 c -0.732378,0 -1.326087,-0.593908 -1.326087,-1.32653 0,-0.732623 0.593709,-1.326531 1.326087,-1.326531 h 1.326087 c 0.732377,0 1.326087,0.593908 1.326087,1.326531 0,0.732622 -0.59371,1.32653 -1.326087,1.32653 z" />
    <path
       style="fill:#2057ac;fill-rule:nonzero;stroke:none;stroke-width:1"
       inkscape:connector-curvature="0"
       id="path878"
       d="M 49.065217,55.939121 H 47.73913 c -0.732377,0 -1.326087,-0.593908 -1.326087,-1.32653 0,-0.732623 0.59371,-1.326531 1.326087,-1.326531 h 1.326087 c 0.732378,0 1.326087,0.593908 1.326087,1.326531 0,0.732622 -0.593709,1.32653 -1.326087,1.32653 z" />
  </g>
  <g
     id="g957">
    <path
       style="fill:#2057ac;fill-rule:nonzero;stroke:none;stroke-width:1"
       inkscape:connector-curvature="0"
       id="path880"
       d="m 35.804348,37.367693 c -0.732378,0 -1.326087,-0.593908 -1.326087,-1.326531 0,-0.732622 0.593709,-1.32653 1.326087,-1.32653 0.732377,0 1.326087,-0.593908 1.326087,-1.326531 v -21.22449 c 0,-0.732622 -0.59371,-1.32653 -1.326087,-1.32653 H 11.934783 c -0.732378,0 -1.326087,0.593908 -1.326087,1.32653 v 21.22449 c 0,0.732623 0.593709,1.326531 1.326087,1.326531 0.732377,0 1.326087,0.593908 1.326087,1.32653 0,0.732623 -0.59371,1.326531 -1.326087,1.326531 -2.1971332,0 -3.9782613,-1.781724 -3.9782613,-3.979592 v -21.22449 c 0,-2.1978677 1.7811281,-3.9795916 3.9782613,-3.9795916 h 23.869565 c 2.197133,0 3.978261,1.7817239 3.978261,3.9795916 v 21.22449 c 0,2.197868 -1.781128,3.979592 -3.978261,3.979592 z" />
    <path
       style="fill:#2057ac;fill-rule:nonzero;stroke:none;stroke-width:1"
       inkscape:connector-curvature="0"
       id="path882"
       d="m 26.521739,21.449325 h -5.304348 c -1.464755,0 -2.652174,-1.187816 -2.652174,-2.653061 V 9.51055 c 0,-0.7326226 0.59371,-1.3265306 1.326087,-1.3265306 0.732378,0 1.326087,0.593908 1.326087,1.3265306 v 9.285714 h 5.304348 V 9.51055 c 0,-0.7326226 0.593709,-1.3265306 1.326087,-1.3265306 0.732378,0 1.326087,0.593908 1.326087,1.3265306 v 9.285714 c 0,1.465245 -1.187419,2.653061 -2.652174,2.653061 z" />
    <path
       style="fill:#2057ac;fill-rule:nonzero;stroke:none;stroke-width:1"
       inkscape:connector-curvature="0"
       id="path884"
       d="m 21.217391,29.408509 h -1.326087 c -0.732377,0 -1.326087,-0.593908 -1.326087,-1.32653 0,-0.732623 0.59371,-1.326531 1.326087,-1.326531 h 1.326087 c 0.732378,0 1.326087,0.593908 1.326087,1.326531 0,0.732622 -0.593709,1.32653 -1.326087,1.32653 z" />
    <path
       style="fill:#2057ac;fill-rule:nonzero;stroke:none;stroke-width:1"
       inkscape:connector-curvature="0"
       id="path886"
       d="m 27.847826,29.408509 h -1.326087 c -0.732378,0 -1.326087,-0.593908 -1.326087,-1.32653 0,-0.732623 0.593709,-1.326531 1.326087,-1.326531 h 1.326087 c 0.732378,0 1.326087,0.593908 1.326087,1.326531 0,0.732622 -0.593709,1.32653 -1.326087,1.32653 z" />
  </g>
  <path
     style="fill:#2057ac;fill-rule:evenodd;stroke:none;stroke-width:1"
     d="m 72.131579,20.758641 c 1.022524,0.8281 1.533778,1.95502 1.533778,3.380793 0,0.90731 -0.223223,1.728198 -0.669678,2.462687 -0.446454,0.734489 -1.116125,1.317751 -2.009033,1.749804 C 70.093737,28.783977 68.99202,29 67.681461,29 66.60133,29 65.557219,28.845183 64.549097,28.535546 63.540974,28.225908 62.691284,27.797463 62,27.250196 l 1.188138,-2.181854 c 0.561668,0.460856 1.23494,0.824495 2.019835,1.090927 0.784895,0.266433 1.594982,0.399647 2.430283,0.399647 0.993721,0 1.775004,-0.205222 2.343873,-0.615672 0.568869,-0.410449 0.853299,-0.97571 0.853299,-1.695797 0,-0.777694 -0.306032,-1.364557 -0.918107,-1.760605 -0.612074,-0.396048 -1.659785,-0.594069 -3.143165,-0.594069 h -3.650825 l 0.77769,-8.230558 h 8.878633 v 2.354674 h -6.502356 l -0.324038,3.499607 h 1.447368 c 2.131459,0 3.708427,0.414044 4.730951,1.242145 z m 6.221524,7.323252 c -0.950516,-0.612074 -1.699395,-1.504969 -2.246661,-2.678712 -0.547267,-1.173742 -0.820896,-2.56709 -0.820896,-4.180086 0,-1.612996 0.273629,-3.006344 0.820896,-4.180086 0.547266,-1.173743 1.296145,-2.066638 2.246661,-2.678712 0.950515,-0.612074 2.03063,-0.918107 3.240377,-0.918107 1.209747,0 2.293462,0.306033 3.251178,0.918107 0.957716,0.612074 1.710197,1.504969 2.257463,2.678712 0.547266,1.173742 0.820896,2.56709 0.820896,4.180086 0,1.612996 -0.27363,3.006344 -0.820896,4.180086 -0.547266,1.173743 -1.299747,2.066638 -2.257463,2.678712 C 83.886942,28.693967 82.803227,29 81.59348,29 80.383733,29 79.303618,28.693967 78.353103,28.081893 Z m 5.800275,-2.862333 c 0.626476,-0.892908 0.939709,-2.22505 0.939709,-3.996465 0,-1.771415 -0.313233,-3.103557 -0.939709,-3.996465 -0.626476,-0.892908 -1.479767,-1.339356 -2.559898,-1.339356 -1.065729,0 -1.911819,0.446448 -2.538295,1.339356 -0.626476,0.892908 -0.93971,2.22505 -0.93971,3.996465 0,1.771415 0.313234,3.103557 0.93971,3.996465 0.626476,0.892908 1.472566,1.339356 2.538295,1.339356 1.080131,0 1.933422,-0.446448 2.559898,-1.339356 z m 8.738217,2.862333 c -0.950516,-0.612074 -1.699395,-1.504969 -2.246662,-2.678712 -0.547266,-1.173742 -0.820895,-2.56709 -0.820895,-4.180086 0,-1.612996 0.273629,-3.006344 0.820895,-4.180086 0.547267,-1.173743 1.296146,-2.066638 2.246662,-2.678712 0.950515,-0.612074 2.03063,-0.918107 3.240377,-0.918107 1.209746,0 2.293462,0.306033 3.251178,0.918107 0.95772,0.612074 1.7102,1.504969 2.25746,2.678712 0.54727,1.173742 0.8209,2.56709 0.8209,4.180086 0,1.612996 -0.27363,3.006344 -0.8209,4.180086 -0.54726,1.173743 -1.29974,2.066638 -2.25746,2.678712 C 98.425434,28.693967 97.341718,29 96.131972,29 94.922225,29 93.84211,28.693967 92.891595,28.081893 Z M 98.69187,25.21956 c 0.626476,-0.892908 0.939709,-2.22505 0.939709,-3.996465 0,-1.771415 -0.313233,-3.103557 -0.939709,-3.996465 -0.626476,-0.892908 -1.479767,-1.339356 -2.559898,-1.339356 -1.06573,0 -1.91182,0.446448 -2.538296,1.339356 -0.626476,0.892908 -0.939709,2.22505 -0.939709,3.996465 0,1.771415 0.313233,3.103557 0.939709,3.996465 0.626476,0.892908 1.472566,1.339356 2.538296,1.339356 1.080131,0 1.933422,-0.446448 2.559898,-1.339356 z m 8.73822,2.862333 c -0.95052,-0.612074 -1.6994,-1.504969 -2.24666,-2.678712 -0.54727,-1.173742 -0.8209,-2.56709 -0.8209,-4.180086 0,-1.612996 0.27363,-3.006344 0.8209,-4.180086 0.54726,-1.173743 1.29614,-2.066638 2.24666,-2.678712 0.95051,-0.612074 2.03063,-0.918107 3.24037,-0.918107 1.20975,0 2.29347,0.306033 3.25118,0.918107 0.95772,0.612074 1.7102,1.504969 2.25746,2.678712 0.54727,1.173742 0.8209,2.56709 0.8209,4.180086 0,1.612996 -0.27363,3.006344 -0.8209,4.180086 -0.54726,1.173743 -1.29974,2.066638 -2.25746,2.678712 C 112.96393,28.693967 111.88021,29 110.67046,29 c -1.20974,0 -2.28986,-0.306033 -3.24037,-0.918107 z m 5.80027,-2.862333 c 0.62648,-0.892908 0.93971,-2.22505 0.93971,-3.996465 0,-1.771415 -0.31323,-3.103557 -0.93971,-3.996465 -0.62647,-0.892908 -1.47976,-1.339356 -2.5599,-1.339356 -1.06573,0 -1.91182,0.446448 -2.53829,1.339356 -0.62648,0.892908 -0.93971,2.22505 -0.93971,3.996465 0,1.771415 0.31323,3.103557 0.93971,3.996465 0.62647,0.892908 1.47256,1.339356 2.53829,1.339356 1.08014,0 1.93343,-0.446448 2.5599,-1.339356 z"
     id="5000"
     inkscape:connector-curvature="0" />
  <g
     id="g951">
    <path
       style="fill:#2057ac;fill-rule:nonzero;stroke:none;stroke-width:1"
       inkscape:connector-curvature="0"
       id="path888"
       d="m 53.043478,30.73504 c -0.732377,0 -1.326087,-0.593908 -1.326087,-1.326531 V 4.2044275 C 51.751658,3.8403247 51.620709,3.4800668 51.36066,3.2230156 51.100611,2.9659645 50.738938,2.8392779 50.375391,2.8778969 H 35.804348 c -0.363981,-0.034278 -0.724119,0.096715 -0.981084,0.3568504 -0.256965,0.2601358 -0.383609,0.6219305 -0.345003,0.9855986 V 9.51055 c 0,0.732623 -0.59371,1.326531 -1.326087,1.326531 -0.732378,0 -1.326087,-0.593908 -1.326087,-1.326531 V 4.2044275 C 31.794959,3.1397334 32.204092,2.1093156 32.957014,1.3561412 33.709937,0.60296686 34.74001,0.19369713 35.804348,0.2248357 h 14.586956 c 1.064338,-0.0311386 2.094412,0.37813116 2.847334,1.1313055 0.752922,0.7531744 1.162055,1.7835922 1.130927,2.8482863 V 29.408509 c 0,0.732623 -0.593709,1.326531 -1.326087,1.326531 z" />
    <path
       style="fill:#2057ac;fill-rule:nonzero;stroke:none;stroke-width:1"
       inkscape:connector-curvature="0"
       id="path891"
       d="m 47.73913,30.73504 h -3.97826 c -0.732378,0 -1.326087,-0.593908 -1.326087,-1.326531 0,-0.732623 0.593709,-1.32653 1.326087,-1.32653 h 3.97826 c 0.732378,0 1.326087,0.593907 1.326087,1.32653 0,0.732623 -0.593709,1.326531 -1.326087,1.326531 z" />
    <path
       style="fill:#2057ac;fill-rule:nonzero;stroke:none;stroke-width:1"
       inkscape:connector-curvature="0"
       id="path893"
       d="m 53.043478,17.469734 h -6.630435 c -0.707885,0.01498 -1.391213,-0.259723 -1.891875,-0.760553 -0.500663,-0.50083 -0.775276,-1.184386 -0.760298,-1.892509 v -3.979591 c -0.01498,-0.708123 0.259635,-1.3916791 0.760298,-1.8925092 0.500662,-0.5008302 1.18399,-0.7755345 1.891875,-0.7605524 h 6.630435 c 0.732378,0 1.326087,0.593908 1.326087,1.3265306 0,0.732623 -0.593709,1.326531 -1.326087,1.326531 h -6.630435 v 3.979591 h 6.630435 c 0.732378,0 1.326087,0.593908 1.326087,1.326531 0,0.732623 -0.593709,1.326531 -1.326087,1.326531 z" />
  </g>
</svg>
