<?xml version="1.0" encoding="UTF-8"?>
<svg width="117px" height="64px" viewBox="0 0 117 64" version="1.1" xmlns="http://www.w3.org/2000/svg" xmlns:xlink="http://www.w3.org/1999/xlink">
    <!-- Generator: Sketch 51.2 (57519) - http://www.bohemiancoding.com/sketch -->
    <title>5000-prod</title>
    <desc>Created with Sketch.</desc>
    <defs></defs>
    <g id="Page-1" stroke="none" stroke-width="1" fill="none" fill-rule="evenodd">
        <g id="5000-prod" fill="#2057AC">
            <path d="M27.8478261,63.8983051 L3.97826087,63.8983051 C1.78112806,63.8983051 2.94450454e-16,62.1165811 0,59.9187132 L0,38.6942235 C-2.94450454e-16,36.4963556 1.78112806,34.7146316 3.97826087,34.7146316 L27.8478261,34.7146316 C30.0449589,34.7146316 31.826087,36.4963556 31.826087,38.6942235 L31.826087,59.9187132 C31.826087,62.1165811 30.0449589,63.8983051 27.8478261,63.8983051 Z M3.97826087,37.3676928 C3.24588327,37.3676928 2.65217391,37.9616008 2.65217391,38.6942235 L2.65217391,59.9187132 C2.65217391,60.6513359 3.24588327,61.2452439 3.97826087,61.2452439 L27.8478261,61.2452439 C28.5802037,61.2452439 29.173913,60.6513359 29.173913,59.9187132 L29.173913,38.6942235 C29.173913,37.9616008 28.5802037,37.3676928 27.8478261,37.3676928 L3.97826087,37.3676928 Z" id="Shape" fill-rule="nonzero"></path>
            <path d="M18.5652174,47.9799377 L13.2608696,47.9799377 C11.7961144,47.9799377 10.6086957,46.7921218 10.6086957,45.3268765 L10.6086957,36.0411622 C10.6086957,35.3085396 11.202405,34.7146316 11.9347826,34.7146316 C12.6671602,34.7146316 13.2608696,35.3085396 13.2608696,36.0411622 L13.2608696,45.3268765 L18.5652174,45.3268765 L18.5652174,36.0411622 C18.5652174,35.3085396 19.1589267,34.7146316 19.8913043,34.7146316 C20.623682,34.7146316 21.2173913,35.3085396 21.2173913,36.0411622 L21.2173913,45.3268765 C21.2173913,46.7921218 20.0299726,47.9799377 18.5652174,47.9799377 Z" id="Shape" fill-rule="nonzero"></path>
            <path d="M13.2608696,55.9391214 L11.9347826,55.9391214 C11.202405,55.9391214 10.6086957,55.3452134 10.6086957,54.6125908 C10.6086957,53.8799682 11.202405,53.2860602 11.9347826,53.2860602 L13.2608696,53.2860602 C13.9932472,53.2860602 14.5869565,53.8799682 14.5869565,54.6125908 C14.5869565,55.3452134 13.9932472,55.9391214 13.2608696,55.9391214 Z" id="Shape" fill-rule="nonzero"></path>
            <path d="M19.8913043,55.9391214 L18.5652174,55.9391214 C17.8328398,55.9391214 17.2391304,55.3452134 17.2391304,54.6125908 C17.2391304,53.8799682 17.8328398,53.2860602 18.5652174,53.2860602 L19.8913043,53.2860602 C20.623682,53.2860602 21.2173913,53.8799682 21.2173913,54.6125908 C21.2173913,55.3452134 20.623682,55.9391214 19.8913043,55.9391214 Z" id="Shape" fill-rule="nonzero"></path>
            <path d="M57.0217391,63.8983051 L33.1521739,63.8983051 C30.9550411,63.8983051 29.173913,62.1165811 29.173913,59.9187132 L29.173913,38.6942235 C29.173913,36.4963556 30.9550411,34.7146316 33.1521739,34.7146316 L57.0217391,34.7146316 C59.2188719,34.7146316 61,36.4963556 61,38.6942235 L61,59.9187132 C61,62.1165811 59.2188719,63.8983051 57.0217391,63.8983051 Z M33.1521739,37.3676928 C32.4197963,37.3676928 31.826087,37.9616008 31.826087,38.6942235 L31.826087,59.9187132 C31.826087,60.6513359 32.4197963,61.2452439 33.1521739,61.2452439 L57.0217391,61.2452439 C57.7541167,61.2452439 58.3478261,60.6513359 58.3478261,59.9187132 L58.3478261,38.6942235 C58.3478261,37.9616008 57.7541167,37.3676928 57.0217391,37.3676928 L33.1521739,37.3676928 Z" id="Shape" fill-rule="nonzero"></path>
            <path d="M47.7391304,47.9799377 L42.4347826,47.9799377 C40.9700274,47.9799377 39.7826087,46.7921218 39.7826087,45.3268765 L39.7826087,36.0411622 C39.7826087,35.3085396 40.376318,34.7146316 41.1086957,34.7146316 C41.8410733,34.7146316 42.4347826,35.3085396 42.4347826,36.0411622 L42.4347826,45.3268765 L47.7391304,45.3268765 L47.7391304,36.0411622 C47.7391304,35.3085396 48.3328398,34.7146316 49.0652174,34.7146316 C49.797595,34.7146316 50.3913043,35.3085396 50.3913043,36.0411622 L50.3913043,45.3268765 C50.3913043,46.7921218 49.2038856,47.9799377 47.7391304,47.9799377 Z" id="Shape" fill-rule="nonzero"></path>
            <path d="M42.4347826,55.9391214 L41.1086957,55.9391214 C40.376318,55.9391214 39.7826087,55.3452134 39.7826087,54.6125908 C39.7826087,53.8799682 40.376318,53.2860602 41.1086957,53.2860602 L42.4347826,53.2860602 C43.1671602,53.2860602 43.7608696,53.8799682 43.7608696,54.6125908 C43.7608696,55.3452134 43.1671602,55.9391214 42.4347826,55.9391214 Z" id="Shape" fill-rule="nonzero"></path>
            <path d="M49.0652174,55.9391214 L47.7391304,55.9391214 C47.0067528,55.9391214 46.4130435,55.3452134 46.4130435,54.6125908 C46.4130435,53.8799682 47.0067528,53.2860602 47.7391304,53.2860602 L49.0652174,53.2860602 C49.797595,53.2860602 50.3913043,53.8799682 50.3913043,54.6125908 C50.3913043,55.3452134 49.797595,55.9391214 49.0652174,55.9391214 Z" id="Shape" fill-rule="nonzero"></path>
            <path d="M35.8043478,37.3676928 C35.0719702,37.3676928 34.4782609,36.7737849 34.4782609,36.0411622 C34.4782609,35.3085396 35.0719702,34.7146316 35.8043478,34.7146316 C36.5367254,34.7146316 37.1304348,34.1207236 37.1304348,33.388101 L37.1304348,12.1636112 C37.1304348,11.4309886 36.5367254,10.8370806 35.8043478,10.8370806 L11.9347826,10.8370806 C11.202405,10.8370806 10.6086957,11.4309886 10.6086957,12.1636112 L10.6086957,33.388101 C10.6086957,34.1207236 11.202405,34.7146316 11.9347826,34.7146316 C12.6671602,34.7146316 13.2608696,35.3085396 13.2608696,36.0411622 C13.2608696,36.7737849 12.6671602,37.3676928 11.9347826,37.3676928 C9.7376498,37.3676928 7.95652174,35.5859689 7.95652174,33.388101 L7.95652174,12.1636112 C7.95652174,9.96574333 9.7376498,8.18401937 11.9347826,8.18401937 L35.8043478,8.18401937 C38.0014806,8.18401937 39.7826087,9.96574333 39.7826087,12.1636112 L39.7826087,33.388101 C39.7826087,35.5859689 38.0014806,37.3676928 35.8043478,37.3676928 Z" id="Shape" fill-rule="nonzero"></path>
            <path d="M26.5217391,21.4493255 L21.2173913,21.4493255 C19.7526361,21.4493255 18.5652174,20.2615095 18.5652174,18.7962643 L18.5652174,9.51054998 C18.5652174,8.77792736 19.1589267,8.18401937 19.8913043,8.18401937 C20.623682,8.18401937 21.2173913,8.77792736 21.2173913,9.51054998 L21.2173913,18.7962643 L26.5217391,18.7962643 L26.5217391,9.51054998 C26.5217391,8.77792736 27.1154485,8.18401937 27.8478261,8.18401937 C28.5802037,8.18401937 29.173913,8.77792736 29.173913,9.51054998 L29.173913,18.7962643 C29.173913,20.2615095 27.9864943,21.4493255 26.5217391,21.4493255 Z" id="Shape" fill-rule="nonzero"></path>
            <path d="M21.2173913,29.4085092 L19.8913043,29.4085092 C19.1589267,29.4085092 18.5652174,28.8146012 18.5652174,28.0819786 C18.5652174,27.3493559 19.1589267,26.7554479 19.8913043,26.7554479 L21.2173913,26.7554479 C21.9497689,26.7554479 22.5434783,27.3493559 22.5434783,28.0819786 C22.5434783,28.8146012 21.9497689,29.4085092 21.2173913,29.4085092 Z" id="Shape" fill-rule="nonzero"></path>
            <path d="M27.8478261,29.4085092 L26.5217391,29.4085092 C25.7893615,29.4085092 25.1956522,28.8146012 25.1956522,28.0819786 C25.1956522,27.3493559 25.7893615,26.7554479 26.5217391,26.7554479 L27.8478261,26.7554479 C28.5802037,26.7554479 29.173913,27.3493559 29.173913,28.0819786 C29.173913,28.8146012 28.5802037,29.4085092 27.8478261,29.4085092 Z" id="Shape" fill-rule="nonzero"></path>
            <path d="M53.0434783,30.7350398 C52.3111007,30.7350398 51.7173913,30.1411318 51.7173913,29.4085092 L51.7173913,4.20442753 C51.7516583,3.84032465 51.620709,3.48006679 51.3606603,3.22301563 C51.1006115,2.96596446 50.7389378,2.83927788 50.3753913,2.87789692 L35.8043478,2.87789692 C35.4403667,2.84361846 35.0802293,2.97461152 34.8232642,3.2347473 C34.566299,3.49488308 34.4396547,3.85667779 34.4782609,4.2203459 L34.4782609,9.51054998 C34.4782609,10.2431726 33.8845515,10.8370806 33.1521739,10.8370806 C32.4197963,10.8370806 31.826087,10.2431726 31.826087,9.51054998 L31.826087,4.20442753 C31.7949588,3.1397334 32.2040917,2.10931557 32.9570141,1.35614122 C33.7099366,0.602966865 34.7400098,0.193697132 35.8043478,0.224835697 L50.3913043,0.224835697 C51.4556424,0.193697132 52.4857156,0.602966865 53.2386381,1.35614122 C53.9915605,2.10931557 54.4006934,3.1397334 54.3695652,4.20442753 L54.3695652,29.4085092 C54.3695652,30.1411318 53.7758559,30.7350398 53.0434783,30.7350398 Z" id="Shape" fill-rule="nonzero"></path>
            <path d="M72.1315789,20.758641 C73.154103,21.5867415 73.6653574,22.7136614 73.6653574,24.1394344 C73.6653574,25.0467445 73.4421337,25.8676318 72.9956795,26.602121 C72.5492253,27.3366101 71.8795541,27.9198722 70.9866457,28.3519246 C70.0937374,28.783977 68.9920202,29 67.6814611,29 C66.60133,29 65.557219,28.8451835 64.5490966,28.535546 C63.5409743,28.2259084 62.6912839,27.7974628 62,27.2501964 L63.1881383,25.0683425 C63.7498064,25.5291984 64.423078,25.8928371 65.2079733,26.1592694 C65.9928685,26.4257018 66.8029547,26.5589159 67.6382561,26.5589159 C68.6319767,26.5589159 69.4132598,26.3536941 69.9821288,25.9432443 C70.5509979,25.5327945 70.8354281,24.9675344 70.8354281,24.247447 C70.8354281,23.4697526 70.5293956,22.8828902 69.9173213,22.4868421 C69.305247,22.090794 68.2575356,21.892773 66.7741555,21.892773 L63.1233307,21.892773 L63.9010212,13.6622152 L72.7796544,13.6622152 L72.7796544,16.0168892 L66.2772977,16.0168892 L65.95326,19.5164965 L67.4006284,19.5164965 C69.5320871,19.5164965 71.1090549,19.9305405 72.1315789,20.758641 Z M78.3531029,28.0818932 C77.4025875,27.4698189 76.6537079,26.5769239 76.1064415,25.4031815 C75.5591751,24.229439 75.285546,22.8360908 75.285546,21.2230951 C75.285546,19.6100993 75.5591751,18.2167511 76.1064415,17.0430086 C76.6537079,15.8692662 77.4025875,14.9763712 78.3531029,14.3642969 C79.3036183,13.7522227 80.3837332,13.4461901 81.59348,13.4461901 C82.8032268,13.4461901 83.8869421,13.7522227 84.8446583,14.3642969 C85.8023745,14.9763712 86.5548546,15.8692662 87.102121,17.0430086 C87.6493874,18.2167511 87.9230165,19.6100993 87.9230165,21.2230951 C87.9230165,22.8360908 87.6493874,24.229439 87.102121,25.4031815 C86.5548546,26.5769239 85.8023745,27.4698189 84.8446583,28.0818932 C83.8869421,28.6939674 82.8032268,29 81.59348,29 C80.3837332,29 79.3036183,28.6939674 78.3531029,28.0818932 Z M84.1533778,25.2195601 C84.7798539,24.3266517 85.0930872,22.99451 85.0930872,21.2230951 C85.0930872,19.4516801 84.7798539,18.1195384 84.1533778,17.22663 C83.5269018,16.3337216 82.6736111,15.8872742 81.59348,15.8872742 C80.5277506,15.8872742 79.6816606,16.3337216 79.0551846,17.22663 C78.4287086,18.1195384 78.1154753,19.4516801 78.1154753,21.2230951 C78.1154753,22.99451 78.4287086,24.3266517 79.0551846,25.2195601 C79.6816606,26.1124685 80.5277506,26.5589159 81.59348,26.5589159 C82.6736111,26.5589159 83.5269018,26.1124685 84.1533778,25.2195601 Z M92.8915947,28.0818932 C91.9410793,27.4698189 91.1921996,26.5769239 90.6449332,25.4031815 C90.0976668,24.229439 89.8240377,22.8360908 89.8240377,21.2230951 C89.8240377,19.6100993 90.0976668,18.2167511 90.6449332,17.0430086 C91.1921996,15.8692662 91.9410793,14.9763712 92.8915947,14.3642969 C93.84211,13.7522227 94.9222249,13.4461901 96.1319717,13.4461901 C97.3417185,13.4461901 98.4254338,13.7522227 99.38315,14.3642969 C100.340866,14.9763712 101.093346,15.8692662 101.640613,17.0430086 C102.187879,18.2167511 102.461508,19.6100993 102.461508,21.2230951 C102.461508,22.8360908 102.187879,24.229439 101.640613,25.4031815 C101.093346,26.5769239 100.340866,27.4698189 99.38315,28.0818932 C98.4254338,28.6939674 97.3417185,29 96.1319717,29 C94.9222249,29 93.84211,28.6939674 92.8915947,28.0818932 Z M98.6918696,25.2195601 C99.3183456,24.3266517 99.6315789,22.99451 99.6315789,21.2230951 C99.6315789,19.4516801 99.3183456,18.1195384 98.6918696,17.22663 C98.0653936,16.3337216 97.2121028,15.8872742 96.1319717,15.8872742 C95.0662424,15.8872742 94.2201524,16.3337216 93.5936764,17.22663 C92.9672003,18.1195384 92.653967,19.4516801 92.653967,21.2230951 C92.653967,22.99451 92.9672003,24.3266517 93.5936764,25.2195601 C94.2201524,26.1124685 95.0662424,26.5589159 96.1319717,26.5589159 C97.2121028,26.5589159 98.0653936,26.1124685 98.6918696,25.2195601 Z M107.430086,28.0818932 C106.479571,27.4698189 105.730691,26.5769239 105.183425,25.4031815 C104.636159,24.229439 104.362529,22.8360908 104.362529,21.2230951 C104.362529,19.6100993 104.636159,18.2167511 105.183425,17.0430086 C105.730691,15.8692662 106.479571,14.9763712 107.430086,14.3642969 C108.380602,13.7522227 109.460717,13.4461901 110.670463,13.4461901 C111.88021,13.4461901 112.963926,13.7522227 113.921642,14.3642969 C114.879358,14.9763712 115.631838,15.8692662 116.179104,17.0430086 C116.726371,18.2167511 117,19.6100993 117,21.2230951 C117,22.8360908 116.726371,24.229439 116.179104,25.4031815 C115.631838,26.5769239 114.879358,27.4698189 113.921642,28.0818932 C112.963926,28.6939674 111.88021,29 110.670463,29 C109.460717,29 108.380602,28.6939674 107.430086,28.0818932 Z M113.230361,25.2195601 C113.856837,24.3266517 114.170071,22.99451 114.170071,21.2230951 C114.170071,19.4516801 113.856837,18.1195384 113.230361,17.22663 C112.603885,16.3337216 111.750595,15.8872742 110.670463,15.8872742 C109.604734,15.8872742 108.758644,16.3337216 108.132168,17.22663 C107.505692,18.1195384 107.192459,19.4516801 107.192459,21.2230951 C107.192459,22.99451 107.505692,24.3266517 108.132168,25.2195601 C108.758644,26.1124685 109.604734,26.5589159 110.670463,26.5589159 C111.750595,26.5589159 112.603885,26.1124685 113.230361,25.2195601 Z" id="5000"></path>
            <path d="M47.7391304,30.7350398 L43.7608696,30.7350398 C43.028492,30.7350398 42.4347826,30.1411318 42.4347826,29.4085092 C42.4347826,28.6758865 43.028492,28.0819786 43.7608696,28.0819786 L47.7391304,28.0819786 C48.471508,28.0819786 49.0652174,28.6758865 49.0652174,29.4085092 C49.0652174,30.1411318 48.471508,30.7350398 47.7391304,30.7350398 Z" id="Shape" fill-rule="nonzero"></path>
            <path d="M53.0434783,17.4697337 L46.4130435,17.4697337 C45.705158,17.4847158 45.0218302,17.2100114 44.5211676,16.7091813 C44.020505,16.2083511 43.7458925,15.5247947 43.7608696,14.8166724 L43.7608696,10.8370806 C43.7458925,10.1289583 44.020505,9.44540189 44.5211676,8.94457177 C45.0218302,8.44374164 45.705158,8.16903726 46.4130435,8.18401937 L53.0434783,8.18401937 C53.7758558,8.18401939 54.3695652,8.77792737 54.3695652,9.51054998 C54.3695652,10.2431726 53.7758558,10.8370806 53.0434783,10.8370806 L46.4130435,10.8370806 L46.4130435,14.8166724 L53.0434783,14.8166724 C53.7758559,14.8166724 54.3695652,15.4105804 54.3695652,16.143203 C54.3695652,16.8758257 53.7758559,17.4697337 53.0434783,17.4697337 Z" id="Shape" fill-rule="nonzero"></path>
        </g>
    </g>
</svg>