<?xml version="1.0" encoding="UTF-8"?>
<svg width="57px" height="57px" viewBox="0 0 57 57" version="1.1" xmlns="http://www.w3.org/2000/svg" xmlns:xlink="http://www.w3.org/1999/xlink">
    <!-- Generator: Sketch 52.6 (67491) - http://www.bohemiancoding.com/sketch -->
    <title>blog-icon</title>
    <desc>Created with Sketch.</desc>
    <g id="Page-1" stroke="none" stroke-width="1" fill="none" fill-rule="evenodd">
        <g id="s-stroy-product-card-tab-5-1280" transform="translate(-960.000000, -864.000000)" fill="#2057AC" fill-rule="nonzero">
            <g id="services-tab" transform="translate(40.000000, 841.000000)">
                <g id="4" transform="translate(899.000000, 0.000000)">
                    <g id="blog-icon" transform="translate(21.000000, 23.000000)">
                        <path d="M5.15290179,3.81522044 C5.91629464,3.81522044 6.48883929,4.38750351 6.48883929,5.15054759 C6.48883929,5.91359168 5.91629464,6.48587475 5.15290179,6.48587475 C4.38950893,6.48587475 3.81696429,5.91359168 3.81696429,5.15054759 C3.81696429,4.38750351 4.38950893,3.81522044 5.15290179,3.81522044 Z M9.09709821,3.81522044 C9.86049107,3.81522044 10.4330357,4.38750351 10.4330357,5.15054759 C10.4330357,5.91359168 9.86049107,6.48587475 9.09709821,6.48587475 C8.33370536,6.48587475 7.76116071,5.91359168 7.76116071,5.15054759 C7.76116071,4.38750351 8.33370536,3.81522044 9.09709821,3.81522044 Z M13.1049107,3.81522044 C13.8683036,3.81522044 14.4408482,4.38750351 14.4408482,5.15054759 C14.4408482,5.91359168 13.8683036,6.48587475 13.1049107,6.48587475 C12.3415179,6.48587475 11.7689732,5.91359168 11.7689732,5.15054759 C11.7689732,4.38750351 12.3415179,3.81522044 13.1049107,3.81522044 Z M2.09933036,10.2375082 L55.4732143,10.2375082 C56.1729911,10.2375082 56.6819196,9.66522512 56.6819196,9.02935504 C56.6819196,8.32989796 56.109375,7.8212019 55.4732143,7.8212019 L2.09933036,7.8212019 C1.39955357,7.8212019 0.890625,8.39348497 0.890625,9.02935504 C0.890625,9.66522512 1.46316964,10.2375082 2.09933036,10.2375082 Z M31.6171875,43.5571 L30.7265625,42.6668819 L20.6752232,52.7772161 L20.6752232,43.5571 C20.6752232,43.239165 20.5479911,42.92123 20.2935268,42.6668819 C20.0390625,42.4125339 19.7209821,42.2853599 19.4029018,42.2853599 L4.8984375,42.2853599 C4.19866071,42.2853599 3.62611607,42.0310119 3.18080357,41.5859028 C2.73549107,41.1407938 2.41741071,40.5685107 2.41741071,39.8690536 L2.41741071,4.89619957 C2.41741071,4.19674248 2.671875,3.62445942 3.1171875,3.17935037 C3.62611607,2.73424132 4.19866071,2.41630628 4.8984375,2.41630628 L52.1015625,2.41630628 C52.8013393,2.41630628 53.3738839,2.67065431 53.8191964,3.11576336 C54.2645089,3.56087241 54.5189732,4.19674248 54.5189732,4.83261256 L54.5189732,39.8054666 C54.5189732,40.5049237 54.2645089,41.0772067 53.8191964,41.5223158 C53.3738839,41.9674248 52.7377232,42.2217729 52.1015625,42.2217729 L31.6171875,42.2217729 C31.2991071,42.2217729 30.9810268,42.3489469 30.7265625,42.6032949 L31.6171875,43.5571 L31.6171875,44.7652532 L52.1015625,44.7652532 C53.4375,44.7652532 54.6462054,44.1929701 55.5368304,43.302752 C56.4274554,42.4125339 57,41.2043808 57,39.8690536 L57,4.89619957 C57,3.56087241 56.4274554,2.35271927 55.5368304,1.46250117 C54.6462054,0.572283066 53.4375,0 52.1015625,0 L4.8984375,0 C3.5625,0 2.35379464,0.572283066 1.46316964,1.46250117 C0.572544643,2.35271927 0,3.56087241 0,4.89619957 L0,39.8690536 C0,41.2043808 0.572544643,42.4125339 1.46316964,43.302752 C2.35379464,44.1929701 3.5625,44.7652532 4.8984375,44.7652532 L18.1941964,44.7652532 L18.1941964,55.7658054 C18.1941964,56.2745015 18.5122768,56.7196105 18.9575893,56.9103716 C19.4029018,57.1011326 19.9118304,56.9739586 20.2935268,56.6560235 L32.5078125,44.3837311 L31.6171875,43.5571 L31.6171875,44.7652532 L31.6171875,43.5571 Z M29.5814732,38.0886174 L29.5814732,39.2967705 L50.5111607,39.2967705 C50.8292411,39.2967705 51.1473214,39.1695965 51.4017857,38.9152485 C51.65625,38.6609005 51.7834821,38.3429654 51.7834821,38.0250304 L51.7834821,20.4750164 C51.7834821,20.1570813 51.65625,19.8391463 51.4017857,19.5847983 C51.1473214,19.3304502 50.8292411,19.2032762 50.5111607,19.2032762 L29.5814732,19.2032762 C29.2633929,19.2032762 28.9453125,19.3304502 28.6908482,19.5847983 C28.4363839,19.8391463 28.3091518,20.1570813 28.3091518,20.4750164 L28.3091518,38.1522044 C28.3091518,38.4701394 28.4363839,38.7880745 28.6908482,39.0424225 C28.9453125,39.2967705 29.2633929,39.4239446 29.5814732,39.4239446 L29.5814732,38.0886174 L30.7901786,38.0886174 L30.7901786,21.6831695 L49.2388393,21.6831695 L49.2388393,36.8804643 L29.5814732,36.8804643 L29.5814732,38.0886174 L30.7901786,38.0886174 L29.5814732,38.0886174 Z M50.5111607,13.3532715 L6.42522321,13.3532715 C5.72544643,13.3532715 5.21651786,13.9255546 5.21651786,14.5614247 C5.21651786,15.2608818 5.7890625,15.7695778 6.42522321,15.7695778 L50.4475446,15.7695778 C51.1473214,15.7695778 51.65625,15.1972948 51.65625,14.5614247 C51.7198661,13.9255546 51.1473214,13.3532715 50.5111607,13.3532715 Z M24.1741071,19.2668632 L6.42522321,19.2668632 C5.72544643,19.2668632 5.21651786,19.8391463 5.21651786,20.4750164 C5.21651786,21.1744734 5.7890625,21.6831695 6.42522321,21.6831695 L24.1104911,21.6831695 C24.8102679,21.6831695 25.3191964,21.1108864 25.3191964,20.4750164 C25.3828125,19.7755593 24.8102679,19.2668632 24.1741071,19.2668632 Z M24.1741071,25.1168679 L6.42522321,25.1168679 C5.72544643,25.1168679 5.21651786,25.689151 5.21651786,26.325021 C5.21651786,27.0244781 5.7890625,27.5331742 6.42522321,27.5331742 L24.1104911,27.5331742 C24.8102679,27.5331742 25.3191964,26.9608911 25.3191964,26.325021 C25.3828125,25.689151 24.8102679,25.1168679 24.1741071,25.1168679 Z M24.1741071,31.0304596 L6.42522321,31.0304596 C5.72544643,31.0304596 5.21651786,31.6027426 5.21651786,32.2386127 C5.21651786,32.9380698 5.7890625,33.4467659 6.42522321,33.4467659 L24.1104911,33.4467659 C24.8102679,33.4467659 25.3191964,32.8744828 25.3191964,32.2386127 C25.3828125,31.5391556 24.8102679,31.0304596 24.1741071,31.0304596 Z M24.1741071,36.8804643 L6.42522321,36.8804643 C5.72544643,36.8804643 5.21651786,37.4527473 5.21651786,38.0886174 C5.21651786,38.7880745 5.7890625,39.2967705 6.42522321,39.2967705 L24.1104911,39.2967705 C24.8102679,39.2967705 25.3191964,38.7244875 25.3191964,38.0886174 C25.3828125,37.4527473 24.8102679,36.8804643 24.1741071,36.8804643 Z" id="Shape"></path>
                    </g>
                </g>
            </g>
        </g>
    </g>
</svg>