<svg xmlns="http://www.w3.org/2000/svg" width="56" height="56" viewBox="0 0 56 56">
    <g fill="#1D509F" fill-rule="nonzero">
        <path d="M43.355 19.871h11.742a.903.903 0 0 0 .903-.903V9.935a.888.888 0 0 0-.332-.684l.007-.01L44.836.209A.903.903 0 0 0 44.258 0H31.613a.903.903 0 0 0-.421.104L14.229 9.032H.903A.903.903 0 0 0 0 9.935v9.033c0 .499.404.903.903.903H2.71v14.58a3.613 3.613 0 1 0 1.806 0V19.87h28v14.452h-9.032v-2.71a.903.903 0 0 0-.903-.903H9.935a.903.903 0 0 0-.903.903v11.742H.903a.903.903 0 0 0-.903.903v10.839c0 .499.404.903.903.903h12.645a.897.897 0 0 0 .279-.056V56h41.27a.903.903 0 0 0 .903-.903v-3.613a.903.903 0 0 0-.903-.903h-.903v-2.71a.903.903 0 0 0-.904-.903h-7.225a.903.903 0 0 0-.904.903v2.71h-1.806V19.87zM5.419 37.935a1.806 1.806 0 1 1-3.613 0 1.806 1.806 0 0 1 3.613 0zm25.29 7.226v-5.42h1.807v10.84H30.71v-5.42zm5.42-37.935h7.226v7.226h-1.807V9.935a.903.903 0 0 0-.903-.903h-3.613a.903.903 0 0 0-.903.903v4.517h-5.42v-2.71a4.522 4.522 0 0 1 4.517-4.516h.903zm-1.806 36.129h5.948l-5.948 5.948v-5.948zm1.277-1.807l5.948-5.948v5.948H35.6zm5.948-9.032H35.6l5.948-5.949v5.95zm0-9.032H35.6l5.948-5.949v5.949zm-1.806-9.032h-1.807v-3.613h1.807v3.613zm-5.42 1.806h5.95l-5.95 5.949v-5.949zm0 9.032h5.95l-5.95 5.949V25.29zm5.95 9.033l-5.95 5.948v-5.948h5.95zm1.276 10.309v5.949H35.6l5.948-5.949zm1.807-28.374h.903a.903.903 0 0 0 .903-.903v-4.516h7.755l-7.225 7.226h-2.336v-1.807zm4.89 1.807l5.949-5.95v5.95h-5.95zm4.357-9.033h-7.44v-2.71a.903.903 0 0 0-.904-.903h-3.613V1.806h3.286l8.671 7.226zm-15.57-7.226h1.807V5.42h-1.807V1.806zm-5.196 0h3.39V5.42a6.323 6.323 0 0 0-5.704 3.613H18.107l13.729-7.226zM10.839 10.84h5.948l-5.948 5.948V10.84zm-1.807 7.226H3.084l5.948-5.95v5.95zm9.033-5.95v5.95h-5.95l5.95-5.95zm1.806-1.276h5.949l-5.949 5.948V10.84zm-12.116 0l-5.949 5.948V10.84h5.95zm13.393 7.226l7.226-7.226h.601c-.045.299-.07.6-.072.903v3.613c0 .499.405.903.903.903h2.71v1.807H21.148zm11.368 18.064v1.806h-9.032V36.13h9.032zm-18.064 8.13v-8.13h7.225v14.452h-7.225v-6.323zm7.225-9.936h-7.225v-1.807h7.225v1.807zm-9.032-1.807v1.807H10.84v-1.807h1.806zM10.84 36.13h1.806v7.226H10.84v-7.226zm1.806 9.032v1.807H1.806V45.16h10.84zM1.806 48.774h4.517v5.42H1.806v-5.42zm6.323 5.42v-5.42h4.516v5.42H8.13zm6.323 0v-1.807h7.225v1.807h-7.225zm12.645-2.71v2.71h-3.613V39.742h5.42v1.806H25.29v1.807h3.613v1.806H25.29v1.807h3.613v3.613H28a.903.903 0 0 0-.903.903zm27.097 2.71h-25.29v-1.807h25.29v1.807zm-7.226-5.42h5.42v1.807h-5.42v-1.807z"/>
        <path d="M18.065 37.935h1.806v1.806h-1.806zM18.065 41.548h1.806v1.806h-1.806zM18.065 45.161h1.806v1.806h-1.806z"/>
    </g>
</svg>
