<svg xmlns="http://www.w3.org/2000/svg" width="85" height="47" viewBox="0 0 85 47">
    <g fill="#2057AC" fill-rule="evenodd">
        <path fill-rule="nonzero" d="M83.583 33.645v-8.009a1.416 1.416 0 0 0-.054-.322c-.01-.043-.008-.088-.022-.129a1.417 1.417 0 0 0-.234-.438l-.018-.022-11.316-14.22a1.413 1.413 0 0 0-1.106-.535h-9.916V1.424A1.42 1.42 0 0 0 59.5 0H12.75a1.42 1.42 0 0 0-1.417 1.424 1.42 1.42 0 0 0 1.417 1.424h1.417v8.546h-2.834a1.42 1.42 0 0 0-1.416 1.424 1.42 1.42 0 0 0 1.416 1.424h2.834v8.546h-4.25A1.42 1.42 0 0 0 8.5 24.212a1.42 1.42 0 0 0 1.417 1.424h4.25v8.009a5.258 5.258 0 0 0 .415 7.24c.265.268.626.418 1.001.418h4.394C20.65 44.619 23.55 47 26.917 47c3.366 0 6.267-2.381 6.94-5.697h30.036c.673 3.316 3.574 5.697 6.94 5.697 3.366 0 6.267-2.381 6.94-5.697h4.394c.375 0 .736-.15 1.001-.417a5.258 5.258 0 0 0 .415-7.241zm-4.6-9.73L68 22.912v-4.397h6.686l4.297 5.4zM26.917 44.152c-2.348 0-4.25-1.913-4.25-4.273 0-2.36 1.902-4.273 4.25-4.273 2.347 0 4.25 1.913 4.25 4.273-.003 2.358-1.904 4.27-4.25 4.273zm6.94-5.697c-.673-3.316-3.574-5.697-6.94-5.697-3.366 0-6.267 2.381-6.94 5.697h-3.751a2.465 2.465 0 0 1 .359-3.266c.266-.267.415-.63.415-1.007v-1.424h1.417a1.42 1.42 0 0 0 1.416-1.425 1.42 1.42 0 0 0-1.416-1.424H17v-4.273h12.75a1.42 1.42 0 0 0 1.417-1.424 1.42 1.42 0 0 0-1.417-1.424H17v-8.546h26.917a1.42 1.42 0 0 0 1.416-1.424 1.42 1.42 0 0 0-1.416-1.424H17V2.848h41.083v35.607H33.857zm36.976 5.697c-2.347 0-4.25-1.913-4.25-4.273 0-2.36 1.903-4.273 4.25-4.273 2.348 0 4.25 1.913 4.25 4.273-.002 2.358-1.904 4.27-4.25 4.273zm10.691-5.697h-3.75c-.674-3.316-3.575-5.697-6.94-5.697-3.367 0-6.268 2.381-6.94 5.697h-2.977V12.818h9.236l2.266 2.849h-5.836a1.42 1.42 0 0 0-1.416 1.424v7.121c0 .737.559 1.352 1.288 1.419l14.295 1.306v2.972h-1.417a1.42 1.42 0 0 0-1.416 1.424 1.42 1.42 0 0 0 1.416 1.425h1.417v1.424c.003.373.149.73.407.998a2.47 2.47 0 0 1 .367 3.275z"/>
        <rect width="72.34" height="2.712" x="12.66" y="44.288" rx="1.356"/>
        <path fill-rule="nonzero" d="M7.083 0H4.25a1.42 1.42 0 0 0-1.417 1.424A1.42 1.42 0 0 0 4.25 2.848h2.833A1.42 1.42 0 0 0 8.5 1.424 1.42 1.42 0 0 0 7.083 0zM5.667 11.394H2.833a1.42 1.42 0 0 0-1.416 1.424 1.42 1.42 0 0 0 1.416 1.424h2.834a1.42 1.42 0 0 0 1.416-1.424 1.42 1.42 0 0 0-1.416-1.424zM4.206 22.598l-2.834.09A1.42 1.42 0 0 0 0 24.132a1.42 1.42 0 0 0 1.416 1.402h.045l2.833-.09a1.421 1.421 0 0 0 1.372-1.468 1.392 1.392 0 0 0-.436-1.004 1.377 1.377 0 0 0-1.024-.375z"/>
    </g>
</svg>
