<svg xmlns="http://www.w3.org/2000/svg" width="61" height="50" viewBox="0 0 61 50">
    <g fill="#2057AC" fill-rule="nonzero">
        <path d="M49.133 25.594H45.54l-6.641-6.644a15.898 15.898 0 0 0-5.275-3.506 4.287 4.287 0 0 0 2.679-3.968V4.783c0-2.36-1.92-4.282-4.28-4.282H20.221a4.285 4.285 0 0 0-4.28 4.282v6.693a4.284 4.284 0 0 0 2.828 4.023c-.726.268-1.303.51-1.734.729a14.636 14.636 0 0 0-3.157 2.171 14.408 14.408 0 0 0-3.538 4.814c-.415.924-.724 1.76-.923 2.498-5.204.737-9.23 5.218-9.23 10.617v2.756a5.074 5.074 0 0 0 5.067 5.069H7A6.792 6.792 0 0 0 8.251 46.9H1.543a1.356 1.356 0 0 0 0 2.712h57.914a1.356 1.356 0 0 0 0-2.712h-6.762a6.788 6.788 0 0 0 1.25-2.748h1.802a5.073 5.073 0 0 0 5.065-5.068v-1.8c0-6.447-5.239-11.691-11.679-11.691zm-7.429 0H31.387l-1.195-2.74a1.355 1.355 0 1 0-2.484 1.086l.72 1.654H25.46v-8.599h2.177c3.53 0 6.849 1.375 9.345 3.872l4.723 4.727zM20.221 3.214h3.263c.043.003.054 0 .065 0h7.76c.029.002-4.335 3.159-13.09 9.47l2.002.739 14.084-10.21H32.02a1.57 1.57 0 0 1 1.569 1.57v6.693a1.57 1.57 0 0 1-1.569 1.57H20.221a1.57 1.57 0 0 1-1.569-1.57V4.783c0-.865.704-1.57 1.569-1.57zm-7.408 21.113a11.714 11.714 0 0 1 2.879-3.911 11.926 11.926 0 0 1 2.57-1.77c.277-.14.818-.382 1.827-.743a15.613 15.613 0 0 1 2.66-.687v8.378H12.296c.14-.392.313-.818.516-1.267zm-3.24 18.467a4.11 4.11 0 0 1 4.106-4.108 4.11 4.11 0 0 1 4.105 4.108 4.11 4.11 0 0 1-4.105 4.107 4.11 4.11 0 0 1-4.105-4.107zm10.785 1.359h20.228a6.792 6.792 0 0 0 1.251 2.748h-22.73a6.774 6.774 0 0 0 1.25-2.748zm22.803-1.36a4.11 4.11 0 0 1 4.105-4.107 4.11 4.11 0 0 1 4.105 4.108 4.11 4.11 0 0 1-4.105 4.107 4.11 4.11 0 0 1-4.105-4.107zm12.586-1.353h-1.8c-.63-3.114-3.385-5.466-6.68-5.466s-6.051 2.352-6.68 5.466H20.358c-.63-3.114-3.384-5.466-6.68-5.466-3.295 0-6.051 2.352-6.68 5.466H5.253a2.356 2.356 0 0 1-2.175-1.46h1.48a1.356 1.356 0 0 0 0-2.712h-1.66v-.94c0-4.4 3.577-7.995 7.97-8.021l.018.002h33.501c.009 0 .017-.003.026-.003h4.72c3.6 0 6.702 2.14 8.13 5.211h-1.82a1.356 1.356 0 0 0 0 2.712h2.59c.041.348.068.699.068 1.057v.452a1.353 1.353 0 0 0-1.269 1.347c0 .585.372 1.079.892 1.27a2.35 2.35 0 0 1-1.977 1.085z"/>
        <path d="M27.959 37.268H22.51a1.356 1.356 0 0 0 0 2.712h5.449a1.356 1.356 0 0 0 0-2.712zM34.422 37.268h-2.18a1.356 1.356 0 0 0 0 2.712h2.18a1.356 1.356 0 0 0 0-2.712zM5.668 4.753h7.589a1.356 1.356 0 0 0 0-2.712H5.668a1.356 1.356 0 0 0 0 2.712zM13.257 5.663H9.035a1.356 1.356 0 0 0 0 2.712h4.222a1.356 1.356 0 0 0 0-2.712zM13.257 9.284h-1.088a1.356 1.356 0 0 0 0 2.712h1.088a1.356 1.356 0 0 0 0-2.712z"/>
    </g>
</svg>
