<svg xmlns="http://www.w3.org/2000/svg" width="85" height="62" viewBox="0 0 85 62">
    <g fill="#2057AC" fill-rule="evenodd">
        <path fill-rule="nonzero" d="M83.583 47.777v-7.99a1.41 1.41 0 0 0-.054-.322c-.01-.042-.008-.087-.022-.128a1.412 1.412 0 0 0-.234-.437l-.018-.023L71.939 24.69a1.414 1.414 0 0 0-1.106-.534h-9.916v-8.525c0-.785-.635-1.421-1.417-1.421H36.319C34.229 5.358 26.024-.65 16.982.056 7.94.76.757 7.965.055 17.034c-.702 9.069 5.287 17.3 14.112 19.395v11.348a5.238 5.238 0 0 0 .415 7.224c.265.267.626.416 1.001.417h4.394a7.089 7.089 0 0 0 6.94 5.683 7.089 7.089 0 0 0 6.94-5.683h30.036a7.089 7.089 0 0 0 6.94 5.683 7.089 7.089 0 0 0 6.94-5.683h4.394c.375 0 .736-.15 1.001-.417a5.238 5.238 0 0 0 .415-7.224zm-4.6-9.707L68 37.069v-4.387h6.686l4.297 5.388zM2.905 19.893H4.25c.782 0 1.417-.636 1.417-1.42 0-.785-.635-1.421-1.417-1.421H2.905A15.58 15.58 0 0 1 6.45 8.478l1.05 1.052a1.413 1.413 0 0 0 1.994-.009c.55-.551.553-1.444.009-2l-1.05-1.053A15.483 15.483 0 0 1 17 2.914v1.349c0 .785.634 1.42 1.417 1.42.782 0 1.416-.635 1.416-1.42v-1.35a15.483 15.483 0 0 1 8.548 3.555l-1.05 1.053a1.424 1.424 0 0 0 .63 2.387 1.414 1.414 0 0 0 1.374-.378l1.05-1.052a15.58 15.58 0 0 1 3.543 8.574h-1.345c-.782 0-1.416.636-1.416 1.42 0 .785.634 1.421 1.416 1.421h1.345a15.58 15.58 0 0 1-3.544 8.574l-1.05-1.052a1.413 1.413 0 0 0-1.993.009 1.424 1.424 0 0 0-.01 2l1.05 1.053a15.483 15.483 0 0 1-8.548 3.554v-1.349c0-.785-.634-1.42-1.416-1.42-.783 0-1.417.635-1.417 1.42v1.35a15.483 15.483 0 0 1-8.548-3.555l1.05-1.053a1.424 1.424 0 0 0-.01-2 1.413 1.413 0 0 0-1.994-.01l-1.05 1.053a15.58 15.58 0 0 1-3.543-8.574zM26.917 58.26a4.256 4.256 0 0 1-4.25-4.263 4.256 4.256 0 0 1 4.25-4.263 4.256 4.256 0 0 1 4.25 4.263 4.261 4.261 0 0 1-4.25 4.263zm0-11.368a7.1 7.1 0 0 0-6.94 5.684h-3.751a2.456 2.456 0 0 1 .359-3.259c.266-.266.415-.627.415-1.004v-1.421h1.417c.782 0 1.416-.636 1.416-1.421s-.634-1.421-1.416-1.421H17v-7.177c.47.036.939.072 1.417.072 10.166-.011 18.405-8.275 18.416-18.472 0-.48-.035-.95-.071-1.421h21.321v35.524H33.857a7.1 7.1 0 0 0-6.94-5.684zM70.833 58.26a4.256 4.256 0 0 1-4.25-4.263 4.256 4.256 0 0 1 4.25-4.263 4.256 4.256 0 0 1 4.25 4.263 4.261 4.261 0 0 1-4.25 4.263zm10.691-5.684h-3.75a7.089 7.089 0 0 0-6.94-5.684 7.089 7.089 0 0 0-6.94 5.684h-2.977V26.998h9.236l2.266 2.842h-5.836c-.782 0-1.416.636-1.416 1.421v7.105a1.42 1.42 0 0 0 1.288 1.415l14.295 1.304v2.965h-1.417c-.782 0-1.416.636-1.416 1.42 0 .786.634 1.422 1.416 1.422h1.417v1.42c.003.373.149.73.407.997a2.46 2.46 0 0 1 .367 3.267z"/>
        <rect width="72.34" height="2.696" x="9.947" y="59.304" rx="1.348"/>
        <path fill-rule="nonzero" d="M18.417 19.893h5.666c.783 0 1.417-.636 1.417-1.42 0-.785-.634-1.421-1.417-1.421h-4.25V9.947c0-.785-.634-1.421-1.416-1.421-.783 0-1.417.636-1.417 1.42v8.527c0 .784.634 1.42 1.417 1.42z"/>
    </g>
</svg>
