<svg xmlns="http://www.w3.org/2000/svg" width="74" height="57" viewBox="0 0 74 57">
    <g fill="#1D509F" fill-rule="nonzero">
        <path d="M72.542 50.38h-1.414v-4.736c0-4.385-3.534-7.892-7.952-7.892h-.442V15.127c0-.35-.176-.614-.441-.79a.808.808 0 0 0-.884 0l-2.386 1.228v-5.173c0-.527-.353-.877-.883-.877h-5.037c-.53 0-.883.35-.883.877v8.681l-4.507 2.368v-6.314c0-.35-.176-.614-.441-.79a.808.808 0 0 0-.884 0l-2.739 1.404v-5.35c0-.526-.353-.876-.884-.876H37.73c-.53 0-.884.35-.884.877v8.856l-4.152 2.28V15.39c0-.526-.354-.877-.884-.877h-7.245V1.622c0-.526-.354-.877-.884-.877h-5.036c-.53 0-.884.351-.884.877v3.333h-4.683c-.53 0-.884.35-.884.877v8.593H4.595c-.53 0-.884.351-.884.877v34.99H1.679c-.53 0-.884.35-.884.876v4.824c0 .526.354.876.884.876h70.863c.53 0 .884-.35.884-.876v-4.824c0-.438-.442-.789-.884-.789zm-9.366-10.875c3.358 0 6.185 2.719 6.185 6.139v4.735h-2.385v-4.91c0-1.842-1.503-3.333-3.358-3.333h-.884v-2.543h.442v-.088zM32.693 28.544l13.342-6.928V50.38H32.693V28.544zm15.109-.526l13.165-6.84v29.201H47.802V28.018zM62.734 43.89h.796c.883 0 1.59.702 1.59 1.578v4.911h-2.386V43.89zm-8.659-32.534h3.27v5.174l-3.27 1.666v-6.84zm6.892 5.262v2.63l-13.165 6.84v-2.63l13.165-6.84zm-22.266-5.262h3.27V16.705l-3.27 1.667v-7.016zm7.334 5.262v3.069l-13.342 6.84v-3.07l13.342-6.84zM19.615 2.499h3.27V14.513H20.94V5.92c0-.526-.354-.877-.884-.877h-.441V2.5zM14.05 6.71h5.125v7.716h-5.125V6.708zm16.876 9.558v3.332H5.567v-3.332h25.358zM5.567 21.265h25.358V50.38h-9.012v-6.401c0-2.017-1.679-3.683-3.711-3.683s-3.711 1.666-3.711 3.683v6.401H5.567V21.265zm14.579 24.73h-1.414c-.53 0-.884.35-.884.877 0 .526.354.876.884.876h1.414v2.631h-3.8v-6.401c0-1.053.884-1.93 1.944-1.93s1.944.877 1.944 1.93v2.017h-.088zm51.513 9.12H2.562v-3.07H71.66v3.07z"/>
        <path d="M40.468 37.4c-1.502 0-2.65 1.14-2.65 2.632v4.121c0 .526.353.877.883.877h3.534c.53 0 .884-.35.884-.877v-4.121a2.648 2.648 0 0 0-2.65-2.631zm.884 5.876h-1.768v-3.244c0-.527.354-.877.884-.877s.884.35.884.877v3.244zM55.666 37.4c-1.502 0-2.651 1.14-2.651 2.632v4.121c0 .526.353.877.884.877h3.534c.53 0 .883-.35.883-.877v-4.121c0-1.404-1.237-2.631-2.65-2.631zm.883 5.876h-1.767v-3.244c0-.527.354-.877.884-.877s.883.35.883.877v3.244zM25.624 36.875c.53 0 .883-.351.883-.877v-7.103c0-.527-.353-.877-.883-.877H10.868c-.53 0-.884.35-.884.877v7.103c0 .526.354.877.884.877h14.756zm-13.872-7.191H24.74v5.35H11.752v-5.35z"/>
        <path d="M21.648 31.613h-6.804c-.53 0-.883.35-.883.877 0 .526.353.877.883.877h6.804c.53 0 .883-.35.883-.877 0-.526-.441-.877-.883-.877z"/>
    </g>
</svg>
