<svg xmlns="http://www.w3.org/2000/svg" width="55" height="44" viewBox="0 0 55 44">
    <g fill="none" fill-rule="evenodd">
        <path stroke="#1D509F" stroke-width="1.9" d="M.95.95v42.1h53.1v-2.986c-13.923-1.95-25.049-6.455-33.359-13.532C12.421 19.491 8.17 10.944 7.98.95H.95z"/>
        <path stroke="#1D509F" stroke-width="1.9" d="M.95.95v42.1h49.471c-12.982-2.144-23.617-6.653-31.888-13.535C9.513 22.011 4.649 12.47 3.972.95H.95zm53.1 42.1h.275l.317.358-.219.219-.373-.047v-.53z"/>
        <path stroke="#1D509F" stroke-width="1.9" d="M.95.95v42.1h53.1V18.32c-5.793.082-11.003-1.45-15.604-4.59-4.67-3.19-7.435-7.467-8.254-12.78H.95z"/>
        <path stroke="#1D509F" stroke-width="1.9" d="M.95.95v42.1h53.1V.95H.95z"/>
        <path stroke="#1D509F" stroke-width="1.338" d="M42.393.669h11.938v6.315H42.393z"/>
        <path stroke="#1D509F" stroke-width="1.338" d="M48.083 6.408v8.228h6.248V6.408h-6.248z"/>
        <path stroke="#1D509F" stroke-width="1.338" d="M33.655 6.408l6.748 8.228h8.239V6.408H33.655z"/>
        <path stroke="#1D509F" stroke-width="1.338" d="M29.489.669l2.884 6.314h8.682V.67H29.49z"/>
        <g fill="#1D509F">
            <path d="M8.087 7.248h25.471v1.057H8.088zM11.99 14.093h28.081v1h-28.08zM16.001 20.937H54.72v1H16.001zM22.067 27.782h32.651v1h-32.65zM34.392 34.626H54.72v1H34.392z"/>
        </g>
        <path fill="#1D509F" d="M18.966 0h1.53v25.325h-1.53zM13.276 0h1.53v19.13h-1.53zM24.655 0h1.531v30.609h-1.53zM30.345 7.652h1.53v26.299h-1.53zM36.034 12.625h1.897v23.723h-1.897zM41.724 15.304h1.636v22.957h-1.636zM47.414 17.217h1.636v22.574h-1.636z"/>
    </g>
</svg>
