<svg xmlns="http://www.w3.org/2000/svg" width="61" height="50" viewBox="0 0 61 50">
    <g fill="#2057AC" fill-rule="nonzero">
        <path d="M2.048 47.902H58.87V2H2.048v45.903zm57.838 1.996H1.033A1.005 1.005 0 0 1 .018 48.9V1c0-.55.454-.997 1.015-.997h58.853c.561 0 1.015.447 1.015.998v47.9c0 .55-.454.997-1.015.997z"/>
        <path d="M34.518 13.974h20.294v-2.86c-6.39-3.245-13.21-4.963-20.294-5.112v7.972zm21.309 1.996H33.503a1.005 1.005 0 0 1-1.014-.998V4.993c0-.552.453-.998 1.014-.998 7.985 0 15.657 1.895 22.8 5.634.332.174.539.512.539.881v4.462c0 .552-.454.998-1.015.998zM6.106 13.974H26.4V6.002c-7.084.149-13.904 1.867-20.294 5.112v2.86zm21.31 1.996H5.091a1.005 1.005 0 0 1-1.015-.998V10.51c0-.369.207-.707.538-.88 7.143-3.74 14.815-5.635 22.8-5.635.561 0 1.015.446 1.015.998v9.979c0 .552-.454.998-1.015.998zM6.106 23.953h48.706V19.96H6.106v3.992zm49.721 1.995H5.092a1.005 1.005 0 0 1-1.015-.998v-5.987c0-.55.454-.998 1.015-.998h50.735c.561 0 1.015.447 1.015.998v5.987c0 .552-.454.998-1.015.998z"/>
        <path d="M6.106 29.94h48.706v-3.992H6.106v3.992zm49.721 1.996H5.092a1.005 1.005 0 0 1-1.015-.998V24.95c0-.55.454-.997 1.015-.997h50.735c.561 0 1.015.447 1.015.997v5.988c0 .552-.454.998-1.015.998z"/>
        <path d="M6.106 35.927h48.706v-3.991H6.106v3.991zm49.721 1.996H5.092a1.005 1.005 0 0 1-1.015-.998v-5.987c0-.551.454-.998 1.015-.998h50.735c.561 0 1.015.447 1.015.998v5.987c0 .552-.454.998-1.015.998z"/>
        <path d="M6.106 41.915h48.706v-3.992H6.106v3.992zm49.721 1.996H5.092a1.005 1.005 0 0 1-1.015-.998v-5.988c0-.55.454-.998 1.015-.998h50.735c.561 0 1.015.447 1.015.998v5.988c0 .551-.454.998-1.015.998z"/>
        <path d="M6.106 47.902h48.706v-3.991H6.106v3.991zm49.721 1.996H5.092a1.005 1.005 0 0 1-1.015-.998v-5.987c0-.551.454-.998 1.015-.998h50.735c.561 0 1.015.447 1.015.998V48.9c0 .552-.454.998-1.015.998z"/>
    </g>
</svg>
