<?xml version="1.0" encoding="UTF-8"?>
<svg width="65px" height="50px" viewBox="0 0 65 50" version="1.1" xmlns="http://www.w3.org/2000/svg" xmlns:xlink="http://www.w3.org/1999/xlink">
    <!-- Generator: Sketch 51.2 (57519) - http://www.bohemiancoding.com/sketch -->
    <title>my-ship</title>
    <desc>Created with Sketch.</desc>
    <defs></defs>
    <g id="Page-1" stroke="none" stroke-width="1" fill="none" fill-rule="evenodd">
        <g id="my-ship" fill="#2057AC">
            <path d="M50.1334667,25.5938065 L46.5385333,25.5938065 L39.8976667,18.9495931 C38.3645333,17.4156872 36.5731667,16.2357595 34.6225222,15.4443942 C36.1909,14.8083183 37.3017778,13.2710217 37.3017778,11.4760398 L37.3017778,4.78300181 C37.3017778,2.42246835 35.3816333,0.501356239 33.0222889,0.501356239 L31.0784222,0.501356239 L23.1606222,0.501356239 L21.2208222,0.501356239 C18.8608,0.501356239 16.9413333,2.42246835 16.9413333,4.78300181 L16.9413333,11.4760398 C16.9413333,13.3266275 18.1227,14.9018987 19.7690222,15.4986438 C19.0431222,15.767179 18.4663333,16.0085895 18.0345889,16.2276221 C16.9027,16.8026673 15.8406222,17.5330018 14.8781778,18.3989602 C13.3477556,19.7762206 12.1575778,21.3962477 11.3401778,23.2129295 C10.9247,24.1372061 10.6156333,24.9733273 10.4170444,25.7111212 C5.21306667,26.4482369 1.18774444,30.9292495 1.18774444,36.3284358 L1.18774444,39.0836347 C1.18774444,41.8781646 3.46033333,44.1525769 6.25413333,44.1525769 L7.99941111,44.1525769 C8.20613333,45.170434 8.64533333,46.1014919 9.25058889,46.9009946 L53.6945111,46.9009946 C54.2997667,46.10217 54.7389667,45.170434 54.9456889,44.1525769 L56.7465444,44.1525769 C59.5396667,44.1525769 61.8115778,41.8795208 61.8122556,39.084991 C61.8122556,39.0845389 61.8122556,38.4846293 61.8122556,37.2852622 C61.8122556,30.8383816 56.5730333,25.5938065 50.1334667,25.5938065 Z M42.7043444,25.5938065 L32.3865333,25.5938065 L31.1922889,22.8548825 C30.8927111,22.1679476 30.0922556,21.8546564 29.4077,22.1543852 C28.7217889,22.4534358 28.4079778,23.2529385 28.7075556,23.9398734 L29.4287111,25.5938065 L26.4593667,25.5938065 L26.4593667,16.9952532 L28.6363889,16.9952532 C32.1662556,16.9952532 35.4846556,18.3704792 37.9809111,20.8673146 L42.7043444,25.5938065 Z M21.2208222,3.21383363 L21.557,3.21383363 L24.2681111,3.21383363 L24.4836444,3.21383363 C24.5270222,3.21722423 24.5378667,3.21451175 24.5487111,3.21383363 L32.3087782,3.21383363 C32.3376967,3.21609403 27.9744408,6.37291519 19.2190104,12.6842971 L21.2208222,13.4226196 L35.304556,3.21383363 L33.0202556,3.21383363 C33.8851,3.21383363 34.5886333,3.91772152 34.5886333,4.78300181 L34.5886333,11.4760398 C34.5886333,12.3413201 33.8851,13.045208 33.0202556,13.045208 L32.6861111,13.045208 L29.975,13.045208 L24.2681111,13.045208 L21.557,13.045208 L21.2208222,13.045208 C20.3559778,13.045208 19.6524444,12.3413201 19.6524444,11.4760398 L19.6524444,4.78300181 C19.6524444,3.91772152 20.3559778,3.21383363 21.2208222,3.21383363 Z M13.8127111,24.3270796 C14.4742222,22.8555606 15.4434444,21.540009 16.6919111,20.4156872 C17.4774556,19.7090868 18.3423,19.113698 19.2620444,18.6464738 C19.5385778,18.5061031 20.0801222,18.2640145 21.0893333,17.903255 C21.9535,17.5953888 22.8427444,17.3675407 23.7482556,17.215642 L23.7482556,25.5938065 L13.2969222,25.5938065 C13.4372222,25.2018535 13.6100556,24.7759946 13.8127111,24.3270796 Z M10.5736111,42.7936257 C10.5736111,40.5287071 12.4151333,38.6862568 14.6789111,38.6862568 C16.9420111,38.6862568 18.7835333,40.5287071 18.7835333,42.7936257 C18.7835333,45.0585443 16.9420111,46.9009946 14.6789111,46.9009946 C12.4151333,46.9009946 10.5736111,45.0585443 10.5736111,42.7936257 Z M21.3577333,44.1525769 L41.5860111,44.1525769 C41.7927333,45.170434 42.2319333,46.1014919 42.8371889,46.9009946 L20.1065556,46.9009946 C20.7124889,46.1014919 21.1516889,45.170434 21.3577333,44.1525769 Z M44.1608889,42.7936257 C44.1608889,40.5287071 46.0024111,38.6862568 48.2661889,38.6862568 C50.5299667,38.6862568 52.3714889,40.5287071 52.3714889,42.7936257 C52.3714889,45.0585443 50.5299667,46.9009946 48.2661889,46.9009946 C46.0024111,46.9009946 44.1608889,45.0585443 44.1608889,42.7936257 Z M56.7465444,41.4400995 L54.9470444,41.4400995 C54.3173889,38.3261754 51.5622222,35.9737794 48.2668667,35.9737794 C44.9715111,35.9737794 42.2156667,38.3261754 41.5866889,41.4400995 L21.3584111,41.4400995 C20.7287556,38.3261754 17.9735889,35.9737794 14.6782333,35.9737794 C11.3828778,35.9737794 8.62703333,38.3261754 7.99805556,41.4400995 L6.25345556,41.4400995 C5.27203333,41.4400995 4.43091111,40.8358951 4.07778889,39.9801085 L5.55737778,39.9801085 C6.30564444,39.9801085 6.91293333,39.3725136 6.91293333,38.6238698 C6.91293333,37.875226 6.30564444,37.2676311 5.55737778,37.2676311 L3.89885556,37.2676311 L3.89885556,36.3284358 C3.89885556,31.9281193 7.47481111,28.3327306 11.8681667,28.306962 C11.8742667,28.306962 11.8796889,28.3089964 11.8857889,28.3089964 L31.4959333,28.3089964 C31.4972889,28.3089964 31.4986444,28.3096745 31.5006778,28.3096745 C31.5027111,28.3096745 31.5047444,28.3089964 31.5067778,28.3089964 L45.3869889,28.3089964 C45.3958,28.3089964 45.4039333,28.3062839 45.4134222,28.3062839 L50.1334667,28.3062839 C53.7331444,28.3062839 56.8353333,30.4457505 58.2620556,33.516953 L56.4422222,33.516953 C55.6939556,33.516953 55.0866667,34.1245479 55.0866667,34.8731917 C55.0866667,35.6218354 55.6939556,36.2294304 56.4422222,36.2294304 L59.0333667,36.2294304 C59.0740333,36.5766275 59.1011444,36.9278933 59.1011444,37.2859403 L59.1011444,37.7375678 C58.3942222,37.7830018 57.8323444,38.3661844 57.8323444,39.084991 C57.8323444,39.670208 58.2044444,40.1638788 58.7236222,40.3544304 C58.3040778,41.005425 57.5768222,41.4400995 56.7465444,41.4400995 Z" id="Shape" fill-rule="nonzero"></path>
            <rect id="Path" x="0" y="47" width="64.3399963" height="2.71153846" rx="1.35576923"></rect>
            <path d="M28.9590111,37.2676311 L23.5103556,37.2676311 C22.7620889,37.2676311 22.1548,37.875226 22.1548,38.6238698 C22.1548,39.3725136 22.7620889,39.9801085 23.5103556,39.9801085 L28.9590111,39.9801085 C29.7072778,39.9801085 30.3145667,39.3725136 30.3145667,38.6238698 C30.3145667,37.875226 29.7072778,37.2676311 28.9590111,37.2676311 Z" id="Shape" fill-rule="nonzero"></path>
            <path d="M35.4223,37.2676311 L33.2418889,37.2676311 C32.4936222,37.2676311 31.8863333,37.875226 31.8863333,38.6238698 C31.8863333,39.3725136 32.4936222,39.9801085 33.2418889,39.9801085 L35.4223,39.9801085 C36.1705667,39.9801085 36.7778556,39.3725136 36.7778556,38.6238698 C36.7778556,37.875226 36.1705667,37.2676311 35.4223,37.2676311 Z" id="Shape" fill-rule="nonzero"></path>
            <path d="M6.66825556,4.75316456 L14.2566556,4.75316456 C15.0049222,4.75316456 15.6122111,4.14556962 15.6122111,3.39692586 C15.6122111,2.6482821 15.0049222,2.04068716 14.2566556,2.04068716 L6.66825556,2.04068716 C5.91998889,2.04068716 5.3127,2.6482821 5.3127,3.39692586 C5.3127,4.14556962 5.91931111,4.75316456 6.66825556,4.75316456 Z" id="Shape" fill-rule="nonzero"></path>
            <path d="M14.2566556,5.6625226 L10.0347778,5.6625226 C9.28651111,5.6625226 8.67922222,6.27011754 8.67922222,7.0187613 C8.67922222,7.76740506 9.28651111,8.375 10.0347778,8.375 L14.2566556,8.375 C15.0049222,8.375 15.6122111,7.76740506 15.6122111,7.0187613 C15.6122111,6.27011754 15.0056,5.6625226 14.2566556,5.6625226 Z" id="Shape" fill-rule="nonzero"></path>
            <path d="M14.2566556,9.28367993 L13.1695,9.28367993 C12.4212333,9.28367993 11.8139444,9.89127486 11.8139444,10.6399186 C11.8139444,11.3885624 12.4212333,11.9961573 13.1695,11.9961573 L14.2566556,11.9961573 C15.0049222,11.9961573 15.6122111,11.3885624 15.6122111,10.6399186 C15.6122111,9.89127486 15.0056,9.28367993 14.2566556,9.28367993 Z" id="Shape" fill-rule="nonzero"></path>
        </g>
    </g>
</svg>