<svg xmlns="http://www.w3.org/2000/svg" width="93" height="46" viewBox="0 0 93 46">
    <g fill="#2057AC" fill-rule="nonzero">
        <path d="M79.118 6.588c0-3.05-2.48-5.53-5.53-5.53-3.05 0-5.53 2.48-5.53 5.53 0 3.05 2.48 5.53 5.53 5.53 3.05 0 5.53-2.48 5.53-5.53zm-8.295 0a2.768 2.768 0 0 1 2.765-2.765 2.768 2.768 0 0 1 2.765 2.765 2.768 2.768 0 0 1-2.765 2.765 2.768 2.768 0 0 1-2.765-2.765zM87.412 14.882c-3.05 0-5.53 2.48-5.53 5.53 0 3.05 2.48 5.53 5.53 5.53 3.05 0 5.53-2.48 5.53-5.53 0-3.05-2.48-5.53-5.53-5.53zm0 8.295a2.768 2.768 0 0 1-2.765-2.765 2.768 2.768 0 0 1 2.765-2.765 2.768 2.768 0 0 1 2.765 2.765 2.768 2.768 0 0 1-2.765 2.765zM89.774 4.226a1.383 1.383 0 0 0-1.955 0l-16.59 16.59a1.383 1.383 0 0 0 1.955 1.958l16.59-16.59c.539-.542.539-1.416 0-1.958z"/>
        <g>
            <path d="M48.36.283H16.414v34.014H60.8a2.2 2.2 0 0 0 2.2-2.2V29.77a1.1 1.1 0 0 0-1.1-1.1h-.462a1.1 1.1 0 0 0-1.1 1.1v1.873H48.359V18.577h11.979v4.676a1.1 1.1 0 0 0 1.1 1.1h.462a1.1 1.1 0 0 0 1.1-1.1V3.583a3.3 3.3 0 0 0-3.3-3.3H48.36zM33.717 2.937h11.98v12.986h-11.98V2.937zm-14.658 0h11.996v12.986H19.051l.009-12.986zm11.996 28.706H19.051V18.577h12.005v13.066zm14.659 0H33.718V18.577h11.98l.017 13.066zm2.644-15.72V2.937h11.979v12.986H48.359z"/>
            <path d="M47.374 37.039H27.56a5.4 5.4 0 0 0-4.294-2.123 5.4 5.4 0 0 0-4.295 2.123h-5.324V.283h-6.55a3.3 3.3 0 0 0-3.3 3.3v1.6H6.46V2.938h4.507V7.43H5.13v2.654h5.838v26.308a3.3 3.3 0 0 0 3.3 3.3h3.613a5.295 5.295 0 0 0 .754 3.37h-6.655a1.1 1.1 0 0 0-1.1 1.1v.454a1.1 1.1 0 0 0 1.1 1.1h48.99a1.1 1.1 0 0 0 1.1-1.1v-.454a1.1 1.1 0 0 0-1.1-1.1h-4.65a5.294 5.294 0 0 0 .718-3.37h3.922a1.1 1.1 0 0 0 1.1-1.1v-.454a1.1 1.1 0 0 0-1.1-1.1h-4.995a5.41 5.41 0 0 0-4.295-2.123 5.41 5.41 0 0 0-4.295 2.123zm-1.082 2.654a5.294 5.294 0 0 0 .736 3.37H27.924a5.294 5.294 0 0 0 .719-3.37h17.649zm-25.777.619a2.747 2.747 0 0 1 2.75-2.742c1.52 0 2.751 1.227 2.751 2.742a2.747 2.747 0 0 1-2.75 2.742 2.755 2.755 0 0 1-2.76-2.733l.009-.01zm28.394 0a2.747 2.747 0 0 1 2.751-2.742c1.52 0 2.75 1.227 2.75 2.742a2.747 2.747 0 0 1-2.75 2.742 2.755 2.755 0 0 1-2.75-2.733v-.01zM.87 43.063h2.884v2.654H.87zM5.75 43.063h3.327v2.654H5.75z"/>
        </g>
    </g>
</svg>
