<?xml version="1.0" encoding="UTF-8"?>
<svg width="66px" height="65px" viewBox="0 0 66 65" version="1.1" xmlns="http://www.w3.org/2000/svg" xmlns:xlink="http://www.w3.org/1999/xlink">
    <!-- Generator: Sketch 51.2 (57519) - http://www.bohemiancoding.com/sketch -->
    <title>price</title>
    <desc>Created with Sketch.</desc>
    <defs></defs>
    <g id="Page-1" stroke="none" stroke-width="1" fill="none" fill-rule="evenodd">
        <g id="price" fill="#2057AC">
            <path d="M27.637485,17.1408219 C26.8841433,17.2119038 26.309475,17.8467476 26.3127375,18.6042883 L26.3127375,33.2389447 L23.3891553,33.2389447 C22.862222,33.2318565 22.3722575,33.5092338 22.1067258,33.9649499 C21.8411941,34.4206659 21.8411941,34.9841854 22.1067258,35.4399015 C22.3722575,35.8956176 22.862222,36.1729949 23.3891553,36.1659067 L26.3127375,36.1659067 L26.3127375,39.824536 L23.3891553,39.824536 C23.3434994,39.8223913 23.2977682,39.8223913 23.2521124,39.824536 C22.7298094,39.848976 22.2602138,40.1505487 22.0202456,40.6156366 C21.7802773,41.0807244 21.8064002,41.6386564 22.0887724,42.0792317 C22.3711446,42.5198071 22.8668589,42.7760793 23.3891553,42.7514981 L26.3127375,42.7514981 L26.3127375,47.8736084 C26.3052812,48.4013876 26.5822547,48.8923017 27.0375992,49.1583697 C27.4929438,49.4244378 28.0561128,49.4244378 28.5114573,49.1583697 C28.9668019,48.8923017 29.2437754,48.4013876 29.236319,47.8736084 L29.236319,42.7514981 L36.5452725,42.7514981 C37.0722057,42.7585862 37.5621703,42.4812089 37.8277019,42.0254929 C38.0932336,41.5697768 38.0932336,41.0062573 37.8277019,40.5505412 C37.5621703,40.0948252 37.0722057,39.8174479 36.5452725,39.824536 L29.236319,39.824536 L29.236319,36.1659067 L36.8421989,36.1659067 C42.2876955,36.1659067 46.7778081,31.9066834 46.7778081,26.6304924 C46.7778081,21.3543306 42.2779106,17.1408219 36.8421989,17.1408219 L27.7745279,17.1408219 C27.7288721,17.1386772 27.6831408,17.1386772 27.637485,17.1408219 Z M29.236319,20.067762 L36.8421989,20.067762 C40.7931728,20.067762 43.8542266,23.0144875 43.8542266,26.6304924 C43.8542266,30.2465998 40.7833872,33.2389447 36.8421989,33.2389447 L29.236319,33.2389447 L29.236319,20.067762 Z" id="Shape" fill-rule="nonzero"></path>
            <path d="M32.8907958,0.288090332 C15.1469653,0.288090332 0.708557796,14.7430372 0.708557796,32.5072042 C0.708557796,50.2713711 15.1469653,64.72634 32.8907958,64.72634 C50.6346262,64.72634 65.0730337,50.2713711 65.0730337,32.5072042 C65.0730337,17.1013974 54.2306125,4.21473893 39.7657805,1.06556005 C39.0073568,0.961500306 38.2968055,1.45967515 38.1351818,2.20878959 C37.9735581,2.95790404 38.4153787,3.70527702 39.1490876,3.923888 C52.294382,6.78579667 62.103771,18.4701102 62.103771,32.5072042 C62.103771,48.6894848 49.0546042,61.7536853 32.8907958,61.7536853 C16.7269873,61.7536853 3.67782053,48.6894848 3.67782053,32.5072042 C3.67782053,16.3248796 16.7269873,3.26075961 32.8907958,3.26075961 C33.7107356,3.26075961 34.3754282,2.59530492 34.3754282,1.77442497 C34.3754282,0.953545016 33.7107356,0.288090332 32.8907958,0.288090332 Z" id="Path" transform="translate(32.890796, 32.507215) rotate(-90.000000) translate(-32.890796, -32.507215) "></path>
        </g>
    </g>
</svg>