<svg xmlns="http://www.w3.org/2000/svg" width="51" height="51" viewBox="0 0 51 51">
    <g fill="#1D509F" fill-rule="nonzero">
        <path d="M37.05 12.622L12.82 36.85a1.18 1.18 0 0 0 1.667 1.668l24.23-24.229a1.178 1.178 0 1 0-1.667-1.667z"/>
        <path d="M7.162 20.316c.472-.063 3.285.032 5.896.167l4.399 4.399L5.382 36.954c-.002.003-.005.004-.006.005-.003.002-.003.004-.005.006l-2.048 2.048A5.181 5.181 0 0 0 1.795 42.7c0 1.39.543 2.7 1.527 3.684l1.63 1.633a5.183 5.183 0 0 0 3.685 1.526 5.177 5.177 0 0 0 3.688-1.528l2.053-2.052.004-.002.002-.005L26.46 33.881l4.16 4.162c.135 2.61.23 5.423.17 5.873-.143.717-.292 1.46 6.969 6.825.202.151.449.232.702.232l2.605-.002a1.178 1.178 0 0 0 1.013-1.78l-2.692-4.533c-.102-.331-.463-1.933 1.489-3.308 2.212-1.557 3.185-.767 3.924.093.652.761 2.324 3.578 2.913 4.598a1.179 1.179 0 0 0 1.991.08c.101-.148 2.44-3.654.128-9.634-1.792-4.641-4.194-5.297-4.55-5.373l-6.7-.947-4.202-4.204 12.576-12.575s0-.002.002-.003a1.137 1.137 0 0 0 .263-.434c.013-.035.033-.066.043-.104l2.484-9.695a1.18 1.18 0 0 0-1.416-1.44l-9.82 2.36a1.182 1.182 0 0 0-.349.155.872.872 0 0 0-.159.117c-.012.011-.028.02-.04.032l-.01.009-12.576 12.577-4.44-4.44-.965-6.79c-.058-.268-.715-2.669-5.358-4.464-5.98-2.31-9.485.028-9.632.13a1.18 1.18 0 0 0 .08 1.992c1.02.59 3.834 2.26 4.597 2.913.863.739 1.652 1.712.093 3.924-1.368 1.945-2.95 1.599-3.309 1.488L1.912 9.023A1.18 1.18 0 0 0 .13 10.04v2.605c0 .251.08.498.23.7 5.366 7.26 6.108 7.11 6.801 6.972zM6.62 46.35l-1.63-1.632a2.842 2.842 0 0 1-.835-2.019c0-.762.297-1.479.837-2.018l1.22-1.22 5.667 5.666-1.22 1.22c-1.078 1.08-2.962 1.08-4.039.003zm30.572-14.24c.18.182.416.3.668.336l7 .986c.012.003 1.487.575 2.773 3.904.879 2.274.961 4.056.8 5.305-.65-1.059-1.386-2.201-1.843-2.734-2.417-2.815-5.18-1.818-7.075-.485-2.95 2.077-2.79 4.952-2.295 6.181.023.056.05.11.079.16l1.693 2.85-.145.001c-2.384-1.779-5.032-3.914-5.703-4.698.06-1.31-.088-4.495-.194-6.45a1.175 1.175 0 0 0-.343-.77l-4.48-4.48 1.424-1.425 4.31 4.31a1.177 1.177 0 0 0 1.666 0 1.18 1.18 0 0 0 0-1.669l-4.31-4.309 1.494-1.493 4.48 4.48zm-5.313-6.981h-.001v.001l-6.251 6.249-.003.001v.002L13.547 43.458 7.88 37.794l15.16-15.16c.004-.005.01-.006.012-.01.004-.004.006-.01.009-.013L38.787 6.887l5.667 5.666L31.88 25.13zM46.978 4.462l-1.484 5.795-4.385-4.384 5.869-1.41zm-44.489 7.65l2.85 1.69c.05.03.104.057.158.08 1.23.498 4.105.657 6.183-2.296 1.335-1.893 2.332-4.658-.485-7.073-.531-.456-1.665-1.186-2.72-1.833 1.257-.16 3.04-.082 5.289.788 3.103 1.201 3.802 2.552 3.904 2.79l.989 6.985c.035.253.152.487.334.669l4.718 4.716-1.493 1.493-4.494-4.495a1.18 1.18 0 0 0-1.668 1.669l4.495 4.494-1.426 1.426-4.717-4.718a1.175 1.175 0 0 0-.771-.344c-1.955-.106-5.14-.257-6.45-.197-.783-.67-2.919-3.317-4.696-5.7v-.145z"/>
    </g>
</svg>
