<svg xmlns="http://www.w3.org/2000/svg" width="58" height="40" viewBox="0 0 58 40">
    <path fill="#1D509F" fill-rule="nonzero" d="M58 35.124l-.004-.034-.001-.046-.004-.032-.007-.051c-.002-.01-.002-.018-.005-.027a1.129 1.129 0 0 0-.014-.076L49.504.918A1.206 1.206 0 0 0 48.332 0H9.666a1.21 1.21 0 0 0-1.172.919L.035 34.858c-.007.024-.01.051-.016.076-.001.009-.001.018-.005.028-.002.016-.003.032-.007.05l-.003.032-.002.046C0 35.1 0 35.113 0 35.124v3.663a1.208 1.208 0 0 0 1.607 1.145l6.52-2.285 6.582 2.285c.255.09.534.089.793 0l6.549-2.285 6.552 2.285c.255.09.537.09.793 0l6.551-2.285 6.55 2.285c.26.09.539.09.794 0l6.552-2.285 6.551 2.285a1.2 1.2 0 0 0 1.096-.156c.32-.227.51-.597.51-.99V35.15v-.026zm-35.553-3.542a1.214 1.214 0 0 0-.792 0l-5.11 1.782 1.177-9.438 5.062-1.781 5.007 1.747v9.554l-5.344-1.864zm-13.924 0a1.212 1.212 0 0 0-.795 0l-4.804 1.685 2.319-9.311 5.112-1.811 4.938 1.71-1.204 9.66-5.566-1.933zm-.561-18.528l4.552-1.567 4.138 1.455-1.05 8.455-4.858-1.681a1.202 1.202 0 0 0-.796.002l-4 1.418 2.014-8.082zm19.83-10.63v7.992l-3.89-1.356a1.203 1.203 0 0 0-.79-.001l-3.698 1.281.985-7.915h7.392zm9.807 0l.988 7.916-3.7-1.281a1.198 1.198 0 0 0-.79 0l-3.89 1.357V2.425H37.6zm14.454 18.712l-4.002-1.418a1.207 1.207 0 0 0-.799-.002L42.4 21.4l-1.053-8.458 4.14-1.455 4.552 1.567 2.015 8.082zm-32.974-8.115l4.425-1.534 4.287 1.496v8.342l-4.61-1.608a1.207 1.207 0 0 0-.797 0l-4.33 1.522 1.025-8.218zm11.128-.038l4.287-1.496 4.425 1.534 1.025 8.216-4.33-1.52a1.202 1.202 0 0 0-.794 0l-4.613 1.608v-8.342zm0 10.909l5.008-1.747 5.064 1.777 1.175 9.442-5.108-1.782a1.22 1.22 0 0 0-.795 0l-5.344 1.864v-9.554zm13.702 9.621l-1.202-9.655 4.938-1.713 5.11 1.81 2.32 9.315-4.835-1.688a1.214 1.214 0 0 0-.793 0l-5.538 1.931zm5.432-23.262l-3.466-1.193a1.203 1.203 0 0 0-.793.003l-4.042 1.42-1.006-8.057h7.356l1.951 7.827zM10.61 2.425h7.354L16.96 10.48l-4.042-1.42a1.202 1.202 0 0 0-.793-.003l-3.466 1.193 1.95-7.826zm39.63 32.793a1.214 1.214 0 0 0-.793 0l-6.552 2.285-6.55-2.285a1.22 1.22 0 0 0-.794 0L29 37.503l-6.554-2.285a1.214 1.214 0 0 0-.792 0l-6.553 2.287-6.58-2.287a1.212 1.212 0 0 0-.794 0l-5.312 1.863v-1.07l5.712-2 6.581 2.285v.002l.037.01a.89.89 0 0 0 .115.029l.071.014.021.003.036.004a1.501 1.501 0 0 0 .117.005l.06-.003c.014 0 .028 0 .042-.002l.066-.007.037-.005a.789.789 0 0 0 .063-.015l.04-.008c.02-.006.038-.013.06-.018.008-.004.017-.006.028-.01l6.549-2.284 6.552 2.285.016.005c.016.006.034.011.052.016l.056.015.05.01.067.01c.014.003.029.004.043.006a1.219 1.219 0 0 0 .225 0l.042-.005.067-.01.052-.011c.017-.006.035-.01.054-.015l.054-.016.016-.005 6.55-2.285 6.551 2.285.028.009.06.018.04.008c.02.006.042.011.063.015a2.093 2.093 0 0 0 .103.012l.057.004.046.001.092-.003.026-.004.032-.002c.007-.001.012-.003.02-.003a1.119 1.119 0 0 0 .187-.043.322.322 0 0 0 .039-.012l6.552-2.285 5.739 2.003v1.069l-5.342-1.865z"/>
</svg>
