<svg xmlns="http://www.w3.org/2000/svg" width="78" height="53" viewBox="0 0 78 53">
    <g fill="#2057AC" fill-rule="nonzero">
        <path d="M25.403 8.348c-9.433 0-17.135 7.799-17.135 17.351s7.702 17.264 17.135 17.264c9.432 0 17.134-7.8 17.134-17.352S34.835 8.347 25.403 8.347zm0 31.986c-7.962 0-14.538-6.572-14.538-14.723 0-8.15 6.49-14.722 14.538-14.722 7.961 0 14.538 6.572 14.538 14.722 0 8.15-6.49 14.723-14.538 14.723z"/>
        <path d="M75.667 45.65H51.315v-3.628H52.8c1.135 0 2.007-.885 2.007-2.035V25.921c0-1.15-.872-2.035-2.007-2.035h-1.57C50.18 10.528 39.096 0 25.657 0 11.52 0 0 11.678 0 26.01 0 40.34 11.52 52.018 25.658 52.018h50.009a2.1 2.1 0 0 0 2.1-2.1v-2.17a2.1 2.1 0 0 0-2.1-2.1zm-23.479-6.282h-.873V26.452h.873v12.916zM2.705 25.921c0-12.828 10.298-23.355 23.04-23.355 12.654 0 22.952 10.439 23.04 23.178v23.444H25.658c-12.655.088-22.953-10.44-22.953-23.267zm48.61 23.355v-.884h23.738v.884H51.315z"/>
    </g>
</svg>
