<svg xmlns="http://www.w3.org/2000/svg" width="64" height="42" viewBox="0 0 64 42">
    <g fill="#2057AC" fill-rule="nonzero">
        <path d="M61.217 0H2.783A2.791 2.791 0 0 0 0 2.8v10.28c0 1.216.795 2.244 1.928 2.665A5.597 5.597 0 0 1 5.565 21a5.597 5.597 0 0 1-3.637 5.255C.795 26.675 0 27.704 0 28.919V39.2C0 40.746 1.246 42 2.783 42h58.434A2.791 2.791 0 0 0 64 39.2V2.8C64 1.254 62.754 0 61.217 0zm0 39.2H20.87v-2.8c0-.773-.624-1.4-1.392-1.4-.768 0-1.391.627-1.391 1.4v2.8H2.783V28.948a.309.309 0 0 1 .108-.066C6.155 27.67 8.348 24.502 8.348 21c0-3.503-2.193-6.67-5.457-7.882a.299.299 0 0 1-.108-.066V2.8h15.304v2.8c0 .773.623 1.4 1.391 1.4s1.392-.627 1.392-1.4V2.8h40.347v36.4z"/>
        <path d="M19.478 26.6c-.768 0-1.391.627-1.391 1.4v2.8c0 .773.623 1.4 1.391 1.4s1.392-.627 1.392-1.4V28c0-.773-.624-1.4-1.392-1.4zM19.478 18.2c-.768 0-1.391.627-1.391 1.4v2.8c0 .773.623 1.4 1.391 1.4s1.392-.627 1.392-1.4v-2.8c0-.773-.624-1.4-1.392-1.4zM19.478 9.8c-.768 0-1.391.627-1.391 1.4V14c0 .773.623 1.4 1.391 1.4s1.392-.627 1.392-1.4v-2.8c0-.773-.624-1.4-1.392-1.4zM36.87 18.9c2.684 0 4.87-2.199 4.87-4.9 0-2.701-2.186-4.9-4.87-4.9C34.185 9.1 32 11.299 32 14c0 2.701 2.185 4.9 4.87 4.9zm0-7c1.15 0 2.087.942 2.087 2.1 0 1.158-.937 2.1-2.087 2.1a2.096 2.096 0 0 1-2.087-2.1c0-1.158.936-2.1 2.087-2.1zM47.304 23.1c-2.684 0-4.87 2.199-4.87 4.9 0 2.701 2.186 4.9 4.87 4.9 2.685 0 4.87-2.199 4.87-4.9 0-2.701-2.185-4.9-4.87-4.9zm0 7a2.096 2.096 0 0 1-2.087-2.1c0-1.158.937-2.1 2.087-2.1 1.151 0 2.087.942 2.087 2.1 0 1.158-.936 2.1-2.087 2.1zM32.5 32.575a1.383 1.383 0 0 0 1.959-.18l17.392-20.999a1.405 1.405 0 0 0-.178-1.971 1.384 1.384 0 0 0-1.959.179l-17.391 21a1.405 1.405 0 0 0 .178 1.971z"/>
    </g>
</svg>
