<svg xmlns="http://www.w3.org/2000/svg" width="59" height="59" viewBox="0 0 59 59">
    <g fill="#2057AC" fill-rule="nonzero">
        <path d="M33.718 1.435A4.865 4.865 0 0 0 30.254 0c-1.309 0-2.54.51-3.464 1.435L24.674 3.55l-.546-.546a5.528 5.528 0 0 0-7.807 0L12.814 6.51A6.153 6.153 0 0 0 11 10.895c0 1.654.645 3.21 1.814 4.38l11.997 11.997a3.586 3.586 0 0 1 0 5.064l-1.935 1.936-2.441-2.44a3.178 3.178 0 0 0-2.262-.938 3.18 3.18 0 0 0-2.263.937 3.197 3.197 0 0 0-.095 4.41L5.346 46.71a3.178 3.178 0 0 0-4.41.095 3.204 3.204 0 0 0 0 4.525l6.734 6.733A3.183 3.183 0 0 0 9.933 59c.855 0 1.658-.333 2.262-.937a3.197 3.197 0 0 0 .097-4.408L22.76 43.186a3.18 3.18 0 0 0 4.408-.097 3.205 3.205 0 0 0 0-4.525l-2.439-2.439 1.936-1.936a6.21 6.21 0 0 0 0-8.772L14.668 13.421a3.55 3.55 0 0 1-1.046-2.527c0-.956.37-1.853 1.046-2.528l3.507-3.508a2.901 2.901 0 0 1 4.098 0l.547.547L20.7 7.524a4.904 4.904 0 0 0 0 6.928l23.847 23.847a4.865 4.865 0 0 0 3.464 1.435c1.31 0 2.54-.51 3.464-1.435l6.089-6.089a4.904 4.904 0 0 0 0-6.928L33.718 1.435zm-16.06 36.67l3.238 3.238L10.448 51.79l-3.237-3.237L17.66 38.105zM10.342 56.21a.577.577 0 0 1-.817 0L2.79 49.476a.578.578 0 0 1 .818-.817l6.732 6.733a.579.579 0 0 1 0 .817zm14.973-14.973a.577.577 0 0 1-.817 0l-.8-.8c-.006-.007-.01-.015-.018-.022l-.022-.018-5.052-5.052c-.006-.007-.01-.015-.017-.021-.006-.007-.014-.011-.02-.017l-.803-.803a.578.578 0 1 1 .817-.817l6.734 6.734a.58.58 0 0 1-.002.816zm30.397-10.88l-6.089 6.089c-.86.86-2.36.86-3.22 0L22.556 12.597a2.28 2.28 0 0 1 0-3.22l3.033-3.033c.005-.005.01-.007.014-.012l.01-.014 3.03-3.03a2.266 2.266 0 0 1 1.61-.666c.609 0 1.18.237 1.61.667l23.848 23.847a2.28 2.28 0 0 1 0 3.22z"/>
        <path d="M40.494 14.346A1.31 1.31 0 1 0 38.64 16.2l2.284 2.283a1.308 1.308 0 0 0 1.854 0 1.312 1.312 0 0 0 0-1.855l-2.284-2.282zM45.735 19.587a1.31 1.31 0 1 0-1.853 1.854l7.61 7.61c.256.257.591.385.927.385a1.31 1.31 0 0 0 .927-2.238l-7.61-7.61z"/>
    </g>
</svg>
