<?xml version="1.0" encoding="UTF-8"?>
<svg width="85px" height="47px" viewBox="0 0 85 47" version="1.1" xmlns="http://www.w3.org/2000/svg" xmlns:xlink="http://www.w3.org/1999/xlink">
    <!-- Generator: Sketch 51.2 (57519) - http://www.bohemiancoding.com/sketch -->
    <title>ship</title>
    <desc>Created with Sketch.</desc>
    <defs></defs>
    <g id="Page-1" stroke="none" stroke-width="1" fill="none" fill-rule="evenodd">
        <g id="ship" fill="#2057AC">
            <path d="M83.5833333,33.6448788 L83.5833333,25.6363636 C83.577661,25.5271254 83.5593524,25.418923 83.5287775,25.3139436 C83.5188608,25.2713445 83.5206458,25.2261391 83.5069042,25.1851209 C83.4552233,25.026289 83.3759482,24.8779238 83.2727575,24.74691 L83.25512,24.7247488 L83.254865,24.7244924 L71.9394242,10.5045 C71.6707557,10.1664689 71.2637232,9.96966571 70.8333333,9.96969697 L60.9166667,9.96969697 L60.9166667,1.42424242 C60.9166667,0.637655053 60.2824034,0 59.5,0 L12.75,0 C11.9675966,0 11.3333333,0.637655053 11.3333333,1.42424242 C11.3333333,2.2108298 11.9675966,2.84848485 12.75,2.84848485 L14.1666667,2.84848485 L14.1666667,11.3939394 L11.3333333,11.3939394 C10.5509299,11.3939394 9.91666667,12.0315944 9.91666667,12.8181818 C9.91666667,13.6047692 10.5509299,14.2424242 11.3333333,14.2424242 L14.1666667,14.2424242 L14.1666667,22.7878788 L9.91666667,22.7878788 C9.13426327,22.7878788 8.5,23.4255338 8.5,24.2121212 C8.5,24.9987086 9.13426327,25.6363636 9.91666667,25.6363636 L14.1666667,25.6363636 L14.1666667,33.6448788 C12.3519013,35.7800989 12.5350064,38.9742429 14.58175,40.8857273 C14.8473762,41.1528258 15.2076447,41.3029293 15.5833333,41.3030303 L19.9765158,41.3030303 C20.649656,44.6186035 23.5507262,47.0000186 26.9166596,47.0000186 C30.2825929,47.0000186 33.1836632,44.6186035 33.8568033,41.3030303 L63.8931825,41.3030303 C64.5663227,44.6186035 67.4673929,47.0000186 70.8333262,47.0000186 C74.1992596,47.0000186 77.1003298,44.6186035 77.77347,41.3030303 L82.1666667,41.3030303 C82.5423553,41.3029293 82.9026238,41.1528258 83.16825,40.8857273 C85.2149936,38.9742429 85.3980987,35.7800989 83.5833333,33.6448788 Z M78.9829775,23.9150242 L68,22.9116597 L68,18.5151515 L74.686015,18.5151515 L78.9829775,23.9150242 Z M26.9166667,44.1515152 C24.5694565,44.1515152 22.6666667,42.23855 22.6666667,39.8787879 C22.6666667,37.5190258 24.5694565,35.6060606 26.9166667,35.6060606 C29.2638769,35.6060606 31.1666667,37.5190258 31.1666667,39.8787879 C31.1641057,42.2374827 29.2628153,44.1489405 26.9166667,44.1515152 Z M33.8568175,38.4545455 C33.1836773,35.1389723 30.2826071,32.7575571 26.9166737,32.7575571 C23.5507404,32.7575571 20.6496702,35.1389723 19.97653,38.4545455 L16.2259475,38.4545455 C15.4970494,37.4338938 15.6519575,36.0247555 16.5849592,35.1887576 C16.8506214,34.921704 16.9999108,34.5595097 17,34.1818182 L17,32.7575758 L18.4166667,32.7575758 C19.1990701,32.7575758 19.8333333,32.1199207 19.8333333,31.3333333 C19.8333333,30.546746 19.1990701,29.9090909 18.4166667,29.9090909 L17,29.9090909 L17,25.6363636 L29.75,25.6363636 C30.5324034,25.6363636 31.1666667,24.9987086 31.1666667,24.2121212 C31.1666667,23.4255338 30.5324034,22.7878788 29.75,22.7878788 L17,22.7878788 L17,14.2424242 L43.9166667,14.2424242 C44.6990701,14.2424242 45.3333333,13.6047692 45.3333333,12.8181818 C45.3333333,12.0315944 44.6990701,11.3939394 43.9166667,11.3939394 L17,11.3939394 L17,2.84848485 L58.0833333,2.84848485 L58.0833333,38.4545455 L33.8568175,38.4545455 Z M70.8333333,44.1515152 C68.4861231,44.1515152 66.5833333,42.23855 66.5833333,39.8787879 C66.5833333,37.5190258 68.4861231,35.6060606 70.8333333,35.6060606 C73.1805435,35.6060606 75.0833333,37.5190258 75.0833333,39.8787879 C75.0807724,42.2374827 73.1794819,44.1489405 70.8333333,44.1515152 Z M81.5240525,38.4545455 L77.7734842,38.4545455 C77.100344,35.1389723 74.1992738,32.7575571 70.8333404,32.7575571 C67.4674071,32.7575571 64.5663368,35.1389723 63.8931967,38.4545455 L60.9166667,38.4545455 L60.9166667,12.8181818 L70.1526675,12.8181818 L72.4193342,15.6666667 L66.5833333,15.6666667 C65.8009299,15.6666667 65.1666667,16.3043217 65.1666667,17.0909091 L65.1666667,24.2121212 C65.1668305,24.9488393 65.7255889,25.5639524 66.4553658,25.6307948 L80.75,26.9372524 L80.75,29.9090909 L79.3333333,29.9090909 C78.5509299,29.9090909 77.9166667,30.546746 77.9166667,31.3333333 C77.9166667,32.1199207 78.5509299,32.7575758 79.3333333,32.7575758 L80.75,32.7575758 L80.75,34.1818182 C80.7530636,34.5548421 80.8986937,34.9123968 81.1567392,35.1804542 C82.0952733,36.0161242 82.2538595,37.4297007 81.5240525,38.4545455 Z" id="Shape" fill-rule="nonzero"></path>
            <rect id="Rectangle-2" x="12.6595745" y="44.2884615" width="72.3404255" height="2.71153846" rx="1.35576923"></rect>
            <path d="M7.08333333,0 L4.25,0 C3.4675966,0 2.83333333,0.637655053 2.83333333,1.42424242 C2.83333333,2.2108298 3.4675966,2.84848485 4.25,2.84848485 L7.08333333,2.84848485 C7.86573673,2.84848485 8.5,2.2108298 8.5,1.42424242 C8.5,0.637655053 7.86573673,0 7.08333333,0 Z" id="Shape" fill-rule="nonzero"></path>
            <path d="M5.66666667,11.3939394 L2.83333333,11.3939394 C2.05092994,11.3939394 1.41666667,12.0315944 1.41666667,12.8181818 C1.41666667,13.6047692 2.05092994,14.2424242 2.83333333,14.2424242 L5.66666667,14.2424242 C6.44907006,14.2424242 7.08333333,13.6047692 7.08333333,12.8181818 C7.08333333,12.0315944 6.44907006,11.3939394 5.66666667,11.3939394 Z" id="Shape" fill-rule="nonzero"></path>
            <path d="M4.2056666,22.5984093 L1.37233327,22.6874244 C0.599101497,22.7117652 -0.011728696,23.3552211 0.000170944829,24.1328768 C0.0120705856,24.9105325 0.642299317,25.5347941 1.41590994,25.5352114 L1.46087494,25.5345135 L4.29420827,25.4454984 C5.07622773,25.4209163 5.69035878,24.7636477 5.66590994,23.9774462 C5.66380965,23.5966778 5.50631641,23.2334722 5.23026207,22.9727697 C4.95420773,22.7120671 4.5838011,22.5767302 4.2056666,22.5984093 Z" id="Shape" fill-rule="nonzero"></path>
        </g>
    </g>
</svg>