<?xml version="1.0" encoding="UTF-8"?>
<svg width="58px" height="55px" viewBox="0 0 58 55" version="1.1" xmlns="http://www.w3.org/2000/svg" xmlns:xlink="http://www.w3.org/1999/xlink">
    <!-- Generator: Sketch 52.6 (67491) - http://www.bohemiancoding.com/sketch -->
    <title>smeta</title>
    <desc>Created with Sketch.</desc>
    <g id="Page-1" stroke="none" stroke-width="1" fill="none" fill-rule="evenodd">
        <g id="s-stroy-product-card-tab-5-1280" transform="translate(-960.000000, -860.000000)" fill="#2057AC">
            <g id="services-tab" transform="translate(40.000000, 841.000000)">
                <g id="4" transform="translate(899.000000, 0.000000)">
                    <g id="smeta" transform="translate(21.000000, 19.000000)">
                        <path d="M8.34255814,32.7853659 L7.16232558,32.7853659 C6.41738336,32.7853659 5.81348837,33.3859595 5.81348837,34.1268293 C5.81348837,34.8676991 6.41738336,35.4682927 7.16232558,35.4682927 L8.34255814,35.4682927 C9.08750036,35.4682927 9.69139535,34.8676991 9.69139535,34.1268293 C9.69139535,33.3859595 9.08750036,32.7853659 8.34255814,32.7853659 Z" id="Path"></path>
                        <path d="M15.0867442,32.7853659 L13.9065116,32.7853659 C13.1615694,32.7853659 12.5576744,33.3859595 12.5576744,34.1268293 C12.5576744,34.8676991 13.1615694,35.4682927 13.9065116,35.4682927 L15.0867442,35.4682927 C15.8316864,35.4682927 16.4355814,34.8676991 16.4355814,34.1268293 C16.4355814,33.3859595 15.8316864,32.7853659 15.0867442,32.7853659 Z" id="Path"></path>
                        <path d="M21.8309302,32.7853659 L20.6506977,32.7853659 C19.9057555,32.7853659 19.3018605,33.3859595 19.3018605,34.1268293 C19.3018605,34.8676991 19.9057555,35.4682927 20.6506977,35.4682927 L21.8309302,35.4682927 C22.5758725,35.4682927 23.1797674,34.8676991 23.1797674,34.1268293 C23.1797674,33.3859595 22.5758725,32.7853659 21.8309302,32.7853659 Z" id="Path"></path>
                        <path d="M8.34255814,39.4926829 L7.16232558,39.4926829 C6.41738336,39.4926829 5.81348837,40.0932766 5.81348837,40.8341463 C5.81348837,41.5750161 6.41738336,42.1756098 7.16232558,42.1756098 L8.34255814,42.1756098 C9.08750036,42.1756098 9.69139535,41.5750161 9.69139535,40.8341463 C9.69139535,40.0932766 9.08750036,39.4926829 8.34255814,39.4926829 Z" id="Path"></path>
                        <path d="M15.0867442,39.4926829 L13.9065116,39.4926829 C13.1615694,39.4926829 12.5576744,40.0932766 12.5576744,40.8341463 C12.5576744,41.5750161 13.1615694,42.1756098 13.9065116,42.1756098 L15.0867442,42.1756098 C15.8316864,42.1756098 16.4355814,41.5750161 16.4355814,40.8341463 C16.4355814,40.0932766 15.8316864,39.4926829 15.0867442,39.4926829 Z" id="Path"></path>
                        <path d="M21.8309302,39.4926829 L20.6506977,39.4926829 C19.9057555,39.4926829 19.3018605,40.0932766 19.3018605,40.8341463 C19.3018605,41.5750161 19.9057555,42.1756098 20.6506977,42.1756098 L21.8309302,42.1756098 C22.5758725,42.1756098 23.1797674,41.5750161 23.1797674,40.8341463 C23.1797674,40.0932766 22.5758725,39.4926829 21.8309302,39.4926829 Z" id="Path"></path>
                        <path d="M8.34255814,46.2 L7.16232558,46.2 C6.41738336,46.2 5.81348837,46.8005936 5.81348837,47.5414634 C5.81348837,48.2823332 6.41738336,48.8829268 7.16232558,48.8829268 L8.34255814,48.8829268 C9.08750036,48.8829268 9.69139535,48.2823332 9.69139535,47.5414634 C9.69139535,46.8005936 9.08750036,46.2 8.34255814,46.2 Z" id="Path"></path>
                        <path d="M15.0867442,46.2 L13.9065116,46.2 C13.1615694,46.2 12.5576744,46.8005936 12.5576744,47.5414634 C12.5576744,48.2823332 13.1615694,48.8829268 13.9065116,48.8829268 L15.0867442,48.8829268 C15.8316864,48.8829268 16.4355814,48.2823332 16.4355814,47.5414634 C16.4355814,46.8005936 15.8316864,46.2 15.0867442,46.2 Z" id="Path"></path>
                        <path d="M21.8309302,46.2 L20.6506977,46.2 C19.9057555,46.2 19.3018605,46.8005936 19.3018605,47.5414634 C19.3018605,48.2823332 19.9057555,48.8829268 20.6506977,48.8829268 L21.8309302,48.8829268 C22.5758725,48.8829268 23.1797674,48.2823332 23.1797674,47.5414634 C23.1797674,46.8005936 22.5758725,46.2 21.8309302,46.2 Z" id="Path"></path>
                        <path d="M21.8309302,26.0780488 L7.16232558,26.0780488 C6.41738336,26.0780488 5.81348837,26.6786424 5.81348837,27.4195122 C5.81348837,28.160382 6.41738336,28.7609756 7.16232558,28.7609756 L21.8309302,28.7609756 C22.5758725,28.7609756 23.1797674,28.160382 23.1797674,27.4195122 C23.1797674,26.6786424 22.5758725,26.0780488 21.8309302,26.0780488 Z" id="Path"></path>
                        <path d="M57.9123256,4.11158537 C57.9123256,1.88897601 56.1006406,0.087195122 53.865814,0.087195122 L20.987907,0.087195122 C18.7530803,0.087195122 16.9413953,1.88897601 16.9413953,4.11158537 L16.9413953,20.2091463 L4.12744186,20.2091463 C1.8926152,20.2091463 0.0809302326,22.0109272 0.0809302326,24.2335366 L0.0809302326,50.895122 C0.0809302326,53.1177313 1.8926152,54.9195122 4.12744186,54.9195122 L24.865814,54.9195122 C27.1006406,54.9195122 28.9123256,53.1177313 28.9123256,50.895122 L28.9123256,46.2 L53.865814,46.2 C56.1006406,46.2 57.9123256,44.3982191 57.9123256,42.1756098 L57.9123256,4.11158537 Z M26.2146512,50.895122 C26.2146512,51.6359917 25.6107562,52.2365854 24.865814,52.2365854 L4.12744186,52.2365854 C3.38249964,52.2365854 2.77860465,51.6359917 2.77860465,50.895122 L2.77860465,24.2335366 C2.77860465,23.4926668 3.38249964,22.8920732 4.12744186,22.8920732 L24.865814,22.8920732 C25.6107562,22.8920732 26.2146512,23.4926668 26.2146512,24.2335366 L26.2146512,50.895122 Z M55.2146512,42.1756098 C55.2146512,42.9164795 54.6107562,43.5170732 53.865814,43.5170732 L28.9123256,43.5170732 L28.9123256,24.2335366 C28.9123256,22.0109272 27.1006406,20.2091463 24.865814,20.2091463 L19.6390698,20.2091463 L19.6390698,4.11158537 C19.6390698,3.37071558 20.2429648,2.77012195 20.987907,2.77012195 L53.865814,2.77012195 C54.6107562,2.77012195 55.2146512,3.37071558 55.2146512,4.11158537 L55.2146512,42.1756098 Z" id="Shape" fill-rule="nonzero"></path>
                        <path d="M25.8774419,8.63902439 L24.6972093,8.63902439 C23.9522671,8.63902439 23.3483721,9.23961802 23.3483721,9.9804878 C23.3483721,10.7213576 23.9522671,11.3219512 24.6972093,11.3219512 L25.8774419,11.3219512 C26.6223841,11.3219512 27.2262791,10.7213576 27.2262791,9.9804878 C27.2262791,9.23961802 26.6223841,8.63902439 25.8774419,8.63902439 Z" id="Path"></path>
                        <path d="M48.1332558,8.63902439 L33.4646512,8.63902439 C32.7197089,8.63902439 32.115814,9.23961802 32.115814,9.9804878 C32.115814,10.7213576 32.7197089,11.3219512 33.4646512,11.3219512 L48.1332558,11.3219512 C48.878198,11.3219512 49.482093,10.7213576 49.482093,9.9804878 C49.482093,9.23961802 48.878198,8.63902439 48.1332558,8.63902439 Z" id="Path"></path>
                        <path d="M25.8774419,15.3463415 L24.6972093,15.3463415 C23.9522671,15.3463415 23.3483721,15.9469351 23.3483721,16.6878049 C23.3483721,17.4286746 23.9522671,18.0292683 24.6972093,18.0292683 L25.8774419,18.0292683 C26.6223841,18.0292683 27.2262791,17.4286747 27.2262791,16.6878049 C27.2262791,15.9469351 26.6223841,15.3463415 25.8774419,15.3463415 Z" id="Path"></path>
                        <path d="M48.1332558,15.3463415 L33.4646512,15.3463415 C32.982758,15.3463414 32.5374704,15.6020229 32.2965238,16.0170732 C32.0555773,16.4321234 32.0555773,16.9434864 32.2965238,17.3585366 C32.5374704,17.7735868 32.982758,18.0292683 33.4646512,18.0292683 L48.1332558,18.0292683 C48.878198,18.0292683 49.482093,17.4286747 49.482093,16.6878049 C49.482093,15.9469351 48.878198,15.3463415 48.1332558,15.3463415 Z" id="Path"></path>
                        <path d="M48.1332558,22.0536585 L33.4646512,22.0536585 C32.7197089,22.0536585 32.115814,22.6542522 32.115814,23.395122 C32.115814,24.1359917 32.7197089,24.7365854 33.4646512,24.7365854 L48.1332558,24.7365854 C48.878198,24.7365854 49.482093,24.1359917 49.482093,23.395122 C49.482093,22.6542522 48.878198,22.0536585 48.1332558,22.0536585 Z" id="Path"></path>
                        <path d="M48.1332558,28.7609756 L33.4646512,28.7609756 C32.7197089,28.7609756 32.115814,29.3615692 32.115814,30.102439 C32.115814,30.8433088 32.7197089,31.4439024 33.4646512,31.4439024 L48.1332558,31.4439024 C48.878198,31.4439024 49.482093,30.8433088 49.482093,30.102439 C49.482093,29.3615692 48.878198,28.7609756 48.1332558,28.7609756 Z" id="Path"></path>
                        <path d="M48.1332558,35.4682927 L33.4646512,35.4682927 C32.719709,35.4682927 32.115814,36.0688863 32.115814,36.8097561 C32.115814,37.5506259 32.719709,38.1512195 33.4646512,38.1512195 L48.1332558,38.1512195 C48.878198,38.1512195 49.482093,37.5506259 49.482093,36.8097561 C49.482093,36.0688863 48.878198,35.4682927 48.1332558,35.4682927 Z" id="Path"></path>
                    </g>
                </g>
            </g>
        </g>
    </g>
</svg>