<svg xmlns="http://www.w3.org/2000/svg" width="49" height="49" viewBox="0 0 49 49">
    <path fill="#2057AC" fill-rule="nonzero" d="M26.328 21.411l-1.867 6.55H9.215l1.867-6.55h15.246zm-2.657 9.323l-1.866 6.548H6.559l1.866-6.548h15.246zm6.103-21.415H14.528l1.866-6.548H31.64L29.774 9.32zm-2.656 9.32H11.872l1.866-6.549h15.246l-1.866 6.55zm-5.364 28.97L33.896 5.006l12.142 42.603c.235.823.987 1.391 1.843 1.391a1.092 1.092 0 0 0 1.05-1.39L35.982 2.177A3 3 0 0 0 33.098 0H16.557a3 3 0 0 0-2.885 2.178L.723 47.609A1.091 1.091 0 0 0 1.773 49c.855 0 1.608-.568 1.842-1.39l2.154-7.556h15.246l-2.154 7.555A1.092 1.092 0 0 0 19.91 49c.856 0 1.608-.568 1.843-1.391z"/>
</svg>
