<?xml version="1.0" encoding="UTF-8"?>
<svg width="85px" height="62px" viewBox="0 0 85 62" version="1.1" xmlns="http://www.w3.org/2000/svg" xmlns:xlink="http://www.w3.org/1999/xlink">
    <!-- Generator: Sketch 51.2 (57519) - http://www.bohemiancoding.com/sketch -->
    <title>time</title>
    <desc>Created with Sketch.</desc>
    <defs></defs>
    <g id="Page-1" stroke="none" stroke-width="1" fill="none" fill-rule="evenodd">
        <g id="time" fill="#2057AC">
            <path d="M83.5833333,47.7770704 L83.5833333,39.7869902 C83.577661,39.6780034 83.5593524,39.5700502 83.5287775,39.4653124 C83.5188608,39.4228114 83.5206458,39.37771 83.5069042,39.3367862 C83.4552233,39.1783199 83.3759482,39.0302962 83.2727575,38.899584 L83.25512,38.8774738 L83.254865,38.8772181 L71.9394242,24.6899589 C71.6707557,24.3527059 71.2637232,24.1563557 70.8333333,24.1563869 L60.9166667,24.1563869 L60.9166667,15.6306033 C60.9166667,14.8458266 60.2824034,14.2096394 59.5,14.2096394 L36.3186017,14.2096394 C34.2294662,5.35790859 26.0237726,-0.64856422 16.9821109,0.0555517935 C7.9404492,0.759667807 0.757370424,7.9645355 0.0553837941,17.0336239 C-0.646602836,26.1027122 5.34170524,34.3332967 14.1666667,36.4287693 L14.1666667,47.7770704 C12.3519013,49.9073755 12.5350064,53.0941668 14.58175,55.0012511 C14.8473762,55.2677348 15.2076447,55.4174928 15.5833333,55.4175935 L19.9765158,55.4175935 C20.649656,58.7255346 23.5507262,61.1014679 26.9166596,61.1014679 C30.2825929,61.1014679 33.1836632,58.7255346 33.8568033,55.4175935 L63.8931825,55.4175935 C64.5663227,58.7255346 67.4673929,61.1014679 70.8333263,61.1014679 C74.1992596,61.1014679 77.1003298,58.7255346 77.77347,55.4175935 L82.1666667,55.4175935 C82.5423553,55.4174928 82.9026238,55.2677348 83.16825,55.0012511 C85.2149936,53.0941668 85.3980987,49.9073755 83.5833333,47.7770704 Z M78.9829775,38.0696132 L68,37.0685583 L68,32.6821705 L74.686015,32.6821705 L78.9829775,38.0696132 Z M2.90510167,19.8934951 L4.25,19.8934951 C5.0324034,19.8934951 5.66666667,19.2573079 5.66666667,18.4725312 C5.66666667,17.6877545 5.0324034,17.0515672 4.25,17.0515672 L2.90510167,17.0515672 C3.18893509,13.8984941 4.42523031,10.9073617 6.44883667,8.47774083 L7.49841667,9.53040512 C8.05301467,10.076699 8.94291024,10.0726567 9.49255265,9.52134705 C10.0421951,8.97003737 10.0462251,8.07744242 9.50158333,7.52116212 L8.45206,6.46845519 C10.8743379,4.43868201 13.8564412,3.19861606 17,2.91391391 L17,4.26289181 C17,5.04766852 17.6342633,5.68385575 18.4166667,5.68385575 C19.1990701,5.68385575 19.8333333,5.04766852 19.8333333,4.26289181 L19.8333333,2.91391391 C22.976871,3.1986083 25.9589576,4.43865366 28.3812308,6.46839836 L27.33175,7.52116212 C26.9684966,7.87897637 26.82463,8.404802 26.9549166,8.89846997 C27.0852032,9.39213793 27.469599,9.77769983 27.9617741,9.90838163 C28.4539491,10.0390634 28.9781845,9.89476037 29.3349167,9.53040512 L30.38444,8.4776982 C32.4080748,10.9073237 33.6443905,13.8984729 33.9282317,17.0515672 L32.5833333,17.0515672 C31.8009299,17.0515672 31.1666667,17.6877545 31.1666667,18.4725312 C31.1666667,19.2573079 31.8009299,19.8934951 32.5833333,19.8934951 L33.9282317,19.8934951 C33.6443982,23.0465683 32.408103,26.0377007 30.3844967,28.4673215 L29.3349167,27.4146572 C28.7803187,26.8683634 27.8904231,26.8724056 27.3407807,27.4237153 C26.7911383,27.975025 26.7871083,28.8676199 27.33175,29.4239002 L28.3812733,30.4766072 C25.9589954,32.5063803 22.9768921,33.7464463 19.8333333,34.0311484 L19.8333333,32.6821705 C19.8333333,31.8973938 19.1990701,31.2612066 18.4166667,31.2612066 C17.6342633,31.2612066 17,31.8973938 17,32.6821705 L17,34.0311484 C13.8564624,33.7464541 10.8743757,32.5064087 8.4521025,30.476664 L9.50158333,29.4239002 C10.0462251,28.8676199 10.0421951,27.975025 9.49255265,27.4237153 C8.94291024,26.8724056 8.05301467,26.8683634 7.49841667,27.4146572 L6.44889333,28.4673642 C4.42525858,26.0377386 3.18894283,23.0465895 2.90510167,19.8934951 Z M26.9166667,58.2595214 C24.5694565,58.2595214 22.6666667,56.3509597 22.6666667,53.9966296 C22.6666667,51.6422995 24.5694565,49.7337378 26.9166667,49.7337378 C29.2638769,49.7337378 31.1666667,51.6422995 31.1666667,53.9966296 C31.1641057,56.3498949 29.2628153,58.2569527 26.9166667,58.2595214 Z M26.9166667,46.8918099 C23.552387,46.8964453 20.6538671,49.2702797 19.9765158,52.5756657 L16.2259475,52.5756657 C15.4970494,51.5573635 15.6519575,50.1514689 16.5849592,49.3173953 C16.8506214,49.0509565 16.9999108,48.689596 17,48.3127738 L17,46.8918099 L18.4166667,46.8918099 C19.1990701,46.8918099 19.8333333,46.2556227 19.8333333,45.470846 C19.8333333,44.6860693 19.1990701,44.049882 18.4166667,44.049882 L17,44.049882 L17,36.8730763 C17.4690867,36.9091546 17.9385133,36.9450624 18.4166667,36.9450624 C28.5832438,36.9337698 36.822075,28.6699473 36.8333333,18.4725312 C36.8333333,17.9929274 36.7975342,17.5220768 36.761565,17.0515672 L58.0833333,17.0515672 L58.0833333,52.5756657 L33.8568175,52.5756657 C33.1794662,49.2702797 30.2809463,46.8964453 26.9166667,46.8918099 Z M70.8333333,58.2595214 C68.4861231,58.2595214 66.5833333,56.3509597 66.5833333,53.9966296 C66.5833333,51.6422995 68.4861231,49.7337378 70.8333333,49.7337378 C73.1805435,49.7337378 75.0833333,51.6422995 75.0833333,53.9966296 C75.0807724,56.3498949 73.1794819,58.2569527 70.8333333,58.2595214 Z M81.5240525,52.5756657 L77.7734842,52.5756657 C77.100344,49.2677246 74.1992738,46.8917913 70.8333404,46.8917913 C67.4674071,46.8917913 64.5663368,49.2677246 63.8931967,52.5756657 L60.9166667,52.5756657 L60.9166667,26.9983148 L70.1526675,26.9983148 L72.4193342,29.8402427 L66.5833333,29.8402427 C65.8009299,29.8402427 65.1666667,30.4764299 65.1666667,31.2612066 L65.1666667,38.3660263 C65.1668305,39.1010485 65.7255889,39.7147457 66.4553658,39.7814343 L80.75,41.0848845 L80.75,44.049882 L79.3333333,44.049882 C78.5509299,44.049882 77.9166667,44.6860693 77.9166667,45.470846 C77.9166667,46.2556227 78.5509299,46.8918099 79.3333333,46.8918099 L80.75,46.8918099 L80.75,48.3127738 C80.7530636,48.6849391 80.8986937,49.0416707 81.1567392,49.3091111 C82.0952733,50.1428575 82.2538595,51.55318 81.5240525,52.5756657 Z" id="Shape" fill-rule="nonzero"></path>
            <rect id="Rectangle-2" x="9.94680851" y="59.3043478" width="72.3404255" height="2.69565217" rx="1.34782609"></rect>
            <path d="M18.4166667,19.8934951 L24.0833333,19.8934951 C24.8657367,19.8934951 25.5,19.2573079 25.5,18.4725312 C25.5,17.6877545 24.8657367,17.0515672 24.0833333,17.0515672 L19.8333333,17.0515672 L19.8333333,9.94674756 C19.8333333,9.16197084 19.1990701,8.52578362 18.4166667,8.52578362 C17.6342633,8.52578362 17,9.16197084 17,9.94674756 L17,18.4725312 C17,19.2573079 17.6342633,19.8934951 18.4166667,19.8934951 Z" id="Shape" fill-rule="nonzero"></path>
        </g>
    </g>
</svg>