<svg xmlns="http://www.w3.org/2000/svg" width="61" height="51" viewBox="0 0 61 51">
    <g fill="#2057AC" fill-rule="nonzero">
        <path d="M60.542 15.15v-.225-.225c0-.075-.076-.075-.076-.15 0-.15-.076-.15-.076-.225-.153 0-.229-.075-.305-.075-.153-.15-.381-.225-.686-.225h-6.1L51.01 10.8 53.3 7.575h5.49c.381 0 .762-.225.991-.525.229-.3.229-.75.076-1.125-1.906-3.6-5.795-5.85-9.989-5.775-5.566.15-10.14 4.575-10.446 10.125-.152 3.525-1.449 6.675-3.812 8.925l-2.364 2.325-2.287-1.65L20.74 9.9l.152-.15 1.297-1.275c1.982-1.95 3.05-1.95 5.49-1.95h1.677c.839 0 1.601-.6 1.83-1.35l.381-1.2a2.03 2.03 0 0 0-.152-1.5c-.229-.45-.686-.825-1.22-.9-4.346-1.2-8.997-.675-13.039 1.35l-2.516.15-.915.75c-.457-.3-1.067-.3-1.449.075L9.76 6.375c-.381.375-.457.975-.076 1.425l-2.669 2.625a1.742 1.742 0 0 0-.534 1.275c0 .3.077.675.305.9l-.762.75c-1.22-1.05-3.05-1.125-4.27-.15-.687.6-1.144 1.425-1.22 2.325-.077.9.305 1.8.915 2.4l4.422 4.35c.61.6 1.449.975 2.288.975 1.067-.075 1.906-.45 2.516-1.2.991-1.2.915-3-.152-4.2l.762-.75c.305.15.61.225.915.225.534 0 .991-.225 1.373-.525l1.83-1.8 10.14 9.975.535 1.125c.228.525.457 1.05.762 1.575l-13.725 13.5a5.28 5.28 0 0 0 0 7.575 5.42 5.42 0 0 0 3.812 1.575 5.42 5.42 0 0 0 3.813-1.575L33.093 36.6l1.83 1.8c4.498 3 8.234 6.6 11.285 10.8.61.9 1.677 1.425 2.82 1.575h.306c1.067 0 2.135-.45 2.897-1.2l5.49-5.4-1.677-2.025c-4.346-5.1-9.074-9.75-14.183-14.1l.382-.375c1.982-1.95 4.65-3 7.472-3 .305 0 .61-.15.839-.3.228-.225.305-.525.305-.825v-1.725a10.913 10.913 0 0 0 9.683-6.3v-.375zM12.2 15.075c-.305-.15-.61-.225-.915-.3-.534 0-.991.15-1.296.525l-1.296 1.275a1.742 1.742 0 0 0-.534 1.275c0 .45.228.975.534 1.275l.152.15c.381.375.457.975.152 1.35a.914.914 0 0 1-.686.375c-.305 0-.534-.075-.762-.3l-4.575-4.2c-.229-.225-.305-.45-.305-.75s.152-.525.381-.675a.874.874 0 0 1 .61-.225c.305 0 .534.075.763.3l.152.15c.686.675 1.906.675 2.593 0l1.296-1.275c.381-.375.534-.825.534-1.35 0-.3-.077-.675-.23-.9L15.556 5.1l2.135-.075.229-.15c3.431-1.8 7.472-2.325 11.209-1.35l-.23.675h-1.372c-2.668 0-4.422 0-7.015 2.625L19.063 8.25l-5.185 5.1-1.678 1.725zm6.939-3.6l9.455 9.3-1.907 1.875-.152.15-9.455-9.3 2.059-2.025zm.076 35.775c-.61.6-1.372.9-2.211.9a3.08 3.08 0 0 1-2.212-.9c-.61-.6-.915-1.35-.915-2.175 0-.825.305-1.575.915-2.175l13.192-12.975a34.73 34.73 0 0 0 3.66 5.1L19.215 47.25zm34.999-3.525l.381.45-3.965 3.9c-.381.375-.915.525-1.373.525-.457 0-.838-.225-1.143-.6-2.211-3-4.728-5.775-7.625-8.175l1.906-.525c.61-.15.915-.825.762-1.425-.152-.6-.838-.9-1.448-.75l-3.355.975c-.61-.45-1.22-.9-1.907-1.35l-.38-.375 2.592-.75c.61-.15.915-.825.762-1.425-.152-.6-.838-.9-1.449-.75l-3.736 1.125c-.61-.6-1.143-1.275-1.677-1.95l2.364-.675c.61-.15.914-.825.762-1.425-.153-.6-.839-.9-1.449-.75l-3.126.9a30.827 30.827 0 0 1-2.974-5.4l-.305-.675 1.22-1.2 1.22-1.2 1.907 1.35c8.235 5.85 15.63 12.6 22.036 20.175zm-5.719-21.15c-2.974.3-5.795 1.575-7.93 3.675l-.534.525a79.051 79.051 0 0 0-4.956-3.825l2.135-2.1c2.745-2.7 4.27-6.3 4.422-10.275V10.5c.23-4.35 3.813-7.8 8.236-7.95 2.592-.075 5.032 1.05 6.71 2.925h-3.89c-.38 0-.762.15-.914.45l-3.05 4.35c-.076.075-.153.225-.153.3 0 .075-.076.225-.076.3v11.7zm2.288-2.925V14.4l1.296 1.875h5.337c-1.525 2.025-3.965 3.3-6.633 3.375z"/>
        <path d="M46.589 11.85h-3.431c-.61 0-1.144.525-1.144 1.125v7.8c0 .6.533 1.125 1.143 1.125h3.432c.61 0 1.144-.525 1.144-1.125v-7.8c0-.6-.458-1.125-1.144-1.125zM44.3 16.575l1.144-.6v.675l-1.144.6v-.675zm1.144-1.5l-1.144.6V15l1.144-.6v.675zm-1.144 3l1.144-.6v.675l-1.144.6v-.675zm.153-3.975l-.153.075V14.1h.153zm-.153 5.55v-.15l1.144-.6v.75h-1.144zM25.239 35.625a1.118 1.118 0 0 0-1.602 0L21.58 37.65a1.075 1.075 0 0 0 0 1.575c.229.225.534.3.838.3.305 0 .61-.075.84-.3l2.058-2.025c.305-.375.305-1.125-.076-1.575z"/>
        <ellipse cx="17.309" cy="44.7" rx="1.906" ry="1.875"/>
    </g>
</svg>
