<svg xmlns="http://www.w3.org/2000/svg" width="100%" height="60px" 
                             class="js-an__svg" data-type="trolley">
  <g>
    <g>
      <g>
        <g>
          <path style="opacity:1;fill:#2057ac;fill-opacity:1;fill-rule:nonzero"
             d="m 25.445399,50.999997 c -1.0374,-1.7928 -2.9748,-3 -5.1954,-3 V 2 c 0,-1.1045695 -0.895431,-2 -2,-2 H 11.25 C 10.421572,0 9.7499996,0.67157283 9.7499996,1.4999999 v 0 c 0,0.8284271 0.6715724,1.4999999 1.5000004,1.4999999 h 5.999999 V 48.805197 c -1.7928,1.0374 -3,2.9748 -3,5.1948 0,3.3132 2.6868,5.999999 6,5.999999 3.3132,0 6,-2.686799 6,-5.999999 H 47.73977 c 0.530433,0 1.039141,0.210713 1.414214,0.585786 l 3.914513,3.914513 c 0.585698,0.585698 1.535302,0.585698 2.121,0 v 0 c 0.585706,-0.585705 0.585728,-1.535315 4.9e-5,-2.121049 l -4.792951,-4.793398 c -0.375078,-0.375113 -0.883814,-0.585852 -1.41428,-0.585852 z m -5.1954,6 c -1.6536,0 -3,-1.3446 -3,-3 0,-1.6554 1.3464,-3 3,-3 1.6536,0 3,1.3446 3,3 0,1.6554 -1.3464,3 -3,3 z" />
        </g>
      </g>
      <g>
        <g>
          <path style="opacity:1;fill:#2057ac;fill-opacity:1;fill-rule:nonzero"
             d="m 23.249999,19.999999 c 0,-1.10457 0.89543,-2 2,-2 h 28.999998 c 1.104569,0 2,0.89543 2,2 v 25.999998 c 0,1.10457 -0.895431,2 -2,2 H 25.249999 c -1.10457,0 -2,-0.89543 -2,-2 z m 11.999999,1 v 5.999999 h 8.999999 V 20.999999 Z M 53.249997,44.999997 V 20.999999 h -6 v 8.999999 H 32.249998 v -8.999999 h -5.999999 v 23.999998 z m -20.999999,-11.999999 3,3 h -1.5 v 5.999999 h -3 v -5.999999 h -1.5 z m 14.999999,0 3,3 h -1.5 v 5.999999 h -3 v -5.999999 h -1.5 z" />
        </g>
      </g>
    </g>
    <g>
      <path style="opacity:1;fill:#2057ac;fill-opacity:1;fill-rule:nonzero"
         d="m 1.6682556,46.753165 h 7.5884 c 0.7482664,0 1.3555554,-0.607595 1.3555554,-1.356239 0,-0.748644 -0.607289,-1.356239 -1.3555554,-1.356239 h -7.5884 c -0.74826671,0 -1.3555556,0.607595 -1.3555556,1.356239 0,0.748644 0.60661111,1.356239 1.3555556,1.356239 z" />
      <path style="opacity:1;fill:#2057ac;fill-opacity:1;fill-rule:nonzero"
         d="M 9.2566556,47.662523 H 5.0347778 c -0.7482667,0 -1.3555556,0.607594 -1.3555556,1.356238 0,0.748644 0.6072889,1.356239 1.3555556,1.356239 h 4.2218778 c 0.7482664,0 1.3555554,-0.607595 1.3555554,-1.356239 0,-0.748644 -0.606611,-1.356238 -1.3555554,-1.356238 z" />
      <path style="opacity:1;fill:#2057ac;fill-opacity:1;fill-rule:nonzero"
         d="M 9.2566556,51.28368 H 8.1695 c -0.7482667,0 -1.3555556,0.607595 -1.3555556,1.356239 0,0.748643 0.6072889,1.356238 1.3555556,1.356238 h 1.0871556 c 0.7482664,0 1.3555554,-0.607595 1.3555554,-1.356238 0,-0.748644 -0.606611,-1.356239 -1.3555554,-1.356239 z" />
    </g>
  </g>
</svg>
