<?xml version="1.0" encoding="UTF-8" standalone="no"?>
<svg
   xmlns:dc="http://purl.org/dc/elements/1.1/"
   xmlns:cc="http://creativecommons.org/ns#"
   xmlns:rdf="http://www.w3.org/1999/02/22-rdf-syntax-ns#"
   xmlns:svg="http://www.w3.org/2000/svg"
   xmlns="http://www.w3.org/2000/svg"
   xmlns:sodipodi="http://sodipodi.sourceforge.net/DTD/sodipodi-0.dtd"
   xmlns:inkscape="http://www.inkscape.org/namespaces/inkscape"
   width="178"
   height="24.300001"
   viewBox="0 0 178 24.300001"
   version="1.1"
   id="svg897"
   sodipodi:docname="logo.svg"
   inkscape:version="0.92.3 (2405546, 2018-03-11)">
  <metadata
     id="metadata901">
    <rdf:RDF>
      <cc:Work
         rdf:about="">
        <dc:format>image/svg+xml</dc:format>
        <dc:type
           rdf:resource="http://purl.org/dc/dcmitype/StillImage" />
        <dc:title></dc:title>
      </cc:Work>
    </rdf:RDF>
  </metadata>
  <sodipodi:namedview
     pagecolor="#ffffff"
     bordercolor="#666666"
     borderopacity="1"
     objecttolerance="10"
     gridtolerance="10"
     guidetolerance="10"
     inkscape:pageopacity="0"
     inkscape:pageshadow="2"
     inkscape:window-width="1920"
     inkscape:window-height="996"
     id="namedview899"
     showgrid="false"
     fit-margin-top="0"
     fit-margin-left="0"
     fit-margin-right="0"
     fit-margin-bottom="0"
     inkscape:zoom="5.7330097"
     inkscape:cx="89"
     inkscape:cy="9.8000003"
     inkscape:window-x="-8"
     inkscape:window-y="-8"
     inkscape:window-maximized="1"
     inkscape:current-layer="svg897" />
  <defs
     id="defs893">
    <filter
       id="a"
       width="1.0369999"
       height="1.522"
       x="-0.017999999"
       y="-0.23899999"
       filterUnits="objectBoundingBox">
      <feOffset
         dy="2"
         in="SourceAlpha"
         result="shadowOffsetOuter1"
         id="feOffset880" />
      <feGaussianBlur
         in="shadowOffsetOuter1"
         result="shadowBlurOuter1"
         stdDeviation="7.5"
         id="feGaussianBlur882" />
      <feColorMatrix
         in="shadowBlurOuter1"
         result="shadowMatrixOuter1"
         values="0 0 0 0 0 0 0 0 0 0 0 0 0 0 0 0 0 0 0.06 0"
         id="feColorMatrix884" />
      <feMerge
         id="feMerge890">
        <feMergeNode
           in="shadowMatrixOuter1"
           id="feMergeNode886" />
        <feMergeNode
           in="SourceGraphic"
           id="feMergeNode888" />
      </feMerge>
    </filter>
  </defs>
  <path
     d="m 121.982,0.334 h -0.949 v 2.42 h -0.352 v -2.42 h -0.948 V 0 h 2.276 V 0.334 Z M 27.697,20.142 H 20.95 L 13.523,0.112 h 6.749 z m -8.049,0 H 12.9 L 7.0460002,4.118 H 13.795 Z M 11.464,20.17 H 0 L 5.637,4.2570003 Z M 5.637,7.6500003 C 6.088,8.8310003 7.0170002,11.56 7.8630002,14.05 l 0.01,0.029 c 0.726,2.134 1.39,4.087 1.64,4.728 H 1.977 C 2.182,18.254 2.667,16.722 3.229,14.94 L 3.232,14.932 C 4.083,12.237 5.114,8.9720003 5.636,7.6510003 Z M 31.681,11.852 c 0,5.035 2.954,8.235 7.887,8.235 1.707,0 3.55,-0.334 4.932,-1.308 l 0.108,-1.447 c -0.433,0.39 -2.33,1.864 -4.742,1.864 -3.523,0 -5.99,-2.81 -5.99,-7.233 0,-3.8949997 2.033,-7.3169997 6.152,-7.3169997 2.304,0 3.957,1.558 4.282,1.975 l 0.163,-0.027 c 0.108,-0.612 0.244,-1.197 0.46,-1.78 C 43.416,4.145 41.736,3.756 40.11,3.756 c -4.716,0 -8.429,2.9210003 -8.429,8.096 z m 26.795,7.93 h -0.012 a 7.788,7.788 0 0 1 -0.549,0.027 86.958,86.958 0 0 0 -2.358,-6.205 h -5.691 l -0.306,0.788 c -0.687,1.764 -1.374,3.527 -1.916,5.417 l -0.182,-0.016 c -0.24,-0.022 -0.44,-0.04 -0.658,-0.04 -0.154,0 -0.294,0.015 -0.426,0.03 h -0.007 c -0.122,0.013 -0.237,0.026 -0.353,0.026 L 53.01,3.756 h 0.515 l 6.72,16.053 c -0.206,0 -0.399,-0.015 -0.588,-0.029 -0.183,-0.014 -0.363,-0.027 -0.55,-0.027 -0.222,0 -0.43,0.015 -0.631,0.029 z M 69.082,13.618 69.08,13.617 69.071,13.607 69.07,13.605 69.069,13.604 69.067,13.602 69.066,13.601 69.065,13.599 69.063,13.598 69.062,13.596 69.061,13.595 69.059,13.593 69.058,13.592 69.057,13.59 69.055,13.589 69.054,13.587 H 69.053 L 69.051,13.585 69.05,13.583 69.049,13.582 69.047,13.58 69.046,13.579 69.045,13.577 69.043,13.576 69.042,13.574 69.041,13.573 69.039,13.571 c -0.724,-0.82 -1.448,-1.638 -2.153,-2.47 L 68.836,9.1250003 73.905,4.118 c -0.153,0 -0.305,0.014 -0.454,0.028 h -0.005 l -0.002,0.001 h -0.006 a 4.35,4.35 0 0 1 -0.4,0.026 8.42,8.42 0 0 1 -0.83,-0.05 L 72.143,4.118 66.642,9.9600003 C 66.548,10.048 66.442,10.15 66.33,10.26 c -0.276,0.268 -0.592,0.575 -0.88,0.813 -0.245,0.195 -0.543,0.278 -0.57,0.139 V 4.118 a 5.66,5.66 0 0 0 -0.503,0.028 h -0.004 a 5.296,5.296 0 0 1 -0.469,0.027 c -0.325,0 -0.65,-0.028 -0.975,-0.055 v 15.718 c 0.146,0 0.305,-0.013 0.467,-0.027 h 10e-4 c 0.17,-0.014 0.342,-0.028 0.507,-0.028 0.275,0 0.574,0.023 0.895,0.049 l 0.081,0.006 v -8.012 c 0,-0.111 0.271,-0.028 0.38,0.056 l 4.878,5.87 c 0.569,0.668 1.057,1.363 1.544,2.086 0.2,0 0.4,-0.013 0.604,-0.027 0.21,-0.014 0.423,-0.028 0.643,-0.028 0.321,0 0.642,0.02 1.013,0.043 l 0.207,0.012 v -0.11 l -1.816,-2.31 c -1.04,-1.3 -2.146,-2.55 -3.251,-3.798 z m 13.902,6.469 c -4.933,0 -7.887,-3.2 -7.887,-8.235 0,-5.1749997 3.713,-8.096 8.429,-8.096 1.626,0 3.306,0.39 4.824,1.0570003 a 10.097,10.097 0 0 0 -0.461,1.78 l -0.163,0.028 c -0.325,-0.417 -1.978,-1.975 -4.282,-1.975 -4.12,0 -6.152,3.422 -6.152,7.3169997 0,4.424 2.467,7.234 5.99,7.234 2.412,0 4.309,-1.475 4.742,-1.864 l -0.108,1.446 c -1.382,0.974 -3.225,1.308 -4.932,1.308 z M 91.195,6.6200003 c 0.325,-0.417 1.979,-1.975 4.282,-1.975 3.767,0 5.827,2.838 6.125,6.3149997 h -6.206 c -0.322,0 -0.644,-0.027 -0.97,-0.054 h -0.004 c -0.33,-0.029 -0.664,-0.057 -1.005,-0.057 0,0.08 0.013,0.174 0.026,0.27 v 10e-4 c 0.014,0.104 0.029,0.213 0.029,0.313 0,0.075 -0.011,0.162 -0.023,0.257 -0.015,0.116 -0.032,0.245 -0.032,0.383 0.322,0 0.644,-0.027 0.97,-0.054 h 0.003 l 0.002,-10e-4 h 0.012 c 0.326,-0.028 0.656,-0.056 0.992,-0.056 h 6.233 c 0,4.396 -2.466,7.234 -5.99,7.234 -2.411,0 -4.281,-1.475 -4.742,-1.864 l 0.108,1.446 c 1.41,0.974 3.225,1.308 4.933,1.308 4.933,0 7.886,-3.2 7.886,-8.235 0,-5.1469997 -3.713,-8.096 -8.428,-8.096 -1.653,0 -3.334,0.39 -4.824,1.0570003 0.217,0.584 0.352,1.196 0.46,1.78 z M 113.418,20.086 c -4.932,0 -7.887,-3.2 -7.887,-8.235 0,-5.1749997 3.714,-8.096 8.43,-8.096 1.625,0 3.305,0.39 4.823,1.0570003 a 10.063,10.063 0 0 0 -0.46,1.78 l -0.164,0.028 c -0.324,-0.417 -1.977,-1.975 -4.282,-1.975 -4.118,0 -6.151,3.422 -6.151,7.3169997 0,4.424 2.466,7.234 5.99,7.234 2.411,0 4.308,-1.475 4.742,-1.864 l -0.109,1.446 c -1.409,0.974 -3.251,1.308 -4.932,1.308 z M 55.232,12.658 H 50.3 l 2.439,-5.8699997 z m 78.593,-8.3469997 h -2.872 v 5.091 h -0.76 V 3.617 h 3.632 v 0.6950003 z m 4.715,1.78 a 2.12,2.12 0 0 0 0.136,-0.723 c 0,-0.333 -0.054,-0.612 -0.189,-0.862 A 1.361,1.361 0 0 0 137.998,3.95 1.588,1.588 0 0 0 137.375,3.671 4,4 0 0 0 136.508,3.588 h -1.518 v 5.7870003 h 0.76 v -2.142 h 0.758 c 0.407,0 0.732,-0.027 1.003,-0.139 0.244,-0.083 0.487,-0.25 0.677,-0.445 a 1.61,1.61 0 0 0 0.352,-0.556 z M 144.015,3.616 144.003,3.644 h -0.747 L 141.793,7.0380003 140.139,3.644 h -0.84 l 2.087,4.2840003 -0.135,0.306 c -0.054,0.139 -0.109,0.25 -0.19,0.306 a 1.066,1.066 0 0 1 -0.244,0.139 l -0.04,0.014 c -0.061,0.023 -0.113,0.042 -0.203,0.042 h -0.217 c -0.058,0 -0.117,-0.008 -0.17,-0.016 -0.048,-0.006 -0.091,-0.012 -0.129,-0.012 -0.08,-0.028 -0.162,-0.028 -0.19,-0.028 h -0.054 v 0.696 c 0.009,0 0.025,0.002 0.048,0.006 0.049,0.008 0.13,0.021 0.224,0.021 0.162,0.028 0.271,0.028 0.379,0.028 0.109,0 0.216,0 0.352,-0.028 0.109,-0.027 0.243,-0.083 0.378,-0.138 h 0.002 c 0.135,-0.084 0.27,-0.195 0.38,-0.307 0.107,-0.111 0.216,-0.278 0.297,-0.473 L 144.003,3.644 h 0.012 z m 4.716,5.7860003 h 0.732 V 3.617 h -4.31 v 5.7860003 h 0.76 v -5.09 h 2.818 v 5.09 z m 6.938,0 h -0.732 v -5.09 h -2.818 v 5.09 h -0.76 V 3.617 h 4.31 v 5.7860003 z m -17.887,-4.532 c 0.081,0.167 0.109,0.334 0.109,0.528 a 1.196,1.196 0 0 1 -0.326,0.835 c -0.108,0.139 -0.27,0.222 -0.46,0.278 -0.19,0.056 -0.435,0.084 -0.732,0.084 h -0.623 v -2.31 h 0.732 c 0.243,0 0.46,0.028 0.596,0.056 0.135,0.028 0.297,0.084 0.406,0.167 0.133,0.081 0.213,0.217 0.293,0.352 v 0.002 h 0.002 v 0.004 h 0.002 v 0.004 z M 124.556,2.755 h 0.353 V 0 h -0.488 L 123.744,1.53 123.039,0 h -0.488 v 2.754 h 0.325 V 0.39 l 0.732,1.613 h 0.217 L 124.556,0.39 V 2.754 Z M 0.108,23.982 H 178 V 24.3 H 0.108 Z M 161.251,9.4030003 h 0.786 L 160.032,3.617 h -1.003 l -2.06,5.7860003 h 0.76 l 0.542,-1.613 h 2.438 z M 134.747,20.087 h -0.95 l -2.276,-2.643 h -0.514 v 2.643 h -0.76 V 14.3 h 0.76 v 2.587 c 0.071,0 0.135,-0.007 0.195,-0.015 h 0.007 c 0.051,-0.007 0.1,-0.012 0.15,-0.012 a 0.823,0.823 0 0 0 0.325,-0.14 c 0.108,-0.055 0.19,-0.139 0.298,-0.25 0.109,-0.111 0.19,-0.25 0.271,-0.417 0.014,-0.04 0.033,-0.082 0.052,-0.122 l 0.002,-0.003 a 0.976,0.976 0 0 0 0.055,-0.126 c 0.026,-0.055 0.047,-0.111 0.067,-0.167 h 0.001 v -0.002 l 0.001,-10e-4 V 15.63 l 10e-4,-0.001 v -10e-4 c 0.02,-0.053 0.039,-0.107 0.065,-0.16 0.162,-0.417 0.38,-0.723 0.623,-0.918 0.245,-0.167 0.57,-0.25 1.03,-0.25 h 0.298 v 0.695 h -0.325 c -0.162,0 -0.298,0.028 -0.406,0.056 a 0.56,0.56 0 0 0 -0.271,0.167 c -0.081,0.056 -0.136,0.167 -0.19,0.278 -0.055,0.111 -0.108,0.25 -0.162,0.39 -0.136,0.334 -0.271,0.584 -0.407,0.75 a 1.682,1.682 0 0 1 -0.542,0.418 z m 5.934,-4.173 a 2.623,2.623 0 0 0 -0.514,-0.946 c -0.217,-0.25 -0.515,-0.445 -0.786,-0.612 -0.325,-0.14 -0.677,-0.195 -1.084,-0.195 -0.406,0 -0.76,0.056 -1.084,0.195 -0.325,0.139 -0.596,0.334 -0.814,0.584 -0.243,0.278 -0.406,0.584 -0.541,0.974 -0.136,0.39 -0.19,0.807 -0.19,1.28 0,0.472 0.082,0.918 0.19,1.28 0.108,0.36 0.298,0.695 0.515,0.945 0.216,0.25 0.487,0.445 0.813,0.584 0.325,0.14 0.677,0.195 1.083,0.195 0.407,0 0.76,-0.056 1.085,-0.195 0.298,-0.139 0.569,-0.334 0.813,-0.584 0.217,-0.25 0.379,-0.556 0.514,-0.946 0.136,-0.39 0.19,-0.807 0.19,-1.28 0,-0.473 -0.08,-0.918 -0.19,-1.28 z m 6.776,4.173 h -0.758 v -4.98 l -1.573,3.394 h -0.434 l -1.544,-3.394 v 4.98 h -0.704 V 14.3 h 1.029 l 1.491,3.227 1.463,-3.227 h 1.03 z m 5.447,0 h 0.732 V 14.3 h -4.309 v 5.787 h 0.759 v -5.091 h 2.818 v 5.09 z m 7.101,0 h -0.786 l -0.542,-1.614 h -2.44 l -0.541,1.614 h -0.759 l 2.06,-5.787 H 158 Z m 4.796,0 h 0.76 V 14.3 h -0.76 v 2.253 h -2.818 V 14.3 h -0.759 v 5.787 h 0.759 v -2.838 h 2.818 z m 6.938,0 h -0.731 v -4.619 l -2.791,4.619 h -0.76 V 14.3 h 0.732 v 4.563 l 2.765,-4.563 h 0.785 z m 5.475,0 h 0.705 V 14.3 h -0.786 l -2.764,4.563 V 14.3 h -0.732 v 5.787 h 0.758 l 2.819,-4.619 z m 0.054,-7.512 c 0,0.417 -0.135,0.751 -0.406,0.974 -0.244,0.222 -0.597,0.334 -1.003,0.334 -0.434,0 -0.758,-0.112 -1.003,-0.334 -0.244,-0.223 -0.38,-0.529 -0.406,-0.974 h 0.677 c 0,0.278 0.081,0.5 0.19,0.64 0.108,0.139 0.298,0.195 0.542,0.195 0.244,0 0.406,-0.056 0.542,-0.195 0.109,-0.14 0.19,-0.334 0.19,-0.64 z m -17.778,-8.2899997 0.976,2.837 h -1.979 l 1.003,-2.838 z M 140.086,17.193 c 0,-0.75 -0.163,-1.335 -0.489,-1.725 -0.325,-0.417 -0.786,-0.612 -1.354,-0.612 -0.57,0 -1.03,0.195 -1.355,0.613 -0.325,0.417 -0.489,0.973 -0.489,1.724 0,0.752 0.164,1.336 0.489,1.753 0.325,0.417 0.785,0.612 1.328,0.612 0.542,0 1.003,-0.195 1.327,-0.612 0.325,-0.417 0.543,-0.974 0.543,-1.753 z m 17.372,-2.198 0.975,2.838 h -1.978 l 1.003,-2.837 z"
     id="path895"
     inkscape:connector-curvature="0"
     style="fill:#2057ac;fill-rule:evenodd" />
</svg>
