<svg xmlns="http://www.w3.org/2000/svg" width="178" height="24.3"><path d="M121.982.334h-.95v2.42h-.352V.334h-.948V0h2.276v.334zM27.697 20.142H20.95L13.523.112h6.75zm-8.05 0H12.9L7.046 4.118h6.75zm-8.184.028H0L5.637 4.257zM5.637 7.65l3.876 11.157H1.977l1.255-3.875 2.404-7.28zm26.044 4.202c0 5.035 2.954 8.235 7.887 8.235 1.707 0 3.55-.334 4.932-1.308l.108-1.447c-.433.4-2.33 1.864-4.742 1.864-3.523 0-6-2.8-6-7.233 0-3.895 2.033-7.317 6.152-7.317 2.304 0 3.957 1.558 4.282 1.975l.163-.027c.108-.612.244-1.197.46-1.78-1.517-.67-3.197-1.058-4.823-1.058-4.716 0-8.43 2.92-8.43 8.096zm26.795 7.93h-.012a7.788 7.788 0 0 1-.549.027 86.958 86.958 0 0 0-2.358-6.205h-5.69l-.306.788c-.687 1.764-1.374 3.527-1.916 5.417l-.182-.016c-.24-.022-.44-.04-.658-.04a3.68 3.68 0 0 0-.426.03h-.007c-.122.013-.237.026-.353.026L53 3.756h.515l6.72 16.053c-.206 0-.4-.015-.588-.03a7.13 7.13 0 0 0-.55-.027c-.222 0-.43.015-.63.03zm10.606-6.164l-.002-.001-.01-.01v-.002l-.004-.004h-.001l-.002-.001-.001-.002-.004-.004-.001-.002-.002-.001-.001-.002h-.001l-.002-.002v-.002l-.004-.004-.001-.002-.002-.001-.001-.002-.003-.003-2.153-2.47 1.95-1.976 5.07-5.007c-.153 0-.305.014-.454.028h-.005l-.002.001h-.006a4.35 4.35 0 0 1-.4.026 8.42 8.42 0 0 1-.83-.05l-.065-.005-5.5 5.842-.312.3c-.276.268-.592.575-.88.813-.245.195-.543.278-.57.14V4.118a5.66 5.66 0 0 0-.503.028h-.004a5.296 5.296 0 0 1-.469.027c-.325 0-.65-.028-.975-.055v15.718c.146 0 .305-.013.467-.027.17-.014.343-.028.508-.028.275 0 .574.023.895.05l.08.006v-8.012c0-.11.27-.028.38.056l4.878 5.87c.57.668 1.057 1.363 1.544 2.086.2 0 .4-.013.604-.027.2-.014.423-.028.643-.028.32 0 .642.02 1.013.043l.207.012v-.1l-1.816-2.3c-1.04-1.3-2.146-2.55-3.25-3.798zm13.902 6.47c-4.933 0-7.887-3.2-7.887-8.235 0-5.175 3.713-8.096 8.43-8.096 1.626 0 3.306.4 4.824 1.057a10.097 10.097 0 0 0-.461 1.78l-.163.028c-.325-.417-1.978-1.975-4.282-1.975-4.12 0-6.152 3.422-6.152 7.317 0 4.424 2.467 7.234 6 7.234 2.412 0 4.31-1.475 4.742-1.864l-.108 1.446c-1.382.974-3.225 1.308-4.932 1.308zm8.21-13.467c.325-.417 1.98-1.975 4.282-1.975 3.767 0 5.827 2.838 6.125 6.315h-6.206c-.322 0-.644-.027-.97-.054h-.004c-.33-.03-.664-.057-1.005-.057 0 .08.013.174.026.27.014.105.03.214.03.314 0 .075-.01.162-.023.257-.015.116-.032.245-.032.383.322 0 .644-.027.97-.054h.003l.002-.001h.012c.326-.028.656-.056.992-.056h6.233c0 4.396-2.466 7.234-6 7.234-2.41 0-4.28-1.475-4.742-1.864l.108 1.446c1.4.974 3.225 1.308 4.933 1.308 4.933 0 7.886-3.2 7.886-8.235 0-5.147-3.713-8.096-8.428-8.096-1.653 0-3.334.4-4.824 1.057.217.584.352 1.196.46 1.78zm22.223 13.466c-4.932 0-7.887-3.2-7.887-8.235 0-5.175 3.714-8.096 8.43-8.096 1.625 0 3.305.4 4.823 1.057a10.063 10.063 0 0 0-.46 1.78l-.164.028c-.324-.417-1.977-1.975-4.282-1.975-4.118 0-6.15 3.422-6.15 7.317 0 4.424 2.466 7.234 6 7.234 2.41 0 4.308-1.475 4.742-1.864l-.11 1.446c-1.41.974-3.25 1.308-4.932 1.308zm-58.186-7.428H50.3l2.44-5.87zm78.593-8.347h-2.872v5.09h-.76V3.617h3.632v.695zm4.715 1.78a2.12 2.12 0 0 0 .136-.723c0-.333-.054-.612-.19-.862a1.361 1.361 0 0 0-.489-.556 1.588 1.588 0 0 0-.623-.279 4 4 0 0 0-.867-.083H135v5.787h.76V7.233h.758c.407 0 .732-.027 1.003-.14.244-.083.487-.25.677-.445a1.61 1.61 0 0 0 .352-.556zm5.475-2.475l-.012.028h-.747l-1.463 3.394-1.654-3.394h-.84l2.087 4.284-.135.306c-.054.14-.11.25-.2.306a1.066 1.066 0 0 1-.244.139l-.04.014c-.06.023-.113.042-.203.042h-.217c-.058 0-.117-.008-.17-.016s-.09-.012-.13-.012c-.08-.028-.162-.028-.2-.028h-.054v.696c.01 0 .025.002.048.006a1.36 1.36 0 0 0 .224.021 1.99 1.99 0 0 0 .379.028c.11 0 .216 0 .352-.028.11-.027.243-.083.378-.138h.002a2.13 2.13 0 0 0 .38-.307c.107-.11.216-.278.297-.473l2.13-4.84h.012zm4.716 5.786h.732V3.617h-4.3v5.786h.76v-5.1h2.818v5.1zm6.938 0h-.732v-5.1h-2.818v5.1h-.76V3.617h4.3v5.786zM137.782 4.87c.08.167.11.334.11.528a1.196 1.196 0 0 1-.326.835c-.108.14-.27.222-.46.278s-.435.084-.732.084h-.623v-2.3h.732c.243 0 .46.028.596.056a1.07 1.07 0 0 1 .406.167c.133.08.213.217.293.352v.002h.002v.004h.002v.004zm-13.226-2.115h.353V0h-.488l-.677 1.53L123.04 0h-.488v2.754h.325V.4l.732 1.613h.217l.73-1.613v2.364zM.108 23.982H178v.318H.108zM161.25 9.403h.786l-2.005-5.786h-1.003l-2.06 5.786h.76l.542-1.613h2.438zm-26.504 10.684h-.95l-2.276-2.643h-.514v2.643h-.76V14.3h.76v2.587c.07 0 .135-.007.195-.015h.007c.05-.007.1-.012.15-.012a.823.823 0 0 0 .325-.14c.108-.055.2-.14.298-.25s.2-.25.27-.417c.014-.04.033-.082.052-.122l.002-.003a.976.976 0 0 0 .055-.126 1.82 1.82 0 0 0 .067-.167h.001v-.002-.001-.002h.001c.02-.054.04-.108.065-.16.162-.417.38-.723.623-.918.245-.167.57-.25 1.03-.25h.298v.695h-.325a1.59 1.59 0 0 0-.406.056.56.56 0 0 0-.271.167c-.08.056-.136.167-.2.278s-.108.25-.162.4c-.136.334-.27.584-.407.75a1.682 1.682 0 0 1-.542.418zm5.934-4.173a2.623 2.623 0 0 0-.514-.946c-.217-.25-.515-.445-.786-.612-.325-.14-.677-.195-1.084-.195s-.76.056-1.084.195a2.22 2.22 0 0 0-.814.584c-.243.278-.406.584-.54.974s-.2.807-.2 1.28a4.55 4.55 0 0 0 .19 1.28 2.63 2.63 0 0 0 .515.945c.216.25.487.445.813.584s.677.195 1.083.195.76-.056 1.085-.195c.298-.14.57-.334.813-.584.217-.25.38-.556.514-.946s.2-.807.2-1.28a4.47 4.47 0 0 0-.19-1.28zm6.776 4.173h-.758v-4.98l-1.573 3.394h-.434l-1.544-3.394v4.98h-.704V14.3h1.03l1.49 3.227 1.463-3.227h1.03zm5.447 0h.732V14.3h-4.31v5.787h.76v-5.09h2.818v5.1zm7.1 0h-.786l-.542-1.614h-2.44l-.54 1.614h-.76l2.06-5.787H158zm4.796 0h.76V14.3h-.76v2.253h-2.818V14.3h-.76v5.787h.76V17.25h2.818zm6.938 0h-.73v-4.62l-2.79 4.62h-.76V14.3h.732v4.563l2.765-4.563h.785zm5.475 0h.705V14.3h-.786l-2.764 4.563V14.3h-.732v5.787h.758l2.82-4.62zm.054-7.512c0 .417-.135.75-.406.974-.244.222-.597.334-1.003.334-.434 0-.758-.112-1.003-.334s-.38-.53-.406-.974h.677c0 .278.08.5.2.64s.298.195.542.195.406-.056.542-.195c.11-.14.2-.334.2-.64zm-17.778-8.3l.976 2.837h-1.98l1.003-2.838zm-19.404 12.908c0-.75-.163-1.335-.49-1.725-.325-.417-.786-.612-1.354-.612s-1.03.195-1.355.613-.49.973-.49 1.724.164 1.336.49 1.753.785.612 1.328.612 1.003-.195 1.327-.612.543-.974.543-1.753zm17.372-2.198l.975 2.838h-1.978l1.003-2.837z" fill="#2057ac" fill-rule="evenodd"/></svg>