<svg xmlns="http://www.w3.org/2000/svg" width="195" height="28" viewBox="0 0 195 28">
    <defs>
        <linearGradient id="a" x1=".008%" y1="50%" y2="50%">
            <stop offset="30%" stop-color="#00B4E6"/>
            <stop offset="100%" stop-color="#088CCB"/>
        </linearGradient>
    </defs>
    <g fill="none" fill-rule="evenodd">
        <path fill="#004F8B" d="M21.15 21.723l3.033-17.401h4.85L26 21.722H21.15M43.592 4.75c-.961-.353-2.467-.73-4.348-.73-4.792 0-8.17 2.36-8.198 5.742-.027 2.5 2.41 3.895 4.25 4.727 1.889.853 2.524 1.397 2.515 2.159-.012 1.166-1.508 1.699-2.903 1.699-1.941 0-2.972-.264-4.565-.913l-.626-.277-.68 3.895c1.133.486 3.228.907 5.403.929 5.1 0 8.41-2.333 8.447-5.945.018-1.98-1.274-3.486-4.072-4.728-1.696-.805-2.735-1.342-2.724-2.157 0-.724.88-1.497 2.778-1.497a9.123 9.123 0 0 1 3.63.667l.435.2.658-3.771M56.03 4.338h-3.748c-1.16 0-2.03.31-2.54 1.443l-7.204 15.947h5.094s.833-2.144 1.022-2.615l6.212.008c.145.609.59 2.607.59 2.607h4.501l-3.926-17.39M50.05 15.554c.4-1.003 1.932-4.864 1.932-4.864-.029.046.398-1.008.643-1.661l.328 1.5 1.123 5.025H50.05M17.082 4.334l-4.75 11.867-.506-2.412c-.883-2.78-3.638-5.792-6.718-7.3l4.343 15.219 5.132-.006L22.22 4.334h-5.138"/>
        <path fill="#ED9F2D" d="M7.927 4.324H.105l-.062.362c6.086 1.44 10.112 4.92 11.783 9.103l-1.7-7.996c-.294-1.102-1.146-1.431-2.2-1.47"/>
        <g>
            <path fill="#E30E17" d="M92.056 13.614c0-4.328 1.922-8.18 4.915-10.674C94.764 1.1 91.976 0 88.943 0 81.795 0 76 6.095 76 13.614c0 7.519 5.795 13.614 12.943 13.614 3.033 0 5.821-1.1 8.028-2.94-2.993-2.493-4.915-6.346-4.915-10.674"/>
            <path fill="#EA600A" d="M92.056 13.614c0 4.328 1.922 8.18 4.915 10.675 2.992-2.494 4.914-6.347 4.914-10.675s-1.922-8.18-4.914-10.674c-2.993 2.493-4.915 6.346-4.915 10.674"/>
            <path fill="#F59F00" d="M104.999 0c-3.034 0-5.822 1.101-8.028 2.94 2.992 2.493 4.914 6.346 4.914 10.674 0 4.328-1.922 8.18-4.914 10.675 2.206 1.838 4.994 2.94 8.028 2.94 7.148 0 12.942-6.096 12.942-13.615S112.147 0 105 0"/>
        </g>
        <g>
            <path fill="#4DB45E" d="M150.352 6v.007c-.008 0-2.37-.007-3 2.19-.578 2.014-2.206 7.576-2.25 7.73h-.451s-1.665-5.686-2.25-7.737c-.63-2.197-3-2.19-3-2.19H134v16.714h5.4v-9.926h.451l3.15 9.926h3.75l3.15-9.919h.45v9.92h5.401V6h-5.4zM170.078 6s-1.582.139-2.325 1.752l-3.825 8.174h-.45V6h-5.4v16.714h5.1s1.657-.146 2.4-1.751l3.75-8.175h.45v9.926h5.401V6h-5.1zM177.58 13.59v9.124h5.4v-5.328h5.85c2.55 0 4.71-1.584 5.513-3.795H177.58z"/>
            <path fill="url(#a)" d="M12.076 0H.068c.6 3.182 3.052 5.737 6.225 6.569.72.19 1.478.292 2.258.292h9.256c.082-.38.12-.766.12-1.168 0-3.146-2.618-5.693-5.85-5.693z" transform="translate(176.754 6)"/>
        </g>
    </g>
</svg>
