<svg xmlns="http://www.w3.org/2000/svg" width="80" height="21" viewBox="0 0 80 21">
    <g fill="#95989B" fill-rule="evenodd">
        <path d="M.73 3l1.433 1.433h9.212L12.807 3H.731zm15.838 6.914v9.654h-5.055V21H18V8.482l-1.432 1.432zM0 21h8.056l-1.433-1.432h-5.19v-5.191L0 12.945V21zM18 0l-7.919 7.856v6.572L18 6.571V0zM0 10.999L10.081 21v-6.572L0 4.428v6.57zM22.982 9.38l.073.87c.29-.352.606-.604.945-.754.34-.15.727-.226 1.164-.226.42 0 .771.057 1.054.17.283.115.554.322.812.623l-.763.628a1.64 1.64 0 0 0-.57-.424 1.618 1.618 0 0 0-.655-.138c-.452 0-.82.081-1.103.243-.282.162-.553.408-.812.738v3.78H22V9.38h.982zm6.097 0v5.51h-1.127V9.38h1.127zM28.52 7c.25 0 .445.068.582.204.137.136.206.3.206.49a.67.67 0 0 1-.206.485c-.137.14-.331.21-.582.21-.25 0-.444-.07-.582-.21a.67.67 0 0 1-.206-.485c0-.19.069-.354.206-.49.138-.136.332-.204.582-.204zm2.873 2.38l2.109 4.64h.049l2.181-4.64h1.164l-2.764 5.51h-1.309L30.17 9.38h1.224zm7.454 3.008c.025.302.101.564.23.788.13.224.3.408.51.551.21.144.45.25.721.32.27.07.552.105.843.105a6.1 6.1 0 0 0 1.133-.094c.327-.063.648-.175.963-.336l.328.837a4.616 4.616 0 0 1-1.14.347 6.128 6.128 0 0 1-.624.072 11.18 11.18 0 0 1-.733.022 4.85 4.85 0 0 1-1.455-.198 2.931 2.931 0 0 1-1.06-.573 2.45 2.45 0 0 1-.655-.904 2.992 2.992 0 0 1-.224-1.179c0-.426.083-.817.248-1.174.166-.356.398-.659.697-.909.3-.25.649-.444 1.049-.584.4-.14.838-.209 1.315-.209.485 0 .905.057 1.26.17.356.115.651.273.885.475.235.202.408.442.522.721.113.28.17.584.17.915a2.957 2.957 0 0 1-.11.837h-4.873zm3.891-.793c-.008-.544-.157-.93-.448-1.157-.291-.228-.764-.342-1.418-.342-.243 0-.483.032-.721.094-.239.063-.451.156-.637.281a1.69 1.69 0 0 0-.467.468c-.125.188-.2.406-.224.656h3.915zm3.346-2.215l.073.87c.29-.352.606-.604.945-.754.34-.15.727-.226 1.164-.226.42 0 .771.057 1.054.17.283.115.554.322.812.623l-.763.628a1.64 1.64 0 0 0-.57-.424 1.618 1.618 0 0 0-.655-.138c-.452 0-.82.081-1.103.243-.282.162-.553.408-.812.738v3.78h-1.127V9.38h.982zm9.103 1.025a4.072 4.072 0 0 0-.903-.27 5.653 5.653 0 0 0-.927-.072c-.534 0-.92.068-1.158.204-.238.136-.358.31-.358.524 0 .271.136.457.406.556.271.1.673.175 1.207.226.76.073 1.347.24 1.763.501.416.261.624.674.624 1.24 0 .573-.258.997-.775 1.273-.518.275-1.22.413-2.11.413-.444 0-.834-.028-1.17-.083a5.106 5.106 0 0 1-1.035-.292l.278-.837a4.707 4.707 0 0 0 1.88.386c1.252 0 1.878-.29 1.878-.871a.681.681 0 0 0-.085-.353.628.628 0 0 0-.279-.237 2.106 2.106 0 0 0-.509-.154 8.43 8.43 0 0 0-.788-.104c-.792-.074-1.382-.232-1.77-.474-.387-.243-.581-.614-.581-1.113 0-.22.052-.428.157-.623.105-.194.265-.363.48-.507.213-.143.484-.257.811-.341.328-.085.71-.127 1.146-.127.218 0 .418.005.6.017.182.01.357.029.527.055.17.025.34.06.51.104.169.044.347.1.532.166l-.351.793zm1.345-.683l.825-.474.884-1.245.376.055V9.38h2.412l-.036.849-2.376-.1v2.899c0 .418.105.716.315.892.21.176.481.265.812.265.267 0 .508-.033.722-.1.214-.066.434-.161.66-.286l.364.738c-.25.162-.523.28-.818.353a4.38 4.38 0 0 1-1.049.11c-.695 0-1.226-.165-1.594-.496-.367-.33-.551-.819-.551-1.465v-2.81l-.946-.122v-.385zm6.037.033c.452-.17.87-.292 1.254-.37a6.79 6.79 0 0 1 1.328-.115c.896 0 1.557.15 1.981.452.425.301.637.79.637 1.465v2.303c0 .265.048.443.145.535.097.092.3.138.606.138v.727a2.743 2.743 0 0 1-.8.11c-.25 0-.448-.08-.594-.242-.145-.162-.23-.382-.254-.662-.558.603-1.39.904-2.497.904-.711 0-1.25-.15-1.618-.452-.368-.301-.552-.712-.552-1.234 0-.25.042-.477.127-.683.085-.206.233-.415.443-.628.275-.074.551-.14.83-.199.279-.058.576-.106.891-.143.315-.037.65-.066 1.006-.088.356-.022.748-.037 1.176-.044v-.309c0-.382-.115-.66-.346-.837-.23-.176-.64-.265-1.23-.265-.76 0-1.523.151-2.29.452l-.243-.815zm4.109 2.512c-.703.015-1.295.05-1.776.105-.48.055-.92.13-1.315.226a.941.941 0 0 0-.243.661c0 .301.103.527.31.678.206.15.499.226.878.226.404 0 .778-.056 1.122-.166.343-.11.684-.297 1.024-.562v-1.168zm4-2.887l.073.87c.29-.352.606-.604.945-.754.34-.15.727-.226 1.164-.226.42 0 .771.057 1.054.17.283.115.554.322.812.623l-.763.628a1.64 1.64 0 0 0-.57-.424 1.618 1.618 0 0 0-.655-.138c-.452 0-.82.081-1.103.243-.282.162-.553.408-.812.738v3.78h-1.127V9.38h.982zm4.363.342l.825-.474.885-1.245.375.055V9.38h2.412l-.036.849-2.376-.1v2.899c0 .418.105.716.315.892.21.176.481.265.813.265.266 0 .507-.033.72-.1.215-.066.435-.161.661-.286l.364.738c-.25.162-.523.28-.818.353a4.38 4.38 0 0 1-1.049.11c-.695 0-1.226-.165-1.594-.496-.367-.33-.551-.819-.551-1.465v-2.81l-.946-.122v-.385z"/>
    </g>
</svg>
