<?xml version="1.0" encoding="UTF-8" standalone="no"?>
<svg width="34px" height="16px" viewBox="0 0 34 16" version="1.1" xmlns="http://www.w3.org/2000/svg" xmlns:xlink="http://www.w3.org/1999/xlink">
    <!-- Generator: Sketch 50.2 (55047) - http://www.bohemiancoding.com/sketch -->
    <title>brick-and-stone-icon</title>
    <desc>Created with Sketch.</desc>
    <defs></defs>
    <g id="Page-1" stroke="none" stroke-width="1" fill="none" fill-rule="evenodd">
        <path d="M33.3703704,14.7692308 L32.7407407,14.7692308 L32.7407407,10.4615385 C32.7407407,10.1212308 32.4592963,9.84615385 32.1111111,9.84615385 L27.7037037,9.84615385 L27.7037037,5.53846154 C27.7037037,5.19876923 27.4222593,4.92307692 27.0740741,4.92307692 L22.6666667,4.92307692 L22.6666667,0.615384615 C22.6666667,0.275692308 22.3852222,0 22.037037,0 L11.962963,0 C11.6154074,0 11.3333333,0.275692308 11.3333333,0.615384615 L11.3333333,4.92307692 L6.92592593,4.92307692 C6.57837037,4.92307692 6.2962963,5.19876923 6.2962963,5.53846154 L6.2962963,9.84615385 L1.88888889,9.84615385 C1.54133333,9.84615385 1.25925926,10.1212308 1.25925926,10.4615385 L1.25925926,14.7692308 L0.62962963,14.7692308 C0.282074074,14.7692308 0,15.0443077 0,15.3846154 C0,15.7249231 0.282074074,16 0.62962963,16 L33.3703704,16 C33.7185556,16 34,15.7249231 34,15.3846154 C34,15.0443077 33.7185556,14.7692308 33.3703704,14.7692308 Z M26.4444444,9.84615385 L17.6296296,9.84615385 L17.6296296,6.15384615 L26.4444444,6.15384615 L26.4444444,9.84615385 Z M12.5925926,1.23076923 L21.4074074,1.23076923 L21.4074074,4.92307692 L12.5925926,4.92307692 L12.5925926,1.23076923 Z M7.55555556,6.15384615 L16.3703704,6.15384615 L16.3703704,9.84615385 L7.55555556,9.84615385 L7.55555556,6.15384615 Z M2.51851852,11.0769231 L11.3333333,11.0769231 L11.3333333,14.7692308 L2.51851852,14.7692308 L2.51851852,11.0769231 Z M12.5925926,11.0769231 L21.4074074,11.0769231 L21.4074074,14.7692308 L12.5925926,14.7692308 L12.5925926,11.0769231 Z M22.6666667,14.7692308 L22.6666667,11.0769231 L31.4814815,11.0769231 L31.4814815,14.7692308 L22.6666667,14.7692308 Z" id="brick-and-stone-icon" fill="#FFFFFF" fill-rule="nonzero"></path>
    </g>
</svg>