<svg xmlns="http://www.w3.org/2000/svg" width="98" height="14" viewBox="0 0 98 14">
    <defs>
        <linearGradient id="a" x1=".008%" y1="50%" y2="50%">
            <stop offset="30%" stop-color="#00B4E6"/>
            <stop offset="100%" stop-color="#088CCB"/>
        </linearGradient>
    </defs>
    <g fill="none" fill-rule="evenodd" opacity=".5">
        <path fill="#004F8B" d="M10.524 11.19l1.509-9.023h2.413l-1.51 9.023h-2.412M21.69 2.389a6.13 6.13 0 0 0-2.163-.379c-2.385 0-4.065 1.224-4.08 2.978-.013 1.296 1.2 2.02 2.116 2.45.939.443 1.255.725 1.25 1.12-.005.605-.75.881-1.444.881-.966 0-1.479-.137-2.271-.473l-.311-.144-.34 2.02c.565.252 1.607.47 2.69.481 2.537 0 4.184-1.21 4.202-3.082.01-1.027-.634-1.808-2.026-2.452-.844-.417-1.36-.696-1.355-1.118 0-.375.437-.776 1.382-.776a4.38 4.38 0 0 1 1.807.345l.216.104.327-1.955M27.88 2.175h-1.866c-.577 0-1.01.161-1.264.749l-3.584 8.268H23.7s.415-1.111.509-1.355l3.09.003c.073.316.294 1.352.294 1.352h2.24l-1.954-9.017m-2.976 5.816c.2-.52.962-2.522.962-2.522-.015.024.198-.523.32-.861l.163.778.559 2.605h-2.004M8.5 2.173L6.135 8.326l-.251-1.25c-.44-1.442-1.81-3.003-3.343-3.785l2.16 7.89 2.554-.002 3.8-9.006H8.499"/>
        <path fill="#ED9F2D" d="M3.944 2.168H.052l-.03.188c3.027.746 5.03 2.551 5.863 4.72L5.038 2.93c-.146-.572-.57-.742-1.094-.762"/>
        <g>
            <path fill="#E30E17" d="M46.23 6.807c0-2.164.951-4.09 2.431-5.337A6.136 6.136 0 0 0 44.691 0c-3.534 0-6.4 3.048-6.4 6.807 0 3.76 2.866 6.807 6.4 6.807 1.5 0 2.879-.55 3.97-1.47-1.48-1.247-2.43-3.173-2.43-5.337"/>
            <path fill="#EA600A" d="M46.23 6.807c0 2.164.951 4.09 2.431 5.337 1.48-1.247 2.43-3.173 2.43-5.337 0-2.164-.95-4.09-2.43-5.337-1.48 1.247-2.43 3.173-2.43 5.337"/>
            <path fill="#F59F00" d="M52.63 0c-1.5 0-2.878.55-3.969 1.47 1.48 1.247 2.43 3.173 2.43 5.337 0 2.164-.95 4.09-2.43 5.337a6.136 6.136 0 0 0 3.97 1.47c3.534 0 6.4-3.048 6.4-6.807 0-3.76-2.866-6.807-6.4-6.807"/>
        </g>
        <g>
            <path fill="#4DB45E" d="M75.541 2.667v.003c-.003 0-1.166-.003-1.476 1.136-.284 1.044-1.085 3.928-1.107 4.008h-.221s-.82-2.948-1.107-4.012c-.31-1.14-1.476-1.135-1.476-1.135h-2.657v8.666h2.657V6.186h.221l1.55 5.147h1.845l1.55-5.143h.221v5.143h2.657V2.667h-2.657zM85.247 2.667s-.779.072-1.144.908L82.22 7.814h-.222V2.667h-2.657v8.666h2.51s.815-.075 1.18-.908l1.846-4.239h.221v5.147h2.657V2.667h-2.51zM88.937 6.603v4.73h2.657V8.571h2.879c1.254 0 2.317-.822 2.712-1.968h-8.248z"/>
            <path fill="url(#a)" d="M5.941 0H.033c.295 1.65 1.502 2.975 3.063 3.406.354.099.727.151 1.11.151h4.555a2.98 2.98 0 0 0 .059-.605C8.82 1.321 7.532 0 5.94 0z" transform="translate(88.531 2.667)"/>
        </g>
    </g>
</svg>
