<svg xmlns="http://www.w3.org/2000/svg" width="43" height="24" viewBox="0 0 43 24">
    <g fill="#2057AC" fill-rule="evenodd">
        <path fill-rule="nonzero" d="M42.283 17.18v-4.09a.729.729 0 0 0-.027-.164c-.005-.021-.004-.045-.011-.066a.726.726 0 0 0-.119-.223l-.009-.012-5.724-7.261a.712.712 0 0 0-.56-.273h-5.016V.727A.722.722 0 0 0 30.1 0H6.45a.722.722 0 0 0-.717.727c0 .402.321.728.717.728h.717v4.363H5.733a.722.722 0 0 0-.716.727c0 .402.32.728.716.728h1.434v4.363h-2.15a.722.722 0 0 0-.717.728c0 .401.32.727.717.727h2.15v4.09a2.703 2.703 0 0 0 .21 3.697.712.712 0 0 0 .506.213h2.223c.34 1.693 1.808 2.909 3.51 2.909 1.703 0 3.171-1.216 3.512-2.91h15.194c.341 1.694 1.809 2.91 3.511 2.91 1.703 0 3.17-1.216 3.511-2.91h2.223c.19 0 .372-.076.506-.212a2.703 2.703 0 0 0 .21-3.698zm-2.327-4.968L34.4 11.7V9.455h3.382l2.174 2.757zm-26.34 10.333c-1.187 0-2.15-.976-2.15-2.181s.963-2.182 2.15-2.182c1.188 0 2.15.977 2.15 2.182 0 1.204-.962 2.18-2.15 2.181zm3.512-2.909c-.341-1.693-1.809-2.909-3.511-2.909-1.703 0-3.17 1.216-3.511 2.91H8.208a1.267 1.267 0 0 1 .182-1.668.733.733 0 0 0 .21-.514v-.728h.717a.722.722 0 0 0 .716-.727.722.722 0 0 0-.716-.727H8.6V13.09h6.45a.722.722 0 0 0 .717-.727.722.722 0 0 0-.717-.728H8.6V7.273h13.617a.722.722 0 0 0 .716-.728.722.722 0 0 0-.716-.727H8.6V1.455h20.783v18.181H17.128zm18.705 2.91c-1.187 0-2.15-.977-2.15-2.182s.963-2.182 2.15-2.182c1.188 0 2.15.977 2.15 2.182-.001 1.204-.963 2.18-2.15 2.181zm5.409-2.91h-1.898c-.34-1.693-1.808-2.909-3.51-2.909-1.703 0-3.171 1.216-3.512 2.91h-1.505V6.544h4.672L36.636 8h-2.953a.722.722 0 0 0-.716.727v3.637c0 .376.282.69.652.724l7.231.667v1.518h-.717a.722.722 0 0 0-.716.727c0 .402.32.727.716.727h.717v.728c.002.19.075.373.206.51a1.27 1.27 0 0 1 .186 1.671z"/>
        <rect width="36.596" height="1.385" x="6.404" y="22.615" rx=".692"/>
        <path fill-rule="nonzero" d="M3.583 0H2.15a.722.722 0 0 0-.717.727c0 .402.321.728.717.728h1.433A.722.722 0 0 0 4.3.727.722.722 0 0 0 3.583 0zM2.867 5.818H1.433a.722.722 0 0 0-.716.727c0 .402.32.728.716.728h1.434a.722.722 0 0 0 .716-.728.722.722 0 0 0-.716-.727zM2.128 11.54l-1.434.045a.723.723 0 0 0-.694.738.722.722 0 0 0 .716.716H.74l1.433-.046a.723.723 0 0 0 .694-.75.714.714 0 0 0-.22-.512.693.693 0 0 0-.518-.191z"/>
    </g>
</svg>
