<svg xmlns="http://www.w3.org/2000/svg" width="29" height="35" viewBox="0 0 29 35">
    <g fill="none" fill-rule="nonzero">
        <path stroke="#1D509F" stroke-width="1.69" d="M10.962 10.45l8.701 8.663c4.445-6.226 2.825-16.276-8.852-18.038 1.017 1.988 2.825 4.95.15 9.375zM7.006 15.025c-.452.412-.941.825-1.469 1.275-4.332 3.975-3.089 8.587-.941 12.075 1.92 2.887 4.708 5.1 10.02 5.362-2.11-4.987-1.055-7.05 1.28-9.9l-8.89-8.812zM17.591 25.675c-2.184 2.813-1.431 5.1-.414 7.762.942 0 3.315-.974 5.424-2.887l-4.934-4.95-.076.075zM26.142 25.563c1.017-2.813.904-6.338-1.544-10.5-.528 1.874-1.808 3.9-3.202 5.774l4.746 4.726z"/>
        <path fill="#1D509F" d="M.07 5.246l1.2-1.2 27.63 27.63-1.2 1.2z"/>
    </g>
</svg>
