<svg xmlns="http://www.w3.org/2000/svg" width="38" height="23" viewBox="0 0 38 23">
    <g fill="none" fill-rule="evenodd">
        <g transform="translate(0 1.586)">
            <ellipse cx="26.414" cy="3.017" stroke="#1D509F" stroke-linecap="round" stroke-linejoin="round" stroke-width="1.2" rx="1.405" ry="2.414"/>
            <path stroke="#1D509F" stroke-linecap="round" stroke-linejoin="round" stroke-width="1.2" d="M26.414 5.431h-9.661c-.79 0-1.405-1.12-1.405-2.414 0-1.293.614-2.414 1.405-2.414h9.66M26.414 5.431l-8.048 11.985H7.3l4.613-6.017"/>
            <g fill="#1D509F" fill-rule="nonzero">
                <path d="M10.855 11.45l-.358-.84a.36.36 0 0 0-.478-.19l-1.895.936a.37.37 0 0 0-.174.479v.02l-7.312 2.97a.368.368 0 0 0-.228.32l.73.271 7.097-2.872c.085.168.28.242.453.173l1.978-.776a.37.37 0 0 0 .209-.475l-.022-.017zM14.065 12.332a10.257 10.257 0 0 1-2.69-.412.237.237 0 0 1-.165-.171c-.02-.083.18-.37.24-.429.06-.06.14-.365.22-.342 2.312.669 4.11.786 6.002-.238l-.092-.023c-.205-.068-.298-.425-.512-.454a.237.237 0 0 1-.227-.226.238.238 0 0 1 .201-.25c1.79-.301 2.162-.28 2.966-1.297.754-.977 1.57-1.1 1.298-2.31-1.378.594-2.753.626-4.249.638a.238.238 0 0 1-.182-.39c.095-.114.149-.189.193-.248-1.737-.174-2.675.368-3.652 1.834a.233.233 0 0 1-.298.078.24.24 0 0 1-.12-.286c.004-.05.005-.1.003-.151-.973.514-1.825 1.565-1.976 2.597-.02.13-.368.03-.497.01a.239.239 0 0 1-.198-.271c.11-.711.38-1.388.787-1.977a3.338 3.338 0 0 1 1.63-1.31c.11-.038.23.01.283.114a5.284 5.284 0 0 1 4.878-1.706c.09.013.165.078.191.167a.241.241 0 0 1-.068.247 2.223 2.223 0 0 0-.177.176 10.778 10.778 0 0 0 3.93-.975.234.234 0 0 1 .307.118v.028a4.648 4.648 0 0 1-.785 4.168c-.7.887-1.462 1.232-2.622 1.473.061.012.123.02.186.025a.236.236 0 0 1 .213.178.24.24 0 0 1-.1.26 8.68 8.68 0 0 1-4.918 1.355z"/>
                <path d="M14.157 10.88a9.448 9.448 0 0 1-2.014-.264.242.242 0 0 1-.15-.111.249.249 0 0 1-.03-.187l.001-.019c.185-.572 1.678-2.737 4.1-2.837.11-.004.21.07.24.178a.247.247 0 0 1-.111.28c-.115.064-.223.14-.323.227a3.867 3.867 0 0 0 1.866-.355.24.24 0 0 1 .264.039c.072.065.1.168.068.26A3.543 3.543 0 0 1 16.4 10.08a.248.248 0 0 1-.082.322 3.678 3.678 0 0 1-2.12.48h-.04zm.208-.778h.03c.304.012.608-.018.904-.09a.187.187 0 0 1-.02-.17.183.183 0 0 1 .125-.112 2.268 2.268 0 0 0 1.377-1.09 3.278 3.278 0 0 1-1.54.094.182.182 0 0 1-.136-.111.187.187 0 0 1 .02-.177l.061-.081a3.778 3.778 0 0 0-2.043 1.6c.407.082.814.128 1.222.137z"/>
            </g>
        </g>
        <path stroke="#1D509F" stroke-width="1.2" d="M8.56 6.448l26.726 1.676h1.522V.6H8.56v5.848z"/>
        <path stroke="#1D509F" stroke-width="1.2" d="M27.975 3.772l-6.883 12.283h5.47L34.7 3.772h-6.724zM1.249 16.055H0l.468.975.781-.975zm9.837-12.283l.961-1.2H8.932v1.2h2.154zm3.449 0h.935l-.545-.85-.39.85zm-5.63 12.283l-.16.35.546-.35h-.386zM35.193 4.918l-8.51 11.421.206 4.309 8.309-12.604-.005-3.126z"/>
        <path stroke="#1D509F" stroke-width="1.2" d="M26.531 21.854H.611v-5.247"/>
    </g>
</svg>
