<svg xmlns="http://www.w3.org/2000/svg" width="14" height="30" viewBox="0 0 14 30">
    <g fill="none" fill-rule="evenodd" stroke="#1D509F" stroke-linecap="round" stroke-linejoin="round" stroke-width="1.14">
        <path d="M9.821 10.324v16.24c0 1.276-.975 2.32-2.166 2.32H3.213c-1.192 0-2.167-1.044-2.167-2.32V3.016c0-1.276.975-2.32 2.167-2.32h4.442c.758 0 1.3.348 1.733.928"/>
        <path d="M9.821 3.016c0 1.276-.975 2.32-2.166 2.32H3.213c-1.192 0-2.167-1.044-2.167-2.32 0-1.276.975-2.32 2.167-2.32h4.442c1.191 0 2.166 1.044 2.166 2.32"/>
        <path d="M10.363 3.596l2.708 3.828S1.155 17.4 1.046 22.272c.65-7.424 2.275-12.644 9.317-18.676zM9.388 1.624l3.467 5.568"/>
    </g>
</svg>
