<?xml version="1.0" encoding="UTF-8" standalone="no"?>
<!-- Created with Inkscape (http://www.inkscape.org/) -->

<svg
   xmlns:dc="http://purl.org/dc/elements/1.1/"
   xmlns:cc="http://creativecommons.org/ns#"
   xmlns:rdf="http://www.w3.org/1999/02/22-rdf-syntax-ns#"
   xmlns:svg="http://www.w3.org/2000/svg"
   xmlns="http://www.w3.org/2000/svg"
   xmlns:xlink="http://www.w3.org/1999/xlink"
   xmlns:sodipodi="http://sodipodi.sourceforge.net/DTD/sodipodi-0.dtd"
   xmlns:inkscape="http://www.inkscape.org/namespaces/inkscape"
   width="9.170723mm"
   height="6.3092542mm"
   viewBox="0 0 9.170723 6.3092542"
   version="1.1"
   id="svg893"
   inkscape:version="0.92.3 (2405546, 2018-03-11)"
   sodipodi:docname="group-9.svg">
  <defs
     id="defs887">
    <path
       inkscape:connector-curvature="0"
       d="M 5.29,0 V 15.2 H 23.198 V 0 h 5.29 V 20.8 H 0 V 0 Z"
       id="a" />
    <mask
       fill="#fff"
       id="b">
      <use
         height="100%"
         width="100%"
         y="0"
         x="0"
         id="use848"
         xlink:href="#a" />
    </mask>
  </defs>
  <sodipodi:namedview
     id="base"
     pagecolor="#ffffff"
     bordercolor="#666666"
     borderopacity="1.0"
     inkscape:pageopacity="0.0"
     inkscape:pageshadow="2"
     inkscape:zoom="7.9195959"
     inkscape:cx="33.082355"
     inkscape:cy="-12.111131"
     inkscape:document-units="mm"
     inkscape:current-layer="layer1"
     showgrid="false"
     fit-margin-top="0"
     fit-margin-left="0"
     fit-margin-right="0"
     fit-margin-bottom="0"
     inkscape:window-width="1920"
     inkscape:window-height="996"
     inkscape:window-x="-8"
     inkscape:window-y="-8"
     inkscape:window-maximized="1" />
  <metadata
     id="metadata890">
    <rdf:RDF>
      <cc:Work
         rdf:about="">
        <dc:format>image/svg+xml</dc:format>
        <dc:type
           rdf:resource="http://purl.org/dc/dcmitype/StillImage" />
        <dc:title></dc:title>
      </cc:Work>
    </rdf:RDF>
  </metadata>
  <g
     inkscape:label="Layer 1"
     inkscape:groupmode="layer"
     id="layer1"
     transform="translate(248.00203,-58.744182)">
    <path
       style="color:#000000;font-style:normal;font-variant:normal;font-weight:normal;font-stretch:normal;font-size:medium;line-height:normal;font-family:sans-serif;font-variant-ligatures:normal;font-variant-position:normal;font-variant-caps:normal;font-variant-numeric:normal;font-variant-alternates:normal;font-feature-settings:normal;text-indent:0;text-align:start;text-decoration:none;text-decoration-line:none;text-decoration-style:solid;text-decoration-color:#000000;letter-spacing:normal;word-spacing:normal;text-transform:none;writing-mode:lr-tb;direction:ltr;text-orientation:mixed;dominant-baseline:auto;baseline-shift:baseline;text-anchor:start;white-space:normal;shape-padding:0;clip-rule:nonzero;display:inline;overflow:visible;visibility:visible;opacity:1;isolation:auto;mix-blend-mode:normal;color-interpolation:sRGB;color-interpolation-filters:linearRGB;solid-color:#000000;solid-opacity:1;vector-effect:none;fill:#1d509f;fill-opacity:1;fill-rule:evenodd;stroke:none;stroke-width:0.257175;stroke-linecap:butt;stroke-linejoin:miter;stroke-miterlimit:4;stroke-dasharray:none;stroke-dashoffset:0;stroke-opacity:1;color-rendering:auto;image-rendering:auto;shape-rendering:auto;text-rendering:auto;enable-background:accumulate"
       d="m -247.14258,58.744141 v 5.503906 h 7.53711 v -5.503906 h -1.39844 v 4.021484 h -4.73828 v -3.892578 l -0.1289,0.128906 V 58.744141 H -246 Z m 0.25781,0.257812 H -246 v 4.021485 h 5.25195 v -4.021485 h 0.88672 v 4.988281 h -7.02344 z"
       id="path846"
       inkscape:connector-curvature="0" />
    <g
       mask="url(#b)"
       id="g853"
       style="fill:none;fill-rule:evenodd;stroke:#1d509f;stroke-width:0.56699997"
       transform="matrix(0.26458333,0,0,0.26458333,-247.14213,58.744182)" />
    <path
       style="fill:#1d509f;fill-rule:evenodd;stroke-width:0.26458332"
       inkscape:connector-curvature="0"
       id="path861"
       d="m -239.66924,59.097136 0.83793,0.837671 -0.18706,0.18706 -0.83767,-0.83767 z m -7.49565,0 -0.83714,0.837671 0.18706,0.18706 0.83767,-0.83767 z m 7.49565,0.740833 0.83793,0.837671 -0.18706,0.187061 -0.83767,-0.837671 z m -7.49565,0 -0.83714,0.837671 0.18706,0.187061 0.83767,-0.837671 z m 7.49565,0.846667 0.83767,0.837671 -0.18706,0.18706 -0.83767,-0.83767 z m -7.49565,0 -0.83714,0.837671 0.18706,0.18706 0.83767,-0.83767 z m 7.49565,0.846667 0.83767,0.837671 -0.18706,0.18706 -0.83767,-0.837671 z m -7.49565,0 -0.83714,0.837671 0.18706,0.18706 0.83767,-0.837671 z m 7.49565,0.846666 0.83767,0.837671 -0.18706,0.187061 -0.83767,-0.837671 z m -7.49565,0 -0.83714,0.837671 0.18706,0.187061 0.83767,-0.837671 z m 7.49565,0.846667 0.83767,0.837671 -0.18706,0.18706 -0.83767,-0.83767 z m -7.49565,0 -0.83714,0.837671 0.18706,0.18706 0.83767,-0.83767 z m 0.50033,0.803804 -0.83741,0.837671 0.18706,0.187061 0.83741,-0.837407 z m 2.26113,2.65e-4 -0.83741,0.837406 0.18706,0.187325 0.83767,-0.837671 z m 2.26139,-2.65e-4 -0.8374,0.837671 0.18706,0.187061 0.8374,-0.837407 z m 1.53511,2.65e-4 -0.8374,0.837671 0.18706,0.18706 0.8374,-0.837671 z m -5.30383,0 -0.83767,0.837406 0.18706,0.187061 0.83767,-0.837407 z m 2.26113,0 -0.83768,0.837671 0.18733,0.18706 0.83741,-0.837671 z m 2.26139,0 -0.83767,0.837406 0.18706,0.187061 0.83767,-0.837407 z m 1.53538,-2.65e-4 -0.83767,0.837671 0.18706,0.187061 0.83767,-0.837671 z m -5.30411,2.65e-4 -0.83767,0.837406 0.18706,0.187061 0.83767,-0.837407 z m 2.23494,0 -0.83741,0.837671 0.18706,0.18706 0.83741,-0.837671 z" />
  </g>
</svg>
