<?xml version="1.0" encoding="UTF-8" standalone="no"?>
<svg width="34px" height="24px" viewBox="0 0 34 24" version="1.1" xmlns="http://www.w3.org/2000/svg" xmlns:xlink="http://www.w3.org/1999/xlink">
    <!-- Generator: Sketch 50.2 (55047) - http://www.bohemiancoding.com/sketch -->
    <title>groundwork</title>
    <desc>Created with Sketch.</desc>
    <defs></defs>
    <g id="Page-1" stroke="none" stroke-width="1" fill="none" fill-rule="evenodd">
        <g id="groundwork" transform="translate(0.000000, 1.000000)">
            <path d="M9.47273456,13.252381 L24.5272654,13.252381 L24.5272654,-0.5 L30.2706496,-0.5 L30.2706496,19.3190476 L3.72935044,19.3190476 L3.72935044,-0.5 L9.47273456,-0.5 L9.47273456,13.252381 Z" id="Mask" stroke="#1D509F"></path>
            <path d="M3.95935044,15.1887387 L3.95935044,10.8316983 L12.1745099,19.0890476 L7.84111072,19.0890476 L7.64970353,19.0094768 L4.03794325,15.3791679 L3.95935044,15.1887387 Z M10.495717,13.482381 L14.8386969,13.482381 L15.0301041,13.5619517 L20.52896,19.0890476 L16.1859801,19.0890476 L15.9945729,19.0094768 L10.495717,13.482381 Z M9.24273456,12.2229637 L4.03794325,6.99144254 L3.95935044,6.80101332 L3.95935044,2.43434289 L9.16414175,7.66586402 L9.24273456,7.85629324 L9.24273456,12.2229637 Z M18.8501671,13.482381 L23.1739855,13.482381 L23.3653927,13.5619517 L28.8642485,19.0890476 L24.5404302,19.0890476 L24.349023,19.0094768 L18.8501671,13.482381 Z M9.24273456,3.82560828 L5.1680523,-0.27 L9.24273456,-0.27 L9.24273456,3.82560828 Z M24.7572654,10.9302877 L24.7572654,6.59250721 L29.9620567,11.8240283 L30.0406496,12.0144576 L30.0406496,16.352238 L24.8358582,11.1207169 L24.7572654,10.9302877 Z M24.7572654,2.56182224 L24.7572654,-0.27 L26.1145438,-0.27 L26.305951,-0.190429219 L29.9620567,3.48445291 L30.0406496,3.67488213 L30.0406496,7.98377259 L24.8358582,2.75225146 L24.7572654,2.56182224 Z" id="Combined-Shape" stroke="#1D509F" stroke-width="0.54"></path>
            <path d="M25.5760111,19.0890476 L21.2426119,19.0890476 L30.0406496,10.2458266 L30.0406496,14.6028671 L29.9620567,14.7932963 L25.7674183,19.0094768 L25.5760111,19.0890476 Z M17.2311417,19.0890476 L12.8881618,19.0890476 L18.3870177,13.5619517 L18.5784248,13.482381 L22.9214048,13.482381 L17.4225489,19.0094768 L17.2311417,19.0890476 Z M29.9620567,6.40557089 L24.7572654,11.637092 L24.7572654,7.27042158 L24.8358582,7.07999237 L30.0406496,1.84847124 L30.0406496,6.21514167 L29.9620567,6.40557089 Z M8.87669159,19.0890476 L4.55287324,19.0890476 L10.0517291,13.5619517 L10.2431363,13.482381 L13.9174707,13.482381 L14.5669546,13.482381 L9.06809878,19.0094768 L8.87669159,19.0890476 Z M28.2490695,-0.27 L24.7572654,3.23973662 L24.7572654,-0.27 L28.2490695,-0.27 Z M3.95935044,15.7663663 L3.95935044,11.4285859 L4.03794325,11.2381567 L9.24273456,6.00663555 L9.24273456,10.344416 L9.16414175,10.5348452 L3.95935044,15.7663663 Z M3.95935044,7.39790094 L3.95935044,3.08901048 L4.03794325,2.89858126 L7.11117081,-0.190429219 L7.302578,-0.27 L9.24273456,-0.27 L9.24273456,1.97595059 L9.16414175,2.16637981 L3.95935044,7.39790094 Z" id="Combined-Shape" stroke="#1D509F" stroke-width="0.54"></path>
            <path d="M3.24953783,0.917756717 L3.76134845,1.42956734 L0.923281536,4.26763425 L0.411470914,3.75582363 L3.24953783,0.917756717 Z M3.24953783,5.44156624 L3.76134845,5.95337686 L0.923281536,8.79144378 L0.411470914,8.27963315 L3.24953783,5.44156624 Z M3.24953783,10.3272805 L3.76134845,10.8390911 L0.923281536,13.6771581 L0.411470914,13.1653474 L3.24953783,10.3272805 Z M3.24953783,15.0320424 L3.76134845,15.5438531 L0.923281536,18.38192 L0.411470914,17.8701093 L3.24953783,15.0320424 Z" id="Combined-Shape" fill="#1D509F"></path>
            <path d="M32.8357447,0.917756717 L33.3475553,1.42956734 L30.5094884,4.26763425 L29.9976778,3.75582363 L32.8357447,0.917756717 Z M32.8357447,5.44156624 L33.3475553,5.95337686 L30.5094884,8.79144378 L29.9976778,8.27963315 L32.8357447,5.44156624 Z M32.8357447,10.3272805 L33.3475553,10.8390911 L30.5094884,13.6771581 L29.9976778,13.1653474 L32.8357447,10.3272805 Z M32.8357447,15.0320424 L33.3475553,15.5438531 L30.5094884,18.38192 L29.9976778,17.8701093 L32.8357447,15.0320424 Z" id="Combined-Shape" fill="#1D509F" transform="translate(31.672617, 9.649838) scale(-1, 1) translate(-31.672617, -9.649838) "></path>
            <path d="M7.63899143,18.9884458 L8.15080205,19.5002564 L5.31273514,22.3383233 L4.80092451,21.8265127 L7.63899143,18.9884458 Z M22.9637709,18.9884458 L23.4755815,19.5002564 L20.6375146,22.3383233 L20.125704,21.8265127 L22.9637709,18.9884458 Z M28.1659349,18.9884458 L28.6777455,19.5002564 L25.8396786,22.3383233 L25.327868,21.8265127 L28.1659349,18.9884458 Z M17.8555111,18.9884458 L18.3673217,19.5002564 L15.5292548,22.3383233 L15.0174442,21.8265127 L17.8555111,18.9884458 Z M12.7472513,18.9884458 L13.2590619,19.5002564 L10.420995,22.3383233 L9.90918434,21.8265127 L12.7472513,18.9884458 Z" id="Combined-Shape" fill="#1D509F"></path>
        </g>
    </g>
</svg>