<svg xmlns="http://www.w3.org/2000/svg" width="30" height="23" viewBox="0 0 30 23">
    <g fill="none" fill-rule="evenodd">
        <path stroke="#1D509F" d="M.5.5v22h28.348v-1.553c-7.429-1.019-13.365-3.373-17.799-7.072C6.637 10.195 4.367 5.725 4.265.5H.5z"/>
        <path stroke="#1D509F" d="M.5.5v22h26.364c-6.905-1.123-12.564-3.477-16.967-7.066C5.085 11.512 2.49 6.524 2.127.5H.5zm28.348 22h.14l.17.19-.118.118a56.705 56.705 0 0 1-.192-.023V22.5z"/>
        <path stroke="#1D509F" stroke-width=".704" d="M1.02.352l27.976 21.925V9.429c-3.122.072-5.922-.718-8.391-2.37C18.11 5.39 16.65 3.148 16.245.352H1.02z"/>
        <path stroke="#1D509F" d="M1.484.5l27.364 21.254V.5H1.484z"/>
        <path stroke="#1D509F" stroke-width=".704" d="M22.297.352h6.699v3.385h-6.699z"/>
        <path stroke="#1D509F" stroke-width=".704" d="M25.346 3.728V7.57h3.65V3.728h-3.65z"/>
        <path stroke="#1D509F" stroke-width=".704" d="M18.056 3.78l3.662 3.79h3.84V3.78h-7.502zM16.016.352l1.613 3.385h4.88V.352h-6.493z"/>
        <g fill="#1D509F">
            <path d="M4.76 1.533h11.897v1H4.76zM5.023 3.322H17.45v1H5.023zM5.288 5.111h13.484v1H5.288zM6.081 6.9h14.806v1H6.081zM7.14 8.69h17.978v1H7.14zM8.196 10.477h21.152v1H8.196zM10.047 12.266h19.036v1H10.047zM11.51 14.055h17.837v1H11.51zM14.806 15.844h14.277v1H14.806zM18.243 17.633h11.105v1H18.243zM23.531 19.422h5.817v1h-5.817z"/>
        </g>
        <path fill="#1D509F" d="M6.874 0h1v8.689h-1zM5.024 0h.526v5.267h-.526zM8.725 0h1v11.883h-1zM10.576 0h1v13.672h-1zM12.427 0h1v15.206h-1zM14.277 0h1v15.844h-1zM16.128 0h1v16.867h-1zM17.979 4.983h1v13.289h-1zM19.83 6.389h1v12.65h-1zM21.68 7.596h.527v11.57h-.527zM23.531 8.433h1v11.244h-1zM25.382 8.944h1v10.989h-1zM27.233 9.2h1v11.244h-1z"/>
    </g>
</svg>
