<svg xmlns="http://www.w3.org/2000/svg" width="45" height="33" viewBox="0 0 45 33">
    <g fill="none" fill-rule="evenodd">
        <path stroke="#1D509F" stroke-width="1.32" d="M12.536 19.876h19.928V1.34h7.598v26.685H4.938V1.34h7.598v18.536z"/>
        <path stroke="#1D509F" stroke-width=".713" d="M5.241 22.617v-6.01l10.86 11.114h-5.873L5.24 22.617zm8.664-2.438h5.885l7.368 7.542h-5.885l-7.368-7.542zm-1.673-1.712l-6.99-7.155V5.288l6.99 7.156v6.023zm12.73 1.712h5.86l7.368 7.542h-5.86l-7.368-7.542zM12.232 7.15L6.853 1.644h5.38v5.505zm20.536 9.728v-5.985l6.99 7.156v5.985l-6.99-7.156zm0-11.279V1.644h1.945l5.046 5.164v5.946l-6.991-7.156z"/>
        <path stroke="#1D509F" stroke-width=".713" d="M34 27.721h-5.872l11.63-11.904v6.01l-5.757 5.894zm-11.044 0h-5.885l7.368-7.542h5.885l-7.368 7.542zm16.803-17.199l-6.991 7.156v-6.024l6.99-7.156v6.024zm-27.86 17.2h-5.86l7.368-7.543h5.86l-7.368 7.542zM37.375 1.643L32.768 6.36V1.644H37.375zm-32.134 21.6v-5.985l6.991-7.156v5.985l-6.99 7.155zm0-11.28V6.018l4.274-4.374h2.717v3.164l-6.99 7.156z"/>
        <path fill="#1D509F" d="M4.295 3.271l.69.69-3.757 3.757-.69-.69L4.295 3.27zm0 6.098l.69.69-3.757 3.756-.69-.69 3.757-3.756zm0 6.585l.69.69L1.227 20.4l-.69-.69 3.757-3.756zm0 6.341l.69.69-3.757 3.756-.69-.69 3.757-3.756zM40.386 3.271l-.69.69 3.757 3.757.69-.69-3.757-3.757zm0 6.098l-.69.69 3.757 3.756.69-.69-3.757-3.756zm0 6.585l-.69.69 3.757 3.756.69-.69-3.757-3.756zm0 6.341l-.69.69 3.757 3.756.69-.69-3.757-3.756zM10.104 27.628l.69.69-3.756 3.756-.69-.69 3.756-3.756zm20.283 0l.69.69-3.756 3.756-.69-.69 3.756-3.756zm6.885 0l.69.69-3.756 3.756-.69-.69 3.756-3.756zm-13.646 0l.69.69-3.756 3.756-.69-.69 3.756-3.756zm-6.76 0l.689.69-3.756 3.756-.69-.69 3.756-3.756z"/>
    </g>
</svg>
