<?xml version="1.0" encoding="UTF-8"?>
<svg width="29px" height="34px" viewBox="0 0 29 34" version="1.1" xmlns="http://www.w3.org/2000/svg" xmlns:xlink="http://www.w3.org/1999/xlink">
    <!-- Generator: Sketch 52.6 (67491) - http://www.bohemiancoding.com/sketch -->
    <title>hand-tools</title>
    <desc>Created with Sketch.</desc>
    <g id="Symbols" stroke="none" stroke-width="1" fill="none" fill-rule="evenodd">
        <g id="catalog" transform="translate(-15.000000, -688.000000)" fill="#1D509F">
            <g id="inside-decor">
                <g transform="translate(11.000000, 688.000000)">
                    <g id="hand-tools" transform="translate(19.365078, 20.305885) rotate(-326.000000) translate(-19.365078, -20.305885) translate(7.365078, 4.805885)">
                        <path d="M6.22710623,17.2171717 C6.66666667,16.9343434 7.21611722,16.9343434 7.65567766,17.2171717 C7.76556777,17.2878788 7.83882784,17.2878788 7.94871795,17.2878788 C8.13186813,17.2878788 8.31501832,17.2171717 8.42490842,17.040404 C8.60805861,16.7929293 8.53479853,16.4747475 8.27838828,16.2979798 C7.47252747,15.8030303 6.44688645,15.8030303 5.67765568,16.2979798 C5.42124542,16.4393939 5.34798535,16.7929293 5.53113553,17.040404 C5.64102564,17.2878788 5.97069597,17.3585859 6.22710623,17.2171717 Z" id="Path"></path>
                        <path d="M13.9194139,0.212121212 L-9.09494702e-13,0.176767677 L-9.09494702e-13,3.35858586 C-9.09494702e-13,9.51010101 2.96703297,13.8232323 4.02930403,15.2373737 C3.95604396,15.2727273 3.88278388,15.3434343 3.80952381,15.3787879 L3.44322344,15.5555556 L3.58974359,15.979798 C4.28571429,18.6666667 4.3956044,21.4242424 3.91941392,24.1464646 L3.44322344,26.9040404 C3.26007326,27.8939394 3.55311355,28.9191919 4.24908425,29.6969697 C4.90842491,30.4747475 5.8974359,30.8989899 6.95970696,30.8989899 C8.02197802,30.8989899 9.01098901,30.4747475 9.67032967,29.6969697 C10.3296703,28.9191919 10.6227106,27.9292929 10.4761905,26.9040404 L10,24.1111111 C9.52380952,21.3535354 9.63369963,18.6313131 10.3296703,15.9090909 L10.4029304,15.5909091 L10.1465201,15.3787879 C10.0732601,15.3080808 10,15.2727273 9.92673993,15.2373737 C11.025641,13.8585859 13.956044,9.51010101 13.956044,3.35858586 L13.956044,0.212121212 L13.9194139,0.212121212 Z M8.79120879,29.0252525 C8.31501832,29.5555556 7.65567766,29.8737374 6.92307692,29.8737374 C6.19047619,29.8737374 5.53113553,29.5555556 5.05494505,29.0252525 C4.57875458,28.4949495 4.3956044,27.7878788 4.50549451,27.1161616 L4.98168498,24.3585859 C5.45787546,21.6010101 5.38461538,18.8080808 4.72527473,16.0505051 C6.04395604,15.1313131 7.8021978,15.1313131 9.12087912,16.0505051 C8.46153846,18.7727273 8.38827839,21.5656566 8.86446886,24.3232323 L9.34065934,27.1161616 C9.48717949,27.7878788 9.26739927,28.4949495 8.79120879,29.0252525 Z M12.8205128,3.39393939 C12.8205128,9.2979798 9.85347985,13.540404 8.93772894,14.7070707 C7.69230769,14.1767677 6.22710623,14.1414141 4.98168498,14.7070707 C4.06593407,13.540404 1.0989011,9.2979798 1.0989011,3.35858586 L1.0989011,1.23737374 L12.8205128,1.27272727 L12.8205128,3.39393939 Z" id="Shape" stroke="#1D509F" stroke-width="0.2" fill-rule="nonzero"></path>
                        <path d="M2.67399267,5.3030303 C2.38095238,5.33838384 2.16117216,5.58585859 2.1978022,5.9040404 C2.74725275,10.4292929 5.27472527,13.2929293 5.38461538,13.4343434 C5.49450549,13.540404 5.64102564,13.6111111 5.78754579,13.6111111 C5.8974359,13.6111111 6.04395604,13.5757576 6.15384615,13.469697 C6.37362637,13.2929293 6.41025641,12.9393939 6.19047619,12.7272727 C6.15384615,12.6919192 3.77289377,9.96969697 3.26007326,5.7979798 C3.26007326,5.47979798 2.96703297,5.26767677 2.67399267,5.3030303 Z" id="Path"></path>
                        <path d="M6.95970696,25.5959596 C5.97069597,25.5959596 5.12820513,26.3737374 5.12820513,27.3636364 C5.12820513,28.3535354 5.93406593,29.1313131 6.95970696,29.1313131 C7.98534799,29.1313131 8.79120879,28.3535354 8.79120879,27.3636364 C8.79120879,26.3737374 7.94871795,25.5959596 6.95970696,25.5959596 Z M6.95970696,28.0707071 C6.55677656,28.0707071 6.22710623,27.7525253 6.22710623,27.3636364 C6.22710623,26.9747475 6.55677656,26.6565657 6.95970696,26.6565657 C7.36263736,26.6565657 7.69230769,26.9747475 7.69230769,27.3636364 C7.69230769,27.7525253 7.36263736,28.0707071 6.95970696,28.0707071 Z" id="Shape" fill-rule="nonzero"></path>
                        <g id="Group-2" transform="translate(17.111770, 17.730155) rotate(19.000000) translate(-17.111770, -17.730155) translate(14.611770, 5.730155)">
                            <path d="M4,21.599064 C4,22.393704 3.32725,23.040024 2.5,23.040024 C1.67275,23.040024 1,22.393704 1,21.599064 L1,14.506104 C1.2295,14.204184 1.5,13.734504 1.5,13.200024 C1.5,12.724344 1.286,12.300504 1.07725,12.000024 L1.25,12.000024 L3.75,12.000024 L3.92275,12.000024 C3.714,12.300504 3.5,12.724344 3.5,13.200024 C3.5,13.734504 3.7705,14.204184 4,14.506104 L4,21.599064 Z M2.1445,4.370664 L1.56825,3.264744 L2.25425,0.960024 L2.74575,0.960024 L3.43175,3.264744 L2.8555,4.370664 L2.75,4.573464 L2.75,4.800024 L2.75,11.040024 L2.25,11.040024 L2.25,4.800024 L2.25,4.573464 L2.1445,4.370664 Z M5,11.521224 C5,11.255304 4.7755,11.040024 4.5025,11.040024 L3.75,11.040024 L3.75,4.800024 L4.5,3.360024 L3.5,2.40000001e-05 L1.5,2.40000001e-05 L0.5,3.360024 L1.25,4.800024 L1.25,11.040024 L0.49775,11.040024 C0.22275,11.040024 0,11.254584 0,11.521224 L0,12.240024 C0,12.240024 0.5,12.720024 0.5,13.200024 C0.5,13.680024 0,14.160024 0,14.160024 L0,21.599064 C0,22.925064 1.119,24.000024 2.5,24.000024 C3.88075,24.000024 5,22.923624 5,21.599064 L5,14.160024 C5,14.160024 4.5,13.680024 4.5,13.200024 C4.5,12.720024 5,12.240024 5,12.240024 L5,11.521224 Z" id="Shape" stroke="#1D509F" stroke-width="0.2" fill-rule="nonzero"></path>
                            <path d="M2.5,15.36 C2.222,15.36 2,15.57408 2,15.83784 L2,21.60216 C2,21.86424 2.224,22.08 2.5,22.08 C2.778,22.08 3,21.86592 3,21.60216 L3,15.83784 C3,15.57576 2.776,15.36 2.5,15.36" id="Path"></path>
                        </g>
                    </g>
                </g>
            </g>
        </g>
    </g>
</svg>