<svg xmlns="http://www.w3.org/2000/svg" width="24" height="30" viewBox="0 0 24 30">
    <g fill="none" fill-rule="evenodd" stroke="#1D509F" stroke-linecap="round" stroke-linejoin="round" stroke-width="1.215">
        <path d="M3.852 1.488h18.985v6.756H3.852z"/>
        <path d="M10.533 10.477H3.037c-.896 0-1.63-.733-1.63-1.628V6.453c0-.895.734-1.627 1.63-1.627h.815M4.993 10.477h8.31c.897 0 1.63.732 1.63 1.628v1.383M15.667 29H14.28c-.733 0-1.385-.507-1.385-1.231V14.73c0-.652.57-1.231 1.385-1.231h1.386c.733 0 1.385.507 1.385 1.231V27.77c0 .652-.652 1.231-1.385 1.231z"/>
    </g>
</svg>
