<svg xmlns="http://www.w3.org/2000/svg" width="38" height="32" viewBox="0 0 38 32">
    <g fill="#1D509F" fill-rule="nonzero">
        <path d="M29.157 22.92H.834a.783.783 0 0 1-.791-.772V.957C.043.53.397.184.834.184H29.16c.437 0 .791.346.791.773v21.19a.784.784 0 0 1-.793.774zm-27.53-1.545h26.74V1.73H1.627v19.646z"/>
        <path d="M31.928 27.745l-.062-.003-28.402-2.154a.798.798 0 0 1-.543-.27.76.76 0 0 1-.185-.568l.184-2.041c.038-.424.426-.731.858-.702a.777.777 0 0 1 .719.838l-.114 1.264L31.2 26.141l1.56-19.763-2.756-.224a.778.778 0 0 1-.722-.835c.037-.425.428-.73.855-.704l3.542.289a.777.777 0 0 1 .722.828l-1.683 21.3a.762.762 0 0 1-.274.528.805.805 0 0 1-.516.185z"/>
        <path d="M35.05 31.816a1.25 1.25 0 0 1-.077-.003L6.664 29.135a.778.778 0 0 1-.712-.827l.168-2.21a.773.773 0 0 1 .848-.714.78.78 0 0 1 .73.828l-.11 1.456 26.75 2.532L36.3 10.472l-2.37-.233a.773.773 0 0 1-.708-.844.789.789 0 0 1 .866-.691l3.156.31a.777.777 0 0 1 .71.843L35.836 31.12a.784.784 0 0 1-.787.695z"/>
    </g>
</svg>
