<svg xmlns="http://www.w3.org/2000/svg" width="29" height="26" viewBox="0 0 29 26">
    <g fill="#1D509F" fill-rule="nonzero">
        <path d="M22.251 18.292H.637a.598.598 0 0 1-.604-.59V1.495c0-.326.27-.59.604-.59h21.616c.333 0 .604.264.604.59v16.205a.599.599 0 0 1-.606.591zM1.241 17.11h20.407V2.087H1.241V17.11z"/>
        <path d="M24.366 21.982c-.016 0-.03-.001-.047-.003L2.644 20.332a.609.609 0 0 1-.415-.207.581.581 0 0 1-.141-.434l.14-1.56a.607.607 0 0 1 .655-.537.594.594 0 0 1 .549.64l-.087.967 20.465 1.554 1.192-15.113-2.104-.171a.595.595 0 0 1-.551-.639c.028-.325.326-.559.652-.538l2.703.22c.33.027.578.311.551.634L24.97 21.436a.583.583 0 0 1-.209.404.613.613 0 0 1-.394.142z"/>
        <path d="M26.749 25.095a.952.952 0 0 1-.06-.003L5.087 23.044a.594.594 0 0 1-.544-.632l.128-1.69a.59.59 0 0 1 .648-.546.596.596 0 0 1 .557.633l-.085 1.114 20.415 1.936 1.498-15.086-1.808-.179a.591.591 0 0 1-.54-.645.602.602 0 0 1 .66-.528l2.409.237c.33.032.574.32.541.644l-1.616 16.26a.6.6 0 0 1-.6.533z"/>
    </g>
</svg>
