<svg xmlns="http://www.w3.org/2000/svg" width="43" height="43" viewBox="0 0 43 43">
    <g fill="#2057AC" fill-rule="nonzero">
        <path d="M42.159 12.868h-4.454c.084-.556.128-1.122.128-1.69C37.833 5.02 32.823.01 26.663.01c-6.157 0-11.168 5.01-11.168 11.168 0 .568.044 1.134.128 1.69H.841A.841.841 0 0 0 0 13.71v28.437c0 .028.001.057.004.085l.004.028.008.054.009.035.011.045.012.034c.005.015.01.03.016.043l.014.031.022.044.016.027c.008.015.016.03.026.044l.02.027c.01.013.018.026.029.039l.032.035.023.026.021.019c.014.012.026.025.04.036l.039.029.027.02c.014.01.028.017.042.026l.029.016c.014.008.028.014.042.02l.033.016.04.015.038.013.04.01.04.01.046.007.035.005a.859.859 0 0 0 .083.004H42.16A.841.841 0 0 0 43 42.15v-28.44a.841.841 0 0 0-.841-.84zM26.664 1.693a9.492 9.492 0 0 1 9.198 11.812c-.273 1.084-1.003 2.473-1.57 3.313a.764.764 0 0 0-.013.019L26.664 28.14l-4.648-6.9-.006-.008-.468-.695-2.493-3.701a9.397 9.397 0 0 1-1.584-3.333 9.49 9.49 0 0 1-.287-2.326c0-5.23 4.255-9.485 9.486-9.485zM16.014 14.55c.368 1.163.921 2.252 1.651 3.244l2.481 3.684.08.117-1.171 1.17-8.214-8.215h5.174zM8.81 14.9l9.054 9.054-6.74 6.734-9.052-9.05L8.81 14.9zm-7.127-.349h5.095l-5.095 5.095v-5.095zm0 9.077l8.25 8.25-8.25 8.24v-16.49zm39.634 17.68H26.082l9.499-9.5 5.736 5.737v3.762zm0-6.143l-4.546-4.546 4.546-4.547v9.093zm0-11.472L23.702 41.307H2.874l8.842-8.832.002-.002.002-.002 9.463-9.454 4.783 7.1a.841.841 0 0 0 1.396 0l8.301-12.324.01-.015c.529-.778 1.22-2.022 1.63-3.227h4.014v9.142z"/>
        <path d="M26.5 16a5.5 5.5 0 1 1 0-11 5.5 5.5 0 0 1 0 11zm0-2a3.5 3.5 0 1 0 0-7 3.5 3.5 0 0 0 0 7z"/>
    </g>
</svg>
