<svg xmlns="http://www.w3.org/2000/svg" width="32" height="14" viewBox="0 0 32 14">
    <g fill="none" fill-rule="evenodd" opacity=".8">
        <path fill="#D9D7D7" d="M0 0h32v14H0V0zm2.344 6.566v.985h1.044v1.42H2.344V9.9h1.044v1.983h1.176V9.9H6.93V8.97H4.564v-1.42h1.485c.48 0 .926-.057 1.337-.17.412-.112.77-.283 1.073-.513.304-.23.544-.518.72-.865.177-.347.265-.755.265-1.224s-.083-.872-.25-1.21a2.304 2.304 0 0 0-.69-.837 3.02 3.02 0 0 0-1.059-.492 5.39 5.39 0 0 0-1.367-.162h-2.69v4.488H2.344zm3.734 0H4.564V3.063h1.514c.676 0 1.208.136 1.595.408.387.272.58.708.58 1.308 0 .6-.193 1.048-.58 1.344-.387.295-.919.443-1.595.443z"/>
        <path fill="#E9E9E9" d="M15 0h4v14h-4z"/>
    </g>
</svg>
