<svg xmlns="http://www.w3.org/2000/svg" width="29" height="20" viewBox="0 0 29 20">
    <path fill="#1D509F" fill-rule="nonzero" d="M29 17.562c0-.005 0-.012-.002-.017v-.023c-.002-.005-.002-.01-.002-.016l-.004-.026c0-.004 0-.009-.003-.013a.564.564 0 0 0-.007-.038L24.752.459A.603.603 0 0 0 24.166 0H4.833a.605.605 0 0 0-.586.46L.017 17.428l-.007.038-.003.014-.003.025-.002.016-.001.023-.001.017v1.831a.604.604 0 0 0 .804.573l3.26-1.143 3.29 1.143a.601.601 0 0 0 .397 0l3.274-1.143 3.277 1.143a.596.596 0 0 0 .396 0l3.276-1.143 3.275 1.143c.13.045.269.045.396 0l3.277-1.143 3.275 1.143a.6.6 0 0 0 .548-.078.606.606 0 0 0 .255-.495v-1.818-.013zm-17.776-1.771a.607.607 0 0 0-.397 0l-2.555.891.589-4.72 2.53-.89 2.505.874v4.777l-2.672-.932zm-6.963 0a.606.606 0 0 0-.397 0l-2.402.842 1.16-4.655 2.555-.906 2.47.855-.602 4.83-2.784-.966zm-.28-9.264l2.276-.783 2.07.727L7.8 10.7l-2.429-.841a.601.601 0 0 0-.398.001l-2 .71L3.98 6.526zm9.915-5.315v3.996L11.95 4.53a.601.601 0 0 0-.395 0l-1.85.64.494-3.958h3.696zm4.903 0l.494 3.958-1.85-.64a.599.599 0 0 0-.394 0l-1.945.678V1.212h3.695zm7.227 9.356l-2-.709a.603.603 0 0 0-.4-.001L21.2 10.7l-.527-4.229 2.07-.728 2.276.784 1.007 4.041zM9.54 6.51l2.212-.767 2.143.748v4.172l-2.305-.805a.604.604 0 0 0-.398 0l-2.165.762.513-4.11zm5.564-.019l2.143-.747 2.213.767.512 4.107-2.165-.76a.601.601 0 0 0-.397 0l-2.306.805V6.49zm0 5.455l2.503-.874 2.532.889.588 4.721-2.554-.891a.61.61 0 0 0-.398 0l-2.671.932v-4.777zm6.85 4.81l-.6-4.827 2.469-.857 2.555.906 1.16 4.657-2.418-.844a.607.607 0 0 0-.396 0l-2.77.966zm2.717-11.63l-1.733-.597a.602.602 0 0 0-.397.001l-2.021.71-.503-4.028h3.678l.976 3.914zM5.305 1.212h3.677L8.48 5.241 6.46 4.53a.6.6 0 0 0-.397-.002l-1.732.597.975-3.914zM25.12 17.61a.607.607 0 0 0-.396 0l-3.277 1.143-3.274-1.143a.61.61 0 0 0-.398 0L14.5 18.752l-3.276-1.143a.607.607 0 0 0-.397 0l-3.276 1.143-3.29-1.143a.606.606 0 0 0-.397 0l-2.656.931v-.534l2.856-1 3.29 1.142.02.006a.445.445 0 0 0 .035.01l.022.004a.488.488 0 0 0 .035.007l.01.002.018.002h.013a.75.75 0 0 0 .046.003l.03-.002.021-.001c.01 0 .021-.003.033-.004l.018-.002a.394.394 0 0 0 .032-.007l.02-.005.03-.009.014-.004 3.274-1.143 3.277 1.143.008.003.025.008.029.007a.916.916 0 0 1 .025.005l.033.005.021.003a.61.61 0 0 0 .113 0c.008 0 .014-.002.021-.003l.034-.005.025-.005.028-.007.026-.008.008-.003 3.276-1.143 3.275 1.143.014.004.03.01.02.004.032.007a1.047 1.047 0 0 0 .051.006c.009 0 .02 0 .028.002h.023l.046-.001.014-.002h.015l.01-.003a.56.56 0 0 0 .038-.007c.006 0 .013-.002.02-.004a.513.513 0 0 0 .055-.016l3.277-1.143 2.869 1.002v.534l-2.67-.932z"/>
</svg>
