<svg xmlns="http://www.w3.org/2000/svg" width="39" height="27" viewBox="0 0 39 27">
    <g fill="none" fill-rule="evenodd" stroke="#1D509F" stroke-linecap="round" stroke-linejoin="round" stroke-width="1.597">
        <path d="M1.018 17.042c.948 5.074 5.372 8.839 10.585 8.839 4.74 0 8.848-3.274 10.27-7.694l16.116-4.91M37.673 7.548l-15.958 3.764c-1.422-4.42-5.372-7.693-10.27-7.693-5.213 0-9.48 3.765-10.427 8.676M37.83 13.44c-.79 2.62-2.527 4.748-5.055 5.73M29.773 1.655c3.634 0 6.636 2.291 7.9 5.565"/>
        <path d="M4.178 12.786c.79-3.274 3.792-5.73 7.267-5.73 2.844 0 5.372 1.637 6.636 4.256M18.24 18.188c-1.265 2.619-3.793 4.255-6.795 4.255-3.475 0-6.32-2.455-7.267-5.565M30.089 1.655L11.445 3.619M15.08 25.226l18.01-6.056M21.715 11.313H18.24M21.715 18.188H18.24M1.018 12.786h3.16M1.018 16.878h3.16"/>
    </g>
</svg>
