<svg xmlns="http://www.w3.org/2000/svg" width="42" height="42" viewBox="0 0 42 42">
    <g fill="none" fill-rule="evenodd">
        <path fill="#4C6C91" d="M0 21C0 9.402 9.402 0 21 0s21 9.402 21 21-9.402 21-21 21S0 32.598 0 21z"/>
        <path fill="#FFF" d="M22.099 27.192s.404-.045.61-.263c.19-.2.184-.577.184-.577s-.025-1.763.808-2.023c.822-.256 1.877 1.704 2.997 2.458.846.57 1.488.445 1.488.445l2.992-.04s1.564-.095.822-1.303c-.06-.099-.432-.893-2.224-2.526-1.876-1.709-1.624-1.432.635-4.389 1.376-1.8 1.926-2.9 1.754-3.369-.163-.45-1.176-.33-1.176-.33l-3.368.02s-.25-.033-.435.076c-.18.106-.298.354-.298.354s-.532 1.393-1.243 2.578c-1.5 2.5-2.1 2.632-2.345 2.477-.57-.363-.428-1.454-.428-2.23 0-2.422.375-3.432-.729-3.694-.365-.087-.635-.144-1.572-.153-1.202-.012-2.218.004-2.795.28-.383.184-.679.595-.498.619.222.029.726.133.994.49.345.461.333 1.496.333 1.496s.198 2.852-.464 3.206c-.453.243-1.076-.253-2.413-2.52-.685-1.162-1.202-2.446-1.202-2.446s-.1-.24-.278-.37c-.216-.155-.518-.204-.518-.204l-3.2.02s-.48.014-.657.22c-.157.18-.012.558-.012.558s2.505 5.755 5.343 8.655c2.602 2.659 5.556 2.485 5.556 2.485h1.339z"/>
    </g>
</svg>
