<?xml version="1.0" encoding="UTF-8" standalone="no"?>
<svg width="24px" height="33px" viewBox="0 0 24 33" version="1.1" xmlns="http://www.w3.org/2000/svg" xmlns:xlink="http://www.w3.org/1999/xlink">
    <!-- Generator: Sketch 50.2 (55047) - http://www.bohemiancoding.com/sketch -->
    <title>warmth</title>
    <desc>Created with Sketch.</desc>
    <defs></defs>
    <g id="Page-1" stroke="none" stroke-width="1" fill="none" fill-rule="evenodd" stroke-linecap="round" stroke-linejoin="round">
        <g id="warmth" transform="translate(1.000000, 1.000000)" stroke="#FFFFFF" stroke-width="1.08">
            <rect id="Rectangle-path" x="0.44" y="11.7357143" width="3.08" height="19.0428571"></rect>
            <path d="M0.44,11.7357143 L12.32,1.32857143 C12.32,1.32857143 13.75,0.332142857 17.05,0.332142857 C20.79,0.332142857 21.56,2.54642857 21.56,3.98571429 C21.56,5.75714286 20.46,6.64285714 16.28,6.42142857 C13.75,6.31071429 12.32,3.54285714 14.3,2.65714286" id="Shape"></path>
            <path d="M13.2,3.54285714 L3.52,11.7357143" id="Shape"></path>
            <path d="M21.45,3.875 L21.45,19.9285714 C21.45,19.9285714 21.34,24.5785714 17.16,24.5785714 C17.16,24.5785714 13.86,24.9107143 12.76,22.2535714 L12.76,4.53928571" id="Shape"></path>
            <path d="M3.52,30.7785714 L12.43,21.8107143" id="Shape"></path>
        </g>
    </g>
</svg>