<svg xmlns="http://www.w3.org/2000/svg" width="27" height="28" viewBox="0 0 27 28">
    <g fill="none" fill-rule="evenodd" stroke="#1D509F" stroke-linecap="round" stroke-linejoin="round" stroke-width="1.08">
        <path d="M3.012 4.683C1.614 4.25.646 2.842.646 1.325l18.182 7.583c0 1.95 1.613 3.575 3.55 3.575 1.936 0 3.55-1.625 3.55-3.575L7.746 1.325c.108 1.083-.215 1.842-.968 2.492M2.797 4.683l18.828 7.8"/>
        <path d="M9.145 7.283V10.1h1.506v2.708H15.6V10.1M11.512 12.808v4.875s.322 4.334 5.056 4.334c3.658.108 3.766 3.358 3.658 4.983h3.12M18.074 19.092h.646c2.044 0 3.658 1.841 4.196 3.358.323.758.43 1.625.43 2.492v1.95"/>
        <path d="M15.062 12.808v4.442s.323 1.733 3.12 1.842"/>
    </g>
</svg>
