<?xml version="1.0" encoding="UTF-8" standalone="no"?>
<svg width="28px" height="26px" viewBox="0 0 28 26" version="1.1" xmlns="http://www.w3.org/2000/svg" xmlns:xlink="http://www.w3.org/1999/xlink">
    <!-- Generator: Sketch 50.2 (55047) - http://www.bohemiancoding.com/sketch -->
    <title>waterproof-icon</title>
    <desc>Created with Sketch.</desc>
    <defs></defs>
    <g id="Page-1" stroke="none" stroke-width="1" fill="none" fill-rule="evenodd">
        <g id="waterproof-icon" fill="#FFFFFF" fill-rule="nonzero">
            <path d="M26.0272727,24.5488372 L14,24.5488372 L21.9863636,16.9604651 C22.1136364,16.8395349 22.1772727,16.6883721 22.1772727,16.5372093 C22.1772727,16.3860465 22.1136364,16.2348837 21.9863636,16.1139535 L19.9181818,14.1488372 C19.6636364,13.9069767 19.2818182,13.9069767 19.0272727,14.1488372 L10.7227273,22.0093023 L6.96818182,18.4418605 L8.46363636,17.0209302 C8.62272727,16.8697674 8.68636364,16.627907 8.62272727,16.4162791 C8.55909091,16.2046512 8.36818182,16.0534884 8.11363636,15.9930233 L0.922727273,14.8139535 C0.731818182,14.7837209 0.509090909,14.844186 0.35,14.9953488 C0.190909091,15.1465116 0.127272727,15.327907 0.159090909,15.5395349 L1.4,22.372093 C1.43181818,22.5837209 1.62272727,22.7651163 1.84545455,22.855814 C2.06818182,22.9162791 2.32272727,22.855814 2.48181818,22.7046512 L3.97727273,21.2837209 L7.44545455,24.5790698 L0.795454545,24.5790698 C0.445454545,24.5790698 0.159090909,24.8511628 0.159090909,25.1837209 C0.159090909,25.5162791 0.445454545,25.7883721 0.795454545,25.7883721 L8.30454545,25.7883721 L9.00454545,25.7883721 L26.0272727,25.7883721 C26.3772727,25.7883721 26.6636364,25.5162791 26.6636364,25.1837209 C26.6636364,24.8511628 26.3772727,24.5488372 26.0272727,24.5488372 Z M19.4727273,15.4186047 L20.65,16.5372093 L12.8227273,23.9744186 L11.6454545,22.855814 L19.4727273,15.4186047 Z M3.53181818,19.9837209 L2.45,21.0116279 L1.55909091,16.1744186 L6.65,17.0209302 L5.56818182,18.0488372 C5.31363636,18.2906977 5.31363636,18.6534884 5.56818182,18.8953488 L11.5818182,24.6093023 L9.22727273,24.6093023 L4.45454545,19.9837209 C4.2,19.7418605 3.78636364,19.7418605 3.53181818,19.9837209 Z" id="Shape"></path>
            <path d="M23.4818182,0.241860465 C23.2909091,0.241860465 23.1,0.33255814 22.9727273,0.48372093 C22.5909091,0.997674419 19.1545455,5.53255814 19.1545455,7.61860465 C19.1545455,9.88604651 21.0954545,11.7302326 23.4818182,11.7302326 C25.8681818,11.7302326 27.8090909,9.88604651 27.8090909,7.61860465 C27.8090909,5.53255814 24.3727273,0.997674419 23.9909091,0.48372093 C23.8954545,0.33255814 23.7045455,0.241860465 23.4818182,0.241860465 Z M23.4818182,10.5209302 C21.7954545,10.5209302 20.4272727,9.22093023 20.4272727,7.61860465 C20.4272727,6.5 22.1454545,3.74883721 23.4818182,1.8744186 C24.85,3.74883721 26.5363636,6.5 26.5363636,7.61860465 C26.5681818,9.22093023 25.1681818,10.5209302 23.4818182,10.5209302 Z" id="Shape"></path>
            <path d="M23.6409091,5.9255814 C23.8318182,6.10697674 24.6590909,7.10465116 23.6727273,8.04186047 C23.4181818,8.28372093 23.4181818,8.64651163 23.6727273,8.88837209 C23.8,9.00930233 23.9590909,9.06976744 24.1181818,9.06976744 C24.2772727,9.06976744 24.4363636,9.00930233 24.5636364,8.88837209 C26.0590909,7.46744186 25.2318182,5.80465116 24.5954545,5.10930233 C24.3727273,4.86744186 23.9590909,4.8372093 23.7045455,5.07906977 C23.45,5.29069767 23.4181818,5.65348837 23.6409091,5.9255814 Z" id="Shape"></path>
        </g>
    </g>
</svg>