<svg xmlns="http://www.w3.org/2000/svg" width="36" height="36" viewBox="0 0 36 36">
    <g fill="#1D509F" fill-rule="nonzero">
        <path d="M33.464 33.99H18l10.268-10.506a.836.836 0 0 0 .246-.586.836.836 0 0 0-.246-.586L25.61 19.59a.779.779 0 0 0-1.145 0L13.786 30.474l-4.827-4.94 1.923-1.967c.204-.209.286-.544.204-.837-.081-.293-.327-.502-.654-.586l-9.246-1.632a.85.85 0 0 0-.736.25.856.856 0 0 0-.245.754l1.595 9.46c.04.294.286.545.573.67.286.084.613 0 .818-.209l1.923-1.967 4.459 4.563h-8.55a.83.83 0 0 0-.818.837c0 .46.368.837.818.837h32.441a.83.83 0 0 0 .818-.837c0-.46-.368-.88-.818-.88zM25.036 21.35l1.514 1.549-10.064 10.297-1.513-1.548 10.063-10.298zm-20.495 6.32L3.15 29.094l-1.145-6.698 6.545 1.172-1.39 1.424a.822.822 0 0 0 0 1.172l7.73 7.911h-3.026L5.727 27.67a.826.826 0 0 0-1.186 0zM30.19.335a.847.847 0 0 0-.654.335c-.49.711-4.909 6.99-4.909 9.879 0 3.14 2.496 5.693 5.564 5.693s5.564-2.554 5.564-5.693c0-2.889-4.419-9.168-4.91-9.88-.122-.209-.368-.334-.654-.334zm0 14.232c-2.167 0-3.926-1.8-3.926-4.018 0-1.549 2.209-5.358 3.927-7.954C31.95 5.191 34.118 9 34.118 10.55c.041 2.218-1.759 4.018-3.927 4.018z"/>
        <path d="M30.395 8.205c.246.25 1.31 1.632.041 2.93a.822.822 0 0 0 0 1.172.799.799 0 0 0 .573.251c.205 0 .41-.084.573-.251 1.923-1.967.859-4.27.04-5.233a.779.779 0 0 0-1.145-.041c-.327.293-.368.795-.082 1.172z"/>
    </g>
</svg>
