<svg xmlns="http://www.w3.org/2000/svg" width="43" height="42" viewBox="0 0 43 42">
    <g fill="none" fill-rule="evenodd">
        <path fill="#CE1312" d="M0 21C0 9.402 9.482 0 21.178 0c11.696 0 21.178 9.402 21.178 21s-9.482 21-21.178 21C9.482 42 0 32.598 0 21z"/>
        <path fill="#FFF" d="M32.2 16.773s-.22-1.577-.896-2.272c-.858-.912-1.82-.916-2.26-.97-3.157-.231-7.892-.231-7.892-.231h-.01s-4.734 0-7.891.232c-.441.053-1.402.057-2.26.969-.677.695-.897 2.272-.897 2.272s-.225 1.853-.225 3.705v1.736c0 1.853.225 3.705.225 3.705s.22 1.577.896 2.272c.859.912 1.986.884 2.488.979 1.805.176 7.67.23 7.67.23s4.74-.007 7.896-.239c.44-.054 1.402-.058 2.26-.97.676-.695.897-2.272.897-2.272s.225-1.852.225-3.705v-1.736c0-1.852-.225-3.705-.225-3.705z"/>
        <path fill="#CE1312" d="M18.818 24.319v-6.432l6.095 3.227z"/>
    </g>
</svg>
