<svg xmlns="http://www.w3.org/2000/svg" width="46" height="38" viewBox="0 0 46 38">
    <g fill="#009950" fill-rule="nonzero">
        <path d="M1.522 35.767h42.23V1.492H1.521v34.275zm42.983 1.49H.768a.749.749 0 0 1-.754-.745V.747A.75.75 0 0 1 .768.002h43.737a.75.75 0 0 1 .754.745v35.765a.749.749 0 0 1-.754.745z"/>
        <path d="M25.653 10.434h15.082V8.299c-4.749-2.424-9.817-3.707-15.082-3.818v5.953zm15.836 1.49h-16.59a.749.749 0 0 1-.754-.745V3.73c0-.413.337-.746.754-.746 5.934 0 11.635 1.415 16.944 4.207.246.13.4.382.4.658v3.331a.749.749 0 0 1-.754.745zM4.538 10.434H19.62V4.481C14.355 4.592 9.287 5.875 4.538 8.3v2.135zm15.836 1.49H3.784a.749.749 0 0 1-.754-.745V7.848c0-.276.154-.529.4-.658 5.308-2.792 11.01-4.207 16.944-4.207.417 0 .754.333.754.745v7.451a.749.749 0 0 1-.754.745zM4.538 17.885h36.197v-2.98H4.538v2.98zm36.951 1.49H3.784a.749.749 0 0 1-.754-.745v-4.47a.75.75 0 0 1 .754-.746H41.49a.75.75 0 0 1 .754.745v4.47a.749.749 0 0 1-.754.746z"/>
        <path d="M4.538 22.355h36.197v-2.98H4.538v2.98zm36.951 1.49H3.784a.749.749 0 0 1-.754-.745v-4.47a.75.75 0 0 1 .754-.745H41.49a.75.75 0 0 1 .754.745v4.47a.749.749 0 0 1-.754.745z"/>
        <path d="M4.538 26.826h36.197v-2.98H4.538v2.98zm36.951 1.49H3.784a.749.749 0 0 1-.754-.745V23.1a.75.75 0 0 1 .754-.746H41.49a.75.75 0 0 1 .754.745v4.47a.749.749 0 0 1-.754.746z"/>
        <path d="M4.538 31.296h36.197v-2.98H4.538v2.98zm36.951 1.49H3.784a.749.749 0 0 1-.754-.745v-4.47a.75.75 0 0 1 .754-.745H41.49a.75.75 0 0 1 .754.745v4.47a.749.749 0 0 1-.754.746z"/>
        <path d="M4.538 35.767h36.197v-2.98H4.538v2.98zm36.951 1.49H3.784a.749.749 0 0 1-.754-.745v-4.47a.75.75 0 0 1 .754-.746H41.49a.75.75 0 0 1 .754.745v4.471a.749.749 0 0 1-.754.745z"/>
    </g>
</svg>
