<svg xmlns="http://www.w3.org/2000/svg" width="50" height="48" viewBox="0 0 50 48">
    <g fill="none" fill-rule="evenodd" stroke="#3C76CF" stroke-width="1.25" transform="translate(1 1)">
        <rect width="48" height="2.942" y="43.058" rx="1.471"/>
        <path d="M4.487 0H43.35c.98 0 1.633.8 1.633 1.76v41.298H3.017V1.441C3.017.64 3.67 0 4.487 0z"/>
        <path d="M6.312 42.975V3.393h35.383v39.582"/>
        <path d="M6.312 3.393l12.343 5.754V39.83l-9.254 3.144M41.695 3.393L29.901 9.29v30.44l8.777 3.245"/>
        <path d="M9.401 22.917V8.742l6.25 2.255v11.92zM38.678 22.917V8.742l-5.994 2.255v11.92zM9.401 25.591v14.175l6.25-2.255V25.59zM38.678 25.591v14.175l-5.994-2.094v-12.08z"/>
    </g>
</svg>
