<?xml version="1.0" standalone="no"?>
<!DOCTYPE svg PUBLIC "-//W3C//DTD SVG 1.1//EN" "http://www.w3.org/Graphics/SVG/1.1/DTD/svg11.dtd">
<svg xmlns="http://www.w3.org/2000/svg">
<metadata>Copyright (C) 2018 by original authors @ fontello.com</metadata>
<defs>
<font id="fontello" horiz-adv-x="1000" >
<font-face font-family="fontello" font-weight="400" font-stretch="normal" units-per-em="1000" ascent="850" descent="-150" />
<missing-glyph horiz-adv-x="1000" />
<glyph glyph-name="log-in" unicode="&#xe800;" d="M610 717l451 0 0-733-451 0 0-105 558 0 0 943-558 0z m258-371l-268 209 0-157-375 0 0-105 375 0 0-157z" horiz-adv-x="1434" />

<glyph glyph-name="cut" unicode="&#xe801;" d="M571 457q0-14-10-25l-250-250q-11-11-25-11t-25 11l-250 250q-11 11-11 25t11 25 25 11h500q14 0 25-11t10-25z" horiz-adv-x="571.4" />

<glyph glyph-name="download" unicode="&#xe802;" d="M938 288v-313h-843v313h-120v-438h1083v438z m-421-188l240 313h-180v437h-120v-437h-181z" horiz-adv-x="1058" />

<glyph glyph-name="geo" unicode="&#xe803;" d="M594 690l-564-188a48 48 0 0 1-32-42 49 49 0 0 1 29-45l248-102 102-248c7-17 26-30 45-29a49 49 0 0 1 43 32l188 563c5 15 3 33-8 44-17 18-33 21-51 15z m-60-118l-118-354-61 149a52 52 0 0 1-26 25l-150 62z" horiz-adv-x="675" />

<glyph glyph-name="search" unicode="&#xe804;" d="M784 113c151 175 144 440-22 606a443 443 0 0 1-316 131 444 444 0 0 1-315-131c-174-174-174-457 0-631a444 444 0 0 1 315-131 443 443 0 0 1 291 109l206-206a33 33 0 1 1 47 47l-205 206z m-606 22a380 380 0 0 0 0 537 377 377 0 0 0 268 111 377 377 0 0 0 269-111 380 380 0 0 0 0-537 377 377 0 0 0-269-111 377 377 0 0 0-268 111z" horiz-adv-x="1000" />

<glyph glyph-name="add-to-cart" unicode="&#xe805;" d="M949 172h-647l-68 546a36 36 0 0 1-36 32h-178a36 36 0 0 1-36-36c0-20 16-36 36-36h147l68-546c2-18 17-32 35-32h678a36 36 0 0 1 36 36 36 36 0 0 1-36 36z m-565-122a100 100 0 1 1 0-200 100 100 0 0 1 0 200z m0-133a33 33 0 1 0 0 66 33 33 0 0 0 0-66z m400 133a100 100 0 1 1 0-200 100 100 0 0 1 0 200z m0-133a33 33 0 1 0 0 66 33 33 0 0 0 0-66z m163 833h-147a36 36 0 0 1-37-36 36 36 0 0 1 37-35h111v-358h-485l-61 358h140a36 36 0 0 1 37 35 36 36 0 0 1-37 36h-184a37 37 0 0 1-28-13 35 35 0 0 1-8-29l73-428a37 37 0 0 1 37-30h552a36 36 0 0 1 37 36v428a36 36 0 0 1-37 36z m-286 100c-21 0-38-15-38-35v-297l-49 45a40 40 0 0 1-52 0 33 33 0 0 1-1-49l113-104a39 39 0 0 1 27-10c10 0 19 4 26 10l113 104a33 33 0 0 1 0 49 40 40 0 0 1-53 0l-49-45v297c0 20-17 35-37 35z" horiz-adv-x="984" />

<glyph glyph-name="cart" unicode="&#xe806;" d="M1071 208h-718l-75 607a40 40 0 0 1-40 35h-198a40 40 0 0 1-40-40c0-22 18-40 40-40h163l75-607c3-20 19-35 40-35h753a40 40 0 0 1 40 40 40 40 0 0 1-40 40z m-627-136a111 111 0 1 1 0-222 111 111 0 0 1 0 222z m0-148a37 37 0 1 0 0 74 37 37 0 0 0 0-74z m445 148a111 111 0 1 1 0-222 111 111 0 0 1 0 222z m0-148a37 37 0 1 0 0 74 37 37 0 0 0 0-74z m181 926h-542a40 40 0 0 1-41-40 40 40 0 0 1 41-39h501v-397h-538l-68 397h156a40 40 0 0 1 41 39 40 40 0 0 1-41 40h-205a42 42 0 0 1-31-14 39 39 0 0 1-9-32l82-476a41 41 0 0 1 40-34h614a40 40 0 0 1 41 40v476a40 40 0 0 1-41 40z" horiz-adv-x="1111" />

<glyph glyph-name="marker" unicode="&#xe807;" d="M746 477c0 51-9 99-29 145-18 44-45 84-80 120-34 34-73 60-119 79-45 19-93 29-144 29-52 0-101-10-146-29-45-19-84-45-119-79-34-35-61-75-80-120-19-46-29-94-29-145 0-50 10-98 29-144 13-29 26-52 39-70l247-375c16-25 35-38 58-38 22 0 42 13 59 38l246 375c16 22 29 45 39 70 20 46 29 94 29 144z" horiz-adv-x="746" />

<glyph glyph-name="arrow-right" unicode="&#xe808;" d="M1400 350l-65 72-390 428-160-143 227-250h-1012v-214h1012l-227-250 160-143 390 428z" horiz-adv-x="1400" />

<glyph glyph-name="arrow-left" unicode="&#xe809;" d="M0 350l66-72 389-428 161 143-227 250h1011v214h-1011l227 250-161 143-389-428z" horiz-adv-x="1400" />

<glyph glyph-name="sale" unicode="&#xe80a;" d="M706 600a39 39 0 0 1-24-12l-419-419a39 39 0 1 1 56-55l419 419a39 39 0 0 1-32 67z m-336-1a119 119 0 0 1-118-118 119 119 0 0 1 118-117 119 119 0 0 1 118 117 119 119 0 0 1-118 118z m0-78c22 0 39-17 39-40a39 39 0 0 0-39-39 39 39 0 0 0-40 39c0 23 18 40 40 40z m262-184a119 119 0 0 1-118-118 119 119 0 0 1 118-117 119 119 0 0 1 118 117 119 119 0 0 1-118 118z m0-78c22 0 39-17 39-39a39 39 0 0 0-39-40 39 39 0 0 0-40 40c0 22 18 39 40 39z m368 91a500 500 0 0 0-500-500 500 500 0 0 0-500 500 500 500 0 0 0 500 500 500 500 0 0 0 500-500z" horiz-adv-x="1000" />

<glyph glyph-name="phone" unicode="&#xe80b;" d="M732 391h-154a37 37 0 0 0-37 37v148a37 37 0 0 0 74 0v-111h117a37 37 0 0 0 0-74z m-136 19a37 37 0 0 0-26 63l199 199a37 37 0 0 0 53-52l-200-199a37 37 0 0 0-26-11z m151-560c-41 0-81 11-116 31l-6 3a1569 1569 0 0 0-565 554l-27 44a232 232 0 0 0 35 283l53 53a110 110 0 0 0 155 0l116-116c35-35 42-89 18-132l-43-77a12 12 0 0 1 2-14l258-258a12 12 0 0 1 14-2l77 43a110 110 0 0 0 132-18l116-116a110 110 0 0 0 0-156l-55-55a232 232 0 0 0-164-67z m-548 926a36 36 0 0 1-26-10l-53-53a158 158 0 0 1-24-193l27-44a1495 1495 0 0 1 539-528l5-3a159 159 0 0 1 192 25l55 55a36 36 0 0 1 0 51l-116 116a36 36 0 0 1-44 6l-77-44c-33-18-75-13-103 14l-258 258a86 86 0 0 0-14 103l44 77c8 15 5 32-6 44l-116 116a36 36 0 0 1-25 10z" horiz-adv-x="998" />

<glyph glyph-name="close" unicode="&#xe80c;" d="M0-59l909 909 91-91-909-909z m91 909l909-909-91-91-909 909z" horiz-adv-x="1000" />

<glyph glyph-name="menu" unicode="&#xe80d;" d="M0-7h1429v-143h-1429z m0 428h1429v-142h-1429z m0 429h1429v-143h-1429z" horiz-adv-x="1429" />

<glyph glyph-name="slideup" unicode="&#xe80e;" d="M571 171q0-14-10-25t-25-10h-500q-15 0-25 10t-11 25 11 26l250 250q10 10 25 10t25-10l250-250q10-11 10-26z" horiz-adv-x="571.4" />

<glyph glyph-name="left-dir" unicode="&#xe80f;" d="M357 600v-500q0-14-10-25t-26-11-25 11l-250 250q-10 11-10 25t10 25l250 250q11 11 25 11t26-11 10-25z" horiz-adv-x="357.1" />

<glyph glyph-name="right-dir" unicode="&#xe810;" d="M321 350q0-14-10-25l-250-250q-11-11-25-11t-25 11-11 25v500q0 15 11 25t25 11 25-11l250-250q10-10 10-25z" horiz-adv-x="357.1" />

<glyph glyph-name="plus" unicode="&#xe811;" d="M550 400q30 0 30-50t-30-50l-210 0 0-210q0-30-50-30t-50 30l0 210-210 0q-30 0-30 50t30 50l210 0 0 210q0 30 50 30t50-30l0-210 210 0z" horiz-adv-x="580" />

<glyph glyph-name="minus" unicode="&#xe812;" d="M550 400q30 0 30-50t-30-50l-520 0q-30 0-30 50t30 50l520 0z" horiz-adv-x="580" />

<glyph glyph-name="close-circled" unicode="&#xe813;" d="M641 224q0 14-10 25l-101 101 101 101q10 11 10 25 0 15-10 26l-51 50q-10 11-25 11-15 0-25-11l-101-101-101 101q-11 11-25 11-16 0-26-11l-50-50q-11-11-11-26 0-14 11-25l101-101-101-101q-11-11-11-25 0-15 11-26l50-50q10-11 26-11 14 0 25 11l101 101 101-101q10-11 25-11 15 0 25 11l51 50q10 11 10 26z m216 126q0-117-57-215t-156-156-215-58-216 58-155 156-58 215 58 215 155 156 216 58 215-58 156-156 57-215z" horiz-adv-x="857.1" />

<glyph glyph-name="arrow-down" unicode="&#xe814;" d="M357-150l-51 47-306 278 102 115 179-162v722h153v-722l178 162 102-115-306-278z" horiz-adv-x="714" />

<glyph glyph-name="arrow-up" unicode="&#xe815;" d="M357 850l-51-47-306-278 102-115 179 163v-723h153v723l178-163 102 115-306 278z" horiz-adv-x="714" />

<glyph glyph-name="logo" unicode="&#xe816;" d="M659 850l361-999h329l-362 999z m-316-200l285-799h329l-285 799z m-68-7l-275-793h558z m0-169c22-59 67-195 108-319l0-1c36-107 68-204 80-236h-367c10 28 34 104 61 193l1 0c41 135 91 297 117 363z" horiz-adv-x="1349" />

<glyph glyph-name="ok" unicode="&#xe817;" d="M933 534q0-22-16-38l-404-404-76-76q-16-15-38-15t-38 15l-76 76-202 202q-15 16-15 38t15 38l76 76q16 16 38 16t38-16l164-165 366 367q16 16 38 16t38-16l76-76q16-15 16-38z" horiz-adv-x="1000" />

<glyph glyph-name="in-stock" unicode="&#xe818;" d="M1193 850l-657-657-365 364-171-171 536-536 829 829z" horiz-adv-x="1365" />

<glyph glyph-name="view-grid" unicode="&#xe819;" d="M0 850h438v-437h-438v437z m563 0h437v-437h-437v437z m0-562h437v-438h-437v438z m-563 0h438v-438h-438v438z" horiz-adv-x="1000" />

<glyph glyph-name="view-card" unicode="&#xe81a;" d="M0 850h1000v-250h-1000v250z m0-375h1000v-250h-1000v250z m0-375h1000v-250h-1000v250z" horiz-adv-x="1000" />

<glyph glyph-name="filter" unicode="&#xe81b;" d="M0 850l1000 0-346-346 0-402-308-252 0 654z" horiz-adv-x="1000" />

<glyph glyph-name="pen" unicode="&#xe81c;" d="M622 683l203-204-515-518-203 205 515 517z m358 50l-91 91a90 90 0 0 1-127 0l-87-88 203-204 102 102c27 27 27 71 0 99z m-979-855c-4-16 11-32 28-27l226 55-203 204-51-232z" horiz-adv-x="1000" />

<glyph glyph-name="location" unicode="&#xe81d;" d="M429 493q0 59-42 101t-101 42-101-42-42-101 42-101 101-42 101 42 42 101z m142 0q0-61-18-100l-203-432q-9-18-27-29t-37-11-38 11-26 29l-204 432q-18 39-18 100 0 118 84 202t202 84 202-84 83-202z" horiz-adv-x="571.4" />

<glyph glyph-name="route" unicode="&#xe81e;" d="M233 849c-128 0-233-108-233-241 0-66 35-152 103-256a1419 1419 0 0 1 100-132c8-9 19-14 30-14 12 0 23 5 31 14 2 2 50 58 100 132 68 104 103 190 103 256 0 133-105 241-234 241z m0-353c-59 0-108 50-108 112 0 62 49 112 108 112s109-50 109-112c0-62-49-112-109-112z m732-560h-102c-72 0-131 60-131 135 0 121-95 219-212 219h-99a1565 1565 0 0 0-62-84h161c72 0 130-61 130-135 0-121 96-220 213-220h164c-17 22-39 51-62 85z m188 558c-129 0-234-108-234-240 0-66 35-152 104-256a1419 1419 0 0 1 99-133c8-9 19-14 31-14 11 0 23 5 30 14 2 3 51 59 100 133 68 104 103 190 103 256 0 132-105 240-233 240z m0-352c-60 0-109 50-109 112 0 61 49 111 109 111 60 0 108-50 108-111 0-62-48-112-108-112z" horiz-adv-x="1389" />

<glyph glyph-name="spin" unicode="&#xe839;" d="M855 9c-189-190-520-172-705 13-190 190-200 494-28 695 11 13 21 26 35 34 36 23 85 18 117-13 30-31 35-76 16-112-5-9-9-15-16-22-140-151-145-379-8-516 153-153 407-121 542 34 106 122 142 297 77 451-83 198-305 291-510 222l0 1c236 82 492-24 588-252 71-167 37-355-72-493-11-15-23-29-36-42z" horiz-adv-x="1000" />
</font>
</defs>
</svg>
