<?xml version="1.0" encoding="UTF-8" standalone="no"?>
<svg width="22px" height="27px" viewBox="0 0 22 27" version="1.1" xmlns="http://www.w3.org/2000/svg" xmlns:xlink="http://www.w3.org/1999/xlink">
    <!-- Generator: Sketch 50.2 (55047) - http://www.bohemiancoding.com/sketch -->
    <title>fire-protect</title>
    <desc>Created with Sketch.</desc>
    <defs></defs>
    <g id="Page-1" stroke="none" stroke-width="1" fill="none" fill-rule="evenodd">
        <g id="fire-protect" transform="translate(0.000000, 1.000000)" fill-rule="nonzero">
            <path d="M8.40393812,7.15909091 L15.0751055,13.7215909 C18.482888,9.00568182 17.2410689,1.39204545 8.28842007,0.0568181818 C9.0681669,1.5625 10.4543835,3.80681818 8.40393812,7.15909091 Z" id="Shape" stroke="#FFFFFF" stroke-width="1.3"></path>
            <path d="M5.37158931,10.625 C5.02503516,10.9375 4.6496015,11.25 4.24528833,11.5909091 C0.924144398,14.6022727 1.87716831,18.0965909 3.52330052,20.7386364 C4.99615565,22.9261364 7.13323957,24.6022727 11.2052508,24.8011364 C9.58799812,21.0227273 10.3966245,19.4602273 12.1871542,17.3011364 L5.37158931,10.625 Z" id="Shape" stroke="#FFFFFF" stroke-width="1.3"></path>
            <path d="M13.4867323,18.6931818 C11.8117206,20.8238636 12.3893108,22.5568182 13.1690577,24.5738636 C13.8910455,24.5738636 15.7104548,23.8352273 17.3277075,22.3863636 L13.5444913,18.6363636 C13.5156118,18.6647727 13.5156118,18.6647727 13.4867323,18.6931818 Z" id="Shape" stroke="#FFFFFF" stroke-width="1.3"></path>
            <path d="M20.0423816,18.6079545 C20.8221285,16.4772727 20.7354899,13.8068182 18.8583216,10.6534091 C18.4540084,12.0738636 17.472105,13.6079545 16.4035631,15.0284091 L20.0423816,18.6079545 Z" id="Shape" stroke="#FFFFFF" stroke-width="1.3"></path>
            <rect id="Rectangle-path" fill="#FFFFFF" transform="translate(11.105050, 13.228563) rotate(-45.000000) translate(-11.105050, -13.228563) " x="10.4550503" y="-1.57243192" width="1.29999995" height="29.6019888"></rect>
        </g>
    </g>
</svg>