<?xml version="1.0" encoding="UTF-8" standalone="no"?>
<svg width="14px" height="30px" viewBox="0 0 14 30" version="1.1" xmlns="http://www.w3.org/2000/svg" xmlns:xlink="http://www.w3.org/1999/xlink">
    <!-- Generator: Sketch 50.2 (55047) - http://www.bohemiancoding.com/sketch -->
    <title>gidro-vetro</title>
    <desc>Created with Sketch.</desc>
    <defs></defs>
    <g id="Page-1" stroke="none" stroke-width="1" fill="none" fill-rule="evenodd" stroke-linecap="round" stroke-linejoin="round">
        <g id="gidro-vetro" transform="translate(1.000000, 0.000000)" stroke="#FFFFFF" stroke-width="1.14">
            <path d="M8.82142857,10.324 L8.82142857,26.564 C8.82142857,27.84 7.84642857,28.884 6.6547619,28.884 L2.21309524,28.884 C1.02142857,28.884 0.0464285714,27.84 0.0464285714,26.564 L0.0464285714,3.016 C0.0464285714,1.74 1.02142857,0.696 2.21309524,0.696 L6.6547619,0.696 C7.41309524,0.696 7.9547619,1.044 8.38809524,1.624" id="Shape"></path>
            <path d="M8.82142857,3.016 C8.82142857,4.292 7.84642857,5.336 6.6547619,5.336 L2.21309524,5.336 C1.02142857,5.336 0.0464285714,4.292 0.0464285714,3.016 C0.0464285714,1.74 1.02142857,0.696 2.21309524,0.696 L6.6547619,0.696 C7.84642857,0.696 8.82142857,1.74 8.82142857,3.016" id="Shape"></path>
            <path d="M9.36309524,3.596 L12.0714286,7.424 C12.0714286,7.424 0.154761905,17.4 0.0464285714,22.272 C0.696428571,14.848 2.32142857,9.628 9.36309524,3.596 Z" id="Shape"></path>
            <path d="M8.38809524,1.624 L11.8547619,7.192" id="Shape"></path>
        </g>
    </g>
</svg>