<?xml version="1.0" encoding="UTF-8" standalone="no"?>
<svg width="24px" height="30px" viewBox="0 0 24 30" version="1.1" xmlns="http://www.w3.org/2000/svg" xmlns:xlink="http://www.w3.org/1999/xlink">
    <!-- Generator: Sketch 50.2 (55047) - http://www.bohemiancoding.com/sketch -->
    <title>inside</title>
    <desc>Created with Sketch.</desc>
    <defs></defs>
    <g id="Page-1" stroke="none" stroke-width="1" fill="none" fill-rule="evenodd" stroke-linecap="round" stroke-linejoin="round">
        <g id="inside" transform="translate(1.000000, 1.000000)" stroke="#FFFFFF" stroke-width="1.215">
            <rect id="Rectangle-path" x="2.85185185" y="0.488372093" width="18.9851852" height="6.75581395"></rect>
            <path d="M9.53333333,9.47674419 L2.03703704,9.47674419 C1.14074074,9.47674419 0.407407407,8.74418605 0.407407407,7.84883721 L0.407407407,5.45348837 C0.407407407,4.55813953 1.14074074,3.8255814 2.03703704,3.8255814 L2.85185185,3.8255814" id="Shape"></path>
            <path d="M3.99259259,9.47674419 L12.3037037,9.47674419 C13.2,9.47674419 13.9333333,10.2093023 13.9333333,11.1046512 L13.9333333,12.4883721" id="Shape"></path>
            <path d="M14.6666667,28 L13.2814815,28 C12.5481481,28 11.8962963,27.4929907 11.8962963,26.7686916 L11.8962963,13.7313084 C11.8962963,13.0794393 12.4666667,12.5 13.2814815,12.5 L14.6666667,12.5 C15.4,12.5 16.0518519,13.0070093 16.0518519,13.7313084 L16.0518519,26.7686916 C16.0518519,27.4205607 15.4,28 14.6666667,28 Z" id="Shape"></path>
        </g>
    </g>
</svg>