<svg width="29" height="20" viewBox="0 0 29 20" fill="none" xmlns="http://www.w3.org/2000/svg">
<path d="M29 17.562C28.9991 17.5566 28.9991 17.5504 28.9982 17.5451C28.9982 17.5371 28.9982 17.53 28.9973 17.522C28.9964 17.5167 28.9964 17.5113 28.9956 17.506C28.9947 17.4972 28.9929 17.4892 28.9921 17.4803C28.9912 17.4759 28.9912 17.4714 28.9894 17.467C28.9877 17.4546 28.985 17.4413 28.9823 17.4288L24.7519 0.459431C24.6855 0.189545 24.4439 0 24.166 0H4.83312C4.55609 0 4.31451 0.189545 4.24722 0.459431L0.0177286 17.4288C0.0142169 17.4412 0.0124044 17.4545 0.00974224 17.467C0.00883599 17.4714 0.00883599 17.4758 0.00708012 17.4812C0.00617386 17.4892 0.00532425 17.4971 0.00356838 17.506C0.00356838 17.5114 0.00266213 17.5167 0.00181251 17.522C0.00181251 17.53 0.000906255 17.5371 0.000906255 17.5451C0 17.5504 0 17.5566 0 17.562C0 17.5664 0 17.5708 0 17.5752V19.3934C0 19.5896 0.0947037 19.7743 0.253978 19.8879C0.414159 20.0015 0.618633 20.0309 0.803565 19.966L4.06393 18.8235L7.35437 19.966C7.48182 20.0113 7.62166 20.0104 7.75086 19.966L11.0254 18.8235L14.3017 19.966C14.4291 20.0113 14.5698 20.0113 14.6982 19.966L17.9736 18.8235L21.249 19.966C21.3782 20.0113 21.518 20.0113 21.6455 19.966L24.9217 18.8235L28.1972 19.966C28.2618 19.9883 28.329 19.9998 28.3954 19.9998C28.5193 19.9998 28.6423 19.9616 28.745 19.8879C28.9052 19.7743 28.9999 19.5896 28.9999 19.3934V17.5752C29 17.5708 29 17.5664 29 17.562ZM11.2237 15.7908C11.0963 15.7464 10.9565 15.7464 10.8273 15.7908L8.27224 16.6822L8.8608 11.9628L11.3919 11.0724L13.8956 11.9459V16.723L11.2237 15.7908ZM4.26138 15.7908C4.19676 15.7686 4.13043 15.7571 4.06405 15.7571C3.99676 15.7571 3.92862 15.7686 3.86405 15.7908L1.46213 16.6333L2.62146 11.9778L5.17738 11.0723L7.64653 11.9271L7.04472 16.7576L4.26138 15.7908ZM3.98084 6.52697L6.25707 5.74351L8.32622 6.47107L7.80054 10.6987L5.37206 9.85793C5.24286 9.8131 5.10301 9.81356 4.97381 9.85924L2.97371 10.5682L3.98084 6.52697ZM13.8956 1.21227V5.20817L11.9512 4.52993C11.8237 4.4851 11.6839 4.4851 11.5556 4.52948L9.70679 5.16999L10.1997 1.21227H13.8956ZM18.7994 1.21227L19.2933 5.16999L17.4436 4.52948C17.3162 4.4851 17.1763 4.4851 17.0489 4.52993L15.1036 5.20817V1.21227H18.7994ZM26.0264 10.5681L24.0253 9.85918C23.897 9.81345 23.7554 9.81305 23.6262 9.85788L21.1995 10.6999L20.6729 6.47101L22.743 5.74345L25.0192 6.52692L26.0264 10.5681ZM9.53953 6.5105L11.752 5.74345L13.8955 6.49141V10.6626L11.59 9.85833C11.4608 9.8135 11.321 9.8135 11.1918 9.85879L9.0271 10.6196L9.53953 6.5105ZM15.1036 6.49146L17.2471 5.74351L19.4596 6.51055L19.972 10.6183L17.8073 9.85879C17.6789 9.8135 17.5382 9.8135 17.4099 9.85833L15.1035 10.6626V6.49146H15.1036ZM15.1036 11.9458L17.6073 11.0724L20.1393 11.9609L20.7269 16.6822L18.1728 15.7908C18.0436 15.7464 17.9038 15.7464 17.7754 15.7908L15.1035 16.723V11.9458H15.1036ZM21.9544 16.7567L21.3535 11.929L23.8227 11.0724L26.3777 11.9778L27.5379 16.6351L25.12 15.7909C24.9917 15.7465 24.8519 15.7465 24.7236 15.7909L21.9544 16.7567ZM24.6705 5.12556L22.9377 4.52897C22.8085 4.48459 22.6696 4.48505 22.5412 4.53027L20.5198 5.2405L20.0171 1.21221H23.6952L24.6705 5.12556ZM5.30482 1.21227H8.98201L8.48023 5.24056L6.45883 4.53033C6.33048 4.48505 6.19069 4.48459 6.06234 4.52902L4.32952 5.12561L5.30482 1.21227ZM25.1201 17.609C24.9917 17.5646 24.852 17.5646 24.7236 17.609L21.4473 18.7516L18.1728 17.609C18.0436 17.5646 17.9038 17.5646 17.7754 17.609L14.5 18.7516L11.2237 17.609C11.0963 17.5646 10.9565 17.5646 10.8273 17.609L7.55098 18.7525L4.26138 17.609C4.19676 17.5868 4.13043 17.5752 4.06405 17.5752C3.99676 17.5752 3.92862 17.5868 3.86405 17.609L1.20815 18.5403V18.0059L4.06405 17.0054L7.35449 18.1479V18.1488C7.36157 18.1506 7.36689 18.1523 7.37307 18.1542C7.38456 18.1577 7.39697 18.1613 7.40937 18.1639C7.41645 18.1657 7.42353 18.1675 7.43061 18.1684C7.44211 18.171 7.45452 18.1737 7.46601 18.1755C7.46953 18.1755 7.47309 18.1764 7.47666 18.1772C7.48284 18.1781 7.48907 18.1781 7.49433 18.179C7.49875 18.179 7.50232 18.179 7.50674 18.1799C7.52181 18.1808 7.53682 18.1817 7.55273 18.1817C7.56247 18.1817 7.57222 18.1808 7.58281 18.1799C7.58989 18.1799 7.59697 18.1799 7.60405 18.179C7.6147 18.1781 7.62529 18.1763 7.63679 18.1755C7.64296 18.1746 7.64919 18.1737 7.65536 18.1728C7.66601 18.171 7.67661 18.1684 7.6872 18.1657C7.69428 18.1639 7.70045 18.163 7.70668 18.1613C7.71733 18.1586 7.72617 18.1551 7.73676 18.1524C7.74118 18.1506 7.74559 18.1497 7.75092 18.148L11.0254 17.0054L14.3017 18.148C14.3035 18.1489 14.3071 18.1497 14.3097 18.1506C14.3177 18.1533 14.3265 18.156 14.3354 18.1587C14.3451 18.1613 14.3549 18.1631 14.3637 18.1658C14.3725 18.1675 14.3805 18.1693 14.3885 18.1711C14.4 18.1729 14.4115 18.1746 14.4221 18.1764C14.4292 18.1773 14.4363 18.1782 14.4434 18.1791C14.4629 18.1809 14.4805 18.1818 14.5 18.1818C14.5186 18.1818 14.5372 18.1809 14.5558 18.1791C14.5637 18.1782 14.5699 18.1773 14.577 18.1764C14.5885 18.1747 14.5991 18.1729 14.6106 18.1711C14.6186 18.1693 14.6275 18.1676 14.6363 18.1658C14.6451 18.1631 14.654 18.1613 14.6637 18.1587C14.6726 18.156 14.6814 18.1533 14.6903 18.1506C14.6929 18.1497 14.6956 18.1489 14.6983 18.148L17.9737 17.0054L21.2491 18.148C21.2544 18.1497 21.2579 18.1506 21.2632 18.1524C21.273 18.1551 21.2827 18.1586 21.2933 18.1613C21.2995 18.163 21.3057 18.1639 21.3128 18.1657C21.3235 18.1684 21.334 18.171 21.3446 18.1728C21.3508 18.1737 21.357 18.1746 21.3641 18.1755C21.3748 18.1772 21.3854 18.1781 21.396 18.179C21.4048 18.1799 21.4154 18.1799 21.4243 18.1808C21.4314 18.1808 21.4393 18.1817 21.4473 18.1817C21.4623 18.1817 21.4773 18.1808 21.4933 18.1799C21.4968 18.179 21.5021 18.179 21.5065 18.1781C21.5118 18.1781 21.5172 18.1772 21.5224 18.1772C21.5259 18.1763 21.5286 18.1755 21.5322 18.1755C21.5446 18.1737 21.5578 18.171 21.5702 18.1684C21.5764 18.1675 21.5835 18.1657 21.5906 18.1639C21.6021 18.1613 21.6145 18.1577 21.626 18.1542C21.6331 18.1524 21.6384 18.1506 21.6455 18.148L24.9217 17.0054L27.7909 18.0068V18.5413L25.1201 17.609Z" fill="#1D509F"/>
</svg>
