<svg width="29" height="23" viewBox="0 0 29 23" fill="none" xmlns="http://www.w3.org/2000/svg">
<path fill-rule="evenodd" clip-rule="evenodd" d="M0.5 0.5V22.5H28.5V20.9462C21.1595 19.9271 15.2936 17.5719 10.9121 13.8732C6.55196 10.1925 4.30965 5.72452 4.2083 0.5H0.5Z" stroke="#1D509F"/>
<path fill-rule="evenodd" clip-rule="evenodd" d="M0.5 0.5V22.5H26.5446C19.719 21.3765 14.1261 19.0222 9.77394 15.4324C5.01844 11.51 2.4534 6.52244 2.09524 0.5H0.5ZM28.5 22.5H28.6409L28.8099 22.6901L28.6921 22.8079C28.628 22.8 28.5639 22.792 28.5 22.7839V22.5Z" stroke="#1D509F"/>
<path fill-rule="evenodd" clip-rule="evenodd" d="M0.5 0.5V22.5H28.5V9.57951C25.446 9.6227 22.6992 8.82268 20.2736 7.18061C17.8112 5.51369 16.3533 3.27779 15.921 0.5H0.5Z" stroke="#1D509F"/>
<path fill-rule="evenodd" clip-rule="evenodd" d="M0.5 0.5V22.5H28.5V0.5H0.5Z" stroke="#1D509F"/>
<path d="M28.6481 0.35199H22.3521V3.64799H28.6481V0.35199Z" stroke="#1D509F" stroke-width="0.704"/>
<path fill-rule="evenodd" clip-rule="evenodd" d="M25.3521 3.35199V7.64799H28.6481V3.35199H25.3521Z" stroke="#1D509F" stroke-width="0.704"/>
<path fill-rule="evenodd" clip-rule="evenodd" d="M17.748 3.35199L21.3022 7.64799H25.648V3.35199H17.748Z" stroke="#1D509F" stroke-width="0.704"/>
<path fill-rule="evenodd" clip-rule="evenodd" d="M15.5498 0.35199L17.0681 3.64799H21.6481V0.35199H15.5498Z" stroke="#1D509F" stroke-width="0.704"/>
<path fill-rule="evenodd" clip-rule="evenodd" d="M4.2644 3.78888H17.6944V4.34126H4.2644V3.78888Z" fill="#1D509F"/>
<path fill-rule="evenodd" clip-rule="evenodd" d="M6.32202 7.36664H21.1281V7.87775H6.32202V7.36664Z" fill="#1D509F"/>
<path fill-rule="evenodd" clip-rule="evenodd" d="M8.43726 10.9445H28.8523V11.4556H8.43726V10.9445Z" fill="#1D509F"/>
<path fill-rule="evenodd" clip-rule="evenodd" d="M11.6355 14.5222H28.8513V15.0333H11.6355V14.5222Z" fill="#1D509F"/>
<path fill-rule="evenodd" clip-rule="evenodd" d="M18.1343 18.1H28.8522V18.6111H18.1343V18.1Z" fill="#1D509F"/>
<path fill-rule="evenodd" clip-rule="evenodd" d="M10 0H10.8072V13.2382H10V0Z" fill="#1D509F"/>
<path fill-rule="evenodd" clip-rule="evenodd" d="M7 0H7.80721V10H7V0Z" fill="#1D509F"/>
<path fill-rule="evenodd" clip-rule="evenodd" d="M13 0H13.8072V16H13V0Z" fill="#1D509F"/>
<path fill-rule="evenodd" clip-rule="evenodd" d="M16 4H16.8072V17.7469H16V4Z" fill="#1D509F"/>
<path d="M20 6.59937H19V19H20V6.59937Z" fill="#1D509F"/>
<path fill-rule="evenodd" clip-rule="evenodd" d="M22 8H22.8626V20H22V8Z" fill="#1D509F"/>
<path fill-rule="evenodd" clip-rule="evenodd" d="M25 9H25.8626V20.7998H25V9Z" fill="#1D509F"/>
</svg>
