<svg width="24" height="30" viewBox="0 0 24 30" fill="none" xmlns="http://www.w3.org/2000/svg">
<path d="M22.837 1.48834H3.85181V8.24416H22.837V1.48834Z" stroke="#1D509F" stroke-width="1.215" stroke-linecap="round" stroke-linejoin="round"/>
<path d="M10.5334 10.4767H3.0371C2.1408 10.4767 1.40747 9.74417 1.40747 8.84882V6.45347C1.40747 5.55812 2.1408 4.82556 3.0371 4.82556H3.85192" stroke="#1D509F" stroke-width="1.215" stroke-linecap="round" stroke-linejoin="round"/>
<path d="M4.99268 10.4767H13.3038C14.2001 10.4767 14.9334 11.2092 14.9334 12.1046V13.4883" stroke="#1D509F" stroke-width="1.215" stroke-linecap="round" stroke-linejoin="round"/>
<path fill-rule="evenodd" clip-rule="evenodd" d="M15.6666 29H14.2814C13.5481 29 12.8962 28.493 12.8962 27.7687V14.7313C12.8962 14.0794 13.4666 13.5 14.2814 13.5H15.6666C16.3999 13.5 17.0518 14.007 17.0518 14.7313V27.7687C17.0518 28.4206 16.3999 29 15.6666 29Z" stroke="#1D509F" stroke-width="1.215" stroke-linecap="round" stroke-linejoin="round"/>
</svg>
