<svg width="175" height="24" viewBox="0 0 175 24" fill="none" xmlns="http://www.w3.org/2000/svg">
<path fill-rule="evenodd" clip-rule="evenodd" d="M119.926 0.329877H118.993V2.72H118.647V0.329877H117.715V0H119.953V0.329877H119.926ZM27.2302 19.8933H20.5969L13.2951 0.110617H19.9303L27.2302 19.8933ZM19.3169 19.8933H12.6826L6.92725 4.06716H13.5625L19.3169 19.8933ZM11.2708 19.921H0L5.54199 4.20444L11.2708 19.921ZM5.54199 7.55556C5.98539 8.72198 6.89874 11.4173 7.73048 13.8765L7.74031 13.9052C8.45407 16.0128 9.10688 17.9417 9.35267 18.5748H1.94368C2.14522 18.0286 2.62205 16.5156 3.17458 14.7556L3.17753 14.7477C4.01419 12.0859 5.02781 8.86123 5.54101 7.55654L5.54199 7.55556ZM31.1471 11.7057C31.1471 16.6785 34.0513 19.839 38.9011 19.839C40.5794 19.839 42.3913 19.5091 43.75 18.5472L43.8562 17.118C43.4305 17.5032 41.5654 18.959 39.1941 18.959C35.7305 18.959 33.3051 16.1837 33.3051 11.8153C33.3051 7.9684 35.3038 4.58864 39.3534 4.58864C41.6185 4.58864 43.2437 6.12741 43.5632 6.53926L43.7235 6.51259C43.8296 5.90815 43.9633 5.33037 44.1757 4.75457C42.6843 4.09383 41.0326 3.70963 39.434 3.70963C34.7975 3.70963 31.1471 6.59457 31.1471 11.7057ZM57.4905 19.5378H57.4787C57.2991 19.553 57.1191 19.5619 56.9389 19.5644C56.2441 17.4928 55.4708 15.4485 54.6206 13.436H49.0256L48.7247 14.2143C48.0493 15.9565 47.3739 17.6978 46.841 19.5644L46.6621 19.5486C46.4261 19.5269 46.2295 19.5091 46.0152 19.5091C45.8638 19.5091 45.7261 19.524 45.5963 19.5388H45.5895C45.4695 19.5516 45.3565 19.5644 45.2424 19.5644L52.1166 3.70963H52.6229L59.2296 19.5644C59.0271 19.5644 58.8374 19.5496 58.6515 19.5358C58.4716 19.522 58.2947 19.5091 58.1108 19.5091C57.8926 19.5091 57.6881 19.5239 57.4905 19.5378ZM67.9177 13.4499L67.9157 13.4489L67.9069 13.439L67.9059 13.437L67.9049 13.436L67.903 13.4341L67.902 13.4331L67.901 13.4311L67.899 13.4301L67.898 13.4281L67.897 13.4272L67.8951 13.4252L67.8941 13.4242L67.8931 13.4222L67.8912 13.4212L67.8902 13.4193H67.8892L67.8872 13.4173L67.8862 13.4153L67.8853 13.4143L67.8833 13.4123L67.8823 13.4114L67.8813 13.4094L67.8794 13.4084L67.8784 13.4064L67.8774 13.4054L67.8754 13.4035C67.1636 12.5936 66.4518 11.7857 65.7587 10.964L67.6758 9.01235L72.6594 4.06716C72.509 4.06716 72.3596 4.08099 72.2131 4.09481H72.2081L72.2062 4.0958H72.2003C72.0697 4.11043 71.9384 4.119 71.807 4.12148C71.5344 4.11853 71.262 4.10205 70.991 4.0721L70.9271 4.06716L65.5188 9.83704C65.4264 9.92395 65.3222 10.0247 65.2121 10.1333C64.9407 10.398 64.6301 10.7012 64.3469 10.9363C64.106 11.1289 63.8131 11.2109 63.7865 11.0736V4.06716C63.6213 4.069 63.4563 4.07823 63.292 4.09481H63.2881C63.1348 4.11055 62.981 4.11945 62.827 4.12148C62.5074 4.12148 62.1879 4.09383 61.8684 4.06716V19.5911C62.0119 19.5911 62.1683 19.5783 62.3275 19.5644H62.3285C62.4956 19.5506 62.6647 19.5368 62.827 19.5368C63.0973 19.5368 63.3913 19.5595 63.7069 19.5852L63.7865 19.5911V11.678C63.7865 11.5684 64.0529 11.6504 64.1601 11.7333L68.9559 17.5309C69.5153 18.1906 69.9951 18.877 70.4739 19.5911C70.6705 19.5911 70.8671 19.5783 71.0677 19.5644C71.2742 19.5506 71.4836 19.5368 71.6999 19.5368C72.0154 19.5368 72.331 19.5565 72.6958 19.5793L72.8993 19.5911V19.4825L71.1139 17.201C70.0914 15.917 69.0041 14.6825 67.9177 13.4499ZM81.5854 19.839C76.7355 19.839 73.8313 16.6785 73.8313 11.7057C73.8313 6.59457 77.4817 3.70963 82.1183 3.70963C83.7169 3.70963 85.3685 4.09481 86.861 4.75358C86.657 5.32452 86.5053 5.91297 86.4077 6.5116L86.2475 6.53926C85.9279 6.12741 84.3028 4.58864 82.0376 4.58864C77.9871 4.58864 75.9893 7.9684 75.9893 11.8153C75.9893 16.1847 78.4147 18.96 81.8784 18.96C84.2497 18.96 86.1147 17.5032 86.5405 17.119L86.4343 18.5472C85.0756 19.5091 83.2636 19.839 81.5854 19.839ZM89.658 6.53827C89.9775 6.12642 91.6037 4.58765 93.8678 4.58765C97.5713 4.58765 99.5966 7.39062 99.8896 10.8247H93.7882C93.4716 10.8247 93.1551 10.798 92.8346 10.7714H92.8306C92.5062 10.7427 92.1778 10.7151 91.8426 10.7151C91.8426 10.7941 91.8553 10.8869 91.8681 10.9817V10.9827C91.8819 11.0854 91.8966 11.1931 91.8966 11.2919C91.8966 11.3659 91.8858 11.4519 91.874 11.5457C91.8593 11.6602 91.8426 11.7877 91.8426 11.924C92.1591 11.924 92.4757 11.8973 92.7962 11.8706H92.7992L92.8011 11.8696H92.8129C93.1334 11.842 93.4579 11.8143 93.7882 11.8143H99.9162C99.9162 16.156 97.4917 18.959 94.0271 18.959C91.6567 18.959 89.8183 17.5022 89.365 17.118L89.4712 18.5462C90.8574 19.5081 92.6419 19.838 94.3211 19.838C99.1709 19.838 102.074 16.6775 102.074 11.7047C102.074 6.62123 98.4237 3.70864 93.7882 3.70864C92.1631 3.70864 90.5104 4.09383 89.0455 4.75259C89.2589 5.32938 89.3916 5.93383 89.4977 6.51062L89.658 6.53827ZM111.506 19.838C106.658 19.838 103.752 16.6775 103.752 11.7047C103.752 6.59358 107.404 3.70864 112.04 3.70864C113.638 3.70864 115.29 4.09383 116.782 4.75259C116.578 5.32351 116.427 5.91197 116.33 6.51062L116.169 6.53827C115.85 6.12642 114.225 4.58765 111.959 4.58765C107.91 4.58765 105.911 7.96741 105.911 11.8143C105.911 16.1837 108.336 18.959 111.8 18.959C114.171 18.959 116.036 17.5022 116.463 17.118L116.355 18.5462C114.97 19.5081 113.159 19.838 111.506 19.838ZM54.3011 12.5017H49.4522L51.8501 6.7042L54.3011 12.5017ZM131.57 4.25778H128.746V9.28593H127.999V3.57235H131.57V4.25877V4.25778ZM136.205 6.0158C136.291 5.78742 136.336 5.54576 136.339 5.30173C136.339 4.97284 136.286 4.69728 136.153 4.45037C136.046 4.22621 135.88 4.03613 135.672 3.90123C135.49 3.76586 135.281 3.67184 135.06 3.62568C134.779 3.56727 134.494 3.53978 134.207 3.5437H132.715V9.25926H133.462V7.1437H134.207C134.607 7.1437 134.927 7.11704 135.193 7.00642C135.433 6.92444 135.672 6.75951 135.859 6.56691C136.011 6.40976 136.129 6.22281 136.205 6.01778V6.0158ZM141.588 3.57136L141.576 3.59901H140.842L139.403 6.95111L137.777 3.59901H136.951L139.003 7.83012L138.87 8.13235C138.817 8.26963 138.763 8.37926 138.684 8.43457C138.61 8.49076 138.529 8.53692 138.444 8.57185L138.404 8.58568C138.344 8.60839 138.293 8.62716 138.205 8.62716H137.991C137.934 8.62716 137.876 8.61926 137.824 8.61136C137.777 8.60543 137.735 8.59951 137.697 8.59951C137.619 8.57185 137.538 8.57185 137.511 8.57185H137.458V9.25926C137.466 9.25926 137.482 9.26123 137.505 9.26519C137.553 9.27309 137.633 9.28593 137.725 9.28593C137.884 9.31358 137.991 9.31358 138.098 9.31358C138.205 9.31358 138.31 9.31358 138.444 9.28593C138.551 9.25926 138.683 9.20395 138.815 9.14963H138.817C138.95 9.06667 139.083 8.95704 139.191 8.84642C139.296 8.73679 139.403 8.57185 139.483 8.37926L141.576 3.59901H141.588V3.57136ZM146.224 9.28593H146.944V3.57235H142.707V9.28691H143.454V4.25975H146.224V9.28691V9.28593ZM153.045 9.28593H152.326V4.25877H149.555V9.28593H148.808V3.57235H153.045V9.28691V9.28593ZM135.46 4.80988C135.539 4.97481 135.567 5.13975 135.567 5.33136C135.571 5.6376 135.456 5.93329 135.246 6.15605C135.14 6.29333 134.981 6.37531 134.794 6.43062C134.607 6.48593 134.367 6.51358 134.075 6.51358H133.462V4.2321H134.182C134.421 4.2321 134.634 4.25975 134.768 4.28741C134.9 4.31506 135.06 4.37037 135.167 4.45235C135.298 4.53235 135.376 4.66667 135.455 4.8V4.80198H135.457V4.80593H135.459V4.80988H135.46ZM122.457 2.72099H122.804V0H122.324L121.658 1.51111L120.965 0H120.486V2.72H120.805V0.385185L121.525 1.97827H121.738L122.457 0.385185V2.72V2.72099ZM0.10618 23.6859H175V24H0.10618V23.6859ZM158.533 9.28691H159.306L157.335 3.57235H156.349L154.323 9.28691H155.071L155.604 7.69383H158L158.533 9.28691ZM132.476 19.839H131.542L129.304 17.2286H128.799V19.839H128.052V14.1235H128.799V16.6785C128.869 16.6785 128.932 16.6716 128.991 16.6637H128.998C129.048 16.6568 129.096 16.6519 129.145 16.6519C129.26 16.6296 129.369 16.5824 129.465 16.5136C129.571 16.4593 129.651 16.3763 129.758 16.2667C129.865 16.157 129.944 16.0198 130.024 15.8548C130.038 15.8153 130.056 15.7738 130.075 15.7343L130.077 15.7314C130.098 15.6912 130.116 15.6496 130.131 15.6069C130.157 15.5526 130.177 15.4973 130.197 15.442H130.198V15.44L130.199 15.439V15.437L130.2 15.436V15.4351C130.22 15.3827 130.238 15.3294 130.264 15.277C130.423 14.8652 130.637 14.563 130.876 14.3704C131.117 14.2054 131.437 14.1235 131.889 14.1235H132.182V14.8099H131.863C131.703 14.8099 131.57 14.8375 131.463 14.8652C131.361 14.8931 131.268 14.9504 131.197 15.0301C131.117 15.0854 131.063 15.1951 131.01 15.3047C130.956 15.4143 130.904 15.5516 130.851 15.6899C130.717 16.0198 130.584 16.2667 130.451 16.4306C130.303 16.6035 130.122 16.744 129.918 16.8435L132.476 19.839ZM138.31 15.7175C138.208 15.3743 138.036 15.0562 137.805 14.7832C137.591 14.5363 137.298 14.3437 137.032 14.1788C136.712 14.0405 136.366 13.9862 135.966 13.9862C135.567 13.9862 135.219 14.0415 134.9 14.1788C134.581 14.316 134.314 14.5086 134.1 14.7556C133.861 15.0301 133.701 15.3323 133.568 15.7175C133.435 16.1027 133.381 16.5146 133.381 16.9817C133.381 17.4479 133.462 17.8884 133.568 18.2459C133.674 18.6015 133.861 18.9323 134.075 19.1793C134.287 19.4262 134.553 19.6188 134.874 19.756C135.193 19.8943 135.539 19.9486 135.939 19.9486C136.339 19.9486 136.686 19.8933 137.005 19.756C137.298 19.6188 137.565 19.4262 137.805 19.1793C138.018 18.9323 138.177 18.6301 138.31 18.2449C138.444 17.8598 138.497 17.4479 138.497 16.9807C138.497 16.5136 138.418 16.0741 138.31 15.7165V15.7175ZM144.972 19.839H144.227V14.9205L142.68 18.2726H142.253L140.735 14.9205V19.839H140.043V14.1235H141.055L142.521 17.3106L143.959 14.1235H144.972V19.839ZM150.327 19.839H151.047V14.1235H146.81V19.839H147.556V14.8109H150.327V19.838V19.839ZM157.308 19.839H156.536L156.003 18.2449H153.604L153.072 19.839H152.326L154.351 14.1235H155.337L157.308 19.839ZM162.023 19.839H162.771V14.1235H162.023V16.3486H159.253V14.1235H158.507V19.839H159.253V17.036H162.023V19.839ZM168.845 19.839H168.126V15.277L165.382 19.839H164.635V14.1235H165.354V18.6301L168.073 14.1235H168.845V19.839ZM174.227 19.839H174.92V14.1235H174.148L171.43 18.6301V14.1235H170.711V19.839H171.456L174.227 15.277V19.839ZM174.28 12.4198C174.28 12.8316 174.148 13.1615 173.881 13.3817C173.641 13.601 173.294 13.7116 172.895 13.7116C172.468 13.7116 172.15 13.601 171.909 13.3817C171.669 13.1615 171.535 12.8593 171.51 12.4198H172.175C172.175 12.6943 172.255 12.9136 172.362 13.0519C172.468 13.1891 172.655 13.2444 172.895 13.2444C173.135 13.2444 173.294 13.1891 173.428 13.0519C173.535 12.9136 173.615 12.722 173.615 12.4198H174.28ZM156.802 4.2321L157.762 7.03407H155.816L156.802 4.23111V4.2321ZM137.725 16.9807C137.725 16.24 137.565 15.6622 137.244 15.277C136.925 14.8652 136.471 14.6726 135.913 14.6726C135.353 14.6726 134.9 14.8652 134.581 15.278C134.261 15.6899 134.1 16.239 134.1 16.9807C134.1 17.7235 134.261 18.3002 134.581 18.7121C134.9 19.1239 135.353 19.3165 135.887 19.3165C136.419 19.3165 136.873 19.1239 137.191 18.7121C137.511 18.3002 137.725 17.7501 137.725 16.9807ZM154.804 14.8099L155.763 17.6128H153.818L154.804 14.8109V14.8099Z" fill="#2057AC"/>
</svg>
