<svg width="12" height="12" viewBox="0 0 12 12" fill="none" xmlns="http://www.w3.org/2000/svg">
<path d="M11.8769 10.0837C11.1972 11.7137 9.60343 11.9993 9.08263 11.9993C8.9297 11.9993 6.54797 12.1256 3.12424 8.87721C0.368912 6.26294 0.0322461 3.45169 0.00291283 2.91755C-0.0256205 2.39729 0.123313 1.09215 1.91824 0.122438C2.14064 0.00227385 2.58157 -0.0509398 2.69544 0.062956C2.74597 0.113502 4.25251 2.5932 4.29211 2.67536C4.33171 2.75738 4.35157 2.8382 4.35157 2.91742C4.35157 3.03065 4.27091 3.17228 4.10944 3.34219C3.94811 3.5121 3.77264 3.66788 3.58291 3.80938C3.39317 3.95102 3.21771 4.10106 3.05624 4.25963C2.89491 4.41807 2.81424 4.5485 2.81424 4.6504C2.82517 4.91486 3.04184 5.86217 4.69237 7.31281C6.34317 8.76385 7.13837 9.17262 7.21477 9.20089C7.2913 9.22917 7.3549 9.24317 7.40583 9.24317C7.50783 9.24317 7.6381 9.16262 7.79663 9.00124C7.95503 8.83974 8.48796 8.10915 8.65783 7.94764C8.8277 7.7864 8.9693 7.70571 9.08263 7.70571C9.16183 7.70571 9.2425 7.72545 9.3245 7.76506C9.40663 7.80467 11.8889 9.25758 11.9364 9.30612C12.0652 9.43816 11.9742 9.85026 11.8769 10.0837Z" fill="black"/>
</svg>
